G04 EAGLE Gerber RS-274X export*
G75*
%MOMM*%
%FSLAX34Y34*%
%LPD*%
%INSoldermask Top*%
%IPPOS*%
%AMOC8*
5,1,8,0,0,1.08239X$1,22.5*%
G01*
%ADD10C,3.703200*%
%ADD11R,1.611200X1.611200*%
%ADD12R,1.733200X1.733200*%
%ADD13C,1.733200*%
%ADD14C,1.524000*%
%ADD15P,1.869504X8X22.500000*%
%ADD16C,1.993900*%
%ADD17C,1.727200*%
%ADD18R,1.383200X3.023200*%
%ADD19R,1.454200X1.454200*%
%ADD20C,1.454200*%


D10*
X38100Y609600D03*
X1181100Y609600D03*
X38100Y0D03*
X1181100Y0D03*
D11*
X577850Y25400D03*
X711200Y25400D03*
X711200Y247650D03*
X577850Y247650D03*
X603250Y247650D03*
X685800Y247650D03*
D12*
X177800Y520600D03*
D13*
X177800Y495200D03*
X177800Y469800D03*
X177800Y444400D03*
X177800Y419000D03*
X177800Y393600D03*
X177800Y368200D03*
X177800Y342800D03*
X177800Y317400D03*
X177800Y292000D03*
X177800Y266600D03*
X177800Y241200D03*
X177800Y215800D03*
X177800Y190400D03*
X177800Y165000D03*
X177800Y139600D03*
X177800Y114200D03*
X177800Y88800D03*
X177800Y63400D03*
X431800Y63400D03*
X431800Y88800D03*
X431800Y114200D03*
X431800Y139600D03*
X431800Y165000D03*
X431800Y190400D03*
X431800Y215800D03*
X431800Y241200D03*
X431800Y266600D03*
X431800Y292000D03*
X431800Y317400D03*
X431800Y342800D03*
X431800Y368200D03*
X431800Y393600D03*
X431800Y419000D03*
X431800Y444400D03*
X431800Y469800D03*
X431800Y495200D03*
X431800Y520600D03*
D14*
X120904Y38100D02*
X107696Y38100D01*
X107696Y63500D02*
X120904Y63500D01*
X120904Y88900D02*
X107696Y88900D01*
X107696Y114300D02*
X120904Y114300D01*
X120904Y139700D02*
X107696Y139700D01*
X107696Y165100D02*
X120904Y165100D01*
X120904Y190500D02*
X107696Y190500D01*
X107696Y215900D02*
X120904Y215900D01*
X120904Y241300D02*
X107696Y241300D01*
X107696Y266700D02*
X120904Y266700D01*
X120904Y292100D02*
X107696Y292100D01*
X107696Y317500D02*
X120904Y317500D01*
X120904Y342900D02*
X107696Y342900D01*
X107696Y368300D02*
X120904Y368300D01*
X120904Y393700D02*
X107696Y393700D01*
X107696Y419100D02*
X120904Y419100D01*
X120904Y444500D02*
X107696Y444500D01*
X107696Y469900D02*
X120904Y469900D01*
X120904Y495300D02*
X107696Y495300D01*
X107696Y520700D02*
X120904Y520700D01*
X488696Y38100D02*
X501904Y38100D01*
X501904Y63500D02*
X488696Y63500D01*
X488696Y88900D02*
X501904Y88900D01*
X501904Y114300D02*
X488696Y114300D01*
X488696Y139700D02*
X501904Y139700D01*
X501904Y165100D02*
X488696Y165100D01*
X488696Y190500D02*
X501904Y190500D01*
X501904Y215900D02*
X488696Y215900D01*
X488696Y241300D02*
X501904Y241300D01*
X501904Y266700D02*
X488696Y266700D01*
X488696Y292100D02*
X501904Y292100D01*
X501904Y317500D02*
X488696Y317500D01*
X488696Y342900D02*
X501904Y342900D01*
X501904Y368300D02*
X488696Y368300D01*
X488696Y393700D02*
X501904Y393700D01*
X501904Y419100D02*
X488696Y419100D01*
X488696Y444500D02*
X501904Y444500D01*
X501904Y469900D02*
X488696Y469900D01*
X488696Y495300D02*
X501904Y495300D01*
X501904Y520700D02*
X488696Y520700D01*
D15*
X177800Y38100D03*
X431800Y38100D03*
D16*
X825100Y562547D02*
X825100Y580454D01*
X775100Y580454D02*
X775100Y562547D01*
X914800Y562547D02*
X914800Y580454D01*
X964800Y580454D02*
X964800Y562547D01*
D17*
X845820Y38100D02*
X830580Y38100D01*
X830580Y63500D02*
X845820Y63500D01*
X845820Y88900D02*
X830580Y88900D01*
X830580Y114300D02*
X845820Y114300D01*
X845820Y139700D02*
X830580Y139700D01*
X830580Y165100D02*
X845820Y165100D01*
X782320Y38100D02*
X767080Y38100D01*
X767080Y63500D02*
X782320Y63500D01*
X782320Y88900D02*
X767080Y88900D01*
X767080Y114300D02*
X782320Y114300D01*
X782320Y139700D02*
X767080Y139700D01*
X767080Y165100D02*
X782320Y165100D01*
X609600Y411480D02*
X609600Y426720D01*
X635000Y426720D02*
X635000Y411480D01*
X660400Y411480D02*
X660400Y426720D01*
X894080Y38100D02*
X909320Y38100D01*
X909320Y63500D02*
X894080Y63500D01*
X894080Y88900D02*
X909320Y88900D01*
X909320Y114300D02*
X894080Y114300D01*
X894080Y139700D02*
X909320Y139700D01*
X909320Y165100D02*
X894080Y165100D01*
D18*
X887500Y406400D03*
X915900Y406400D03*
D19*
X1054100Y393700D03*
D20*
X1079500Y393700D03*
X1104900Y393700D03*
X1104900Y506200D03*
X1079500Y506200D03*
X1054100Y506200D03*
D19*
X1054100Y76200D03*
D20*
X1079500Y76200D03*
X1104900Y76200D03*
X1104900Y188700D03*
X1079500Y188700D03*
X1054100Y188700D03*
M02*
