G04 EAGLE Gerber RS-274X export*
G75*
%MOMM*%
%FSLAX34Y34*%
%LPD*%
%INTop Copper*%
%IPPOS*%
%AMOC8*
5,1,8,0,0,1.08239X$1,22.5*%
G01*
%ADD10R,1.408000X1.408000*%
%ADD11R,1.530000X1.530000*%
%ADD12C,1.530000*%
%ADD13C,1.320800*%
%ADD14P,1.649562X8X22.500000*%
%ADD15C,1.790700*%
%ADD16C,1.524000*%
%ADD17R,1.180000X2.820000*%
%ADD18R,1.251000X1.251000*%
%ADD19C,1.251000*%
%ADD20C,0.508000*%
%ADD21C,0.609600*%

G36*
X1162988Y-27924D02*
X1162988Y-27924D01*
X1163177Y-27916D01*
X1163233Y-27904D01*
X1163290Y-27899D01*
X1163475Y-27854D01*
X1163660Y-27815D01*
X1163714Y-27794D01*
X1163769Y-27781D01*
X1163944Y-27706D01*
X1164121Y-27637D01*
X1164170Y-27609D01*
X1164222Y-27586D01*
X1164382Y-27484D01*
X1164546Y-27388D01*
X1164590Y-27352D01*
X1164638Y-27321D01*
X1164780Y-27194D01*
X1164926Y-27073D01*
X1164964Y-27030D01*
X1165006Y-26992D01*
X1165126Y-26844D01*
X1165250Y-26701D01*
X1165280Y-26653D01*
X1165316Y-26608D01*
X1165410Y-26444D01*
X1165510Y-26282D01*
X1165532Y-26229D01*
X1165560Y-26180D01*
X1165626Y-26001D01*
X1165699Y-25826D01*
X1165712Y-25771D01*
X1165732Y-25717D01*
X1165768Y-25531D01*
X1165812Y-25346D01*
X1165816Y-25289D01*
X1165826Y-25233D01*
X1165832Y-25043D01*
X1165845Y-24854D01*
X1165840Y-24797D01*
X1165842Y-24740D01*
X1165817Y-24552D01*
X1165799Y-24362D01*
X1165785Y-24307D01*
X1165777Y-24251D01*
X1165722Y-24069D01*
X1165674Y-23885D01*
X1165651Y-23833D01*
X1165635Y-23779D01*
X1165551Y-23608D01*
X1165474Y-23434D01*
X1165443Y-23386D01*
X1165418Y-23335D01*
X1165308Y-23181D01*
X1165204Y-23022D01*
X1165165Y-22979D01*
X1165132Y-22933D01*
X1164999Y-22798D01*
X1164871Y-22658D01*
X1164834Y-22631D01*
X1164786Y-22582D01*
X1164387Y-22292D01*
X1164347Y-22271D01*
X1164322Y-22253D01*
X1164116Y-22134D01*
X1158966Y-16984D01*
X1155324Y-10677D01*
X1153439Y-3642D01*
X1153439Y3642D01*
X1155324Y10677D01*
X1158966Y16984D01*
X1164116Y22134D01*
X1170423Y25776D01*
X1177458Y27661D01*
X1184742Y27661D01*
X1191777Y25776D01*
X1198084Y22134D01*
X1203456Y16762D01*
X1203485Y16737D01*
X1203511Y16709D01*
X1203673Y16578D01*
X1203832Y16442D01*
X1203865Y16423D01*
X1203895Y16399D01*
X1204076Y16296D01*
X1204255Y16188D01*
X1204290Y16174D01*
X1204323Y16155D01*
X1204519Y16082D01*
X1204713Y16005D01*
X1204750Y15996D01*
X1204786Y15983D01*
X1204991Y15943D01*
X1205195Y15898D01*
X1205233Y15896D01*
X1205270Y15889D01*
X1205478Y15882D01*
X1205687Y15870D01*
X1205725Y15874D01*
X1205763Y15873D01*
X1205970Y15900D01*
X1206178Y15923D01*
X1206214Y15933D01*
X1206252Y15938D01*
X1206452Y15998D01*
X1206653Y16053D01*
X1206688Y16069D01*
X1206725Y16080D01*
X1206912Y16172D01*
X1207102Y16259D01*
X1207134Y16280D01*
X1207168Y16297D01*
X1207337Y16417D01*
X1207511Y16534D01*
X1207539Y16560D01*
X1207570Y16582D01*
X1207718Y16729D01*
X1207871Y16872D01*
X1207894Y16902D01*
X1207921Y16929D01*
X1208044Y17098D01*
X1208171Y17264D01*
X1208189Y17297D01*
X1208211Y17328D01*
X1208305Y17514D01*
X1208404Y17698D01*
X1208417Y17734D01*
X1208434Y17768D01*
X1208496Y17967D01*
X1208564Y18165D01*
X1208570Y18202D01*
X1208582Y18239D01*
X1208592Y18331D01*
X1208647Y18651D01*
X1208648Y18823D01*
X1208658Y18917D01*
X1208658Y590683D01*
X1208655Y590721D01*
X1208657Y590759D01*
X1208654Y590791D01*
X1208654Y590805D01*
X1208644Y590881D01*
X1208635Y590967D01*
X1208618Y591175D01*
X1208609Y591212D01*
X1208605Y591250D01*
X1208550Y591451D01*
X1208500Y591654D01*
X1208485Y591689D01*
X1208474Y591726D01*
X1208387Y591916D01*
X1208305Y592107D01*
X1208285Y592139D01*
X1208269Y592174D01*
X1208152Y592348D01*
X1208040Y592523D01*
X1208015Y592552D01*
X1207993Y592583D01*
X1207850Y592735D01*
X1207711Y592891D01*
X1207682Y592915D01*
X1207656Y592943D01*
X1207490Y593070D01*
X1207327Y593201D01*
X1207294Y593220D01*
X1207264Y593243D01*
X1207080Y593342D01*
X1206899Y593445D01*
X1206863Y593458D01*
X1206829Y593476D01*
X1206632Y593544D01*
X1206436Y593617D01*
X1206399Y593624D01*
X1206363Y593636D01*
X1206156Y593672D01*
X1205952Y593711D01*
X1205914Y593713D01*
X1205876Y593719D01*
X1205667Y593720D01*
X1205459Y593727D01*
X1205421Y593722D01*
X1205383Y593722D01*
X1205176Y593690D01*
X1204970Y593662D01*
X1204933Y593651D01*
X1204896Y593645D01*
X1204697Y593580D01*
X1204498Y593520D01*
X1204463Y593503D01*
X1204427Y593491D01*
X1204242Y593395D01*
X1204054Y593303D01*
X1204023Y593281D01*
X1203989Y593263D01*
X1203917Y593205D01*
X1203760Y593094D01*
X1203740Y593082D01*
X1203732Y593074D01*
X1203652Y593018D01*
X1203530Y592897D01*
X1203456Y592838D01*
X1198084Y587466D01*
X1191777Y583824D01*
X1184742Y581939D01*
X1177458Y581939D01*
X1170423Y583824D01*
X1164116Y587466D01*
X1158966Y592616D01*
X1155324Y598923D01*
X1153439Y605958D01*
X1153439Y613242D01*
X1155324Y620277D01*
X1158966Y626584D01*
X1164338Y631956D01*
X1164363Y631985D01*
X1164391Y632011D01*
X1164522Y632173D01*
X1164658Y632332D01*
X1164677Y632365D01*
X1164701Y632395D01*
X1164804Y632576D01*
X1164912Y632755D01*
X1164926Y632790D01*
X1164945Y632823D01*
X1165018Y633019D01*
X1165095Y633213D01*
X1165104Y633250D01*
X1165117Y633286D01*
X1165157Y633491D01*
X1165202Y633695D01*
X1165204Y633733D01*
X1165211Y633770D01*
X1165218Y633978D01*
X1165230Y634187D01*
X1165226Y634225D01*
X1165227Y634263D01*
X1165200Y634470D01*
X1165177Y634678D01*
X1165167Y634714D01*
X1165162Y634752D01*
X1165102Y634952D01*
X1165047Y635153D01*
X1165031Y635188D01*
X1165020Y635225D01*
X1164928Y635412D01*
X1164841Y635602D01*
X1164820Y635634D01*
X1164803Y635668D01*
X1164683Y635837D01*
X1164566Y636011D01*
X1164540Y636039D01*
X1164518Y636070D01*
X1164371Y636218D01*
X1164228Y636371D01*
X1164198Y636394D01*
X1164171Y636421D01*
X1164002Y636544D01*
X1163836Y636671D01*
X1163803Y636689D01*
X1163772Y636711D01*
X1163586Y636805D01*
X1163402Y636904D01*
X1163366Y636917D01*
X1163332Y636934D01*
X1163133Y636996D01*
X1162935Y637064D01*
X1162898Y637070D01*
X1162861Y637082D01*
X1162769Y637092D01*
X1162449Y637147D01*
X1162277Y637148D01*
X1162183Y637158D01*
X57017Y637158D01*
X56979Y637155D01*
X56941Y637157D01*
X56733Y637135D01*
X56525Y637118D01*
X56488Y637109D01*
X56450Y637105D01*
X56249Y637050D01*
X56046Y637000D01*
X56011Y636985D01*
X55974Y636974D01*
X55784Y636887D01*
X55593Y636805D01*
X55561Y636785D01*
X55526Y636769D01*
X55352Y636652D01*
X55177Y636540D01*
X55148Y636515D01*
X55117Y636493D01*
X54965Y636350D01*
X54809Y636211D01*
X54785Y636182D01*
X54757Y636156D01*
X54630Y635990D01*
X54499Y635827D01*
X54480Y635794D01*
X54457Y635764D01*
X54358Y635580D01*
X54255Y635399D01*
X54242Y635363D01*
X54224Y635329D01*
X54156Y635132D01*
X54083Y634936D01*
X54076Y634899D01*
X54064Y634863D01*
X54028Y634656D01*
X53989Y634452D01*
X53987Y634414D01*
X53981Y634376D01*
X53980Y634167D01*
X53973Y633959D01*
X53978Y633921D01*
X53978Y633883D01*
X54010Y633676D01*
X54038Y633470D01*
X54049Y633433D01*
X54055Y633396D01*
X54120Y633197D01*
X54180Y632998D01*
X54197Y632963D01*
X54209Y632927D01*
X54305Y632742D01*
X54397Y632554D01*
X54419Y632523D01*
X54437Y632489D01*
X54495Y632417D01*
X54682Y632152D01*
X54803Y632030D01*
X54862Y631956D01*
X60234Y626584D01*
X63876Y620277D01*
X65761Y613242D01*
X65761Y605958D01*
X63876Y598923D01*
X60234Y592616D01*
X55084Y587466D01*
X48777Y583824D01*
X41742Y581939D01*
X34458Y581939D01*
X27423Y583824D01*
X21116Y587466D01*
X15966Y592616D01*
X15847Y592822D01*
X15739Y592978D01*
X15637Y593138D01*
X15599Y593181D01*
X15567Y593228D01*
X15435Y593365D01*
X15308Y593506D01*
X15264Y593542D01*
X15224Y593583D01*
X15072Y593697D01*
X14924Y593816D01*
X14875Y593844D01*
X14829Y593878D01*
X14660Y593966D01*
X14496Y594060D01*
X14442Y594080D01*
X14392Y594106D01*
X14211Y594166D01*
X14033Y594232D01*
X13977Y594243D01*
X13923Y594260D01*
X13735Y594290D01*
X13549Y594326D01*
X13492Y594328D01*
X13436Y594337D01*
X13245Y594336D01*
X13056Y594342D01*
X12999Y594334D01*
X12942Y594334D01*
X12755Y594302D01*
X12567Y594277D01*
X12512Y594261D01*
X12456Y594251D01*
X12276Y594190D01*
X12094Y594135D01*
X12043Y594110D01*
X11989Y594091D01*
X11822Y594002D01*
X11651Y593918D01*
X11605Y593885D01*
X11555Y593858D01*
X11404Y593743D01*
X11249Y593632D01*
X11208Y593592D01*
X11163Y593558D01*
X11033Y593419D01*
X10898Y593286D01*
X10865Y593240D01*
X10826Y593198D01*
X10719Y593040D01*
X10608Y592887D01*
X10582Y592836D01*
X10550Y592789D01*
X10471Y592616D01*
X10385Y592447D01*
X10368Y592392D01*
X10344Y592340D01*
X10294Y592157D01*
X10237Y591976D01*
X10232Y591931D01*
X10214Y591865D01*
X10162Y591374D01*
X10164Y591329D01*
X10161Y591298D01*
X10161Y18302D01*
X10176Y18112D01*
X10184Y17923D01*
X10196Y17867D01*
X10201Y17810D01*
X10246Y17625D01*
X10285Y17440D01*
X10306Y17386D01*
X10319Y17331D01*
X10394Y17156D01*
X10463Y16979D01*
X10491Y16930D01*
X10514Y16878D01*
X10616Y16718D01*
X10712Y16554D01*
X10748Y16510D01*
X10779Y16462D01*
X10906Y16320D01*
X11027Y16174D01*
X11070Y16136D01*
X11108Y16094D01*
X11256Y15974D01*
X11399Y15850D01*
X11447Y15820D01*
X11492Y15784D01*
X11656Y15690D01*
X11818Y15590D01*
X11871Y15568D01*
X11920Y15540D01*
X12099Y15474D01*
X12274Y15401D01*
X12329Y15388D01*
X12383Y15368D01*
X12569Y15332D01*
X12754Y15288D01*
X12811Y15284D01*
X12867Y15274D01*
X13057Y15268D01*
X13246Y15255D01*
X13303Y15260D01*
X13360Y15258D01*
X13548Y15283D01*
X13738Y15301D01*
X13793Y15315D01*
X13849Y15323D01*
X14031Y15378D01*
X14215Y15426D01*
X14267Y15449D01*
X14321Y15465D01*
X14492Y15549D01*
X14666Y15626D01*
X14714Y15657D01*
X14765Y15682D01*
X14919Y15792D01*
X15078Y15896D01*
X15121Y15935D01*
X15167Y15968D01*
X15302Y16101D01*
X15442Y16229D01*
X15469Y16266D01*
X15518Y16314D01*
X15808Y16713D01*
X15829Y16753D01*
X15847Y16778D01*
X15966Y16984D01*
X21116Y22134D01*
X27423Y25776D01*
X34458Y27661D01*
X41742Y27661D01*
X48777Y25776D01*
X55084Y22134D01*
X60234Y16984D01*
X63876Y10677D01*
X65761Y3642D01*
X65761Y-3642D01*
X63876Y-10677D01*
X60234Y-16984D01*
X55084Y-22134D01*
X54878Y-22253D01*
X54722Y-22361D01*
X54562Y-22463D01*
X54519Y-22501D01*
X54472Y-22533D01*
X54335Y-22665D01*
X54194Y-22792D01*
X54158Y-22836D01*
X54117Y-22876D01*
X54003Y-23028D01*
X53884Y-23176D01*
X53856Y-23225D01*
X53822Y-23271D01*
X53734Y-23440D01*
X53640Y-23604D01*
X53620Y-23658D01*
X53594Y-23708D01*
X53534Y-23889D01*
X53468Y-24067D01*
X53457Y-24123D01*
X53440Y-24177D01*
X53410Y-24365D01*
X53374Y-24551D01*
X53372Y-24608D01*
X53363Y-24664D01*
X53364Y-24855D01*
X53358Y-25044D01*
X53366Y-25101D01*
X53366Y-25158D01*
X53398Y-25345D01*
X53423Y-25533D01*
X53439Y-25588D01*
X53449Y-25644D01*
X53510Y-25824D01*
X53565Y-26006D01*
X53590Y-26057D01*
X53609Y-26111D01*
X53698Y-26278D01*
X53782Y-26449D01*
X53815Y-26495D01*
X53842Y-26545D01*
X53957Y-26696D01*
X54068Y-26851D01*
X54108Y-26892D01*
X54142Y-26937D01*
X54281Y-27067D01*
X54414Y-27202D01*
X54460Y-27235D01*
X54502Y-27274D01*
X54660Y-27381D01*
X54813Y-27492D01*
X54864Y-27518D01*
X54911Y-27550D01*
X55084Y-27629D01*
X55253Y-27715D01*
X55308Y-27732D01*
X55360Y-27756D01*
X55543Y-27806D01*
X55724Y-27863D01*
X55769Y-27868D01*
X55835Y-27886D01*
X56326Y-27938D01*
X56371Y-27936D01*
X56402Y-27939D01*
X1162798Y-27939D01*
X1162988Y-27924D01*
G37*
%LPC*%
G36*
X367390Y-17273D02*
X367390Y-17273D01*
X365710Y-16577D01*
X264538Y84595D01*
X262823Y86310D01*
X262127Y87990D01*
X262127Y161944D01*
X262118Y162057D01*
X262119Y162172D01*
X262098Y162303D01*
X262087Y162435D01*
X262060Y162546D01*
X262042Y162659D01*
X262001Y162785D01*
X261969Y162914D01*
X261924Y163019D01*
X261888Y163128D01*
X261826Y163246D01*
X261774Y163368D01*
X261713Y163464D01*
X261660Y163565D01*
X261601Y163639D01*
X261509Y163784D01*
X261293Y164026D01*
X261235Y164098D01*
X240398Y184935D01*
X240311Y185009D01*
X240231Y185090D01*
X240124Y185168D01*
X240022Y185254D01*
X239925Y185313D01*
X239832Y185380D01*
X239714Y185440D01*
X239600Y185509D01*
X239494Y185551D01*
X239392Y185603D01*
X239265Y185643D01*
X239142Y185692D01*
X239031Y185717D01*
X238921Y185751D01*
X238828Y185761D01*
X238660Y185799D01*
X238336Y185817D01*
X238244Y185827D01*
X187465Y185827D01*
X187351Y185818D01*
X187237Y185819D01*
X187105Y185798D01*
X186973Y185787D01*
X186862Y185760D01*
X186749Y185742D01*
X186623Y185701D01*
X186494Y185669D01*
X186389Y185624D01*
X186281Y185588D01*
X186163Y185526D01*
X186041Y185474D01*
X185944Y185413D01*
X185843Y185360D01*
X185769Y185301D01*
X185625Y185209D01*
X185382Y184993D01*
X185310Y184935D01*
X182997Y182622D01*
X179625Y181225D01*
X175975Y181225D01*
X172603Y182622D01*
X169682Y185543D01*
X169595Y185617D01*
X169515Y185698D01*
X169408Y185776D01*
X169306Y185862D01*
X169208Y185921D01*
X169116Y185988D01*
X168998Y186048D01*
X168884Y186117D01*
X168778Y186159D01*
X168676Y186211D01*
X168549Y186251D01*
X168426Y186300D01*
X168314Y186325D01*
X168205Y186359D01*
X168112Y186369D01*
X167944Y186407D01*
X167620Y186425D01*
X167527Y186435D01*
X129597Y186435D01*
X129484Y186426D01*
X129369Y186427D01*
X129238Y186406D01*
X129106Y186395D01*
X128995Y186368D01*
X128882Y186350D01*
X128756Y186309D01*
X128627Y186277D01*
X128522Y186232D01*
X128413Y186196D01*
X128295Y186134D01*
X128173Y186082D01*
X128077Y186021D01*
X127976Y185968D01*
X127902Y185909D01*
X127757Y185817D01*
X127515Y185601D01*
X127443Y185543D01*
X125509Y183609D01*
X122521Y182371D01*
X106079Y182371D01*
X103091Y183609D01*
X100805Y185895D01*
X99567Y188883D01*
X99567Y192117D01*
X100805Y195105D01*
X103091Y197391D01*
X106079Y198629D01*
X122521Y198629D01*
X125509Y197391D01*
X127443Y195457D01*
X127529Y195383D01*
X127610Y195302D01*
X127717Y195224D01*
X127818Y195138D01*
X127916Y195079D01*
X128009Y195012D01*
X128127Y194952D01*
X128241Y194883D01*
X128347Y194841D01*
X128449Y194789D01*
X128576Y194749D01*
X128699Y194700D01*
X128810Y194675D01*
X128920Y194641D01*
X129013Y194631D01*
X129181Y194593D01*
X129505Y194575D01*
X129597Y194565D01*
X167727Y194565D01*
X167841Y194574D01*
X167955Y194573D01*
X168087Y194594D01*
X168219Y194605D01*
X168330Y194632D01*
X168443Y194650D01*
X168569Y194691D01*
X168698Y194723D01*
X168803Y194768D01*
X168911Y194804D01*
X169029Y194866D01*
X169151Y194918D01*
X169248Y194979D01*
X169349Y195032D01*
X169423Y195091D01*
X169567Y195183D01*
X169810Y195399D01*
X169882Y195457D01*
X172603Y198178D01*
X175975Y199575D01*
X179625Y199575D01*
X182997Y198178D01*
X185310Y195865D01*
X185397Y195791D01*
X185477Y195710D01*
X185584Y195632D01*
X185686Y195546D01*
X185784Y195487D01*
X185876Y195420D01*
X185994Y195360D01*
X186108Y195291D01*
X186214Y195249D01*
X186316Y195197D01*
X186443Y195157D01*
X186566Y195108D01*
X186678Y195083D01*
X186787Y195049D01*
X186880Y195039D01*
X187048Y195001D01*
X187372Y194983D01*
X187465Y194973D01*
X242310Y194973D01*
X243990Y194277D01*
X270577Y167690D01*
X271273Y166010D01*
X271273Y92056D01*
X271282Y91943D01*
X271281Y91828D01*
X271302Y91697D01*
X271313Y91565D01*
X271340Y91454D01*
X271358Y91341D01*
X271399Y91215D01*
X271431Y91086D01*
X271476Y90981D01*
X271512Y90872D01*
X271574Y90754D01*
X271626Y90632D01*
X271687Y90536D01*
X271740Y90435D01*
X271799Y90361D01*
X271891Y90216D01*
X272107Y89974D01*
X272165Y89902D01*
X369302Y-7235D01*
X369389Y-7309D01*
X369469Y-7390D01*
X369576Y-7468D01*
X369678Y-7554D01*
X369775Y-7613D01*
X369868Y-7680D01*
X369986Y-7740D01*
X370100Y-7809D01*
X370206Y-7851D01*
X370308Y-7903D01*
X370435Y-7943D01*
X370558Y-7992D01*
X370669Y-8017D01*
X370779Y-8051D01*
X370872Y-8061D01*
X371040Y-8099D01*
X371364Y-8117D01*
X371456Y-8127D01*
X936644Y-8127D01*
X936757Y-8118D01*
X936872Y-8119D01*
X937003Y-8098D01*
X937135Y-8087D01*
X937246Y-8060D01*
X937359Y-8042D01*
X937485Y-8001D01*
X937614Y-7969D01*
X937719Y-7924D01*
X937828Y-7888D01*
X937946Y-7826D01*
X938068Y-7774D01*
X938164Y-7713D01*
X938265Y-7660D01*
X938339Y-7601D01*
X938484Y-7509D01*
X938726Y-7293D01*
X938798Y-7235D01*
X972435Y26402D01*
X972509Y26489D01*
X972590Y26569D01*
X972668Y26676D01*
X972754Y26777D01*
X972813Y26875D01*
X972880Y26968D01*
X972940Y27086D01*
X973009Y27200D01*
X973051Y27306D01*
X973103Y27408D01*
X973143Y27535D01*
X973192Y27658D01*
X973217Y27769D01*
X973251Y27879D01*
X973261Y27972D01*
X973299Y28140D01*
X973317Y28464D01*
X973327Y28556D01*
X973327Y102510D01*
X974023Y104190D01*
X988010Y118177D01*
X989690Y118873D01*
X1016910Y118873D01*
X1018590Y118177D01*
X1051895Y84872D01*
X1051982Y84798D01*
X1052062Y84717D01*
X1052169Y84639D01*
X1052271Y84553D01*
X1052368Y84494D01*
X1052461Y84427D01*
X1052579Y84367D01*
X1052693Y84298D01*
X1052799Y84256D01*
X1052901Y84204D01*
X1053028Y84164D01*
X1053151Y84115D01*
X1053262Y84090D01*
X1053372Y84056D01*
X1053465Y84046D01*
X1053633Y84008D01*
X1053957Y83990D01*
X1054049Y83980D01*
X1060987Y83980D01*
X1061880Y83087D01*
X1061880Y69313D01*
X1060854Y68287D01*
X1060749Y68262D01*
X1060680Y68232D01*
X1060606Y68210D01*
X1060453Y68134D01*
X1060296Y68067D01*
X1060232Y68026D01*
X1060163Y67993D01*
X1060024Y67894D01*
X1059880Y67802D01*
X1059823Y67751D01*
X1059761Y67707D01*
X1059640Y67587D01*
X1059512Y67473D01*
X1059464Y67414D01*
X1059410Y67360D01*
X1059309Y67222D01*
X1059202Y67089D01*
X1059165Y67023D01*
X1059120Y66962D01*
X1059043Y66809D01*
X1058958Y66661D01*
X1058932Y66589D01*
X1058897Y66521D01*
X1058846Y66358D01*
X1058787Y66198D01*
X1058772Y66123D01*
X1058749Y66051D01*
X1058737Y65946D01*
X1058692Y65714D01*
X1058685Y65478D01*
X1058673Y65373D01*
X1058673Y53956D01*
X1058682Y53843D01*
X1058681Y53728D01*
X1058702Y53597D01*
X1058713Y53465D01*
X1058740Y53354D01*
X1058758Y53241D01*
X1058799Y53115D01*
X1058831Y52986D01*
X1058876Y52881D01*
X1058912Y52772D01*
X1058974Y52654D01*
X1059026Y52532D01*
X1059087Y52436D01*
X1059140Y52335D01*
X1059199Y52261D01*
X1059291Y52116D01*
X1059507Y51874D01*
X1059565Y51802D01*
X1067802Y43565D01*
X1067889Y43491D01*
X1067969Y43410D01*
X1068076Y43332D01*
X1068178Y43246D01*
X1068275Y43187D01*
X1068368Y43120D01*
X1068486Y43060D01*
X1068600Y42991D01*
X1068706Y42949D01*
X1068808Y42897D01*
X1068935Y42857D01*
X1069058Y42808D01*
X1069169Y42783D01*
X1069279Y42749D01*
X1069372Y42739D01*
X1069540Y42701D01*
X1069864Y42683D01*
X1069956Y42673D01*
X1152544Y42673D01*
X1152657Y42682D01*
X1152772Y42681D01*
X1152903Y42702D01*
X1153035Y42713D01*
X1153146Y42740D01*
X1153259Y42758D01*
X1153385Y42799D01*
X1153514Y42831D01*
X1153619Y42876D01*
X1153728Y42912D01*
X1153846Y42974D01*
X1153968Y43026D01*
X1154064Y43087D01*
X1154165Y43140D01*
X1154239Y43199D01*
X1154384Y43291D01*
X1154626Y43507D01*
X1154698Y43565D01*
X1162935Y51802D01*
X1163009Y51889D01*
X1163090Y51969D01*
X1163168Y52076D01*
X1163254Y52178D01*
X1163313Y52275D01*
X1163380Y52368D01*
X1163440Y52486D01*
X1163509Y52600D01*
X1163551Y52706D01*
X1163603Y52808D01*
X1163643Y52935D01*
X1163692Y53058D01*
X1163717Y53169D01*
X1163751Y53279D01*
X1163761Y53372D01*
X1163799Y53540D01*
X1163817Y53864D01*
X1163827Y53956D01*
X1163827Y276244D01*
X1163818Y276357D01*
X1163819Y276472D01*
X1163798Y276603D01*
X1163787Y276735D01*
X1163760Y276846D01*
X1163742Y276959D01*
X1163701Y277085D01*
X1163669Y277214D01*
X1163624Y277319D01*
X1163588Y277428D01*
X1163526Y277546D01*
X1163474Y277668D01*
X1163413Y277764D01*
X1163360Y277865D01*
X1163301Y277939D01*
X1163209Y278084D01*
X1162993Y278326D01*
X1162935Y278398D01*
X1056305Y385028D01*
X1056218Y385102D01*
X1056138Y385183D01*
X1056031Y385261D01*
X1055929Y385347D01*
X1055832Y385406D01*
X1055739Y385473D01*
X1055621Y385533D01*
X1055507Y385602D01*
X1055401Y385644D01*
X1055299Y385696D01*
X1055172Y385736D01*
X1055049Y385785D01*
X1054938Y385810D01*
X1054828Y385844D01*
X1054735Y385854D01*
X1054567Y385892D01*
X1054243Y385910D01*
X1054151Y385920D01*
X1047213Y385920D01*
X1046320Y386813D01*
X1046320Y400587D01*
X1047213Y401480D01*
X1060987Y401480D01*
X1061880Y400587D01*
X1061880Y393649D01*
X1061889Y393536D01*
X1061888Y393421D01*
X1061909Y393290D01*
X1061920Y393158D01*
X1061947Y393047D01*
X1061965Y392934D01*
X1062006Y392808D01*
X1062038Y392679D01*
X1062083Y392574D01*
X1062119Y392465D01*
X1062181Y392347D01*
X1062233Y392225D01*
X1062294Y392129D01*
X1062347Y392028D01*
X1062406Y391954D01*
X1062498Y391809D01*
X1062714Y391567D01*
X1062772Y391495D01*
X1067680Y386587D01*
X1067789Y386495D01*
X1067891Y386395D01*
X1067977Y386335D01*
X1068056Y386267D01*
X1068178Y386194D01*
X1068295Y386112D01*
X1068389Y386067D01*
X1068479Y386013D01*
X1068611Y385960D01*
X1068739Y385898D01*
X1068840Y385868D01*
X1068937Y385830D01*
X1069076Y385799D01*
X1069213Y385758D01*
X1069316Y385745D01*
X1069418Y385723D01*
X1069561Y385715D01*
X1069702Y385697D01*
X1069806Y385701D01*
X1069911Y385695D01*
X1070053Y385710D01*
X1070195Y385716D01*
X1070298Y385736D01*
X1070402Y385747D01*
X1070539Y385785D01*
X1070679Y385813D01*
X1070776Y385850D01*
X1070877Y385878D01*
X1071007Y385937D01*
X1071140Y385988D01*
X1071231Y386040D01*
X1071326Y386084D01*
X1071444Y386163D01*
X1071567Y386235D01*
X1071648Y386301D01*
X1071735Y386359D01*
X1071839Y386457D01*
X1071949Y386547D01*
X1072018Y386625D01*
X1072094Y386697D01*
X1072181Y386810D01*
X1072276Y386917D01*
X1072331Y387005D01*
X1072395Y387088D01*
X1072462Y387214D01*
X1072538Y387335D01*
X1072579Y387431D01*
X1072628Y387523D01*
X1072674Y387658D01*
X1072730Y387789D01*
X1072754Y387891D01*
X1072788Y387990D01*
X1072812Y388130D01*
X1072845Y388269D01*
X1072853Y388373D01*
X1072871Y388476D01*
X1072871Y388619D01*
X1072882Y388761D01*
X1072873Y388865D01*
X1072874Y388969D01*
X1072851Y389110D01*
X1072839Y389252D01*
X1072817Y389328D01*
X1072797Y389457D01*
X1072661Y389869D01*
X1072650Y389908D01*
X1071720Y392153D01*
X1071720Y395248D01*
X1072905Y398107D01*
X1075093Y400295D01*
X1077952Y401480D01*
X1081048Y401480D01*
X1083907Y400295D01*
X1086095Y398107D01*
X1087280Y395248D01*
X1087280Y392152D01*
X1086095Y389293D01*
X1083907Y387105D01*
X1081048Y385920D01*
X1077953Y385920D01*
X1075708Y386850D01*
X1075572Y386894D01*
X1075440Y386947D01*
X1075338Y386969D01*
X1075238Y387001D01*
X1075097Y387023D01*
X1074958Y387054D01*
X1074854Y387059D01*
X1074750Y387075D01*
X1074608Y387073D01*
X1074465Y387081D01*
X1074361Y387070D01*
X1074257Y387069D01*
X1074117Y387044D01*
X1073975Y387029D01*
X1073874Y387001D01*
X1073771Y386983D01*
X1073637Y386936D01*
X1073499Y386898D01*
X1073404Y386855D01*
X1073305Y386820D01*
X1073180Y386752D01*
X1073051Y386693D01*
X1072964Y386634D01*
X1072872Y386584D01*
X1072759Y386497D01*
X1072641Y386417D01*
X1072565Y386346D01*
X1072483Y386281D01*
X1072386Y386177D01*
X1072282Y386079D01*
X1072218Y385996D01*
X1072147Y385920D01*
X1072068Y385801D01*
X1071982Y385688D01*
X1071932Y385596D01*
X1071874Y385509D01*
X1071816Y385379D01*
X1071748Y385253D01*
X1071714Y385154D01*
X1071671Y385059D01*
X1071635Y384922D01*
X1071588Y384787D01*
X1071571Y384683D01*
X1071544Y384583D01*
X1071530Y384441D01*
X1071506Y384300D01*
X1071505Y384196D01*
X1071495Y384092D01*
X1071504Y383950D01*
X1071503Y383807D01*
X1071519Y383704D01*
X1071525Y383599D01*
X1071557Y383460D01*
X1071579Y383320D01*
X1071612Y383220D01*
X1071635Y383118D01*
X1071689Y382986D01*
X1071734Y382851D01*
X1071782Y382758D01*
X1071821Y382661D01*
X1071896Y382540D01*
X1071961Y382413D01*
X1072010Y382352D01*
X1072079Y382240D01*
X1072362Y381911D01*
X1072387Y381880D01*
X1172277Y281990D01*
X1172973Y280310D01*
X1172973Y49890D01*
X1172277Y48210D01*
X1158290Y34223D01*
X1156610Y33527D01*
X1065890Y33527D01*
X1064210Y34223D01*
X1050223Y48210D01*
X1049527Y49890D01*
X1049527Y65373D01*
X1049521Y65449D01*
X1049523Y65525D01*
X1049501Y65694D01*
X1049487Y65865D01*
X1049469Y65939D01*
X1049459Y66014D01*
X1049410Y66178D01*
X1049369Y66344D01*
X1049339Y66413D01*
X1049317Y66487D01*
X1049241Y66640D01*
X1049174Y66797D01*
X1049133Y66861D01*
X1049100Y66930D01*
X1049001Y67069D01*
X1048909Y67213D01*
X1048858Y67270D01*
X1048814Y67332D01*
X1048694Y67453D01*
X1048580Y67581D01*
X1048521Y67629D01*
X1048467Y67683D01*
X1048329Y67784D01*
X1048196Y67891D01*
X1048130Y67928D01*
X1048069Y67973D01*
X1047916Y68050D01*
X1047768Y68135D01*
X1047696Y68161D01*
X1047628Y68196D01*
X1047465Y68247D01*
X1047340Y68293D01*
X1046320Y69313D01*
X1046320Y76251D01*
X1046311Y76364D01*
X1046312Y76479D01*
X1046291Y76610D01*
X1046280Y76742D01*
X1046253Y76853D01*
X1046235Y76966D01*
X1046194Y77092D01*
X1046162Y77221D01*
X1046117Y77326D01*
X1046081Y77435D01*
X1046019Y77553D01*
X1045967Y77675D01*
X1045906Y77771D01*
X1045853Y77872D01*
X1045794Y77946D01*
X1045702Y78091D01*
X1045486Y78333D01*
X1045428Y78405D01*
X1014998Y108835D01*
X1014911Y108909D01*
X1014831Y108990D01*
X1014724Y109068D01*
X1014622Y109154D01*
X1014525Y109213D01*
X1014432Y109280D01*
X1014314Y109340D01*
X1014200Y109409D01*
X1014094Y109451D01*
X1013992Y109503D01*
X1013865Y109543D01*
X1013742Y109592D01*
X1013631Y109617D01*
X1013521Y109651D01*
X1013428Y109661D01*
X1013260Y109699D01*
X1012936Y109717D01*
X1012844Y109727D01*
X993756Y109727D01*
X993643Y109718D01*
X993528Y109719D01*
X993397Y109698D01*
X993265Y109687D01*
X993154Y109660D01*
X993041Y109642D01*
X992915Y109601D01*
X992786Y109569D01*
X992681Y109524D01*
X992572Y109488D01*
X992454Y109426D01*
X992332Y109374D01*
X992236Y109313D01*
X992135Y109260D01*
X992061Y109201D01*
X991916Y109109D01*
X991674Y108893D01*
X991602Y108835D01*
X983365Y100598D01*
X983291Y100511D01*
X983210Y100431D01*
X983132Y100324D01*
X983046Y100222D01*
X982987Y100125D01*
X982920Y100032D01*
X982860Y99914D01*
X982791Y99800D01*
X982749Y99694D01*
X982697Y99592D01*
X982657Y99465D01*
X982608Y99342D01*
X982583Y99231D01*
X982549Y99121D01*
X982539Y99028D01*
X982501Y98860D01*
X982483Y98536D01*
X982473Y98444D01*
X982473Y24490D01*
X981777Y22810D01*
X980062Y21095D01*
X942390Y-16577D01*
X940710Y-17273D01*
X367390Y-17273D01*
G37*
%LPD*%
%LPC*%
G36*
X892261Y28955D02*
X892261Y28955D01*
X888900Y30347D01*
X886327Y32920D01*
X884935Y36281D01*
X884935Y39919D01*
X886327Y43280D01*
X888900Y45853D01*
X892261Y47245D01*
X894080Y47245D01*
X894156Y47251D01*
X894232Y47249D01*
X894401Y47271D01*
X894572Y47285D01*
X894646Y47303D01*
X894721Y47313D01*
X894885Y47362D01*
X895051Y47403D01*
X895120Y47433D01*
X895194Y47455D01*
X895347Y47531D01*
X895504Y47598D01*
X895568Y47639D01*
X895637Y47672D01*
X895776Y47771D01*
X895920Y47863D01*
X895977Y47914D01*
X896039Y47958D01*
X896160Y48078D01*
X896288Y48192D01*
X896336Y48251D01*
X896390Y48305D01*
X896491Y48443D01*
X896598Y48576D01*
X896635Y48642D01*
X896680Y48703D01*
X896757Y48856D01*
X896842Y49004D01*
X896868Y49076D01*
X896903Y49144D01*
X896954Y49307D01*
X897013Y49467D01*
X897028Y49542D01*
X897051Y49614D01*
X897063Y49719D01*
X897108Y49951D01*
X897115Y50187D01*
X897127Y50292D01*
X897127Y51308D01*
X897122Y51379D01*
X897123Y51441D01*
X897123Y51445D01*
X897123Y51460D01*
X897101Y51629D01*
X897087Y51800D01*
X897069Y51874D01*
X897059Y51949D01*
X897010Y52113D01*
X896969Y52279D01*
X896939Y52348D01*
X896917Y52422D01*
X896841Y52575D01*
X896774Y52732D01*
X896733Y52796D01*
X896700Y52865D01*
X896601Y53004D01*
X896509Y53148D01*
X896458Y53205D01*
X896414Y53267D01*
X896294Y53388D01*
X896180Y53516D01*
X896121Y53564D01*
X896067Y53618D01*
X895929Y53719D01*
X895796Y53826D01*
X895730Y53863D01*
X895669Y53908D01*
X895516Y53985D01*
X895368Y54070D01*
X895296Y54096D01*
X895228Y54131D01*
X895065Y54182D01*
X894905Y54241D01*
X894830Y54256D01*
X894758Y54279D01*
X894653Y54291D01*
X894421Y54336D01*
X894185Y54343D01*
X894080Y54355D01*
X892261Y54355D01*
X888900Y55747D01*
X886327Y58320D01*
X884935Y61681D01*
X884935Y65319D01*
X886327Y68680D01*
X888900Y71253D01*
X892261Y72645D01*
X894080Y72645D01*
X894156Y72651D01*
X894232Y72649D01*
X894401Y72671D01*
X894572Y72685D01*
X894646Y72703D01*
X894721Y72713D01*
X894885Y72762D01*
X895051Y72803D01*
X895120Y72833D01*
X895194Y72855D01*
X895347Y72931D01*
X895504Y72998D01*
X895568Y73039D01*
X895637Y73072D01*
X895776Y73171D01*
X895920Y73263D01*
X895977Y73314D01*
X896039Y73358D01*
X896160Y73478D01*
X896288Y73592D01*
X896336Y73651D01*
X896390Y73705D01*
X896491Y73843D01*
X896598Y73976D01*
X896635Y74042D01*
X896680Y74103D01*
X896757Y74256D01*
X896842Y74404D01*
X896868Y74476D01*
X896903Y74544D01*
X896954Y74707D01*
X897013Y74867D01*
X897028Y74942D01*
X897051Y75014D01*
X897063Y75119D01*
X897108Y75351D01*
X897115Y75587D01*
X897127Y75692D01*
X897127Y76708D01*
X897121Y76784D01*
X897123Y76860D01*
X897101Y77029D01*
X897087Y77200D01*
X897069Y77274D01*
X897059Y77349D01*
X897010Y77513D01*
X896969Y77679D01*
X896939Y77748D01*
X896917Y77822D01*
X896841Y77975D01*
X896774Y78132D01*
X896733Y78196D01*
X896700Y78265D01*
X896601Y78404D01*
X896509Y78548D01*
X896458Y78605D01*
X896414Y78667D01*
X896294Y78788D01*
X896180Y78916D01*
X896121Y78964D01*
X896067Y79018D01*
X895929Y79119D01*
X895796Y79226D01*
X895730Y79263D01*
X895669Y79308D01*
X895516Y79385D01*
X895368Y79470D01*
X895296Y79496D01*
X895228Y79531D01*
X895065Y79582D01*
X894905Y79641D01*
X894830Y79656D01*
X894758Y79679D01*
X894653Y79691D01*
X894421Y79736D01*
X894185Y79743D01*
X894080Y79755D01*
X892261Y79755D01*
X888900Y81147D01*
X886327Y83720D01*
X884935Y87081D01*
X884935Y90719D01*
X886327Y94080D01*
X888900Y96653D01*
X892261Y98045D01*
X894080Y98045D01*
X894156Y98051D01*
X894232Y98049D01*
X894401Y98071D01*
X894572Y98085D01*
X894646Y98103D01*
X894721Y98113D01*
X894885Y98162D01*
X895051Y98203D01*
X895120Y98233D01*
X895194Y98255D01*
X895347Y98331D01*
X895504Y98398D01*
X895568Y98439D01*
X895637Y98472D01*
X895776Y98571D01*
X895920Y98663D01*
X895977Y98714D01*
X896039Y98758D01*
X896160Y98878D01*
X896288Y98992D01*
X896336Y99051D01*
X896390Y99105D01*
X896491Y99243D01*
X896598Y99376D01*
X896635Y99442D01*
X896680Y99503D01*
X896757Y99656D01*
X896842Y99804D01*
X896868Y99876D01*
X896903Y99944D01*
X896954Y100107D01*
X897013Y100267D01*
X897028Y100342D01*
X897051Y100414D01*
X897063Y100519D01*
X897108Y100751D01*
X897115Y100987D01*
X897127Y101092D01*
X897127Y102108D01*
X897121Y102184D01*
X897123Y102260D01*
X897101Y102429D01*
X897087Y102600D01*
X897069Y102674D01*
X897059Y102749D01*
X897010Y102913D01*
X896969Y103079D01*
X896939Y103148D01*
X896917Y103222D01*
X896841Y103375D01*
X896774Y103532D01*
X896733Y103596D01*
X896700Y103665D01*
X896601Y103804D01*
X896509Y103948D01*
X896458Y104005D01*
X896414Y104067D01*
X896294Y104188D01*
X896180Y104316D01*
X896121Y104364D01*
X896067Y104418D01*
X895929Y104519D01*
X895796Y104626D01*
X895730Y104663D01*
X895669Y104708D01*
X895516Y104785D01*
X895368Y104870D01*
X895296Y104896D01*
X895228Y104931D01*
X895065Y104982D01*
X894905Y105041D01*
X894830Y105056D01*
X894758Y105079D01*
X894653Y105091D01*
X894421Y105136D01*
X894185Y105143D01*
X894080Y105155D01*
X892261Y105155D01*
X888900Y106547D01*
X886327Y109120D01*
X884935Y112481D01*
X884935Y116119D01*
X886327Y119480D01*
X888900Y122053D01*
X892261Y123445D01*
X894080Y123445D01*
X894156Y123451D01*
X894232Y123449D01*
X894401Y123471D01*
X894572Y123485D01*
X894646Y123503D01*
X894721Y123513D01*
X894885Y123562D01*
X895051Y123603D01*
X895120Y123633D01*
X895194Y123655D01*
X895347Y123731D01*
X895504Y123798D01*
X895568Y123839D01*
X895637Y123872D01*
X895776Y123971D01*
X895920Y124063D01*
X895977Y124114D01*
X896039Y124158D01*
X896160Y124278D01*
X896288Y124392D01*
X896336Y124451D01*
X896390Y124505D01*
X896491Y124643D01*
X896598Y124776D01*
X896635Y124842D01*
X896680Y124903D01*
X896757Y125056D01*
X896842Y125204D01*
X896868Y125276D01*
X896903Y125344D01*
X896954Y125507D01*
X897013Y125667D01*
X897028Y125742D01*
X897051Y125814D01*
X897063Y125919D01*
X897108Y126151D01*
X897115Y126387D01*
X897127Y126492D01*
X897127Y127508D01*
X897122Y127574D01*
X897123Y127623D01*
X897123Y127630D01*
X897123Y127660D01*
X897101Y127829D01*
X897087Y128000D01*
X897069Y128074D01*
X897059Y128149D01*
X897010Y128313D01*
X896969Y128479D01*
X896939Y128548D01*
X896917Y128622D01*
X896841Y128775D01*
X896774Y128932D01*
X896733Y128996D01*
X896700Y129065D01*
X896601Y129204D01*
X896509Y129348D01*
X896458Y129405D01*
X896414Y129467D01*
X896294Y129588D01*
X896180Y129716D01*
X896121Y129764D01*
X896067Y129818D01*
X895929Y129919D01*
X895796Y130026D01*
X895730Y130063D01*
X895669Y130108D01*
X895516Y130185D01*
X895368Y130270D01*
X895296Y130296D01*
X895228Y130331D01*
X895065Y130382D01*
X894905Y130441D01*
X894830Y130456D01*
X894758Y130479D01*
X894653Y130491D01*
X894421Y130536D01*
X894185Y130543D01*
X894080Y130555D01*
X892261Y130555D01*
X888900Y131947D01*
X886327Y134520D01*
X884935Y137881D01*
X884935Y141519D01*
X886327Y144880D01*
X888900Y147453D01*
X892261Y148845D01*
X894080Y148845D01*
X894156Y148851D01*
X894232Y148849D01*
X894401Y148871D01*
X894572Y148885D01*
X894646Y148903D01*
X894721Y148913D01*
X894885Y148962D01*
X895051Y149003D01*
X895120Y149033D01*
X895194Y149055D01*
X895347Y149131D01*
X895504Y149198D01*
X895568Y149239D01*
X895637Y149272D01*
X895776Y149371D01*
X895920Y149463D01*
X895977Y149514D01*
X896039Y149558D01*
X896160Y149678D01*
X896288Y149792D01*
X896336Y149851D01*
X896390Y149905D01*
X896491Y150043D01*
X896598Y150176D01*
X896635Y150242D01*
X896680Y150303D01*
X896757Y150456D01*
X896842Y150604D01*
X896868Y150676D01*
X896903Y150744D01*
X896954Y150907D01*
X897013Y151067D01*
X897028Y151142D01*
X897051Y151214D01*
X897063Y151319D01*
X897108Y151551D01*
X897115Y151787D01*
X897127Y151892D01*
X897127Y152908D01*
X897121Y152984D01*
X897123Y153060D01*
X897101Y153229D01*
X897087Y153400D01*
X897069Y153474D01*
X897059Y153549D01*
X897010Y153713D01*
X896969Y153879D01*
X896939Y153948D01*
X896917Y154022D01*
X896841Y154175D01*
X896774Y154332D01*
X896733Y154396D01*
X896700Y154465D01*
X896601Y154604D01*
X896509Y154748D01*
X896458Y154805D01*
X896414Y154867D01*
X896294Y154988D01*
X896180Y155116D01*
X896121Y155164D01*
X896067Y155218D01*
X895929Y155319D01*
X895796Y155426D01*
X895730Y155463D01*
X895669Y155508D01*
X895516Y155585D01*
X895368Y155670D01*
X895296Y155696D01*
X895228Y155731D01*
X895065Y155782D01*
X894905Y155841D01*
X894830Y155856D01*
X894758Y155879D01*
X894653Y155891D01*
X894421Y155936D01*
X894185Y155943D01*
X894080Y155955D01*
X892261Y155955D01*
X888900Y157347D01*
X886327Y159920D01*
X884935Y163281D01*
X884935Y166919D01*
X886327Y170280D01*
X888900Y172853D01*
X892261Y174245D01*
X894080Y174245D01*
X894156Y174251D01*
X894232Y174249D01*
X894401Y174271D01*
X894572Y174285D01*
X894646Y174303D01*
X894721Y174313D01*
X894885Y174362D01*
X895051Y174403D01*
X895120Y174433D01*
X895194Y174455D01*
X895347Y174531D01*
X895504Y174598D01*
X895568Y174639D01*
X895637Y174672D01*
X895776Y174771D01*
X895920Y174863D01*
X895977Y174914D01*
X896039Y174958D01*
X896160Y175078D01*
X896288Y175192D01*
X896336Y175251D01*
X896390Y175305D01*
X896491Y175443D01*
X896598Y175576D01*
X896635Y175642D01*
X896680Y175703D01*
X896757Y175856D01*
X896842Y176004D01*
X896868Y176076D01*
X896903Y176144D01*
X896954Y176307D01*
X897013Y176467D01*
X897028Y176542D01*
X897051Y176614D01*
X897063Y176719D01*
X897108Y176951D01*
X897115Y177187D01*
X897127Y177292D01*
X897127Y327044D01*
X897118Y327157D01*
X897119Y327272D01*
X897098Y327403D01*
X897087Y327535D01*
X897060Y327646D01*
X897042Y327759D01*
X897001Y327885D01*
X896969Y328014D01*
X896924Y328119D01*
X896888Y328228D01*
X896826Y328346D01*
X896774Y328468D01*
X896713Y328564D01*
X896660Y328665D01*
X896601Y328739D01*
X896509Y328884D01*
X896293Y329126D01*
X896235Y329198D01*
X672098Y553335D01*
X672011Y553409D01*
X671931Y553490D01*
X671824Y553568D01*
X671722Y553654D01*
X671625Y553713D01*
X671532Y553780D01*
X671414Y553840D01*
X671300Y553909D01*
X671194Y553951D01*
X671092Y554003D01*
X670965Y554043D01*
X670842Y554092D01*
X670731Y554117D01*
X670621Y554151D01*
X670528Y554161D01*
X670360Y554199D01*
X670036Y554217D01*
X669944Y554227D01*
X219156Y554227D01*
X219043Y554218D01*
X218928Y554219D01*
X218797Y554198D01*
X218665Y554187D01*
X218554Y554160D01*
X218441Y554142D01*
X218315Y554101D01*
X218186Y554069D01*
X218081Y554024D01*
X217972Y553988D01*
X217854Y553926D01*
X217732Y553874D01*
X217636Y553813D01*
X217535Y553760D01*
X217461Y553701D01*
X217316Y553609D01*
X217074Y553393D01*
X217002Y553335D01*
X187867Y524200D01*
X187793Y524113D01*
X187712Y524033D01*
X187634Y523926D01*
X187548Y523824D01*
X187489Y523727D01*
X187422Y523634D01*
X187362Y523516D01*
X187293Y523402D01*
X187251Y523296D01*
X187199Y523194D01*
X187159Y523067D01*
X187110Y522944D01*
X187085Y522833D01*
X187051Y522723D01*
X187041Y522630D01*
X187003Y522462D01*
X186985Y522138D01*
X186975Y522046D01*
X186975Y512318D01*
X186082Y511425D01*
X169518Y511425D01*
X168625Y512318D01*
X168625Y513588D01*
X168619Y513664D01*
X168621Y513740D01*
X168599Y513909D01*
X168585Y514080D01*
X168567Y514154D01*
X168557Y514229D01*
X168508Y514393D01*
X168467Y514559D01*
X168437Y514628D01*
X168415Y514702D01*
X168339Y514855D01*
X168272Y515012D01*
X168231Y515076D01*
X168198Y515145D01*
X168099Y515284D01*
X168007Y515428D01*
X167956Y515485D01*
X167912Y515547D01*
X167792Y515668D01*
X167678Y515796D01*
X167619Y515844D01*
X167565Y515898D01*
X167427Y515999D01*
X167294Y516106D01*
X167228Y516143D01*
X167167Y516188D01*
X167014Y516265D01*
X166866Y516350D01*
X166794Y516376D01*
X166726Y516411D01*
X166563Y516462D01*
X166403Y516521D01*
X166328Y516536D01*
X166256Y516559D01*
X166151Y516571D01*
X165919Y516616D01*
X165683Y516623D01*
X165578Y516635D01*
X129597Y516635D01*
X129484Y516626D01*
X129369Y516627D01*
X129238Y516606D01*
X129106Y516595D01*
X128995Y516568D01*
X128882Y516550D01*
X128756Y516509D01*
X128627Y516477D01*
X128522Y516432D01*
X128413Y516396D01*
X128295Y516334D01*
X128173Y516282D01*
X128077Y516221D01*
X127976Y516168D01*
X127902Y516109D01*
X127757Y516017D01*
X127515Y515801D01*
X127442Y515743D01*
X125509Y513809D01*
X122521Y512571D01*
X106079Y512571D01*
X103091Y513809D01*
X100805Y516095D01*
X99567Y519083D01*
X99567Y522317D01*
X100805Y525305D01*
X103091Y527591D01*
X106079Y528829D01*
X122521Y528829D01*
X125509Y527591D01*
X127442Y525657D01*
X127530Y525583D01*
X127610Y525502D01*
X127717Y525424D01*
X127818Y525338D01*
X127916Y525279D01*
X128009Y525212D01*
X128127Y525152D01*
X128241Y525083D01*
X128347Y525041D01*
X128449Y524989D01*
X128576Y524949D01*
X128699Y524900D01*
X128810Y524875D01*
X128919Y524841D01*
X129013Y524831D01*
X129181Y524793D01*
X129505Y524775D01*
X129597Y524765D01*
X165578Y524765D01*
X165654Y524771D01*
X165730Y524769D01*
X165899Y524791D01*
X166070Y524805D01*
X166144Y524823D01*
X166219Y524833D01*
X166383Y524882D01*
X166549Y524923D01*
X166618Y524953D01*
X166692Y524975D01*
X166845Y525051D01*
X167002Y525118D01*
X167066Y525159D01*
X167135Y525192D01*
X167274Y525291D01*
X167418Y525383D01*
X167475Y525434D01*
X167537Y525478D01*
X167658Y525598D01*
X167786Y525712D01*
X167834Y525771D01*
X167888Y525825D01*
X167989Y525963D01*
X168096Y526096D01*
X168133Y526162D01*
X168178Y526223D01*
X168255Y526376D01*
X168340Y526524D01*
X168366Y526596D01*
X168401Y526664D01*
X168452Y526827D01*
X168511Y526987D01*
X168526Y527062D01*
X168549Y527134D01*
X168561Y527239D01*
X168606Y527471D01*
X168613Y527707D01*
X168625Y527812D01*
X168625Y528882D01*
X169518Y529775D01*
X179246Y529775D01*
X179359Y529784D01*
X179474Y529783D01*
X179605Y529804D01*
X179737Y529815D01*
X179848Y529842D01*
X179961Y529860D01*
X180087Y529901D01*
X180216Y529933D01*
X180321Y529978D01*
X180430Y530014D01*
X180548Y530076D01*
X180670Y530128D01*
X180766Y530189D01*
X180867Y530242D01*
X180941Y530301D01*
X181086Y530393D01*
X181328Y530609D01*
X181400Y530667D01*
X213410Y562677D01*
X215090Y563373D01*
X674010Y563373D01*
X675690Y562677D01*
X905577Y332790D01*
X906273Y331110D01*
X906273Y177292D01*
X906279Y177216D01*
X906277Y177140D01*
X906299Y176971D01*
X906313Y176800D01*
X906331Y176726D01*
X906341Y176651D01*
X906390Y176487D01*
X906431Y176321D01*
X906461Y176252D01*
X906483Y176178D01*
X906559Y176025D01*
X906626Y175868D01*
X906667Y175804D01*
X906700Y175735D01*
X906799Y175596D01*
X906891Y175452D01*
X906942Y175395D01*
X906986Y175333D01*
X907106Y175212D01*
X907220Y175084D01*
X907279Y175036D01*
X907333Y174982D01*
X907471Y174881D01*
X907604Y174774D01*
X907670Y174737D01*
X907731Y174692D01*
X907884Y174615D01*
X908032Y174530D01*
X908104Y174504D01*
X908172Y174469D01*
X908335Y174418D01*
X908495Y174359D01*
X908570Y174344D01*
X908642Y174321D01*
X908747Y174309D01*
X908979Y174264D01*
X909215Y174257D01*
X909320Y174245D01*
X911139Y174245D01*
X914500Y172853D01*
X917073Y170280D01*
X918465Y166919D01*
X918465Y163281D01*
X917073Y159920D01*
X914500Y157347D01*
X911139Y155955D01*
X909320Y155955D01*
X909244Y155949D01*
X909168Y155951D01*
X908999Y155929D01*
X908828Y155915D01*
X908754Y155897D01*
X908679Y155887D01*
X908515Y155838D01*
X908349Y155797D01*
X908280Y155767D01*
X908206Y155745D01*
X908053Y155669D01*
X907896Y155602D01*
X907832Y155561D01*
X907763Y155528D01*
X907624Y155429D01*
X907480Y155337D01*
X907423Y155286D01*
X907361Y155242D01*
X907240Y155122D01*
X907112Y155008D01*
X907064Y154949D01*
X907010Y154895D01*
X906909Y154757D01*
X906802Y154624D01*
X906765Y154558D01*
X906720Y154497D01*
X906643Y154344D01*
X906558Y154196D01*
X906532Y154124D01*
X906497Y154056D01*
X906446Y153893D01*
X906387Y153733D01*
X906372Y153658D01*
X906349Y153586D01*
X906337Y153481D01*
X906292Y153249D01*
X906285Y153013D01*
X906273Y152908D01*
X906273Y151892D01*
X906279Y151816D01*
X906277Y151740D01*
X906299Y151571D01*
X906313Y151400D01*
X906331Y151326D01*
X906341Y151251D01*
X906390Y151087D01*
X906431Y150921D01*
X906461Y150852D01*
X906483Y150778D01*
X906559Y150625D01*
X906626Y150468D01*
X906667Y150404D01*
X906700Y150335D01*
X906799Y150196D01*
X906891Y150052D01*
X906942Y149995D01*
X906986Y149933D01*
X907106Y149812D01*
X907220Y149684D01*
X907279Y149636D01*
X907333Y149582D01*
X907471Y149481D01*
X907604Y149374D01*
X907670Y149337D01*
X907731Y149292D01*
X907884Y149215D01*
X908032Y149130D01*
X908104Y149104D01*
X908172Y149069D01*
X908335Y149018D01*
X908495Y148959D01*
X908570Y148944D01*
X908642Y148921D01*
X908747Y148909D01*
X908979Y148864D01*
X909215Y148857D01*
X909320Y148845D01*
X911139Y148845D01*
X914500Y147453D01*
X917073Y144880D01*
X918465Y141519D01*
X918465Y137881D01*
X917073Y134520D01*
X914500Y131947D01*
X911139Y130555D01*
X909320Y130555D01*
X909244Y130549D01*
X909168Y130551D01*
X908999Y130529D01*
X908828Y130515D01*
X908754Y130497D01*
X908679Y130487D01*
X908515Y130438D01*
X908349Y130397D01*
X908280Y130367D01*
X908206Y130345D01*
X908053Y130269D01*
X907896Y130202D01*
X907832Y130161D01*
X907763Y130128D01*
X907624Y130029D01*
X907480Y129937D01*
X907423Y129886D01*
X907361Y129842D01*
X907240Y129722D01*
X907112Y129608D01*
X907064Y129549D01*
X907010Y129495D01*
X906909Y129357D01*
X906802Y129224D01*
X906765Y129158D01*
X906720Y129097D01*
X906643Y128944D01*
X906558Y128796D01*
X906532Y128724D01*
X906497Y128656D01*
X906446Y128493D01*
X906387Y128333D01*
X906372Y128258D01*
X906349Y128186D01*
X906337Y128081D01*
X906292Y127849D01*
X906285Y127613D01*
X906273Y127508D01*
X906273Y126492D01*
X906279Y126416D01*
X906277Y126340D01*
X906299Y126171D01*
X906313Y126000D01*
X906331Y125926D01*
X906341Y125851D01*
X906390Y125687D01*
X906431Y125521D01*
X906461Y125452D01*
X906483Y125378D01*
X906559Y125225D01*
X906626Y125068D01*
X906667Y125004D01*
X906700Y124935D01*
X906799Y124796D01*
X906891Y124652D01*
X906942Y124595D01*
X906986Y124533D01*
X907106Y124412D01*
X907220Y124284D01*
X907279Y124236D01*
X907333Y124182D01*
X907471Y124081D01*
X907604Y123974D01*
X907670Y123937D01*
X907731Y123892D01*
X907884Y123815D01*
X908032Y123730D01*
X908104Y123704D01*
X908172Y123669D01*
X908335Y123618D01*
X908495Y123559D01*
X908570Y123544D01*
X908642Y123521D01*
X908747Y123509D01*
X908979Y123464D01*
X909215Y123457D01*
X909320Y123445D01*
X911139Y123445D01*
X914500Y122053D01*
X917073Y119480D01*
X918465Y116119D01*
X918465Y112481D01*
X917073Y109120D01*
X914500Y106547D01*
X911139Y105155D01*
X909320Y105155D01*
X909244Y105149D01*
X909168Y105151D01*
X908999Y105129D01*
X908828Y105115D01*
X908754Y105097D01*
X908679Y105087D01*
X908515Y105038D01*
X908349Y104997D01*
X908280Y104967D01*
X908206Y104945D01*
X908053Y104869D01*
X907896Y104802D01*
X907832Y104761D01*
X907763Y104728D01*
X907624Y104629D01*
X907480Y104537D01*
X907423Y104486D01*
X907361Y104442D01*
X907240Y104322D01*
X907112Y104208D01*
X907064Y104149D01*
X907010Y104095D01*
X906909Y103957D01*
X906802Y103824D01*
X906765Y103758D01*
X906720Y103697D01*
X906643Y103544D01*
X906558Y103396D01*
X906532Y103324D01*
X906497Y103256D01*
X906446Y103093D01*
X906387Y102933D01*
X906372Y102858D01*
X906349Y102786D01*
X906337Y102681D01*
X906292Y102449D01*
X906285Y102213D01*
X906273Y102108D01*
X906273Y101092D01*
X906279Y101016D01*
X906277Y100940D01*
X906299Y100771D01*
X906313Y100600D01*
X906331Y100526D01*
X906341Y100451D01*
X906390Y100287D01*
X906431Y100121D01*
X906461Y100052D01*
X906483Y99978D01*
X906559Y99825D01*
X906626Y99668D01*
X906667Y99604D01*
X906700Y99535D01*
X906799Y99396D01*
X906891Y99252D01*
X906942Y99195D01*
X906986Y99133D01*
X907106Y99012D01*
X907220Y98884D01*
X907279Y98836D01*
X907333Y98782D01*
X907471Y98681D01*
X907604Y98574D01*
X907670Y98537D01*
X907731Y98492D01*
X907884Y98415D01*
X908032Y98330D01*
X908104Y98304D01*
X908172Y98269D01*
X908335Y98218D01*
X908495Y98159D01*
X908570Y98144D01*
X908642Y98121D01*
X908747Y98109D01*
X908979Y98064D01*
X909215Y98057D01*
X909320Y98045D01*
X911139Y98045D01*
X914500Y96653D01*
X917073Y94080D01*
X918465Y90719D01*
X918465Y87081D01*
X917073Y83720D01*
X914500Y81147D01*
X911139Y79755D01*
X909320Y79755D01*
X909244Y79749D01*
X909168Y79751D01*
X908999Y79729D01*
X908828Y79715D01*
X908754Y79697D01*
X908679Y79687D01*
X908515Y79638D01*
X908349Y79597D01*
X908280Y79567D01*
X908206Y79545D01*
X908053Y79469D01*
X907896Y79402D01*
X907832Y79361D01*
X907763Y79328D01*
X907624Y79229D01*
X907480Y79137D01*
X907423Y79086D01*
X907361Y79042D01*
X907240Y78922D01*
X907112Y78808D01*
X907064Y78749D01*
X907010Y78695D01*
X906909Y78557D01*
X906802Y78424D01*
X906765Y78358D01*
X906720Y78297D01*
X906643Y78144D01*
X906558Y77996D01*
X906532Y77924D01*
X906497Y77856D01*
X906446Y77693D01*
X906387Y77533D01*
X906372Y77458D01*
X906349Y77386D01*
X906337Y77281D01*
X906292Y77049D01*
X906285Y76813D01*
X906273Y76708D01*
X906273Y75692D01*
X906279Y75616D01*
X906277Y75540D01*
X906299Y75371D01*
X906313Y75200D01*
X906331Y75126D01*
X906341Y75051D01*
X906390Y74887D01*
X906431Y74721D01*
X906461Y74652D01*
X906483Y74578D01*
X906559Y74425D01*
X906626Y74268D01*
X906667Y74204D01*
X906700Y74135D01*
X906799Y73996D01*
X906891Y73852D01*
X906942Y73795D01*
X906986Y73733D01*
X907106Y73612D01*
X907220Y73484D01*
X907279Y73436D01*
X907333Y73382D01*
X907471Y73281D01*
X907604Y73174D01*
X907670Y73137D01*
X907731Y73092D01*
X907884Y73015D01*
X908032Y72930D01*
X908104Y72904D01*
X908172Y72869D01*
X908335Y72818D01*
X908495Y72759D01*
X908570Y72744D01*
X908642Y72721D01*
X908747Y72709D01*
X908979Y72664D01*
X909215Y72657D01*
X909320Y72645D01*
X911139Y72645D01*
X914500Y71253D01*
X917073Y68680D01*
X918465Y65319D01*
X918465Y61681D01*
X917073Y58320D01*
X914500Y55747D01*
X911139Y54355D01*
X909320Y54355D01*
X909244Y54349D01*
X909168Y54351D01*
X908999Y54329D01*
X908828Y54315D01*
X908754Y54297D01*
X908679Y54287D01*
X908515Y54238D01*
X908349Y54197D01*
X908280Y54167D01*
X908206Y54145D01*
X908053Y54069D01*
X907896Y54002D01*
X907832Y53961D01*
X907763Y53928D01*
X907624Y53829D01*
X907480Y53737D01*
X907423Y53686D01*
X907361Y53642D01*
X907240Y53522D01*
X907112Y53408D01*
X907064Y53349D01*
X907010Y53295D01*
X906909Y53157D01*
X906802Y53024D01*
X906765Y52958D01*
X906720Y52897D01*
X906643Y52744D01*
X906558Y52596D01*
X906532Y52524D01*
X906497Y52456D01*
X906446Y52293D01*
X906387Y52133D01*
X906372Y52058D01*
X906349Y51986D01*
X906337Y51881D01*
X906292Y51649D01*
X906285Y51413D01*
X906273Y51308D01*
X906273Y50292D01*
X906279Y50216D01*
X906277Y50140D01*
X906299Y49971D01*
X906313Y49800D01*
X906331Y49726D01*
X906341Y49651D01*
X906390Y49487D01*
X906431Y49321D01*
X906461Y49252D01*
X906483Y49178D01*
X906559Y49025D01*
X906626Y48868D01*
X906667Y48804D01*
X906700Y48735D01*
X906799Y48596D01*
X906891Y48452D01*
X906942Y48395D01*
X906986Y48333D01*
X907106Y48212D01*
X907220Y48084D01*
X907279Y48036D01*
X907333Y47982D01*
X907471Y47881D01*
X907604Y47774D01*
X907670Y47737D01*
X907731Y47692D01*
X907884Y47615D01*
X908032Y47530D01*
X908104Y47504D01*
X908172Y47469D01*
X908335Y47418D01*
X908495Y47359D01*
X908570Y47344D01*
X908642Y47321D01*
X908747Y47309D01*
X908979Y47264D01*
X909215Y47257D01*
X909320Y47245D01*
X911139Y47245D01*
X914500Y45853D01*
X917073Y43280D01*
X918465Y39919D01*
X918465Y36281D01*
X917073Y32920D01*
X914500Y30347D01*
X911139Y28955D01*
X892261Y28955D01*
G37*
%LPD*%
%LPC*%
G36*
X828761Y28955D02*
X828761Y28955D01*
X825400Y30347D01*
X822827Y32920D01*
X821435Y36281D01*
X821435Y39919D01*
X822827Y43280D01*
X825400Y45853D01*
X828761Y47245D01*
X830580Y47245D01*
X830656Y47251D01*
X830732Y47249D01*
X830901Y47271D01*
X831072Y47285D01*
X831146Y47303D01*
X831221Y47313D01*
X831385Y47362D01*
X831551Y47403D01*
X831620Y47433D01*
X831694Y47455D01*
X831847Y47531D01*
X832004Y47598D01*
X832068Y47639D01*
X832137Y47672D01*
X832276Y47771D01*
X832420Y47863D01*
X832477Y47914D01*
X832539Y47958D01*
X832660Y48078D01*
X832788Y48192D01*
X832836Y48251D01*
X832890Y48305D01*
X832991Y48443D01*
X833098Y48576D01*
X833135Y48642D01*
X833180Y48703D01*
X833257Y48856D01*
X833342Y49004D01*
X833368Y49076D01*
X833403Y49144D01*
X833454Y49307D01*
X833513Y49467D01*
X833528Y49542D01*
X833551Y49614D01*
X833563Y49719D01*
X833608Y49951D01*
X833615Y50187D01*
X833627Y50292D01*
X833627Y51308D01*
X833622Y51379D01*
X833623Y51441D01*
X833623Y51445D01*
X833623Y51460D01*
X833601Y51629D01*
X833587Y51800D01*
X833569Y51874D01*
X833559Y51949D01*
X833510Y52113D01*
X833469Y52279D01*
X833439Y52348D01*
X833417Y52422D01*
X833341Y52575D01*
X833274Y52732D01*
X833233Y52796D01*
X833200Y52865D01*
X833101Y53004D01*
X833009Y53148D01*
X832958Y53205D01*
X832914Y53267D01*
X832794Y53388D01*
X832680Y53516D01*
X832621Y53564D01*
X832567Y53618D01*
X832429Y53719D01*
X832296Y53826D01*
X832230Y53863D01*
X832169Y53908D01*
X832016Y53985D01*
X831868Y54070D01*
X831796Y54096D01*
X831728Y54131D01*
X831565Y54182D01*
X831405Y54241D01*
X831330Y54256D01*
X831258Y54279D01*
X831153Y54291D01*
X830921Y54336D01*
X830685Y54343D01*
X830580Y54355D01*
X828761Y54355D01*
X825400Y55747D01*
X822827Y58320D01*
X821435Y61681D01*
X821435Y65319D01*
X822827Y68680D01*
X825400Y71253D01*
X828761Y72645D01*
X830580Y72645D01*
X830656Y72651D01*
X830732Y72649D01*
X830901Y72671D01*
X831072Y72685D01*
X831146Y72703D01*
X831221Y72713D01*
X831385Y72762D01*
X831551Y72803D01*
X831620Y72833D01*
X831694Y72855D01*
X831847Y72931D01*
X832004Y72998D01*
X832068Y73039D01*
X832137Y73072D01*
X832276Y73171D01*
X832420Y73263D01*
X832477Y73314D01*
X832539Y73358D01*
X832660Y73478D01*
X832788Y73592D01*
X832836Y73651D01*
X832890Y73705D01*
X832991Y73843D01*
X833098Y73976D01*
X833135Y74042D01*
X833180Y74103D01*
X833257Y74256D01*
X833342Y74404D01*
X833368Y74476D01*
X833403Y74544D01*
X833454Y74707D01*
X833513Y74867D01*
X833528Y74942D01*
X833551Y75014D01*
X833563Y75119D01*
X833608Y75351D01*
X833615Y75587D01*
X833627Y75692D01*
X833627Y76708D01*
X833621Y76784D01*
X833623Y76860D01*
X833601Y77029D01*
X833587Y77200D01*
X833569Y77274D01*
X833559Y77349D01*
X833510Y77513D01*
X833469Y77679D01*
X833439Y77748D01*
X833417Y77822D01*
X833341Y77975D01*
X833274Y78132D01*
X833233Y78196D01*
X833200Y78265D01*
X833101Y78404D01*
X833009Y78548D01*
X832958Y78605D01*
X832914Y78667D01*
X832794Y78788D01*
X832680Y78916D01*
X832621Y78964D01*
X832567Y79018D01*
X832429Y79119D01*
X832296Y79226D01*
X832230Y79263D01*
X832169Y79308D01*
X832016Y79385D01*
X831868Y79470D01*
X831796Y79496D01*
X831728Y79531D01*
X831565Y79582D01*
X831405Y79641D01*
X831330Y79656D01*
X831258Y79679D01*
X831153Y79691D01*
X830921Y79736D01*
X830685Y79743D01*
X830580Y79755D01*
X828761Y79755D01*
X825400Y81147D01*
X822827Y83720D01*
X821435Y87081D01*
X821435Y90719D01*
X822827Y94080D01*
X825400Y96653D01*
X828761Y98045D01*
X830580Y98045D01*
X830656Y98051D01*
X830732Y98049D01*
X830901Y98071D01*
X831072Y98085D01*
X831146Y98103D01*
X831221Y98113D01*
X831385Y98162D01*
X831551Y98203D01*
X831620Y98233D01*
X831694Y98255D01*
X831847Y98331D01*
X832004Y98398D01*
X832068Y98439D01*
X832137Y98472D01*
X832276Y98571D01*
X832420Y98663D01*
X832477Y98714D01*
X832539Y98758D01*
X832660Y98878D01*
X832788Y98992D01*
X832836Y99051D01*
X832890Y99105D01*
X832991Y99243D01*
X833098Y99376D01*
X833135Y99442D01*
X833180Y99503D01*
X833257Y99656D01*
X833342Y99804D01*
X833368Y99876D01*
X833403Y99944D01*
X833454Y100107D01*
X833513Y100267D01*
X833528Y100342D01*
X833551Y100414D01*
X833563Y100519D01*
X833608Y100751D01*
X833615Y100987D01*
X833627Y101092D01*
X833627Y102108D01*
X833621Y102184D01*
X833623Y102260D01*
X833601Y102429D01*
X833587Y102600D01*
X833569Y102674D01*
X833559Y102749D01*
X833510Y102913D01*
X833469Y103079D01*
X833439Y103148D01*
X833417Y103222D01*
X833341Y103375D01*
X833274Y103532D01*
X833233Y103596D01*
X833200Y103665D01*
X833101Y103804D01*
X833009Y103948D01*
X832958Y104005D01*
X832914Y104067D01*
X832794Y104188D01*
X832680Y104316D01*
X832621Y104364D01*
X832567Y104418D01*
X832429Y104519D01*
X832296Y104626D01*
X832230Y104663D01*
X832169Y104708D01*
X832016Y104785D01*
X831868Y104870D01*
X831796Y104896D01*
X831728Y104931D01*
X831565Y104982D01*
X831405Y105041D01*
X831330Y105056D01*
X831258Y105079D01*
X831153Y105091D01*
X830921Y105136D01*
X830685Y105143D01*
X830580Y105155D01*
X828761Y105155D01*
X825400Y106547D01*
X822827Y109120D01*
X821435Y112481D01*
X821435Y116119D01*
X822827Y119480D01*
X825400Y122053D01*
X828761Y123445D01*
X830580Y123445D01*
X830656Y123451D01*
X830732Y123449D01*
X830901Y123471D01*
X831072Y123485D01*
X831146Y123503D01*
X831221Y123513D01*
X831385Y123562D01*
X831551Y123603D01*
X831620Y123633D01*
X831694Y123655D01*
X831847Y123731D01*
X832004Y123798D01*
X832068Y123839D01*
X832137Y123872D01*
X832276Y123971D01*
X832420Y124063D01*
X832477Y124114D01*
X832539Y124158D01*
X832660Y124278D01*
X832788Y124392D01*
X832836Y124451D01*
X832890Y124505D01*
X832991Y124643D01*
X833098Y124776D01*
X833135Y124842D01*
X833180Y124903D01*
X833257Y125056D01*
X833342Y125204D01*
X833368Y125276D01*
X833403Y125344D01*
X833454Y125507D01*
X833513Y125667D01*
X833528Y125742D01*
X833551Y125814D01*
X833563Y125919D01*
X833608Y126151D01*
X833615Y126387D01*
X833627Y126492D01*
X833627Y127508D01*
X833622Y127574D01*
X833623Y127623D01*
X833623Y127630D01*
X833623Y127660D01*
X833601Y127829D01*
X833587Y128000D01*
X833569Y128074D01*
X833559Y128149D01*
X833510Y128313D01*
X833469Y128479D01*
X833439Y128548D01*
X833417Y128622D01*
X833341Y128775D01*
X833274Y128932D01*
X833233Y128996D01*
X833200Y129065D01*
X833101Y129204D01*
X833009Y129348D01*
X832958Y129405D01*
X832914Y129467D01*
X832794Y129588D01*
X832680Y129716D01*
X832621Y129764D01*
X832567Y129818D01*
X832429Y129919D01*
X832296Y130026D01*
X832230Y130063D01*
X832169Y130108D01*
X832016Y130185D01*
X831868Y130270D01*
X831796Y130296D01*
X831728Y130331D01*
X831565Y130382D01*
X831405Y130441D01*
X831330Y130456D01*
X831258Y130479D01*
X831153Y130491D01*
X830921Y130536D01*
X830685Y130543D01*
X830580Y130555D01*
X828761Y130555D01*
X825400Y131947D01*
X822827Y134520D01*
X821435Y137881D01*
X821435Y141519D01*
X822827Y144880D01*
X825400Y147453D01*
X828761Y148845D01*
X830580Y148845D01*
X830656Y148851D01*
X830732Y148849D01*
X830901Y148871D01*
X831072Y148885D01*
X831146Y148903D01*
X831221Y148913D01*
X831385Y148962D01*
X831551Y149003D01*
X831620Y149033D01*
X831694Y149055D01*
X831847Y149131D01*
X832004Y149198D01*
X832068Y149239D01*
X832137Y149272D01*
X832276Y149371D01*
X832420Y149463D01*
X832477Y149514D01*
X832539Y149558D01*
X832660Y149678D01*
X832788Y149792D01*
X832836Y149851D01*
X832890Y149905D01*
X832991Y150043D01*
X833098Y150176D01*
X833135Y150242D01*
X833180Y150303D01*
X833257Y150456D01*
X833342Y150604D01*
X833368Y150676D01*
X833403Y150744D01*
X833454Y150907D01*
X833513Y151067D01*
X833528Y151142D01*
X833551Y151214D01*
X833563Y151319D01*
X833608Y151551D01*
X833615Y151787D01*
X833627Y151892D01*
X833627Y152908D01*
X833621Y152984D01*
X833623Y153060D01*
X833601Y153229D01*
X833587Y153400D01*
X833569Y153474D01*
X833559Y153549D01*
X833510Y153713D01*
X833469Y153879D01*
X833439Y153948D01*
X833417Y154022D01*
X833341Y154175D01*
X833274Y154332D01*
X833233Y154396D01*
X833200Y154465D01*
X833101Y154604D01*
X833009Y154748D01*
X832958Y154805D01*
X832914Y154867D01*
X832794Y154988D01*
X832680Y155116D01*
X832621Y155164D01*
X832567Y155218D01*
X832429Y155319D01*
X832296Y155426D01*
X832230Y155463D01*
X832169Y155508D01*
X832016Y155585D01*
X831868Y155670D01*
X831796Y155696D01*
X831728Y155731D01*
X831565Y155782D01*
X831405Y155841D01*
X831330Y155856D01*
X831258Y155879D01*
X831153Y155891D01*
X830921Y155936D01*
X830685Y155943D01*
X830580Y155955D01*
X828761Y155955D01*
X825400Y157347D01*
X822827Y159920D01*
X821435Y163281D01*
X821435Y166919D01*
X822827Y170280D01*
X825400Y172853D01*
X828761Y174245D01*
X830580Y174245D01*
X830656Y174251D01*
X830732Y174249D01*
X830901Y174271D01*
X831072Y174285D01*
X831146Y174303D01*
X831221Y174313D01*
X831385Y174362D01*
X831551Y174403D01*
X831620Y174433D01*
X831694Y174455D01*
X831847Y174531D01*
X832004Y174598D01*
X832068Y174639D01*
X832137Y174672D01*
X832276Y174771D01*
X832420Y174863D01*
X832477Y174914D01*
X832539Y174958D01*
X832660Y175078D01*
X832788Y175192D01*
X832836Y175251D01*
X832890Y175305D01*
X832991Y175443D01*
X833098Y175576D01*
X833135Y175642D01*
X833180Y175703D01*
X833257Y175856D01*
X833342Y176004D01*
X833368Y176076D01*
X833403Y176144D01*
X833454Y176307D01*
X833513Y176467D01*
X833528Y176542D01*
X833551Y176614D01*
X833563Y176719D01*
X833608Y176951D01*
X833615Y177187D01*
X833627Y177292D01*
X833627Y263544D01*
X833618Y263657D01*
X833619Y263772D01*
X833598Y263903D01*
X833587Y264035D01*
X833560Y264146D01*
X833542Y264259D01*
X833501Y264385D01*
X833469Y264514D01*
X833424Y264619D01*
X833388Y264728D01*
X833326Y264846D01*
X833274Y264968D01*
X833213Y265064D01*
X833160Y265165D01*
X833101Y265239D01*
X833009Y265384D01*
X832793Y265626D01*
X832735Y265698D01*
X811798Y286635D01*
X811711Y286709D01*
X811631Y286790D01*
X811524Y286868D01*
X811422Y286954D01*
X811325Y287013D01*
X811232Y287080D01*
X811114Y287140D01*
X811000Y287209D01*
X810894Y287251D01*
X810792Y287303D01*
X810665Y287343D01*
X810542Y287392D01*
X810431Y287417D01*
X810321Y287451D01*
X810228Y287461D01*
X810060Y287499D01*
X809736Y287517D01*
X809644Y287527D01*
X786490Y287527D01*
X784810Y288223D01*
X669598Y403436D01*
X669540Y403485D01*
X669487Y403541D01*
X669352Y403644D01*
X669222Y403755D01*
X669156Y403794D01*
X669096Y403841D01*
X668946Y403921D01*
X668799Y404010D01*
X668728Y404038D01*
X668661Y404074D01*
X668500Y404129D01*
X668341Y404193D01*
X668266Y404209D01*
X668194Y404234D01*
X668026Y404263D01*
X667859Y404299D01*
X667783Y404304D01*
X667708Y404317D01*
X667537Y404318D01*
X667367Y404327D01*
X667291Y404319D01*
X667214Y404320D01*
X667046Y404293D01*
X666876Y404275D01*
X666803Y404255D01*
X666727Y404243D01*
X666565Y404189D01*
X666401Y404144D01*
X666331Y404112D01*
X666259Y404089D01*
X666107Y404010D01*
X665952Y403939D01*
X665889Y403896D01*
X665821Y403861D01*
X665739Y403795D01*
X665732Y403790D01*
X662219Y402335D01*
X658581Y402335D01*
X655220Y403727D01*
X652647Y406300D01*
X651255Y409661D01*
X651255Y428539D01*
X652647Y431900D01*
X655220Y434473D01*
X658581Y435865D01*
X662219Y435865D01*
X665580Y434473D01*
X668153Y431900D01*
X669545Y428539D01*
X669545Y417684D01*
X669554Y417571D01*
X669553Y417456D01*
X669574Y417325D01*
X669585Y417193D01*
X669612Y417082D01*
X669630Y416969D01*
X669671Y416843D01*
X669703Y416714D01*
X669748Y416609D01*
X669784Y416500D01*
X669846Y416382D01*
X669898Y416260D01*
X669959Y416164D01*
X670012Y416063D01*
X670071Y415989D01*
X670163Y415844D01*
X670379Y415602D01*
X670437Y415530D01*
X788402Y297565D01*
X788489Y297491D01*
X788569Y297410D01*
X788676Y297332D01*
X788778Y297246D01*
X788875Y297187D01*
X788968Y297120D01*
X789086Y297060D01*
X789200Y296991D01*
X789306Y296949D01*
X789408Y296897D01*
X789535Y296857D01*
X789658Y296808D01*
X789769Y296783D01*
X789879Y296749D01*
X789972Y296739D01*
X790140Y296701D01*
X790464Y296683D01*
X790556Y296673D01*
X813710Y296673D01*
X815390Y295977D01*
X842077Y269290D01*
X842773Y267610D01*
X842773Y177292D01*
X842779Y177216D01*
X842777Y177140D01*
X842799Y176971D01*
X842813Y176800D01*
X842831Y176726D01*
X842841Y176651D01*
X842890Y176487D01*
X842931Y176321D01*
X842961Y176252D01*
X842983Y176178D01*
X843059Y176025D01*
X843126Y175868D01*
X843167Y175804D01*
X843200Y175735D01*
X843299Y175596D01*
X843391Y175452D01*
X843442Y175395D01*
X843486Y175333D01*
X843606Y175212D01*
X843720Y175084D01*
X843779Y175036D01*
X843833Y174982D01*
X843971Y174881D01*
X844104Y174774D01*
X844170Y174737D01*
X844231Y174692D01*
X844384Y174615D01*
X844532Y174530D01*
X844604Y174504D01*
X844672Y174469D01*
X844835Y174418D01*
X844995Y174359D01*
X845070Y174344D01*
X845142Y174321D01*
X845247Y174309D01*
X845479Y174264D01*
X845715Y174257D01*
X845820Y174245D01*
X847639Y174245D01*
X851000Y172853D01*
X853573Y170280D01*
X854965Y166919D01*
X854965Y163281D01*
X853573Y159920D01*
X851000Y157347D01*
X847639Y155955D01*
X845820Y155955D01*
X845744Y155949D01*
X845668Y155951D01*
X845499Y155929D01*
X845328Y155915D01*
X845254Y155897D01*
X845179Y155887D01*
X845015Y155838D01*
X844849Y155797D01*
X844780Y155767D01*
X844706Y155745D01*
X844553Y155669D01*
X844396Y155602D01*
X844332Y155561D01*
X844263Y155528D01*
X844124Y155429D01*
X843980Y155337D01*
X843923Y155286D01*
X843861Y155242D01*
X843740Y155122D01*
X843612Y155008D01*
X843564Y154949D01*
X843510Y154895D01*
X843409Y154757D01*
X843302Y154624D01*
X843265Y154558D01*
X843220Y154497D01*
X843143Y154344D01*
X843058Y154196D01*
X843032Y154124D01*
X842997Y154056D01*
X842946Y153893D01*
X842887Y153733D01*
X842872Y153658D01*
X842849Y153586D01*
X842837Y153481D01*
X842792Y153249D01*
X842785Y153013D01*
X842773Y152908D01*
X842773Y151892D01*
X842779Y151816D01*
X842777Y151740D01*
X842799Y151571D01*
X842813Y151400D01*
X842831Y151326D01*
X842841Y151251D01*
X842890Y151087D01*
X842931Y150921D01*
X842961Y150852D01*
X842983Y150778D01*
X843059Y150625D01*
X843126Y150468D01*
X843167Y150404D01*
X843200Y150335D01*
X843299Y150196D01*
X843391Y150052D01*
X843442Y149995D01*
X843486Y149933D01*
X843606Y149812D01*
X843720Y149684D01*
X843779Y149636D01*
X843833Y149582D01*
X843971Y149481D01*
X844104Y149374D01*
X844170Y149337D01*
X844231Y149292D01*
X844384Y149215D01*
X844532Y149130D01*
X844604Y149104D01*
X844672Y149069D01*
X844835Y149018D01*
X844995Y148959D01*
X845070Y148944D01*
X845142Y148921D01*
X845247Y148909D01*
X845479Y148864D01*
X845715Y148857D01*
X845820Y148845D01*
X847639Y148845D01*
X851000Y147453D01*
X853573Y144880D01*
X854965Y141519D01*
X854965Y137881D01*
X853573Y134520D01*
X851000Y131947D01*
X847639Y130555D01*
X845820Y130555D01*
X845744Y130549D01*
X845668Y130551D01*
X845499Y130529D01*
X845328Y130515D01*
X845254Y130497D01*
X845179Y130487D01*
X845015Y130438D01*
X844849Y130397D01*
X844780Y130367D01*
X844706Y130345D01*
X844553Y130269D01*
X844396Y130202D01*
X844332Y130161D01*
X844263Y130128D01*
X844124Y130029D01*
X843980Y129937D01*
X843923Y129886D01*
X843861Y129842D01*
X843740Y129722D01*
X843612Y129608D01*
X843564Y129549D01*
X843510Y129495D01*
X843409Y129357D01*
X843302Y129224D01*
X843265Y129158D01*
X843220Y129097D01*
X843143Y128944D01*
X843058Y128796D01*
X843032Y128724D01*
X842997Y128656D01*
X842946Y128493D01*
X842887Y128333D01*
X842872Y128258D01*
X842849Y128186D01*
X842837Y128081D01*
X842792Y127849D01*
X842785Y127613D01*
X842773Y127508D01*
X842773Y126492D01*
X842779Y126416D01*
X842777Y126340D01*
X842799Y126171D01*
X842813Y126000D01*
X842831Y125926D01*
X842841Y125851D01*
X842890Y125687D01*
X842931Y125521D01*
X842961Y125452D01*
X842983Y125378D01*
X843059Y125225D01*
X843126Y125068D01*
X843167Y125004D01*
X843200Y124935D01*
X843299Y124796D01*
X843391Y124652D01*
X843442Y124595D01*
X843486Y124533D01*
X843606Y124412D01*
X843720Y124284D01*
X843779Y124236D01*
X843833Y124182D01*
X843971Y124081D01*
X844104Y123974D01*
X844170Y123937D01*
X844231Y123892D01*
X844384Y123815D01*
X844532Y123730D01*
X844604Y123704D01*
X844672Y123669D01*
X844835Y123618D01*
X844995Y123559D01*
X845070Y123544D01*
X845142Y123521D01*
X845247Y123509D01*
X845479Y123464D01*
X845715Y123457D01*
X845820Y123445D01*
X847639Y123445D01*
X851000Y122053D01*
X853573Y119480D01*
X854965Y116119D01*
X854965Y112481D01*
X853573Y109120D01*
X851000Y106547D01*
X847639Y105155D01*
X845820Y105155D01*
X845744Y105149D01*
X845668Y105151D01*
X845499Y105129D01*
X845328Y105115D01*
X845254Y105097D01*
X845179Y105087D01*
X845015Y105038D01*
X844849Y104997D01*
X844780Y104967D01*
X844706Y104945D01*
X844553Y104869D01*
X844396Y104802D01*
X844332Y104761D01*
X844263Y104728D01*
X844124Y104629D01*
X843980Y104537D01*
X843923Y104486D01*
X843861Y104442D01*
X843740Y104322D01*
X843612Y104208D01*
X843564Y104149D01*
X843510Y104095D01*
X843409Y103957D01*
X843302Y103824D01*
X843265Y103758D01*
X843220Y103697D01*
X843143Y103544D01*
X843058Y103396D01*
X843032Y103324D01*
X842997Y103256D01*
X842946Y103093D01*
X842887Y102933D01*
X842872Y102858D01*
X842849Y102786D01*
X842837Y102681D01*
X842792Y102449D01*
X842785Y102213D01*
X842773Y102108D01*
X842773Y101092D01*
X842779Y101016D01*
X842777Y100940D01*
X842799Y100771D01*
X842813Y100600D01*
X842831Y100526D01*
X842841Y100451D01*
X842890Y100287D01*
X842931Y100121D01*
X842961Y100052D01*
X842983Y99978D01*
X843059Y99825D01*
X843126Y99668D01*
X843167Y99604D01*
X843200Y99535D01*
X843299Y99396D01*
X843391Y99252D01*
X843442Y99195D01*
X843486Y99133D01*
X843606Y99012D01*
X843720Y98884D01*
X843779Y98836D01*
X843833Y98782D01*
X843971Y98681D01*
X844104Y98574D01*
X844170Y98537D01*
X844231Y98492D01*
X844384Y98415D01*
X844532Y98330D01*
X844604Y98304D01*
X844672Y98269D01*
X844835Y98218D01*
X844995Y98159D01*
X845070Y98144D01*
X845142Y98121D01*
X845247Y98109D01*
X845479Y98064D01*
X845715Y98057D01*
X845820Y98045D01*
X847639Y98045D01*
X851000Y96653D01*
X853573Y94080D01*
X854965Y90719D01*
X854965Y87081D01*
X853573Y83720D01*
X851000Y81147D01*
X847639Y79755D01*
X845820Y79755D01*
X845744Y79749D01*
X845668Y79751D01*
X845499Y79729D01*
X845328Y79715D01*
X845254Y79697D01*
X845179Y79687D01*
X845015Y79638D01*
X844849Y79597D01*
X844780Y79567D01*
X844706Y79545D01*
X844553Y79469D01*
X844396Y79402D01*
X844332Y79361D01*
X844263Y79328D01*
X844124Y79229D01*
X843980Y79137D01*
X843923Y79086D01*
X843861Y79042D01*
X843740Y78922D01*
X843612Y78808D01*
X843564Y78749D01*
X843510Y78695D01*
X843409Y78557D01*
X843302Y78424D01*
X843265Y78358D01*
X843220Y78297D01*
X843143Y78144D01*
X843058Y77996D01*
X843032Y77924D01*
X842997Y77856D01*
X842946Y77693D01*
X842887Y77533D01*
X842872Y77458D01*
X842849Y77386D01*
X842837Y77281D01*
X842792Y77049D01*
X842785Y76813D01*
X842773Y76708D01*
X842773Y75692D01*
X842779Y75616D01*
X842777Y75540D01*
X842799Y75371D01*
X842813Y75200D01*
X842831Y75126D01*
X842841Y75051D01*
X842890Y74887D01*
X842931Y74721D01*
X842961Y74652D01*
X842983Y74578D01*
X843059Y74425D01*
X843126Y74268D01*
X843167Y74204D01*
X843200Y74135D01*
X843299Y73996D01*
X843391Y73852D01*
X843442Y73795D01*
X843486Y73733D01*
X843606Y73612D01*
X843720Y73484D01*
X843779Y73436D01*
X843833Y73382D01*
X843971Y73281D01*
X844104Y73174D01*
X844170Y73137D01*
X844231Y73092D01*
X844384Y73015D01*
X844532Y72930D01*
X844604Y72904D01*
X844672Y72869D01*
X844835Y72818D01*
X844995Y72759D01*
X845070Y72744D01*
X845142Y72721D01*
X845247Y72709D01*
X845479Y72664D01*
X845715Y72657D01*
X845820Y72645D01*
X847639Y72645D01*
X851000Y71253D01*
X853573Y68680D01*
X854965Y65319D01*
X854965Y61681D01*
X853573Y58320D01*
X851000Y55747D01*
X847639Y54355D01*
X845820Y54355D01*
X845744Y54349D01*
X845668Y54351D01*
X845499Y54329D01*
X845328Y54315D01*
X845254Y54297D01*
X845179Y54287D01*
X845015Y54238D01*
X844849Y54197D01*
X844780Y54167D01*
X844706Y54145D01*
X844553Y54069D01*
X844396Y54002D01*
X844332Y53961D01*
X844263Y53928D01*
X844124Y53829D01*
X843980Y53737D01*
X843923Y53686D01*
X843861Y53642D01*
X843740Y53522D01*
X843612Y53408D01*
X843564Y53349D01*
X843510Y53295D01*
X843409Y53157D01*
X843302Y53024D01*
X843265Y52958D01*
X843220Y52897D01*
X843143Y52744D01*
X843058Y52596D01*
X843032Y52524D01*
X842997Y52456D01*
X842946Y52293D01*
X842887Y52133D01*
X842872Y52058D01*
X842849Y51986D01*
X842837Y51881D01*
X842792Y51649D01*
X842785Y51413D01*
X842773Y51308D01*
X842773Y50292D01*
X842779Y50216D01*
X842777Y50140D01*
X842799Y49971D01*
X842813Y49800D01*
X842831Y49726D01*
X842841Y49651D01*
X842890Y49487D01*
X842931Y49321D01*
X842961Y49252D01*
X842983Y49178D01*
X843059Y49025D01*
X843126Y48868D01*
X843167Y48804D01*
X843200Y48735D01*
X843299Y48596D01*
X843391Y48452D01*
X843442Y48395D01*
X843486Y48333D01*
X843606Y48212D01*
X843720Y48084D01*
X843779Y48036D01*
X843833Y47982D01*
X843971Y47881D01*
X844104Y47774D01*
X844170Y47737D01*
X844231Y47692D01*
X844384Y47615D01*
X844532Y47530D01*
X844604Y47504D01*
X844672Y47469D01*
X844835Y47418D01*
X844995Y47359D01*
X845070Y47344D01*
X845142Y47321D01*
X845247Y47309D01*
X845479Y47264D01*
X845715Y47257D01*
X845820Y47245D01*
X847639Y47245D01*
X851000Y45853D01*
X853573Y43280D01*
X854965Y39919D01*
X854965Y36281D01*
X853573Y32920D01*
X851000Y30347D01*
X847639Y28955D01*
X828761Y28955D01*
G37*
%LPD*%
%LPC*%
G36*
X1052552Y180920D02*
X1052552Y180920D01*
X1049693Y182105D01*
X1047505Y184293D01*
X1046320Y187152D01*
X1046320Y190248D01*
X1047505Y193107D01*
X1048635Y194237D01*
X1048709Y194324D01*
X1048790Y194404D01*
X1048868Y194512D01*
X1048954Y194613D01*
X1049013Y194711D01*
X1049080Y194803D01*
X1049140Y194921D01*
X1049209Y195035D01*
X1049251Y195142D01*
X1049303Y195243D01*
X1049343Y195370D01*
X1049392Y195494D01*
X1049417Y195605D01*
X1049451Y195714D01*
X1049461Y195807D01*
X1049499Y195975D01*
X1049517Y196299D01*
X1049527Y196392D01*
X1049527Y276244D01*
X1049518Y276357D01*
X1049519Y276472D01*
X1049498Y276603D01*
X1049487Y276735D01*
X1049460Y276846D01*
X1049442Y276959D01*
X1049401Y277085D01*
X1049369Y277214D01*
X1049324Y277319D01*
X1049288Y277428D01*
X1049226Y277546D01*
X1049174Y277668D01*
X1049113Y277764D01*
X1049060Y277865D01*
X1049001Y277939D01*
X1048909Y278084D01*
X1048693Y278326D01*
X1048635Y278398D01*
X1012123Y314910D01*
X1011427Y316590D01*
X1011427Y432710D01*
X1012123Y434390D01*
X1048635Y470902D01*
X1048709Y470989D01*
X1048790Y471069D01*
X1048868Y471176D01*
X1048954Y471278D01*
X1049013Y471375D01*
X1049080Y471468D01*
X1049140Y471586D01*
X1049209Y471700D01*
X1049251Y471806D01*
X1049303Y471908D01*
X1049343Y472035D01*
X1049392Y472158D01*
X1049417Y472269D01*
X1049451Y472379D01*
X1049461Y472472D01*
X1049499Y472640D01*
X1049517Y472964D01*
X1049527Y473056D01*
X1049527Y498508D01*
X1049518Y498622D01*
X1049519Y498736D01*
X1049498Y498868D01*
X1049487Y499000D01*
X1049460Y499111D01*
X1049442Y499224D01*
X1049401Y499350D01*
X1049369Y499479D01*
X1049324Y499584D01*
X1049288Y499692D01*
X1049226Y499810D01*
X1049174Y499932D01*
X1049113Y500028D01*
X1049060Y500130D01*
X1049001Y500203D01*
X1048909Y500348D01*
X1048693Y500590D01*
X1048635Y500663D01*
X1047505Y501793D01*
X1046320Y504652D01*
X1046320Y507748D01*
X1047505Y510607D01*
X1049693Y512795D01*
X1052552Y513980D01*
X1055648Y513980D01*
X1058507Y512795D01*
X1060695Y510607D01*
X1061880Y507748D01*
X1061880Y504652D01*
X1060695Y501793D01*
X1059565Y500663D01*
X1059491Y500576D01*
X1059410Y500496D01*
X1059332Y500388D01*
X1059246Y500287D01*
X1059187Y500189D01*
X1059120Y500097D01*
X1059060Y499979D01*
X1058991Y499865D01*
X1058949Y499758D01*
X1058897Y499657D01*
X1058857Y499530D01*
X1058808Y499406D01*
X1058783Y499295D01*
X1058749Y499186D01*
X1058739Y499093D01*
X1058701Y498925D01*
X1058683Y498601D01*
X1058673Y498508D01*
X1058673Y468990D01*
X1057977Y467310D01*
X1021465Y430798D01*
X1021391Y430711D01*
X1021310Y430631D01*
X1021232Y430524D01*
X1021146Y430422D01*
X1021087Y430325D01*
X1021020Y430232D01*
X1020960Y430114D01*
X1020891Y430000D01*
X1020849Y429894D01*
X1020797Y429792D01*
X1020757Y429665D01*
X1020708Y429542D01*
X1020683Y429431D01*
X1020649Y429321D01*
X1020639Y429228D01*
X1020601Y429060D01*
X1020583Y428736D01*
X1020573Y428644D01*
X1020573Y320656D01*
X1020582Y320543D01*
X1020581Y320428D01*
X1020602Y320297D01*
X1020613Y320165D01*
X1020640Y320054D01*
X1020658Y319941D01*
X1020699Y319815D01*
X1020731Y319686D01*
X1020776Y319581D01*
X1020812Y319472D01*
X1020874Y319354D01*
X1020926Y319232D01*
X1020987Y319136D01*
X1021040Y319035D01*
X1021099Y318961D01*
X1021191Y318816D01*
X1021407Y318574D01*
X1021465Y318502D01*
X1057977Y281990D01*
X1058673Y280310D01*
X1058673Y196392D01*
X1058682Y196278D01*
X1058681Y196164D01*
X1058702Y196032D01*
X1058713Y195900D01*
X1058740Y195789D01*
X1058758Y195676D01*
X1058799Y195550D01*
X1058831Y195421D01*
X1058876Y195316D01*
X1058912Y195208D01*
X1058974Y195090D01*
X1059026Y194968D01*
X1059087Y194872D01*
X1059140Y194770D01*
X1059199Y194697D01*
X1059291Y194552D01*
X1059507Y194310D01*
X1059565Y194237D01*
X1060695Y193107D01*
X1061880Y190248D01*
X1061880Y187152D01*
X1060695Y184293D01*
X1058507Y182105D01*
X1055648Y180920D01*
X1052552Y180920D01*
G37*
%LPD*%
%LPC*%
G36*
X880968Y390775D02*
X880968Y390775D01*
X880075Y391668D01*
X880075Y398780D01*
X880071Y398827D01*
X880071Y398828D01*
X880071Y398829D01*
X880069Y398856D01*
X880071Y398932D01*
X880049Y399101D01*
X880035Y399272D01*
X880017Y399346D01*
X880007Y399421D01*
X879958Y399585D01*
X879917Y399751D01*
X879887Y399820D01*
X879865Y399894D01*
X879789Y400047D01*
X879722Y400204D01*
X879681Y400268D01*
X879648Y400337D01*
X879549Y400476D01*
X879457Y400620D01*
X879406Y400677D01*
X879362Y400739D01*
X879242Y400860D01*
X879128Y400988D01*
X879069Y401036D01*
X879015Y401090D01*
X878877Y401191D01*
X878744Y401298D01*
X878678Y401335D01*
X878617Y401380D01*
X878464Y401457D01*
X878316Y401542D01*
X878244Y401568D01*
X878176Y401603D01*
X878013Y401654D01*
X877853Y401713D01*
X877778Y401728D01*
X877706Y401751D01*
X877601Y401763D01*
X877369Y401808D01*
X877133Y401815D01*
X877028Y401827D01*
X862690Y401827D01*
X861010Y402523D01*
X771223Y492310D01*
X770527Y493990D01*
X770527Y551063D01*
X770522Y551132D01*
X770523Y551190D01*
X770508Y551309D01*
X770496Y551499D01*
X770490Y551527D01*
X770487Y551555D01*
X770462Y551656D01*
X770459Y551679D01*
X770444Y551729D01*
X770435Y551767D01*
X770386Y551980D01*
X770375Y552006D01*
X770369Y552033D01*
X770282Y552234D01*
X770200Y552437D01*
X770185Y552461D01*
X770174Y552487D01*
X770057Y552671D01*
X769943Y552858D01*
X769924Y552879D01*
X769909Y552903D01*
X769764Y553065D01*
X769621Y553232D01*
X769599Y553250D01*
X769580Y553271D01*
X769460Y553368D01*
X766217Y556611D01*
X764622Y560462D01*
X764622Y582538D01*
X766217Y586389D01*
X769165Y589337D01*
X773016Y590932D01*
X777184Y590932D01*
X781035Y589337D01*
X783983Y586389D01*
X785578Y582538D01*
X785578Y560462D01*
X783983Y556611D01*
X780789Y553417D01*
X780761Y553397D01*
X780741Y553377D01*
X780718Y553361D01*
X780565Y553204D01*
X780410Y553050D01*
X780394Y553028D01*
X780374Y553008D01*
X780248Y552828D01*
X780120Y552652D01*
X780107Y552627D01*
X780091Y552603D01*
X779996Y552406D01*
X779897Y552211D01*
X779889Y552184D01*
X779877Y552159D01*
X779815Y551949D01*
X779794Y551884D01*
X779787Y551863D01*
X779785Y551854D01*
X779749Y551741D01*
X779746Y551718D01*
X779737Y551686D01*
X779711Y551475D01*
X779692Y551379D01*
X779690Y551308D01*
X779676Y551196D01*
X779679Y551115D01*
X779673Y551063D01*
X779673Y498056D01*
X779682Y497943D01*
X779681Y497828D01*
X779702Y497697D01*
X779713Y497565D01*
X779740Y497454D01*
X779758Y497341D01*
X779799Y497215D01*
X779831Y497086D01*
X779876Y496981D01*
X779912Y496872D01*
X779974Y496754D01*
X780026Y496632D01*
X780087Y496536D01*
X780140Y496435D01*
X780199Y496361D01*
X780291Y496216D01*
X780507Y495974D01*
X780565Y495902D01*
X864602Y411865D01*
X864689Y411791D01*
X864769Y411710D01*
X864876Y411632D01*
X864978Y411546D01*
X865075Y411487D01*
X865168Y411420D01*
X865286Y411360D01*
X865400Y411291D01*
X865506Y411249D01*
X865608Y411197D01*
X865735Y411157D01*
X865858Y411108D01*
X865969Y411083D01*
X866079Y411049D01*
X866172Y411039D01*
X866340Y411001D01*
X866664Y410983D01*
X866756Y410973D01*
X877028Y410973D01*
X877104Y410979D01*
X877180Y410977D01*
X877349Y410999D01*
X877520Y411013D01*
X877594Y411031D01*
X877669Y411041D01*
X877833Y411090D01*
X877999Y411131D01*
X878068Y411161D01*
X878142Y411183D01*
X878295Y411259D01*
X878452Y411326D01*
X878516Y411367D01*
X878585Y411400D01*
X878724Y411499D01*
X878868Y411591D01*
X878925Y411642D01*
X878987Y411686D01*
X879108Y411806D01*
X879236Y411920D01*
X879284Y411979D01*
X879338Y412033D01*
X879439Y412171D01*
X879546Y412304D01*
X879583Y412370D01*
X879628Y412431D01*
X879705Y412584D01*
X879790Y412732D01*
X879816Y412804D01*
X879851Y412872D01*
X879902Y413035D01*
X879961Y413195D01*
X879976Y413270D01*
X879999Y413342D01*
X880011Y413447D01*
X880056Y413679D01*
X880063Y413915D01*
X880075Y414020D01*
X880075Y421132D01*
X880968Y422025D01*
X894032Y422025D01*
X894925Y421132D01*
X894925Y391668D01*
X894032Y390775D01*
X880968Y390775D01*
G37*
%LPD*%
%LPC*%
G36*
X570178Y239085D02*
X570178Y239085D01*
X569285Y239978D01*
X569285Y255322D01*
X570178Y256215D01*
X570230Y256215D01*
X570306Y256221D01*
X570382Y256219D01*
X570551Y256241D01*
X570722Y256255D01*
X570796Y256273D01*
X570871Y256283D01*
X571035Y256332D01*
X571201Y256373D01*
X571270Y256403D01*
X571344Y256425D01*
X571497Y256501D01*
X571654Y256568D01*
X571718Y256609D01*
X571787Y256642D01*
X571926Y256741D01*
X572070Y256833D01*
X572127Y256884D01*
X572189Y256928D01*
X572310Y257048D01*
X572438Y257162D01*
X572486Y257221D01*
X572540Y257275D01*
X572641Y257413D01*
X572748Y257546D01*
X572785Y257612D01*
X572830Y257673D01*
X572907Y257826D01*
X572992Y257974D01*
X573018Y258046D01*
X573053Y258114D01*
X573104Y258277D01*
X573163Y258437D01*
X573178Y258512D01*
X573201Y258584D01*
X573213Y258689D01*
X573258Y258921D01*
X573265Y259157D01*
X573277Y259262D01*
X573277Y312060D01*
X573973Y313740D01*
X575688Y315455D01*
X604135Y343902D01*
X604209Y343989D01*
X604290Y344069D01*
X604368Y344176D01*
X604454Y344277D01*
X604513Y344375D01*
X604580Y344468D01*
X604640Y344586D01*
X604709Y344700D01*
X604751Y344806D01*
X604803Y344908D01*
X604843Y345035D01*
X604892Y345158D01*
X604917Y345269D01*
X604951Y345379D01*
X604961Y345472D01*
X604999Y345640D01*
X605017Y345964D01*
X605027Y346056D01*
X605027Y401858D01*
X605018Y401972D01*
X605019Y402086D01*
X604998Y402217D01*
X604987Y402350D01*
X604960Y402460D01*
X604942Y402573D01*
X604901Y402700D01*
X604869Y402828D01*
X604824Y402933D01*
X604788Y403042D01*
X604726Y403160D01*
X604674Y403282D01*
X604613Y403378D01*
X604560Y403479D01*
X604501Y403553D01*
X604409Y403698D01*
X604193Y403940D01*
X604135Y404013D01*
X601847Y406300D01*
X600455Y409661D01*
X600455Y428539D01*
X601847Y431900D01*
X604420Y434472D01*
X606226Y435220D01*
X606234Y435225D01*
X606244Y435228D01*
X606453Y435337D01*
X606665Y435446D01*
X606672Y435451D01*
X606681Y435456D01*
X606713Y435481D01*
X606937Y435646D01*
X608690Y436373D01*
X610510Y436373D01*
X612261Y435647D01*
X612362Y435562D01*
X612370Y435557D01*
X612377Y435550D01*
X612413Y435531D01*
X612784Y435307D01*
X612906Y435258D01*
X612974Y435220D01*
X614780Y434472D01*
X617353Y431900D01*
X618745Y428539D01*
X618745Y409661D01*
X617353Y406300D01*
X615065Y404013D01*
X614991Y403926D01*
X614910Y403845D01*
X614832Y403738D01*
X614746Y403637D01*
X614687Y403539D01*
X614620Y403447D01*
X614560Y403328D01*
X614491Y403214D01*
X614449Y403108D01*
X614397Y403006D01*
X614357Y402879D01*
X614308Y402756D01*
X614283Y402645D01*
X614249Y402536D01*
X614239Y402442D01*
X614201Y402274D01*
X614183Y401950D01*
X614173Y401858D01*
X614173Y341990D01*
X613477Y340310D01*
X611762Y338595D01*
X583315Y310148D01*
X583241Y310061D01*
X583160Y309981D01*
X583082Y309874D01*
X582996Y309773D01*
X582937Y309675D01*
X582870Y309582D01*
X582810Y309464D01*
X582741Y309350D01*
X582699Y309244D01*
X582647Y309142D01*
X582607Y309015D01*
X582558Y308892D01*
X582533Y308781D01*
X582499Y308671D01*
X582489Y308578D01*
X582451Y308410D01*
X582433Y308086D01*
X582423Y307994D01*
X582423Y259262D01*
X582429Y259186D01*
X582427Y259110D01*
X582449Y258941D01*
X582463Y258770D01*
X582481Y258696D01*
X582491Y258621D01*
X582540Y258457D01*
X582581Y258291D01*
X582611Y258222D01*
X582633Y258148D01*
X582709Y257995D01*
X582776Y257838D01*
X582817Y257774D01*
X582850Y257705D01*
X582949Y257566D01*
X583041Y257422D01*
X583092Y257365D01*
X583136Y257303D01*
X583256Y257182D01*
X583370Y257054D01*
X583429Y257006D01*
X583483Y256952D01*
X583621Y256851D01*
X583754Y256744D01*
X583820Y256707D01*
X583881Y256662D01*
X584034Y256585D01*
X584182Y256500D01*
X584254Y256474D01*
X584322Y256439D01*
X584485Y256388D01*
X584645Y256329D01*
X584720Y256314D01*
X584792Y256291D01*
X584897Y256279D01*
X585129Y256234D01*
X585365Y256227D01*
X585470Y256215D01*
X585522Y256215D01*
X586415Y255322D01*
X586415Y239978D01*
X585522Y239085D01*
X570178Y239085D01*
G37*
%LPD*%
%LPC*%
G36*
X429975Y359025D02*
X429975Y359025D01*
X426603Y360422D01*
X424022Y363003D01*
X422625Y366375D01*
X422625Y370025D01*
X424022Y373397D01*
X426603Y375978D01*
X429975Y377375D01*
X433625Y377375D01*
X436997Y375978D01*
X439210Y373765D01*
X439297Y373691D01*
X439377Y373610D01*
X439484Y373532D01*
X439586Y373446D01*
X439684Y373387D01*
X439776Y373320D01*
X439894Y373260D01*
X440008Y373191D01*
X440114Y373149D01*
X440216Y373097D01*
X440343Y373057D01*
X440466Y373008D01*
X440578Y372983D01*
X440687Y372949D01*
X440780Y372939D01*
X440948Y372901D01*
X441272Y372883D01*
X441365Y372873D01*
X480511Y372873D01*
X480624Y372882D01*
X480739Y372881D01*
X480870Y372902D01*
X481002Y372913D01*
X481113Y372940D01*
X481226Y372958D01*
X481352Y372999D01*
X481481Y373031D01*
X481586Y373076D01*
X481695Y373112D01*
X481813Y373174D01*
X481935Y373226D01*
X482031Y373287D01*
X482132Y373340D01*
X482206Y373399D01*
X482351Y373491D01*
X482593Y373707D01*
X482665Y373765D01*
X484091Y375191D01*
X487079Y376429D01*
X503521Y376429D01*
X506509Y375191D01*
X508795Y372905D01*
X510033Y369917D01*
X510033Y366683D01*
X508795Y363695D01*
X506509Y361409D01*
X503521Y360171D01*
X487079Y360171D01*
X484091Y361409D01*
X482665Y362835D01*
X482579Y362909D01*
X482498Y362990D01*
X482391Y363068D01*
X482290Y363154D01*
X482192Y363213D01*
X482099Y363280D01*
X481981Y363340D01*
X481867Y363409D01*
X481761Y363451D01*
X481659Y363503D01*
X481532Y363543D01*
X481409Y363592D01*
X481298Y363617D01*
X481188Y363651D01*
X481095Y363661D01*
X480927Y363699D01*
X480603Y363717D01*
X480511Y363727D01*
X441565Y363727D01*
X441451Y363718D01*
X441337Y363719D01*
X441205Y363698D01*
X441073Y363687D01*
X440962Y363660D01*
X440849Y363642D01*
X440723Y363601D01*
X440594Y363569D01*
X440489Y363524D01*
X440381Y363488D01*
X440263Y363426D01*
X440141Y363374D01*
X440044Y363313D01*
X439943Y363260D01*
X439869Y363201D01*
X439725Y363109D01*
X439482Y362893D01*
X439410Y362835D01*
X436997Y360422D01*
X433625Y359025D01*
X429975Y359025D01*
G37*
%LPD*%
%LPC*%
G36*
X429975Y486025D02*
X429975Y486025D01*
X426603Y487422D01*
X424022Y490003D01*
X422625Y493375D01*
X422625Y497025D01*
X424022Y500397D01*
X426603Y502978D01*
X429975Y504375D01*
X430380Y504375D01*
X430387Y504375D01*
X430395Y504375D01*
X430634Y504395D01*
X430871Y504415D01*
X430879Y504417D01*
X430886Y504417D01*
X431116Y504475D01*
X431350Y504533D01*
X431357Y504536D01*
X431365Y504538D01*
X431583Y504633D01*
X431804Y504728D01*
X431810Y504732D01*
X431844Y504714D01*
X432058Y504605D01*
X432065Y504603D01*
X432072Y504599D01*
X432301Y504527D01*
X432528Y504454D01*
X432535Y504453D01*
X432543Y504451D01*
X432576Y504447D01*
X433016Y504382D01*
X433118Y504386D01*
X433220Y504375D01*
X433625Y504375D01*
X436997Y502978D01*
X439718Y500257D01*
X439805Y500183D01*
X439885Y500102D01*
X439992Y500024D01*
X440094Y499938D01*
X440192Y499879D01*
X440284Y499812D01*
X440402Y499752D01*
X440516Y499683D01*
X440622Y499641D01*
X440724Y499589D01*
X440851Y499549D01*
X440974Y499500D01*
X441086Y499475D01*
X441195Y499441D01*
X441288Y499431D01*
X441456Y499393D01*
X441780Y499375D01*
X441872Y499365D01*
X480003Y499365D01*
X480116Y499374D01*
X480231Y499373D01*
X480362Y499394D01*
X480494Y499405D01*
X480605Y499432D01*
X480718Y499450D01*
X480844Y499491D01*
X480973Y499523D01*
X481078Y499568D01*
X481187Y499604D01*
X481305Y499666D01*
X481427Y499718D01*
X481523Y499779D01*
X481624Y499832D01*
X481698Y499891D01*
X481843Y499983D01*
X482085Y500199D01*
X482157Y500257D01*
X484091Y502191D01*
X487079Y503429D01*
X503521Y503429D01*
X506509Y502191D01*
X508795Y499905D01*
X510033Y496917D01*
X510033Y493683D01*
X508795Y490695D01*
X506509Y488409D01*
X503521Y487171D01*
X487079Y487171D01*
X484091Y488409D01*
X482157Y490343D01*
X482071Y490417D01*
X481990Y490498D01*
X481883Y490576D01*
X481782Y490662D01*
X481684Y490721D01*
X481591Y490788D01*
X481473Y490848D01*
X481359Y490917D01*
X481253Y490959D01*
X481151Y491011D01*
X481024Y491051D01*
X480901Y491100D01*
X480790Y491125D01*
X480680Y491159D01*
X480587Y491169D01*
X480419Y491207D01*
X480095Y491225D01*
X480003Y491235D01*
X442072Y491235D01*
X441959Y491226D01*
X441844Y491227D01*
X441713Y491206D01*
X441581Y491195D01*
X441470Y491168D01*
X441357Y491150D01*
X441231Y491109D01*
X441102Y491077D01*
X440997Y491032D01*
X440889Y490996D01*
X440771Y490934D01*
X440649Y490882D01*
X440552Y490821D01*
X440451Y490768D01*
X440377Y490709D01*
X440232Y490617D01*
X439991Y490401D01*
X439918Y490343D01*
X436997Y487422D01*
X433625Y486025D01*
X429975Y486025D01*
G37*
%LPD*%
%LPC*%
G36*
X175975Y130425D02*
X175975Y130425D01*
X172603Y131822D01*
X169682Y134743D01*
X169595Y134817D01*
X169515Y134898D01*
X169408Y134976D01*
X169306Y135062D01*
X169208Y135121D01*
X169116Y135188D01*
X168998Y135248D01*
X168884Y135317D01*
X168778Y135359D01*
X168676Y135411D01*
X168549Y135451D01*
X168426Y135500D01*
X168314Y135525D01*
X168205Y135559D01*
X168112Y135569D01*
X167944Y135607D01*
X167620Y135625D01*
X167527Y135635D01*
X129597Y135635D01*
X129484Y135626D01*
X129369Y135627D01*
X129238Y135606D01*
X129106Y135595D01*
X128995Y135568D01*
X128882Y135550D01*
X128756Y135509D01*
X128627Y135477D01*
X128522Y135432D01*
X128413Y135396D01*
X128295Y135334D01*
X128173Y135282D01*
X128077Y135221D01*
X127976Y135168D01*
X127902Y135109D01*
X127757Y135017D01*
X127515Y134801D01*
X127443Y134743D01*
X125509Y132809D01*
X122521Y131571D01*
X106079Y131571D01*
X103091Y132809D01*
X100805Y135095D01*
X99567Y138083D01*
X99567Y141317D01*
X100805Y144305D01*
X103091Y146591D01*
X106079Y147829D01*
X122521Y147829D01*
X125509Y146591D01*
X127443Y144657D01*
X127529Y144583D01*
X127610Y144502D01*
X127717Y144424D01*
X127818Y144338D01*
X127916Y144279D01*
X128009Y144212D01*
X128127Y144152D01*
X128241Y144083D01*
X128347Y144041D01*
X128449Y143989D01*
X128576Y143949D01*
X128699Y143900D01*
X128810Y143875D01*
X128920Y143841D01*
X129013Y143831D01*
X129181Y143793D01*
X129505Y143775D01*
X129597Y143765D01*
X167727Y143765D01*
X167841Y143774D01*
X167955Y143773D01*
X168087Y143794D01*
X168219Y143805D01*
X168330Y143832D01*
X168443Y143850D01*
X168569Y143891D01*
X168698Y143923D01*
X168803Y143968D01*
X168911Y144004D01*
X169029Y144066D01*
X169151Y144118D01*
X169248Y144179D01*
X169349Y144232D01*
X169423Y144291D01*
X169567Y144383D01*
X169810Y144599D01*
X169882Y144657D01*
X172603Y147378D01*
X175975Y148775D01*
X179625Y148775D01*
X182997Y147378D01*
X185578Y144797D01*
X186975Y141425D01*
X186975Y137775D01*
X185578Y134403D01*
X182997Y131822D01*
X179625Y130425D01*
X175975Y130425D01*
G37*
%LPD*%
%LPC*%
G36*
X175975Y155825D02*
X175975Y155825D01*
X172603Y157222D01*
X169782Y160043D01*
X169695Y160117D01*
X169615Y160198D01*
X169508Y160276D01*
X169406Y160362D01*
X169308Y160421D01*
X169216Y160488D01*
X169098Y160548D01*
X168984Y160617D01*
X168878Y160659D01*
X168776Y160711D01*
X168649Y160751D01*
X168526Y160800D01*
X168414Y160825D01*
X168305Y160859D01*
X168212Y160869D01*
X168044Y160907D01*
X167720Y160925D01*
X167627Y160935D01*
X129497Y160935D01*
X129384Y160926D01*
X129269Y160927D01*
X129138Y160906D01*
X129006Y160895D01*
X128895Y160868D01*
X128782Y160850D01*
X128656Y160809D01*
X128527Y160777D01*
X128422Y160732D01*
X128313Y160696D01*
X128195Y160634D01*
X128073Y160582D01*
X127977Y160521D01*
X127876Y160468D01*
X127802Y160409D01*
X127657Y160317D01*
X127415Y160101D01*
X127343Y160043D01*
X125509Y158209D01*
X122521Y156971D01*
X106079Y156971D01*
X103091Y158209D01*
X100805Y160495D01*
X99567Y163483D01*
X99567Y166717D01*
X100805Y169705D01*
X103091Y171991D01*
X106079Y173229D01*
X122521Y173229D01*
X125509Y171991D01*
X127543Y169957D01*
X127629Y169883D01*
X127710Y169802D01*
X127817Y169724D01*
X127918Y169638D01*
X128016Y169579D01*
X128109Y169512D01*
X128227Y169452D01*
X128341Y169383D01*
X128447Y169341D01*
X128549Y169289D01*
X128676Y169249D01*
X128799Y169200D01*
X128910Y169175D01*
X129020Y169141D01*
X129113Y169131D01*
X129281Y169093D01*
X129605Y169075D01*
X129697Y169065D01*
X167627Y169065D01*
X167741Y169074D01*
X167855Y169073D01*
X167987Y169094D01*
X168119Y169105D01*
X168230Y169132D01*
X168343Y169150D01*
X168469Y169191D01*
X168598Y169223D01*
X168703Y169268D01*
X168811Y169304D01*
X168929Y169366D01*
X169051Y169418D01*
X169148Y169479D01*
X169249Y169532D01*
X169323Y169591D01*
X169467Y169683D01*
X169710Y169899D01*
X169782Y169957D01*
X172603Y172778D01*
X175975Y174175D01*
X179625Y174175D01*
X182997Y172778D01*
X185578Y170197D01*
X186975Y166825D01*
X186975Y163175D01*
X185578Y159803D01*
X182997Y157222D01*
X179625Y155825D01*
X175975Y155825D01*
G37*
%LPD*%
%LPC*%
G36*
X175975Y435225D02*
X175975Y435225D01*
X172603Y436622D01*
X169682Y439543D01*
X169595Y439617D01*
X169515Y439698D01*
X169408Y439776D01*
X169306Y439862D01*
X169208Y439921D01*
X169116Y439988D01*
X168998Y440048D01*
X168884Y440117D01*
X168778Y440159D01*
X168676Y440211D01*
X168549Y440251D01*
X168426Y440300D01*
X168314Y440325D01*
X168205Y440359D01*
X168112Y440369D01*
X167944Y440407D01*
X167620Y440425D01*
X167527Y440435D01*
X129597Y440435D01*
X129484Y440426D01*
X129369Y440427D01*
X129238Y440406D01*
X129106Y440395D01*
X128995Y440368D01*
X128882Y440350D01*
X128756Y440309D01*
X128627Y440277D01*
X128522Y440232D01*
X128413Y440196D01*
X128295Y440134D01*
X128173Y440082D01*
X128077Y440021D01*
X127976Y439968D01*
X127902Y439909D01*
X127757Y439817D01*
X127515Y439601D01*
X127443Y439543D01*
X125509Y437609D01*
X122521Y436371D01*
X106079Y436371D01*
X103091Y437609D01*
X100805Y439895D01*
X99567Y442883D01*
X99567Y446117D01*
X100805Y449105D01*
X103091Y451391D01*
X106079Y452629D01*
X122521Y452629D01*
X125509Y451391D01*
X127443Y449457D01*
X127529Y449383D01*
X127610Y449302D01*
X127717Y449224D01*
X127818Y449138D01*
X127916Y449079D01*
X128009Y449012D01*
X128127Y448952D01*
X128241Y448883D01*
X128347Y448841D01*
X128449Y448789D01*
X128576Y448749D01*
X128699Y448700D01*
X128810Y448675D01*
X128920Y448641D01*
X129013Y448631D01*
X129181Y448593D01*
X129505Y448575D01*
X129597Y448565D01*
X167727Y448565D01*
X167841Y448574D01*
X167955Y448573D01*
X168087Y448594D01*
X168219Y448605D01*
X168330Y448632D01*
X168443Y448650D01*
X168569Y448691D01*
X168698Y448723D01*
X168803Y448768D01*
X168911Y448804D01*
X169029Y448866D01*
X169151Y448918D01*
X169248Y448979D01*
X169349Y449032D01*
X169423Y449091D01*
X169567Y449183D01*
X169810Y449399D01*
X169882Y449457D01*
X172603Y452178D01*
X175975Y453575D01*
X179625Y453575D01*
X182997Y452178D01*
X185578Y449597D01*
X186975Y446225D01*
X186975Y442575D01*
X185578Y439203D01*
X182997Y436622D01*
X179625Y435225D01*
X175975Y435225D01*
G37*
%LPD*%
%LPC*%
G36*
X175975Y333625D02*
X175975Y333625D01*
X172603Y335022D01*
X169682Y337943D01*
X169595Y338017D01*
X169515Y338098D01*
X169408Y338176D01*
X169306Y338262D01*
X169208Y338321D01*
X169116Y338388D01*
X168998Y338448D01*
X168884Y338517D01*
X168778Y338559D01*
X168676Y338611D01*
X168549Y338651D01*
X168426Y338700D01*
X168314Y338725D01*
X168205Y338759D01*
X168112Y338769D01*
X167944Y338807D01*
X167620Y338825D01*
X167527Y338835D01*
X129597Y338835D01*
X129484Y338826D01*
X129369Y338827D01*
X129238Y338806D01*
X129106Y338795D01*
X128995Y338768D01*
X128882Y338750D01*
X128756Y338709D01*
X128627Y338677D01*
X128522Y338632D01*
X128413Y338596D01*
X128295Y338534D01*
X128173Y338482D01*
X128077Y338421D01*
X127976Y338368D01*
X127902Y338309D01*
X127757Y338217D01*
X127515Y338001D01*
X127443Y337943D01*
X125509Y336009D01*
X122521Y334771D01*
X106079Y334771D01*
X103091Y336009D01*
X100805Y338295D01*
X99567Y341283D01*
X99567Y344517D01*
X100805Y347505D01*
X103091Y349791D01*
X106079Y351029D01*
X122521Y351029D01*
X125509Y349791D01*
X127443Y347857D01*
X127529Y347783D01*
X127610Y347702D01*
X127717Y347624D01*
X127818Y347538D01*
X127916Y347479D01*
X128009Y347412D01*
X128127Y347352D01*
X128241Y347283D01*
X128347Y347241D01*
X128449Y347189D01*
X128576Y347149D01*
X128699Y347100D01*
X128810Y347075D01*
X128920Y347041D01*
X129013Y347031D01*
X129181Y346993D01*
X129505Y346975D01*
X129597Y346965D01*
X167727Y346965D01*
X167841Y346974D01*
X167955Y346973D01*
X168087Y346994D01*
X168219Y347005D01*
X168330Y347032D01*
X168443Y347050D01*
X168569Y347091D01*
X168698Y347123D01*
X168803Y347168D01*
X168911Y347204D01*
X169029Y347266D01*
X169151Y347318D01*
X169248Y347379D01*
X169349Y347432D01*
X169423Y347491D01*
X169567Y347583D01*
X169810Y347799D01*
X169882Y347857D01*
X172603Y350578D01*
X175975Y351975D01*
X179625Y351975D01*
X182997Y350578D01*
X185578Y347997D01*
X186975Y344625D01*
X186975Y340975D01*
X185578Y337603D01*
X182997Y335022D01*
X179625Y333625D01*
X175975Y333625D01*
G37*
%LPD*%
%LPC*%
G36*
X175975Y409825D02*
X175975Y409825D01*
X172603Y411222D01*
X169682Y414143D01*
X169595Y414217D01*
X169515Y414298D01*
X169408Y414376D01*
X169306Y414462D01*
X169208Y414521D01*
X169116Y414588D01*
X168998Y414648D01*
X168884Y414717D01*
X168778Y414759D01*
X168676Y414811D01*
X168549Y414851D01*
X168426Y414900D01*
X168314Y414925D01*
X168205Y414959D01*
X168112Y414969D01*
X167944Y415007D01*
X167620Y415025D01*
X167527Y415035D01*
X129597Y415035D01*
X129484Y415026D01*
X129369Y415027D01*
X129238Y415006D01*
X129106Y414995D01*
X128995Y414968D01*
X128882Y414950D01*
X128756Y414909D01*
X128627Y414877D01*
X128522Y414832D01*
X128413Y414796D01*
X128295Y414734D01*
X128173Y414682D01*
X128077Y414621D01*
X127976Y414568D01*
X127902Y414509D01*
X127757Y414417D01*
X127515Y414201D01*
X127443Y414143D01*
X125509Y412209D01*
X122521Y410971D01*
X106079Y410971D01*
X103091Y412209D01*
X100805Y414495D01*
X99567Y417483D01*
X99567Y420717D01*
X100805Y423705D01*
X103091Y425991D01*
X106079Y427229D01*
X122521Y427229D01*
X125509Y425991D01*
X127443Y424057D01*
X127529Y423983D01*
X127610Y423902D01*
X127717Y423824D01*
X127818Y423738D01*
X127916Y423679D01*
X128009Y423612D01*
X128127Y423552D01*
X128241Y423483D01*
X128347Y423441D01*
X128449Y423389D01*
X128576Y423349D01*
X128699Y423300D01*
X128810Y423275D01*
X128920Y423241D01*
X129013Y423231D01*
X129181Y423193D01*
X129505Y423175D01*
X129597Y423165D01*
X167727Y423165D01*
X167841Y423174D01*
X167955Y423173D01*
X168087Y423194D01*
X168219Y423205D01*
X168330Y423232D01*
X168443Y423250D01*
X168569Y423291D01*
X168698Y423323D01*
X168803Y423368D01*
X168911Y423404D01*
X169029Y423466D01*
X169151Y423518D01*
X169248Y423579D01*
X169349Y423632D01*
X169423Y423691D01*
X169567Y423783D01*
X169810Y423999D01*
X169882Y424057D01*
X172603Y426778D01*
X175975Y428175D01*
X179625Y428175D01*
X182997Y426778D01*
X185578Y424197D01*
X186975Y420825D01*
X186975Y417175D01*
X185578Y413803D01*
X182997Y411222D01*
X179625Y409825D01*
X175975Y409825D01*
G37*
%LPD*%
%LPC*%
G36*
X175975Y206625D02*
X175975Y206625D01*
X172603Y208022D01*
X169682Y210943D01*
X169595Y211017D01*
X169515Y211098D01*
X169408Y211176D01*
X169306Y211262D01*
X169208Y211321D01*
X169116Y211388D01*
X168998Y211448D01*
X168884Y211517D01*
X168778Y211559D01*
X168676Y211611D01*
X168549Y211651D01*
X168426Y211700D01*
X168314Y211725D01*
X168205Y211759D01*
X168112Y211769D01*
X167944Y211807D01*
X167620Y211825D01*
X167527Y211835D01*
X129597Y211835D01*
X129484Y211826D01*
X129369Y211827D01*
X129238Y211806D01*
X129106Y211795D01*
X128995Y211768D01*
X128882Y211750D01*
X128756Y211709D01*
X128627Y211677D01*
X128522Y211632D01*
X128413Y211596D01*
X128295Y211534D01*
X128173Y211482D01*
X128077Y211421D01*
X127976Y211368D01*
X127902Y211309D01*
X127757Y211217D01*
X127515Y211001D01*
X127443Y210943D01*
X125509Y209009D01*
X122521Y207771D01*
X106079Y207771D01*
X103091Y209009D01*
X100805Y211295D01*
X99567Y214283D01*
X99567Y217517D01*
X100805Y220505D01*
X103091Y222791D01*
X106079Y224029D01*
X122521Y224029D01*
X125509Y222791D01*
X127443Y220857D01*
X127529Y220783D01*
X127610Y220702D01*
X127717Y220624D01*
X127818Y220538D01*
X127916Y220479D01*
X128009Y220412D01*
X128127Y220352D01*
X128241Y220283D01*
X128347Y220241D01*
X128449Y220189D01*
X128576Y220149D01*
X128699Y220100D01*
X128810Y220075D01*
X128920Y220041D01*
X129013Y220031D01*
X129181Y219993D01*
X129505Y219975D01*
X129597Y219965D01*
X167727Y219965D01*
X167841Y219974D01*
X167955Y219973D01*
X168087Y219994D01*
X168219Y220005D01*
X168330Y220032D01*
X168443Y220050D01*
X168569Y220091D01*
X168698Y220123D01*
X168803Y220168D01*
X168911Y220204D01*
X169029Y220266D01*
X169151Y220318D01*
X169248Y220379D01*
X169349Y220432D01*
X169423Y220491D01*
X169567Y220583D01*
X169810Y220799D01*
X169882Y220857D01*
X172603Y223578D01*
X175975Y224975D01*
X179625Y224975D01*
X182997Y223578D01*
X185578Y220997D01*
X186975Y217625D01*
X186975Y213975D01*
X185578Y210603D01*
X182997Y208022D01*
X179625Y206625D01*
X175975Y206625D01*
G37*
%LPD*%
%LPC*%
G36*
X429975Y333625D02*
X429975Y333625D01*
X426603Y335022D01*
X424022Y337603D01*
X422625Y340975D01*
X422625Y344625D01*
X424022Y347997D01*
X426603Y350578D01*
X429975Y351975D01*
X433625Y351975D01*
X436997Y350578D01*
X439718Y347857D01*
X439805Y347783D01*
X439885Y347702D01*
X439992Y347624D01*
X440094Y347538D01*
X440192Y347479D01*
X440284Y347412D01*
X440402Y347352D01*
X440516Y347283D01*
X440622Y347241D01*
X440724Y347189D01*
X440851Y347149D01*
X440974Y347100D01*
X441086Y347075D01*
X441195Y347041D01*
X441288Y347031D01*
X441456Y346993D01*
X441780Y346975D01*
X441873Y346965D01*
X480003Y346965D01*
X480116Y346974D01*
X480231Y346973D01*
X480362Y346994D01*
X480494Y347005D01*
X480605Y347032D01*
X480718Y347050D01*
X480844Y347091D01*
X480973Y347123D01*
X481078Y347168D01*
X481187Y347204D01*
X481305Y347266D01*
X481427Y347318D01*
X481523Y347379D01*
X481624Y347432D01*
X481698Y347491D01*
X481843Y347583D01*
X482085Y347799D01*
X482157Y347857D01*
X484091Y349791D01*
X487079Y351029D01*
X503521Y351029D01*
X506509Y349791D01*
X508795Y347505D01*
X510033Y344517D01*
X510033Y341283D01*
X508795Y338295D01*
X506509Y336009D01*
X503521Y334771D01*
X487079Y334771D01*
X484091Y336009D01*
X482157Y337943D01*
X482071Y338017D01*
X481990Y338098D01*
X481883Y338176D01*
X481782Y338262D01*
X481684Y338321D01*
X481591Y338388D01*
X481473Y338448D01*
X481359Y338517D01*
X481253Y338559D01*
X481151Y338611D01*
X481024Y338651D01*
X480901Y338700D01*
X480790Y338725D01*
X480680Y338759D01*
X480587Y338769D01*
X480419Y338807D01*
X480095Y338825D01*
X480003Y338835D01*
X442073Y338835D01*
X441959Y338826D01*
X441845Y338827D01*
X441713Y338806D01*
X441581Y338795D01*
X441470Y338768D01*
X441357Y338750D01*
X441231Y338709D01*
X441102Y338677D01*
X440997Y338632D01*
X440889Y338596D01*
X440771Y338534D01*
X440649Y338482D01*
X440552Y338421D01*
X440451Y338368D01*
X440377Y338309D01*
X440233Y338217D01*
X439990Y338001D01*
X439918Y337943D01*
X436997Y335022D01*
X433625Y333625D01*
X429975Y333625D01*
G37*
%LPD*%
%LPC*%
G36*
X175975Y105025D02*
X175975Y105025D01*
X172603Y106422D01*
X169682Y109343D01*
X169595Y109417D01*
X169515Y109498D01*
X169408Y109576D01*
X169306Y109662D01*
X169208Y109721D01*
X169116Y109788D01*
X168998Y109848D01*
X168884Y109917D01*
X168778Y109959D01*
X168676Y110011D01*
X168549Y110051D01*
X168426Y110100D01*
X168314Y110125D01*
X168205Y110159D01*
X168112Y110169D01*
X167944Y110207D01*
X167620Y110225D01*
X167527Y110235D01*
X129597Y110235D01*
X129484Y110226D01*
X129369Y110227D01*
X129238Y110206D01*
X129106Y110195D01*
X128995Y110168D01*
X128882Y110150D01*
X128756Y110109D01*
X128627Y110077D01*
X128522Y110032D01*
X128413Y109996D01*
X128295Y109934D01*
X128173Y109882D01*
X128077Y109821D01*
X127976Y109768D01*
X127902Y109709D01*
X127757Y109617D01*
X127515Y109401D01*
X127443Y109343D01*
X125509Y107409D01*
X122521Y106171D01*
X106079Y106171D01*
X103091Y107409D01*
X100805Y109695D01*
X99567Y112683D01*
X99567Y115917D01*
X100805Y118905D01*
X103091Y121191D01*
X106079Y122429D01*
X122521Y122429D01*
X125509Y121191D01*
X127443Y119257D01*
X127529Y119183D01*
X127610Y119102D01*
X127717Y119024D01*
X127818Y118938D01*
X127916Y118879D01*
X128009Y118812D01*
X128127Y118752D01*
X128241Y118683D01*
X128347Y118641D01*
X128449Y118589D01*
X128576Y118549D01*
X128699Y118500D01*
X128810Y118475D01*
X128920Y118441D01*
X129013Y118431D01*
X129181Y118393D01*
X129505Y118375D01*
X129597Y118365D01*
X167727Y118365D01*
X167841Y118374D01*
X167955Y118373D01*
X168087Y118394D01*
X168219Y118405D01*
X168330Y118432D01*
X168443Y118450D01*
X168569Y118491D01*
X168698Y118523D01*
X168803Y118568D01*
X168911Y118604D01*
X169029Y118666D01*
X169151Y118718D01*
X169248Y118779D01*
X169349Y118832D01*
X169423Y118891D01*
X169567Y118983D01*
X169810Y119199D01*
X169882Y119257D01*
X172603Y121978D01*
X175975Y123375D01*
X179625Y123375D01*
X182997Y121978D01*
X185578Y119397D01*
X186975Y116025D01*
X186975Y112375D01*
X185578Y109003D01*
X182997Y106422D01*
X179625Y105025D01*
X175975Y105025D01*
G37*
%LPD*%
%LPC*%
G36*
X175975Y282825D02*
X175975Y282825D01*
X172603Y284222D01*
X169682Y287143D01*
X169595Y287217D01*
X169515Y287298D01*
X169408Y287376D01*
X169306Y287462D01*
X169208Y287521D01*
X169116Y287588D01*
X168998Y287648D01*
X168884Y287717D01*
X168778Y287759D01*
X168676Y287811D01*
X168549Y287851D01*
X168426Y287900D01*
X168314Y287925D01*
X168205Y287959D01*
X168112Y287969D01*
X167944Y288007D01*
X167620Y288025D01*
X167527Y288035D01*
X129597Y288035D01*
X129484Y288026D01*
X129369Y288027D01*
X129238Y288006D01*
X129106Y287995D01*
X128995Y287968D01*
X128882Y287950D01*
X128756Y287909D01*
X128627Y287877D01*
X128522Y287832D01*
X128413Y287796D01*
X128295Y287734D01*
X128173Y287682D01*
X128077Y287621D01*
X127976Y287568D01*
X127902Y287509D01*
X127757Y287417D01*
X127515Y287201D01*
X127443Y287143D01*
X125509Y285209D01*
X122521Y283971D01*
X106079Y283971D01*
X103091Y285209D01*
X100805Y287495D01*
X99567Y290483D01*
X99567Y293717D01*
X100805Y296705D01*
X103091Y298991D01*
X106079Y300229D01*
X122521Y300229D01*
X125509Y298991D01*
X127443Y297057D01*
X127529Y296983D01*
X127610Y296902D01*
X127717Y296824D01*
X127818Y296738D01*
X127916Y296679D01*
X128009Y296612D01*
X128127Y296552D01*
X128241Y296483D01*
X128347Y296441D01*
X128449Y296389D01*
X128576Y296349D01*
X128699Y296300D01*
X128810Y296275D01*
X128920Y296241D01*
X129013Y296231D01*
X129181Y296193D01*
X129505Y296175D01*
X129597Y296165D01*
X167727Y296165D01*
X167841Y296174D01*
X167955Y296173D01*
X168087Y296194D01*
X168219Y296205D01*
X168330Y296232D01*
X168443Y296250D01*
X168569Y296291D01*
X168698Y296323D01*
X168803Y296368D01*
X168911Y296404D01*
X169029Y296466D01*
X169151Y296518D01*
X169248Y296579D01*
X169349Y296632D01*
X169423Y296691D01*
X169567Y296783D01*
X169810Y296999D01*
X169882Y297057D01*
X172603Y299778D01*
X175975Y301175D01*
X179625Y301175D01*
X182997Y299778D01*
X185578Y297197D01*
X186975Y293825D01*
X186975Y290175D01*
X185578Y286803D01*
X182997Y284222D01*
X179625Y282825D01*
X175975Y282825D01*
G37*
%LPD*%
%LPC*%
G36*
X429975Y282825D02*
X429975Y282825D01*
X426603Y284222D01*
X424022Y286803D01*
X422625Y290175D01*
X422625Y293825D01*
X424022Y297197D01*
X426603Y299778D01*
X429975Y301175D01*
X433625Y301175D01*
X436997Y299778D01*
X439718Y297057D01*
X439805Y296983D01*
X439885Y296902D01*
X439992Y296824D01*
X440094Y296738D01*
X440192Y296679D01*
X440284Y296612D01*
X440402Y296552D01*
X440516Y296483D01*
X440622Y296441D01*
X440724Y296389D01*
X440851Y296349D01*
X440974Y296300D01*
X441086Y296275D01*
X441195Y296241D01*
X441288Y296231D01*
X441456Y296193D01*
X441780Y296175D01*
X441873Y296165D01*
X480003Y296165D01*
X480116Y296174D01*
X480231Y296173D01*
X480362Y296194D01*
X480494Y296205D01*
X480605Y296232D01*
X480718Y296250D01*
X480844Y296291D01*
X480973Y296323D01*
X481078Y296368D01*
X481187Y296404D01*
X481305Y296466D01*
X481427Y296518D01*
X481523Y296579D01*
X481624Y296632D01*
X481698Y296691D01*
X481843Y296783D01*
X482085Y296999D01*
X482157Y297057D01*
X484091Y298991D01*
X487079Y300229D01*
X503521Y300229D01*
X506509Y298991D01*
X508795Y296705D01*
X510033Y293717D01*
X510033Y290483D01*
X508795Y287495D01*
X506509Y285209D01*
X503521Y283971D01*
X487079Y283971D01*
X484091Y285209D01*
X482157Y287143D01*
X482071Y287217D01*
X481990Y287298D01*
X481883Y287376D01*
X481782Y287462D01*
X481684Y287521D01*
X481591Y287588D01*
X481473Y287648D01*
X481359Y287717D01*
X481253Y287759D01*
X481151Y287811D01*
X481024Y287851D01*
X480901Y287900D01*
X480790Y287925D01*
X480680Y287959D01*
X480587Y287969D01*
X480419Y288007D01*
X480095Y288025D01*
X480003Y288035D01*
X442073Y288035D01*
X441959Y288026D01*
X441845Y288027D01*
X441713Y288006D01*
X441581Y287995D01*
X441470Y287968D01*
X441357Y287950D01*
X441231Y287909D01*
X441102Y287877D01*
X440997Y287832D01*
X440889Y287796D01*
X440771Y287734D01*
X440649Y287682D01*
X440552Y287621D01*
X440451Y287568D01*
X440377Y287509D01*
X440233Y287417D01*
X439990Y287201D01*
X439918Y287143D01*
X436997Y284222D01*
X433625Y282825D01*
X429975Y282825D01*
G37*
%LPD*%
%LPC*%
G36*
X175975Y54225D02*
X175975Y54225D01*
X172603Y55622D01*
X169682Y58543D01*
X169595Y58617D01*
X169515Y58698D01*
X169408Y58776D01*
X169306Y58862D01*
X169208Y58921D01*
X169116Y58988D01*
X168998Y59048D01*
X168884Y59117D01*
X168778Y59159D01*
X168676Y59211D01*
X168549Y59251D01*
X168426Y59300D01*
X168314Y59325D01*
X168205Y59359D01*
X168112Y59369D01*
X167944Y59407D01*
X167620Y59425D01*
X167527Y59435D01*
X129597Y59435D01*
X129484Y59426D01*
X129369Y59427D01*
X129238Y59406D01*
X129106Y59395D01*
X128995Y59368D01*
X128882Y59350D01*
X128756Y59309D01*
X128627Y59277D01*
X128522Y59232D01*
X128413Y59196D01*
X128295Y59134D01*
X128173Y59082D01*
X128077Y59021D01*
X127976Y58968D01*
X127902Y58909D01*
X127757Y58817D01*
X127515Y58601D01*
X127443Y58543D01*
X125509Y56609D01*
X122521Y55371D01*
X106079Y55371D01*
X103091Y56609D01*
X100805Y58895D01*
X99567Y61883D01*
X99567Y65117D01*
X100805Y68105D01*
X103091Y70391D01*
X106079Y71629D01*
X122521Y71629D01*
X125509Y70391D01*
X127443Y68457D01*
X127529Y68383D01*
X127610Y68302D01*
X127717Y68224D01*
X127818Y68138D01*
X127916Y68079D01*
X128009Y68012D01*
X128127Y67952D01*
X128241Y67883D01*
X128347Y67841D01*
X128449Y67789D01*
X128576Y67749D01*
X128699Y67700D01*
X128810Y67675D01*
X128920Y67641D01*
X129013Y67631D01*
X129181Y67593D01*
X129505Y67575D01*
X129597Y67565D01*
X167727Y67565D01*
X167841Y67574D01*
X167955Y67573D01*
X168087Y67594D01*
X168219Y67605D01*
X168330Y67632D01*
X168443Y67650D01*
X168569Y67691D01*
X168698Y67723D01*
X168803Y67768D01*
X168911Y67804D01*
X169029Y67866D01*
X169151Y67918D01*
X169248Y67979D01*
X169349Y68032D01*
X169423Y68091D01*
X169567Y68183D01*
X169810Y68399D01*
X169882Y68457D01*
X172603Y71178D01*
X175975Y72575D01*
X179625Y72575D01*
X182997Y71178D01*
X185578Y68597D01*
X186975Y65225D01*
X186975Y61575D01*
X185578Y58203D01*
X182997Y55622D01*
X179625Y54225D01*
X175975Y54225D01*
G37*
%LPD*%
%LPC*%
G36*
X429975Y384425D02*
X429975Y384425D01*
X426603Y385822D01*
X424022Y388403D01*
X422625Y391775D01*
X422625Y395425D01*
X424022Y398797D01*
X426603Y401378D01*
X429975Y402775D01*
X433625Y402775D01*
X436997Y401378D01*
X439818Y398557D01*
X439905Y398483D01*
X439985Y398402D01*
X440092Y398324D01*
X440194Y398238D01*
X440292Y398179D01*
X440384Y398112D01*
X440502Y398052D01*
X440616Y397983D01*
X440722Y397941D01*
X440824Y397889D01*
X440951Y397849D01*
X441074Y397800D01*
X441186Y397775D01*
X441295Y397741D01*
X441388Y397731D01*
X441556Y397693D01*
X441880Y397675D01*
X441973Y397665D01*
X479903Y397665D01*
X480016Y397674D01*
X480131Y397673D01*
X480262Y397694D01*
X480394Y397705D01*
X480505Y397732D01*
X480618Y397750D01*
X480744Y397791D01*
X480873Y397823D01*
X480978Y397868D01*
X481087Y397904D01*
X481205Y397966D01*
X481327Y398018D01*
X481423Y398079D01*
X481524Y398132D01*
X481598Y398191D01*
X481743Y398283D01*
X481985Y398499D01*
X482057Y398557D01*
X484091Y400591D01*
X487079Y401829D01*
X503521Y401829D01*
X506509Y400591D01*
X508795Y398305D01*
X510033Y395317D01*
X510033Y392083D01*
X508795Y389095D01*
X506509Y386809D01*
X503521Y385571D01*
X487079Y385571D01*
X484091Y386809D01*
X482257Y388643D01*
X482171Y388717D01*
X482091Y388797D01*
X482090Y388798D01*
X481983Y388876D01*
X481882Y388962D01*
X481784Y389021D01*
X481691Y389088D01*
X481573Y389148D01*
X481459Y389217D01*
X481353Y389259D01*
X481251Y389311D01*
X481124Y389351D01*
X481001Y389400D01*
X480890Y389425D01*
X480780Y389459D01*
X480687Y389469D01*
X480519Y389507D01*
X480195Y389525D01*
X480103Y389535D01*
X441973Y389535D01*
X441859Y389526D01*
X441745Y389527D01*
X441613Y389506D01*
X441481Y389495D01*
X441370Y389468D01*
X441257Y389450D01*
X441131Y389409D01*
X441002Y389377D01*
X440897Y389332D01*
X440789Y389296D01*
X440671Y389234D01*
X440549Y389182D01*
X440452Y389121D01*
X440351Y389068D01*
X440277Y389009D01*
X440133Y388917D01*
X439890Y388701D01*
X439818Y388643D01*
X436997Y385822D01*
X433625Y384425D01*
X429975Y384425D01*
G37*
%LPD*%
%LPC*%
G36*
X175975Y308225D02*
X175975Y308225D01*
X172603Y309622D01*
X169682Y312543D01*
X169602Y312611D01*
X169597Y312615D01*
X169594Y312618D01*
X169515Y312698D01*
X169408Y312776D01*
X169306Y312862D01*
X169208Y312921D01*
X169116Y312988D01*
X168998Y313048D01*
X168884Y313117D01*
X168778Y313159D01*
X168676Y313211D01*
X168549Y313251D01*
X168426Y313300D01*
X168314Y313325D01*
X168205Y313359D01*
X168112Y313369D01*
X167944Y313407D01*
X167620Y313425D01*
X167527Y313435D01*
X129597Y313435D01*
X129484Y313426D01*
X129369Y313427D01*
X129238Y313406D01*
X129106Y313395D01*
X128995Y313368D01*
X128882Y313350D01*
X128756Y313309D01*
X128627Y313277D01*
X128522Y313232D01*
X128413Y313196D01*
X128295Y313134D01*
X128173Y313082D01*
X128077Y313021D01*
X127976Y312968D01*
X127902Y312909D01*
X127757Y312817D01*
X127515Y312601D01*
X127443Y312543D01*
X125509Y310609D01*
X122521Y309371D01*
X106079Y309371D01*
X103091Y310609D01*
X100805Y312895D01*
X99567Y315883D01*
X99567Y319117D01*
X100805Y322105D01*
X103091Y324391D01*
X106079Y325629D01*
X122521Y325629D01*
X125509Y324391D01*
X127443Y322457D01*
X127529Y322383D01*
X127610Y322302D01*
X127717Y322224D01*
X127818Y322138D01*
X127916Y322079D01*
X128009Y322012D01*
X128127Y321952D01*
X128241Y321883D01*
X128347Y321841D01*
X128449Y321789D01*
X128576Y321749D01*
X128699Y321700D01*
X128810Y321675D01*
X128920Y321641D01*
X129013Y321631D01*
X129181Y321593D01*
X129505Y321575D01*
X129597Y321565D01*
X167727Y321565D01*
X167841Y321574D01*
X167955Y321573D01*
X168087Y321594D01*
X168219Y321605D01*
X168330Y321632D01*
X168443Y321650D01*
X168569Y321691D01*
X168698Y321723D01*
X168803Y321768D01*
X168911Y321804D01*
X169029Y321866D01*
X169151Y321918D01*
X169248Y321979D01*
X169349Y322032D01*
X169423Y322091D01*
X169567Y322183D01*
X169810Y322399D01*
X169882Y322457D01*
X172603Y325178D01*
X175975Y326575D01*
X179625Y326575D01*
X182997Y325178D01*
X185578Y322597D01*
X186975Y319225D01*
X186975Y315575D01*
X185578Y312203D01*
X182997Y309622D01*
X179625Y308225D01*
X175975Y308225D01*
G37*
%LPD*%
%LPC*%
G36*
X429975Y308225D02*
X429975Y308225D01*
X426603Y309622D01*
X424022Y312203D01*
X422625Y315575D01*
X422625Y319225D01*
X424022Y322597D01*
X426603Y325178D01*
X429975Y326575D01*
X433625Y326575D01*
X436997Y325178D01*
X439718Y322457D01*
X439805Y322383D01*
X439885Y322302D01*
X439992Y322224D01*
X440094Y322138D01*
X440192Y322079D01*
X440284Y322012D01*
X440402Y321952D01*
X440516Y321883D01*
X440622Y321841D01*
X440724Y321789D01*
X440851Y321749D01*
X440974Y321700D01*
X441086Y321675D01*
X441195Y321641D01*
X441288Y321631D01*
X441456Y321593D01*
X441780Y321575D01*
X441873Y321565D01*
X480003Y321565D01*
X480116Y321574D01*
X480231Y321573D01*
X480362Y321594D01*
X480494Y321605D01*
X480605Y321632D01*
X480718Y321650D01*
X480844Y321691D01*
X480973Y321723D01*
X481078Y321768D01*
X481187Y321804D01*
X481305Y321866D01*
X481427Y321918D01*
X481523Y321979D01*
X481624Y322032D01*
X481698Y322091D01*
X481843Y322183D01*
X482085Y322399D01*
X482157Y322457D01*
X484091Y324391D01*
X487079Y325629D01*
X503521Y325629D01*
X506509Y324391D01*
X508795Y322105D01*
X510033Y319117D01*
X510033Y315883D01*
X508795Y312895D01*
X506509Y310609D01*
X503521Y309371D01*
X487079Y309371D01*
X484091Y310609D01*
X482157Y312543D01*
X482077Y312611D01*
X482073Y312615D01*
X482069Y312618D01*
X481990Y312698D01*
X481883Y312776D01*
X481782Y312862D01*
X481684Y312921D01*
X481591Y312988D01*
X481473Y313048D01*
X481359Y313117D01*
X481253Y313159D01*
X481151Y313211D01*
X481024Y313251D01*
X480901Y313300D01*
X480790Y313325D01*
X480680Y313359D01*
X480587Y313369D01*
X480419Y313407D01*
X480095Y313425D01*
X480003Y313435D01*
X442073Y313435D01*
X441959Y313426D01*
X441845Y313427D01*
X441713Y313406D01*
X441581Y313395D01*
X441470Y313368D01*
X441357Y313350D01*
X441231Y313309D01*
X441102Y313277D01*
X440997Y313232D01*
X440889Y313196D01*
X440771Y313134D01*
X440649Y313082D01*
X440552Y313021D01*
X440451Y312968D01*
X440377Y312909D01*
X440233Y312817D01*
X439990Y312601D01*
X439918Y312543D01*
X436997Y309622D01*
X433625Y308225D01*
X429975Y308225D01*
G37*
%LPD*%
%LPC*%
G36*
X429975Y257425D02*
X429975Y257425D01*
X426603Y258822D01*
X424022Y261403D01*
X422625Y264775D01*
X422625Y268425D01*
X424022Y271797D01*
X426603Y274378D01*
X429975Y275775D01*
X433625Y275775D01*
X436997Y274378D01*
X439718Y271657D01*
X439805Y271583D01*
X439885Y271502D01*
X439992Y271424D01*
X440094Y271338D01*
X440192Y271279D01*
X440284Y271212D01*
X440402Y271152D01*
X440516Y271083D01*
X440622Y271041D01*
X440724Y270989D01*
X440851Y270949D01*
X440974Y270900D01*
X441086Y270875D01*
X441195Y270841D01*
X441288Y270831D01*
X441456Y270793D01*
X441780Y270775D01*
X441873Y270765D01*
X480003Y270765D01*
X480116Y270774D01*
X480231Y270773D01*
X480362Y270794D01*
X480494Y270805D01*
X480605Y270832D01*
X480718Y270850D01*
X480844Y270891D01*
X480973Y270923D01*
X481078Y270968D01*
X481187Y271004D01*
X481305Y271066D01*
X481427Y271118D01*
X481523Y271179D01*
X481624Y271232D01*
X481698Y271291D01*
X481843Y271383D01*
X482085Y271599D01*
X482157Y271657D01*
X484091Y273591D01*
X487079Y274829D01*
X503521Y274829D01*
X506509Y273591D01*
X508795Y271305D01*
X510033Y268317D01*
X510033Y265083D01*
X508795Y262095D01*
X506509Y259809D01*
X503521Y258571D01*
X487079Y258571D01*
X484091Y259809D01*
X482157Y261743D01*
X482071Y261817D01*
X481990Y261898D01*
X481883Y261976D01*
X481782Y262062D01*
X481684Y262121D01*
X481591Y262188D01*
X481473Y262248D01*
X481359Y262317D01*
X481253Y262359D01*
X481151Y262411D01*
X481024Y262451D01*
X480901Y262500D01*
X480790Y262525D01*
X480680Y262559D01*
X480587Y262569D01*
X480419Y262607D01*
X480095Y262625D01*
X480003Y262635D01*
X442073Y262635D01*
X441959Y262626D01*
X441845Y262627D01*
X441713Y262606D01*
X441581Y262595D01*
X441470Y262568D01*
X441357Y262550D01*
X441231Y262509D01*
X441102Y262477D01*
X440997Y262432D01*
X440889Y262396D01*
X440771Y262334D01*
X440649Y262282D01*
X440552Y262221D01*
X440451Y262168D01*
X440377Y262109D01*
X440233Y262017D01*
X439990Y261801D01*
X439918Y261743D01*
X436997Y258822D01*
X433625Y257425D01*
X429975Y257425D01*
G37*
%LPD*%
%LPC*%
G36*
X175975Y257425D02*
X175975Y257425D01*
X172603Y258822D01*
X169682Y261743D01*
X169595Y261817D01*
X169515Y261898D01*
X169408Y261976D01*
X169306Y262062D01*
X169208Y262121D01*
X169116Y262188D01*
X168998Y262248D01*
X168884Y262317D01*
X168778Y262359D01*
X168676Y262411D01*
X168549Y262451D01*
X168426Y262500D01*
X168314Y262525D01*
X168205Y262559D01*
X168112Y262569D01*
X167944Y262607D01*
X167620Y262625D01*
X167527Y262635D01*
X129597Y262635D01*
X129484Y262626D01*
X129369Y262627D01*
X129238Y262606D01*
X129106Y262595D01*
X128995Y262568D01*
X128882Y262550D01*
X128756Y262509D01*
X128627Y262477D01*
X128522Y262432D01*
X128413Y262396D01*
X128295Y262334D01*
X128173Y262282D01*
X128077Y262221D01*
X127976Y262168D01*
X127902Y262109D01*
X127757Y262017D01*
X127515Y261801D01*
X127443Y261743D01*
X125509Y259809D01*
X122521Y258571D01*
X106079Y258571D01*
X103091Y259809D01*
X100805Y262095D01*
X99567Y265083D01*
X99567Y268317D01*
X100805Y271305D01*
X103091Y273591D01*
X106079Y274829D01*
X122521Y274829D01*
X125509Y273591D01*
X127443Y271657D01*
X127529Y271583D01*
X127610Y271502D01*
X127717Y271424D01*
X127818Y271338D01*
X127916Y271279D01*
X128009Y271212D01*
X128127Y271152D01*
X128241Y271083D01*
X128347Y271041D01*
X128449Y270989D01*
X128576Y270949D01*
X128699Y270900D01*
X128810Y270875D01*
X128920Y270841D01*
X129013Y270831D01*
X129181Y270793D01*
X129505Y270775D01*
X129597Y270765D01*
X167727Y270765D01*
X167841Y270774D01*
X167955Y270773D01*
X168087Y270794D01*
X168219Y270805D01*
X168330Y270832D01*
X168443Y270850D01*
X168569Y270891D01*
X168698Y270923D01*
X168803Y270968D01*
X168911Y271004D01*
X169029Y271066D01*
X169151Y271118D01*
X169248Y271179D01*
X169349Y271232D01*
X169423Y271291D01*
X169567Y271383D01*
X169810Y271599D01*
X169882Y271657D01*
X172603Y274378D01*
X175975Y275775D01*
X179625Y275775D01*
X182997Y274378D01*
X185578Y271797D01*
X186975Y268425D01*
X186975Y264775D01*
X185578Y261403D01*
X182997Y258822D01*
X179625Y257425D01*
X175975Y257425D01*
G37*
%LPD*%
%LPC*%
G36*
X175975Y79625D02*
X175975Y79625D01*
X172603Y81022D01*
X169682Y83943D01*
X169597Y84015D01*
X169541Y84072D01*
X169540Y84073D01*
X169515Y84098D01*
X169408Y84176D01*
X169306Y84262D01*
X169208Y84321D01*
X169116Y84388D01*
X168998Y84448D01*
X168884Y84517D01*
X168778Y84559D01*
X168676Y84611D01*
X168549Y84651D01*
X168426Y84700D01*
X168314Y84725D01*
X168205Y84759D01*
X168112Y84769D01*
X167944Y84807D01*
X167620Y84825D01*
X167527Y84835D01*
X129597Y84835D01*
X129484Y84826D01*
X129369Y84827D01*
X129238Y84806D01*
X129106Y84795D01*
X128995Y84768D01*
X128882Y84750D01*
X128756Y84709D01*
X128627Y84677D01*
X128522Y84632D01*
X128413Y84596D01*
X128295Y84534D01*
X128173Y84482D01*
X128077Y84421D01*
X127976Y84368D01*
X127902Y84309D01*
X127757Y84217D01*
X127515Y84001D01*
X127443Y83943D01*
X125509Y82009D01*
X122521Y80771D01*
X106079Y80771D01*
X103091Y82009D01*
X100805Y84295D01*
X99567Y87283D01*
X99567Y90517D01*
X100805Y93505D01*
X103091Y95791D01*
X106079Y97029D01*
X122521Y97029D01*
X125509Y95791D01*
X127443Y93857D01*
X127529Y93783D01*
X127610Y93702D01*
X127717Y93624D01*
X127818Y93538D01*
X127916Y93479D01*
X128009Y93412D01*
X128127Y93352D01*
X128241Y93283D01*
X128347Y93241D01*
X128449Y93189D01*
X128576Y93149D01*
X128699Y93100D01*
X128810Y93075D01*
X128920Y93041D01*
X129013Y93031D01*
X129181Y92993D01*
X129505Y92975D01*
X129597Y92965D01*
X167727Y92965D01*
X167841Y92974D01*
X167955Y92973D01*
X168087Y92994D01*
X168219Y93005D01*
X168330Y93032D01*
X168443Y93050D01*
X168569Y93091D01*
X168698Y93123D01*
X168803Y93168D01*
X168911Y93204D01*
X169029Y93266D01*
X169151Y93318D01*
X169248Y93379D01*
X169349Y93432D01*
X169423Y93491D01*
X169567Y93583D01*
X169810Y93799D01*
X169882Y93857D01*
X172603Y96578D01*
X175975Y97975D01*
X179625Y97975D01*
X182997Y96578D01*
X185578Y93997D01*
X186975Y90625D01*
X186975Y86975D01*
X185578Y83603D01*
X182997Y81022D01*
X179625Y79625D01*
X175975Y79625D01*
G37*
%LPD*%
%LPC*%
G36*
X175975Y232025D02*
X175975Y232025D01*
X172603Y233422D01*
X169682Y236343D01*
X169600Y236413D01*
X169579Y236434D01*
X169576Y236436D01*
X169515Y236498D01*
X169408Y236576D01*
X169306Y236662D01*
X169208Y236721D01*
X169116Y236788D01*
X168998Y236848D01*
X168884Y236917D01*
X168778Y236959D01*
X168676Y237011D01*
X168549Y237051D01*
X168426Y237100D01*
X168314Y237125D01*
X168205Y237159D01*
X168112Y237169D01*
X167944Y237207D01*
X167620Y237225D01*
X167527Y237235D01*
X129597Y237235D01*
X129484Y237226D01*
X129369Y237227D01*
X129238Y237206D01*
X129106Y237195D01*
X128995Y237168D01*
X128882Y237150D01*
X128756Y237109D01*
X128627Y237077D01*
X128522Y237032D01*
X128413Y236996D01*
X128295Y236934D01*
X128173Y236882D01*
X128077Y236821D01*
X127976Y236768D01*
X127902Y236709D01*
X127757Y236617D01*
X127515Y236401D01*
X127443Y236343D01*
X125509Y234409D01*
X122521Y233171D01*
X106079Y233171D01*
X103091Y234409D01*
X100805Y236695D01*
X99567Y239683D01*
X99567Y242917D01*
X100805Y245905D01*
X103091Y248191D01*
X106079Y249429D01*
X122521Y249429D01*
X125509Y248191D01*
X127443Y246257D01*
X127529Y246183D01*
X127610Y246102D01*
X127717Y246024D01*
X127818Y245938D01*
X127916Y245879D01*
X128009Y245812D01*
X128127Y245752D01*
X128241Y245683D01*
X128347Y245641D01*
X128449Y245589D01*
X128576Y245549D01*
X128699Y245500D01*
X128810Y245475D01*
X128920Y245441D01*
X129013Y245431D01*
X129181Y245393D01*
X129505Y245375D01*
X129597Y245365D01*
X167727Y245365D01*
X167841Y245374D01*
X167955Y245373D01*
X168087Y245394D01*
X168219Y245405D01*
X168330Y245432D01*
X168443Y245450D01*
X168569Y245491D01*
X168698Y245523D01*
X168803Y245568D01*
X168911Y245604D01*
X169029Y245666D01*
X169151Y245718D01*
X169248Y245779D01*
X169349Y245832D01*
X169423Y245891D01*
X169567Y245983D01*
X169810Y246199D01*
X169882Y246257D01*
X172603Y248978D01*
X175975Y250375D01*
X179625Y250375D01*
X182997Y248978D01*
X185578Y246397D01*
X186975Y243025D01*
X186975Y239375D01*
X185578Y236003D01*
X182997Y233422D01*
X179625Y232025D01*
X175975Y232025D01*
G37*
%LPD*%
%LPC*%
G36*
X175975Y384425D02*
X175975Y384425D01*
X172603Y385822D01*
X169682Y388743D01*
X169595Y388817D01*
X169515Y388898D01*
X169408Y388976D01*
X169306Y389062D01*
X169208Y389121D01*
X169116Y389188D01*
X168998Y389248D01*
X168884Y389317D01*
X168778Y389359D01*
X168676Y389411D01*
X168549Y389451D01*
X168426Y389500D01*
X168314Y389525D01*
X168205Y389559D01*
X168112Y389569D01*
X167944Y389607D01*
X167620Y389625D01*
X167527Y389635D01*
X129597Y389635D01*
X129484Y389626D01*
X129369Y389627D01*
X129238Y389606D01*
X129106Y389595D01*
X128995Y389568D01*
X128882Y389550D01*
X128756Y389509D01*
X128627Y389477D01*
X128522Y389432D01*
X128413Y389396D01*
X128295Y389334D01*
X128173Y389282D01*
X128077Y389221D01*
X127976Y389168D01*
X127902Y389109D01*
X127757Y389017D01*
X127515Y388801D01*
X127442Y388743D01*
X125509Y386809D01*
X122521Y385571D01*
X106079Y385571D01*
X103091Y386809D01*
X100805Y389095D01*
X99567Y392083D01*
X99567Y395317D01*
X100805Y398305D01*
X103091Y400591D01*
X106079Y401829D01*
X122521Y401829D01*
X125509Y400591D01*
X127442Y398657D01*
X127530Y398583D01*
X127610Y398502D01*
X127717Y398424D01*
X127818Y398338D01*
X127916Y398279D01*
X128009Y398212D01*
X128127Y398152D01*
X128241Y398083D01*
X128347Y398041D01*
X128449Y397989D01*
X128576Y397949D01*
X128699Y397900D01*
X128810Y397875D01*
X128919Y397841D01*
X129013Y397831D01*
X129181Y397793D01*
X129505Y397775D01*
X129597Y397765D01*
X167727Y397765D01*
X167841Y397774D01*
X167955Y397773D01*
X168087Y397794D01*
X168219Y397805D01*
X168330Y397832D01*
X168443Y397850D01*
X168569Y397891D01*
X168698Y397923D01*
X168803Y397968D01*
X168911Y398004D01*
X169029Y398066D01*
X169151Y398118D01*
X169248Y398179D01*
X169349Y398232D01*
X169423Y398291D01*
X169567Y398383D01*
X169810Y398599D01*
X169882Y398657D01*
X172603Y401378D01*
X175975Y402775D01*
X179625Y402775D01*
X182997Y401378D01*
X185578Y398797D01*
X186975Y395425D01*
X186975Y391775D01*
X185578Y388403D01*
X182997Y385822D01*
X179625Y384425D01*
X175975Y384425D01*
G37*
%LPD*%
%LPC*%
G36*
X175975Y359025D02*
X175975Y359025D01*
X172603Y360422D01*
X169682Y363343D01*
X169595Y363417D01*
X169515Y363498D01*
X169408Y363576D01*
X169306Y363662D01*
X169208Y363721D01*
X169116Y363788D01*
X168998Y363848D01*
X168884Y363917D01*
X168778Y363959D01*
X168676Y364011D01*
X168549Y364051D01*
X168426Y364100D01*
X168314Y364125D01*
X168205Y364159D01*
X168112Y364169D01*
X167944Y364207D01*
X167620Y364225D01*
X167527Y364235D01*
X129597Y364235D01*
X129484Y364226D01*
X129369Y364227D01*
X129238Y364206D01*
X129106Y364195D01*
X128995Y364168D01*
X128882Y364150D01*
X128756Y364109D01*
X128627Y364077D01*
X128522Y364032D01*
X128413Y363996D01*
X128295Y363934D01*
X128173Y363882D01*
X128077Y363821D01*
X127976Y363768D01*
X127902Y363709D01*
X127757Y363617D01*
X127515Y363401D01*
X127442Y363343D01*
X125509Y361409D01*
X122521Y360171D01*
X106079Y360171D01*
X103091Y361409D01*
X100805Y363695D01*
X99567Y366683D01*
X99567Y369917D01*
X100805Y372905D01*
X103091Y375191D01*
X106079Y376429D01*
X122521Y376429D01*
X125509Y375191D01*
X127442Y373257D01*
X127530Y373183D01*
X127610Y373102D01*
X127717Y373024D01*
X127818Y372938D01*
X127916Y372879D01*
X128009Y372812D01*
X128127Y372752D01*
X128241Y372683D01*
X128347Y372641D01*
X128449Y372589D01*
X128576Y372549D01*
X128699Y372500D01*
X128810Y372475D01*
X128919Y372441D01*
X129013Y372431D01*
X129181Y372393D01*
X129505Y372375D01*
X129597Y372365D01*
X167727Y372365D01*
X167841Y372374D01*
X167955Y372373D01*
X168087Y372394D01*
X168219Y372405D01*
X168330Y372432D01*
X168443Y372450D01*
X168569Y372491D01*
X168698Y372523D01*
X168803Y372568D01*
X168911Y372604D01*
X169029Y372666D01*
X169151Y372718D01*
X169248Y372779D01*
X169349Y372832D01*
X169423Y372891D01*
X169567Y372983D01*
X169810Y373199D01*
X169882Y373257D01*
X172603Y375978D01*
X175975Y377375D01*
X179625Y377375D01*
X182997Y375978D01*
X185578Y373397D01*
X186975Y370025D01*
X186975Y366375D01*
X185578Y363003D01*
X182997Y360422D01*
X179625Y359025D01*
X175975Y359025D01*
G37*
%LPD*%
%LPC*%
G36*
X429975Y181225D02*
X429975Y181225D01*
X426603Y182622D01*
X424022Y185203D01*
X422625Y188575D01*
X422625Y192225D01*
X424022Y195597D01*
X426603Y198178D01*
X429975Y199575D01*
X433625Y199575D01*
X436997Y198178D01*
X439718Y195457D01*
X439805Y195383D01*
X439885Y195302D01*
X439992Y195224D01*
X440094Y195138D01*
X440192Y195079D01*
X440284Y195012D01*
X440402Y194952D01*
X440516Y194883D01*
X440622Y194841D01*
X440724Y194789D01*
X440851Y194749D01*
X440974Y194700D01*
X441086Y194675D01*
X441195Y194641D01*
X441288Y194631D01*
X441456Y194593D01*
X441780Y194575D01*
X441872Y194565D01*
X480003Y194565D01*
X480116Y194574D01*
X480231Y194573D01*
X480362Y194594D01*
X480494Y194605D01*
X480605Y194632D01*
X480718Y194650D01*
X480844Y194691D01*
X480973Y194723D01*
X481078Y194768D01*
X481187Y194804D01*
X481305Y194866D01*
X481427Y194918D01*
X481523Y194979D01*
X481624Y195032D01*
X481698Y195091D01*
X481843Y195183D01*
X482085Y195399D01*
X482157Y195457D01*
X484091Y197391D01*
X487079Y198629D01*
X503521Y198629D01*
X506509Y197391D01*
X508795Y195105D01*
X510033Y192117D01*
X510033Y188883D01*
X508795Y185895D01*
X506509Y183609D01*
X503521Y182371D01*
X487079Y182371D01*
X484091Y183609D01*
X482157Y185543D01*
X482071Y185617D01*
X481990Y185698D01*
X481883Y185776D01*
X481782Y185862D01*
X481684Y185921D01*
X481591Y185988D01*
X481473Y186048D01*
X481359Y186117D01*
X481253Y186159D01*
X481151Y186211D01*
X481024Y186251D01*
X480901Y186300D01*
X480790Y186325D01*
X480680Y186359D01*
X480587Y186369D01*
X480419Y186407D01*
X480095Y186425D01*
X480003Y186435D01*
X442072Y186435D01*
X441959Y186426D01*
X441844Y186427D01*
X441713Y186406D01*
X441581Y186395D01*
X441470Y186368D01*
X441357Y186350D01*
X441231Y186309D01*
X441102Y186277D01*
X440997Y186232D01*
X440889Y186196D01*
X440771Y186134D01*
X440649Y186082D01*
X440552Y186021D01*
X440451Y185968D01*
X440377Y185909D01*
X440232Y185817D01*
X439991Y185601D01*
X439918Y185543D01*
X436997Y182622D01*
X433625Y181225D01*
X429975Y181225D01*
G37*
%LPD*%
%LPC*%
G36*
X429975Y206625D02*
X429975Y206625D01*
X426603Y208022D01*
X424022Y210603D01*
X422625Y213975D01*
X422625Y217625D01*
X424022Y220997D01*
X426603Y223578D01*
X429975Y224975D01*
X433625Y224975D01*
X436997Y223578D01*
X439718Y220857D01*
X439805Y220783D01*
X439885Y220702D01*
X439992Y220624D01*
X440094Y220538D01*
X440192Y220479D01*
X440284Y220412D01*
X440402Y220352D01*
X440516Y220283D01*
X440622Y220241D01*
X440724Y220189D01*
X440851Y220149D01*
X440974Y220100D01*
X441086Y220075D01*
X441195Y220041D01*
X441288Y220031D01*
X441456Y219993D01*
X441780Y219975D01*
X441872Y219965D01*
X480003Y219965D01*
X480116Y219974D01*
X480231Y219973D01*
X480362Y219994D01*
X480494Y220005D01*
X480605Y220032D01*
X480718Y220050D01*
X480844Y220091D01*
X480973Y220123D01*
X481078Y220168D01*
X481187Y220204D01*
X481305Y220266D01*
X481427Y220318D01*
X481523Y220379D01*
X481624Y220432D01*
X481698Y220491D01*
X481843Y220583D01*
X482085Y220799D01*
X482157Y220857D01*
X484091Y222791D01*
X487079Y224029D01*
X503521Y224029D01*
X506509Y222791D01*
X508795Y220505D01*
X510033Y217517D01*
X510033Y214283D01*
X508795Y211295D01*
X506509Y209009D01*
X503521Y207771D01*
X487079Y207771D01*
X484091Y209009D01*
X482157Y210943D01*
X482071Y211017D01*
X481990Y211098D01*
X481883Y211176D01*
X481782Y211262D01*
X481684Y211321D01*
X481591Y211388D01*
X481473Y211448D01*
X481359Y211517D01*
X481253Y211559D01*
X481151Y211611D01*
X481024Y211651D01*
X480901Y211700D01*
X480790Y211725D01*
X480680Y211759D01*
X480587Y211769D01*
X480419Y211807D01*
X480095Y211825D01*
X480003Y211835D01*
X442072Y211835D01*
X441959Y211826D01*
X441844Y211827D01*
X441713Y211806D01*
X441581Y211795D01*
X441470Y211768D01*
X441357Y211750D01*
X441231Y211709D01*
X441102Y211677D01*
X440997Y211632D01*
X440889Y211596D01*
X440771Y211534D01*
X440649Y211482D01*
X440552Y211421D01*
X440451Y211368D01*
X440377Y211309D01*
X440232Y211217D01*
X439991Y211001D01*
X439918Y210943D01*
X436997Y208022D01*
X433625Y206625D01*
X429975Y206625D01*
G37*
%LPD*%
%LPC*%
G36*
X429975Y460625D02*
X429975Y460625D01*
X426603Y462022D01*
X424022Y464603D01*
X422625Y467975D01*
X422625Y471625D01*
X424022Y474997D01*
X426603Y477578D01*
X429975Y478975D01*
X433625Y478975D01*
X436997Y477578D01*
X439718Y474857D01*
X439805Y474783D01*
X439885Y474702D01*
X439992Y474624D01*
X440094Y474538D01*
X440192Y474479D01*
X440284Y474412D01*
X440402Y474352D01*
X440516Y474283D01*
X440622Y474241D01*
X440724Y474189D01*
X440851Y474149D01*
X440974Y474100D01*
X441086Y474075D01*
X441195Y474041D01*
X441288Y474031D01*
X441456Y473993D01*
X441780Y473975D01*
X441872Y473965D01*
X480003Y473965D01*
X480116Y473974D01*
X480231Y473973D01*
X480362Y473994D01*
X480494Y474005D01*
X480605Y474032D01*
X480718Y474050D01*
X480844Y474091D01*
X480973Y474123D01*
X481078Y474168D01*
X481187Y474204D01*
X481305Y474266D01*
X481427Y474318D01*
X481523Y474379D01*
X481624Y474432D01*
X481698Y474491D01*
X481843Y474583D01*
X482085Y474799D01*
X482157Y474857D01*
X484091Y476791D01*
X487079Y478029D01*
X503521Y478029D01*
X506509Y476791D01*
X508795Y474505D01*
X510033Y471517D01*
X510033Y468283D01*
X508795Y465295D01*
X506509Y463009D01*
X503521Y461771D01*
X487079Y461771D01*
X484091Y463009D01*
X482157Y464943D01*
X482071Y465017D01*
X481990Y465098D01*
X481883Y465176D01*
X481782Y465262D01*
X481684Y465321D01*
X481591Y465388D01*
X481473Y465448D01*
X481359Y465517D01*
X481253Y465559D01*
X481151Y465611D01*
X481024Y465651D01*
X480901Y465700D01*
X480790Y465725D01*
X480680Y465759D01*
X480587Y465769D01*
X480419Y465807D01*
X480095Y465825D01*
X480003Y465835D01*
X442072Y465835D01*
X441959Y465826D01*
X441844Y465827D01*
X441713Y465806D01*
X441581Y465795D01*
X441470Y465768D01*
X441357Y465750D01*
X441231Y465709D01*
X441102Y465677D01*
X440997Y465632D01*
X440889Y465596D01*
X440771Y465534D01*
X440649Y465482D01*
X440552Y465421D01*
X440451Y465368D01*
X440377Y465309D01*
X440232Y465217D01*
X439991Y465001D01*
X439918Y464943D01*
X436997Y462022D01*
X433625Y460625D01*
X429975Y460625D01*
G37*
%LPD*%
%LPC*%
G36*
X429975Y232025D02*
X429975Y232025D01*
X426603Y233422D01*
X424022Y236003D01*
X422625Y239375D01*
X422625Y243025D01*
X424022Y246397D01*
X426603Y248978D01*
X429975Y250375D01*
X433625Y250375D01*
X436997Y248978D01*
X439718Y246257D01*
X439805Y246183D01*
X439885Y246102D01*
X439992Y246024D01*
X440094Y245938D01*
X440192Y245879D01*
X440284Y245812D01*
X440402Y245752D01*
X440516Y245683D01*
X440622Y245641D01*
X440724Y245589D01*
X440851Y245549D01*
X440974Y245500D01*
X441086Y245475D01*
X441195Y245441D01*
X441288Y245431D01*
X441456Y245393D01*
X441780Y245375D01*
X441872Y245365D01*
X480003Y245365D01*
X480116Y245374D01*
X480231Y245373D01*
X480362Y245394D01*
X480494Y245405D01*
X480605Y245432D01*
X480718Y245450D01*
X480844Y245491D01*
X480973Y245523D01*
X481078Y245568D01*
X481187Y245604D01*
X481305Y245666D01*
X481427Y245718D01*
X481523Y245779D01*
X481624Y245832D01*
X481698Y245891D01*
X481843Y245983D01*
X482085Y246199D01*
X482157Y246257D01*
X484091Y248191D01*
X487079Y249429D01*
X503521Y249429D01*
X506509Y248191D01*
X508795Y245905D01*
X510033Y242917D01*
X510033Y239683D01*
X508795Y236695D01*
X506509Y234409D01*
X503521Y233171D01*
X487079Y233171D01*
X484091Y234409D01*
X482157Y236343D01*
X482075Y236413D01*
X482054Y236434D01*
X482051Y236436D01*
X481990Y236498D01*
X481883Y236576D01*
X481782Y236662D01*
X481684Y236721D01*
X481591Y236788D01*
X481473Y236848D01*
X481359Y236917D01*
X481253Y236959D01*
X481151Y237011D01*
X481024Y237051D01*
X480901Y237100D01*
X480790Y237125D01*
X480680Y237159D01*
X480587Y237169D01*
X480419Y237207D01*
X480095Y237225D01*
X480003Y237235D01*
X442072Y237235D01*
X441959Y237226D01*
X441844Y237227D01*
X441713Y237206D01*
X441581Y237195D01*
X441470Y237168D01*
X441357Y237150D01*
X441231Y237109D01*
X441102Y237077D01*
X440997Y237032D01*
X440889Y236996D01*
X440771Y236934D01*
X440649Y236882D01*
X440552Y236821D01*
X440451Y236768D01*
X440377Y236709D01*
X440232Y236617D01*
X439991Y236401D01*
X439918Y236343D01*
X436997Y233422D01*
X433625Y232025D01*
X429975Y232025D01*
G37*
%LPD*%
%LPC*%
G36*
X429975Y155825D02*
X429975Y155825D01*
X426603Y157222D01*
X424022Y159803D01*
X422625Y163175D01*
X422625Y166825D01*
X424022Y170197D01*
X426603Y172778D01*
X429975Y174175D01*
X433625Y174175D01*
X436997Y172778D01*
X439718Y170057D01*
X439805Y169983D01*
X439885Y169902D01*
X439992Y169824D01*
X440094Y169738D01*
X440192Y169679D01*
X440284Y169612D01*
X440402Y169552D01*
X440516Y169483D01*
X440622Y169441D01*
X440724Y169389D01*
X440851Y169349D01*
X440974Y169300D01*
X441086Y169275D01*
X441195Y169241D01*
X441288Y169231D01*
X441456Y169193D01*
X441780Y169175D01*
X441872Y169165D01*
X480003Y169165D01*
X480116Y169174D01*
X480231Y169173D01*
X480362Y169194D01*
X480494Y169205D01*
X480605Y169232D01*
X480718Y169250D01*
X480844Y169291D01*
X480973Y169323D01*
X481078Y169368D01*
X481187Y169404D01*
X481305Y169466D01*
X481427Y169518D01*
X481523Y169579D01*
X481624Y169632D01*
X481698Y169691D01*
X481843Y169783D01*
X482085Y169999D01*
X482157Y170057D01*
X484091Y171991D01*
X487079Y173229D01*
X503521Y173229D01*
X506509Y171991D01*
X508795Y169705D01*
X510033Y166717D01*
X510033Y163483D01*
X508795Y160495D01*
X506509Y158209D01*
X503521Y156971D01*
X487079Y156971D01*
X484091Y158209D01*
X482157Y160143D01*
X482074Y160214D01*
X482035Y160253D01*
X482033Y160254D01*
X481990Y160298D01*
X481883Y160376D01*
X481782Y160462D01*
X481684Y160521D01*
X481591Y160588D01*
X481473Y160648D01*
X481359Y160717D01*
X481253Y160759D01*
X481151Y160811D01*
X481024Y160851D01*
X480901Y160900D01*
X480790Y160925D01*
X480680Y160959D01*
X480587Y160969D01*
X480419Y161007D01*
X480095Y161025D01*
X480003Y161035D01*
X442072Y161035D01*
X441959Y161026D01*
X441844Y161027D01*
X441713Y161006D01*
X441581Y160995D01*
X441470Y160968D01*
X441357Y160950D01*
X441231Y160909D01*
X441102Y160877D01*
X440997Y160832D01*
X440889Y160796D01*
X440771Y160734D01*
X440649Y160682D01*
X440552Y160621D01*
X440451Y160568D01*
X440377Y160509D01*
X440232Y160417D01*
X439991Y160201D01*
X439918Y160143D01*
X436997Y157222D01*
X433625Y155825D01*
X429975Y155825D01*
G37*
%LPD*%
%LPC*%
G36*
X429975Y54225D02*
X429975Y54225D01*
X426603Y55622D01*
X424022Y58203D01*
X422625Y61575D01*
X422625Y65225D01*
X424022Y68597D01*
X426603Y71178D01*
X429975Y72575D01*
X433625Y72575D01*
X436997Y71178D01*
X439718Y68457D01*
X439805Y68383D01*
X439885Y68302D01*
X439992Y68224D01*
X440094Y68138D01*
X440192Y68079D01*
X440284Y68012D01*
X440402Y67952D01*
X440516Y67883D01*
X440622Y67841D01*
X440724Y67789D01*
X440851Y67749D01*
X440974Y67700D01*
X441086Y67675D01*
X441195Y67641D01*
X441288Y67631D01*
X441456Y67593D01*
X441780Y67575D01*
X441872Y67565D01*
X480003Y67565D01*
X480116Y67574D01*
X480231Y67573D01*
X480362Y67594D01*
X480494Y67605D01*
X480605Y67632D01*
X480718Y67650D01*
X480844Y67691D01*
X480973Y67723D01*
X481078Y67768D01*
X481187Y67804D01*
X481305Y67866D01*
X481427Y67918D01*
X481523Y67979D01*
X481624Y68032D01*
X481698Y68091D01*
X481843Y68183D01*
X482085Y68399D01*
X482158Y68457D01*
X484091Y70391D01*
X487079Y71629D01*
X503521Y71629D01*
X506509Y70391D01*
X508795Y68105D01*
X510033Y65117D01*
X510033Y61883D01*
X508795Y58895D01*
X506509Y56609D01*
X503521Y55371D01*
X487079Y55371D01*
X484091Y56609D01*
X482158Y58543D01*
X482070Y58617D01*
X481990Y58698D01*
X481883Y58776D01*
X481782Y58862D01*
X481684Y58921D01*
X481591Y58988D01*
X481473Y59048D01*
X481359Y59117D01*
X481253Y59159D01*
X481151Y59211D01*
X481024Y59251D01*
X480901Y59300D01*
X480790Y59325D01*
X480681Y59359D01*
X480587Y59369D01*
X480419Y59407D01*
X480095Y59425D01*
X480003Y59435D01*
X442072Y59435D01*
X441959Y59426D01*
X441844Y59427D01*
X441713Y59406D01*
X441581Y59395D01*
X441470Y59368D01*
X441357Y59350D01*
X441231Y59309D01*
X441102Y59277D01*
X440997Y59232D01*
X440889Y59196D01*
X440771Y59134D01*
X440649Y59082D01*
X440552Y59021D01*
X440451Y58968D01*
X440377Y58909D01*
X440232Y58817D01*
X439991Y58601D01*
X439918Y58543D01*
X436997Y55622D01*
X433625Y54225D01*
X429975Y54225D01*
G37*
%LPD*%
%LPC*%
G36*
X429975Y105025D02*
X429975Y105025D01*
X426603Y106422D01*
X424022Y109003D01*
X422625Y112375D01*
X422625Y116025D01*
X424022Y119397D01*
X426603Y121978D01*
X429975Y123375D01*
X433625Y123375D01*
X436997Y121978D01*
X439718Y119257D01*
X439805Y119183D01*
X439885Y119102D01*
X439992Y119024D01*
X440094Y118938D01*
X440192Y118879D01*
X440284Y118812D01*
X440402Y118752D01*
X440516Y118683D01*
X440622Y118641D01*
X440724Y118589D01*
X440851Y118549D01*
X440974Y118500D01*
X441086Y118475D01*
X441195Y118441D01*
X441288Y118431D01*
X441456Y118393D01*
X441780Y118375D01*
X441872Y118365D01*
X480003Y118365D01*
X480116Y118374D01*
X480231Y118373D01*
X480362Y118394D01*
X480494Y118405D01*
X480605Y118432D01*
X480718Y118450D01*
X480844Y118491D01*
X480973Y118523D01*
X481078Y118568D01*
X481187Y118604D01*
X481305Y118666D01*
X481427Y118718D01*
X481523Y118779D01*
X481624Y118832D01*
X481698Y118891D01*
X481843Y118983D01*
X482085Y119199D01*
X482158Y119257D01*
X484091Y121191D01*
X487079Y122429D01*
X503521Y122429D01*
X506509Y121191D01*
X508795Y118905D01*
X510033Y115917D01*
X510033Y112683D01*
X508795Y109695D01*
X506509Y107409D01*
X503521Y106171D01*
X487079Y106171D01*
X484091Y107409D01*
X482158Y109343D01*
X482070Y109417D01*
X481990Y109498D01*
X481883Y109576D01*
X481782Y109662D01*
X481684Y109721D01*
X481591Y109788D01*
X481473Y109848D01*
X481359Y109917D01*
X481253Y109959D01*
X481151Y110011D01*
X481024Y110051D01*
X480901Y110100D01*
X480790Y110125D01*
X480681Y110159D01*
X480587Y110169D01*
X480419Y110207D01*
X480095Y110225D01*
X480003Y110235D01*
X442072Y110235D01*
X441959Y110226D01*
X441844Y110227D01*
X441713Y110206D01*
X441581Y110195D01*
X441470Y110168D01*
X441357Y110150D01*
X441231Y110109D01*
X441102Y110077D01*
X440997Y110032D01*
X440889Y109996D01*
X440771Y109934D01*
X440649Y109882D01*
X440552Y109821D01*
X440451Y109768D01*
X440377Y109709D01*
X440232Y109617D01*
X439991Y109401D01*
X439918Y109343D01*
X436997Y106422D01*
X433625Y105025D01*
X429975Y105025D01*
G37*
%LPD*%
%LPC*%
G36*
X429975Y435225D02*
X429975Y435225D01*
X426603Y436622D01*
X424022Y439203D01*
X422625Y442575D01*
X422625Y446225D01*
X424022Y449597D01*
X426603Y452178D01*
X429975Y453575D01*
X433625Y453575D01*
X436997Y452178D01*
X439718Y449457D01*
X439805Y449383D01*
X439885Y449302D01*
X439992Y449224D01*
X440094Y449138D01*
X440192Y449079D01*
X440284Y449012D01*
X440402Y448952D01*
X440516Y448883D01*
X440622Y448841D01*
X440724Y448789D01*
X440851Y448749D01*
X440974Y448700D01*
X441086Y448675D01*
X441195Y448641D01*
X441288Y448631D01*
X441456Y448593D01*
X441780Y448575D01*
X441872Y448565D01*
X480003Y448565D01*
X480116Y448574D01*
X480231Y448573D01*
X480362Y448594D01*
X480494Y448605D01*
X480605Y448632D01*
X480718Y448650D01*
X480844Y448691D01*
X480973Y448723D01*
X481078Y448768D01*
X481187Y448804D01*
X481305Y448866D01*
X481427Y448918D01*
X481523Y448979D01*
X481624Y449032D01*
X481698Y449091D01*
X481843Y449183D01*
X482085Y449399D01*
X482158Y449457D01*
X484091Y451391D01*
X487079Y452629D01*
X503521Y452629D01*
X506509Y451391D01*
X508795Y449105D01*
X510033Y446117D01*
X510033Y442883D01*
X508795Y439895D01*
X506509Y437609D01*
X503521Y436371D01*
X487079Y436371D01*
X484091Y437609D01*
X482158Y439543D01*
X482070Y439617D01*
X481990Y439698D01*
X481883Y439776D01*
X481782Y439862D01*
X481684Y439921D01*
X481591Y439988D01*
X481473Y440048D01*
X481359Y440117D01*
X481253Y440159D01*
X481151Y440211D01*
X481024Y440251D01*
X480901Y440300D01*
X480790Y440325D01*
X480681Y440359D01*
X480587Y440369D01*
X480419Y440407D01*
X480095Y440425D01*
X480003Y440435D01*
X442072Y440435D01*
X441959Y440426D01*
X441844Y440427D01*
X441713Y440406D01*
X441581Y440395D01*
X441470Y440368D01*
X441357Y440350D01*
X441231Y440309D01*
X441102Y440277D01*
X440997Y440232D01*
X440889Y440196D01*
X440771Y440134D01*
X440649Y440082D01*
X440552Y440021D01*
X440451Y439968D01*
X440377Y439909D01*
X440232Y439817D01*
X439991Y439601D01*
X439918Y439543D01*
X436997Y436622D01*
X433625Y435225D01*
X429975Y435225D01*
G37*
%LPD*%
%LPC*%
G36*
X175975Y460625D02*
X175975Y460625D01*
X172603Y462022D01*
X169682Y464943D01*
X169595Y465017D01*
X169515Y465098D01*
X169408Y465176D01*
X169306Y465262D01*
X169208Y465321D01*
X169116Y465388D01*
X168998Y465448D01*
X168884Y465517D01*
X168778Y465559D01*
X168676Y465611D01*
X168549Y465651D01*
X168426Y465700D01*
X168314Y465725D01*
X168205Y465759D01*
X168112Y465769D01*
X167944Y465807D01*
X167620Y465825D01*
X167528Y465835D01*
X129597Y465835D01*
X129484Y465826D01*
X129369Y465827D01*
X129238Y465806D01*
X129106Y465795D01*
X128995Y465768D01*
X128882Y465750D01*
X128756Y465709D01*
X128627Y465677D01*
X128522Y465632D01*
X128413Y465596D01*
X128295Y465534D01*
X128173Y465482D01*
X128077Y465421D01*
X127976Y465368D01*
X127902Y465309D01*
X127757Y465217D01*
X127515Y465001D01*
X127442Y464943D01*
X125509Y463009D01*
X122521Y461771D01*
X106079Y461771D01*
X103091Y463009D01*
X100805Y465295D01*
X99567Y468283D01*
X99567Y471517D01*
X100805Y474505D01*
X103091Y476791D01*
X106079Y478029D01*
X122521Y478029D01*
X125509Y476791D01*
X127442Y474857D01*
X127530Y474783D01*
X127610Y474702D01*
X127717Y474624D01*
X127818Y474538D01*
X127916Y474479D01*
X128009Y474412D01*
X128127Y474352D01*
X128241Y474283D01*
X128347Y474241D01*
X128449Y474189D01*
X128576Y474149D01*
X128699Y474100D01*
X128810Y474075D01*
X128919Y474041D01*
X129013Y474031D01*
X129181Y473993D01*
X129505Y473975D01*
X129597Y473965D01*
X167728Y473965D01*
X167841Y473974D01*
X167956Y473973D01*
X168087Y473994D01*
X168219Y474005D01*
X168330Y474032D01*
X168443Y474050D01*
X168569Y474091D01*
X168698Y474123D01*
X168803Y474168D01*
X168911Y474204D01*
X169029Y474266D01*
X169151Y474318D01*
X169248Y474379D01*
X169349Y474432D01*
X169423Y474491D01*
X169568Y474583D01*
X169809Y474799D01*
X169882Y474857D01*
X172603Y477578D01*
X175975Y478975D01*
X179625Y478975D01*
X182997Y477578D01*
X185578Y474997D01*
X186975Y471625D01*
X186975Y467975D01*
X185578Y464603D01*
X182997Y462022D01*
X179625Y460625D01*
X175975Y460625D01*
G37*
%LPD*%
%LPC*%
G36*
X175975Y486025D02*
X175975Y486025D01*
X172603Y487422D01*
X169682Y490343D01*
X169595Y490417D01*
X169515Y490498D01*
X169408Y490576D01*
X169306Y490662D01*
X169208Y490721D01*
X169116Y490788D01*
X168998Y490848D01*
X168884Y490917D01*
X168778Y490959D01*
X168676Y491011D01*
X168549Y491051D01*
X168426Y491100D01*
X168314Y491125D01*
X168205Y491159D01*
X168112Y491169D01*
X167944Y491207D01*
X167620Y491225D01*
X167528Y491235D01*
X129597Y491235D01*
X129484Y491226D01*
X129369Y491227D01*
X129238Y491206D01*
X129106Y491195D01*
X128995Y491168D01*
X128882Y491150D01*
X128756Y491109D01*
X128627Y491077D01*
X128522Y491032D01*
X128413Y490996D01*
X128295Y490934D01*
X128173Y490882D01*
X128077Y490821D01*
X127976Y490768D01*
X127902Y490709D01*
X127757Y490617D01*
X127515Y490401D01*
X127442Y490343D01*
X125509Y488409D01*
X122521Y487171D01*
X106079Y487171D01*
X103091Y488409D01*
X100805Y490695D01*
X99567Y493683D01*
X99567Y496917D01*
X100805Y499905D01*
X103091Y502191D01*
X106079Y503429D01*
X122521Y503429D01*
X125509Y502191D01*
X127442Y500257D01*
X127530Y500183D01*
X127610Y500102D01*
X127717Y500024D01*
X127818Y499938D01*
X127916Y499879D01*
X128009Y499812D01*
X128127Y499752D01*
X128241Y499683D01*
X128347Y499641D01*
X128449Y499589D01*
X128576Y499549D01*
X128699Y499500D01*
X128810Y499475D01*
X128919Y499441D01*
X129013Y499431D01*
X129181Y499393D01*
X129505Y499375D01*
X129597Y499365D01*
X167728Y499365D01*
X167841Y499374D01*
X167956Y499373D01*
X168087Y499394D01*
X168219Y499405D01*
X168330Y499432D01*
X168443Y499450D01*
X168569Y499491D01*
X168698Y499523D01*
X168803Y499568D01*
X168911Y499604D01*
X169029Y499666D01*
X169151Y499718D01*
X169248Y499779D01*
X169349Y499832D01*
X169423Y499891D01*
X169568Y499983D01*
X169809Y500199D01*
X169882Y500257D01*
X172603Y502978D01*
X175975Y504375D01*
X179625Y504375D01*
X182997Y502978D01*
X185578Y500397D01*
X186975Y497025D01*
X186975Y493375D01*
X185578Y490003D01*
X182997Y487422D01*
X179625Y486025D01*
X175975Y486025D01*
G37*
%LPD*%
%LPC*%
G36*
X429975Y130425D02*
X429975Y130425D01*
X426603Y131822D01*
X424022Y134403D01*
X422625Y137775D01*
X422625Y141425D01*
X424022Y144797D01*
X426603Y147378D01*
X429975Y148775D01*
X433625Y148775D01*
X436997Y147378D01*
X439718Y144657D01*
X439805Y144583D01*
X439885Y144502D01*
X439992Y144424D01*
X440094Y144338D01*
X440192Y144279D01*
X440284Y144212D01*
X440402Y144152D01*
X440516Y144083D01*
X440622Y144041D01*
X440724Y143989D01*
X440851Y143949D01*
X440974Y143900D01*
X441086Y143875D01*
X441195Y143841D01*
X441288Y143831D01*
X441456Y143793D01*
X441780Y143775D01*
X441872Y143765D01*
X480003Y143765D01*
X480116Y143774D01*
X480231Y143773D01*
X480362Y143794D01*
X480494Y143805D01*
X480605Y143832D01*
X480718Y143850D01*
X480844Y143891D01*
X480973Y143923D01*
X481078Y143968D01*
X481187Y144004D01*
X481305Y144066D01*
X481427Y144118D01*
X481523Y144179D01*
X481624Y144232D01*
X481698Y144291D01*
X481843Y144383D01*
X482085Y144599D01*
X482158Y144657D01*
X484091Y146591D01*
X487079Y147829D01*
X503521Y147829D01*
X506509Y146591D01*
X508795Y144305D01*
X510033Y141317D01*
X510033Y138083D01*
X508795Y135095D01*
X506509Y132809D01*
X503521Y131571D01*
X487079Y131571D01*
X484091Y132809D01*
X482158Y134743D01*
X482070Y134817D01*
X481990Y134898D01*
X481883Y134976D01*
X481782Y135062D01*
X481684Y135121D01*
X481591Y135188D01*
X481473Y135248D01*
X481359Y135317D01*
X481253Y135359D01*
X481151Y135411D01*
X481024Y135451D01*
X480901Y135500D01*
X480790Y135525D01*
X480681Y135559D01*
X480587Y135569D01*
X480419Y135607D01*
X480095Y135625D01*
X480003Y135635D01*
X442072Y135635D01*
X441959Y135626D01*
X441844Y135627D01*
X441713Y135606D01*
X441581Y135595D01*
X441470Y135568D01*
X441357Y135550D01*
X441231Y135509D01*
X441102Y135477D01*
X440997Y135432D01*
X440889Y135396D01*
X440771Y135334D01*
X440649Y135282D01*
X440552Y135221D01*
X440451Y135168D01*
X440377Y135109D01*
X440232Y135017D01*
X439991Y134801D01*
X439918Y134743D01*
X436997Y131822D01*
X433625Y130425D01*
X429975Y130425D01*
G37*
%LPD*%
%LPC*%
G36*
X429975Y409825D02*
X429975Y409825D01*
X426603Y411222D01*
X424022Y413803D01*
X422625Y417175D01*
X422625Y420825D01*
X424022Y424197D01*
X426603Y426778D01*
X429975Y428175D01*
X433625Y428175D01*
X436997Y426778D01*
X439718Y424057D01*
X439805Y423983D01*
X439885Y423902D01*
X439992Y423824D01*
X440094Y423738D01*
X440192Y423679D01*
X440284Y423612D01*
X440402Y423552D01*
X440516Y423483D01*
X440622Y423441D01*
X440724Y423389D01*
X440851Y423349D01*
X440974Y423300D01*
X441086Y423275D01*
X441195Y423241D01*
X441288Y423231D01*
X441456Y423193D01*
X441780Y423175D01*
X441872Y423165D01*
X480003Y423165D01*
X480116Y423174D01*
X480231Y423173D01*
X480362Y423194D01*
X480494Y423205D01*
X480605Y423232D01*
X480718Y423250D01*
X480844Y423291D01*
X480973Y423323D01*
X481078Y423368D01*
X481187Y423404D01*
X481305Y423466D01*
X481427Y423518D01*
X481523Y423579D01*
X481624Y423632D01*
X481698Y423691D01*
X481843Y423783D01*
X482085Y423999D01*
X482158Y424057D01*
X484091Y425991D01*
X487079Y427229D01*
X503521Y427229D01*
X506509Y425991D01*
X508795Y423705D01*
X510033Y420717D01*
X510033Y417483D01*
X508795Y414495D01*
X506509Y412209D01*
X503521Y410971D01*
X487079Y410971D01*
X484091Y412209D01*
X482158Y414143D01*
X482070Y414217D01*
X481990Y414298D01*
X481883Y414376D01*
X481782Y414462D01*
X481684Y414521D01*
X481591Y414588D01*
X481473Y414648D01*
X481359Y414717D01*
X481253Y414759D01*
X481151Y414811D01*
X481024Y414851D01*
X480901Y414900D01*
X480790Y414925D01*
X480681Y414959D01*
X480587Y414969D01*
X480419Y415007D01*
X480095Y415025D01*
X480003Y415035D01*
X442072Y415035D01*
X441959Y415026D01*
X441844Y415027D01*
X441713Y415006D01*
X441581Y414995D01*
X441470Y414968D01*
X441357Y414950D01*
X441231Y414909D01*
X441102Y414877D01*
X440997Y414832D01*
X440889Y414796D01*
X440771Y414734D01*
X440649Y414682D01*
X440552Y414621D01*
X440451Y414568D01*
X440377Y414509D01*
X440232Y414417D01*
X439991Y414201D01*
X439918Y414143D01*
X436997Y411222D01*
X433625Y409825D01*
X429975Y409825D01*
G37*
%LPD*%
%LPC*%
G36*
X429975Y79625D02*
X429975Y79625D01*
X426603Y81022D01*
X424022Y83603D01*
X422625Y86975D01*
X422625Y90625D01*
X424022Y93997D01*
X426603Y96578D01*
X429975Y97975D01*
X433625Y97975D01*
X436997Y96578D01*
X439718Y93857D01*
X439805Y93783D01*
X439885Y93702D01*
X439992Y93624D01*
X440094Y93538D01*
X440192Y93479D01*
X440284Y93412D01*
X440402Y93352D01*
X440516Y93283D01*
X440622Y93241D01*
X440724Y93189D01*
X440851Y93149D01*
X440974Y93100D01*
X441086Y93075D01*
X441195Y93041D01*
X441288Y93031D01*
X441456Y92993D01*
X441780Y92975D01*
X441872Y92965D01*
X480003Y92965D01*
X480116Y92974D01*
X480231Y92973D01*
X480362Y92994D01*
X480494Y93005D01*
X480605Y93032D01*
X480718Y93050D01*
X480844Y93091D01*
X480973Y93123D01*
X481078Y93168D01*
X481187Y93204D01*
X481305Y93266D01*
X481427Y93318D01*
X481523Y93379D01*
X481624Y93432D01*
X481698Y93491D01*
X481843Y93583D01*
X482085Y93799D01*
X482158Y93857D01*
X484091Y95791D01*
X487079Y97029D01*
X503521Y97029D01*
X506509Y95791D01*
X508795Y93505D01*
X510033Y90517D01*
X510033Y87283D01*
X508795Y84295D01*
X506509Y82009D01*
X503521Y80771D01*
X487079Y80771D01*
X484091Y82009D01*
X482158Y83943D01*
X482072Y84015D01*
X482016Y84072D01*
X482015Y84072D01*
X481990Y84098D01*
X481883Y84176D01*
X481782Y84262D01*
X481684Y84321D01*
X481591Y84388D01*
X481473Y84448D01*
X481359Y84517D01*
X481253Y84559D01*
X481151Y84611D01*
X481024Y84651D01*
X480901Y84700D01*
X480790Y84725D01*
X480681Y84759D01*
X480587Y84769D01*
X480419Y84807D01*
X480095Y84825D01*
X480003Y84835D01*
X442072Y84835D01*
X441959Y84826D01*
X441844Y84827D01*
X441713Y84806D01*
X441581Y84795D01*
X441470Y84768D01*
X441357Y84750D01*
X441231Y84709D01*
X441102Y84677D01*
X440997Y84632D01*
X440889Y84596D01*
X440771Y84534D01*
X440649Y84482D01*
X440552Y84421D01*
X440451Y84368D01*
X440377Y84309D01*
X440232Y84217D01*
X439991Y84001D01*
X439918Y83943D01*
X436997Y81022D01*
X433625Y79625D01*
X429975Y79625D01*
G37*
%LPD*%
%LPC*%
G36*
X962716Y552068D02*
X962716Y552068D01*
X958865Y553663D01*
X955917Y556611D01*
X954322Y560462D01*
X954322Y582538D01*
X955917Y586389D01*
X958865Y589337D01*
X962716Y590932D01*
X966884Y590932D01*
X970735Y589337D01*
X973683Y586389D01*
X975278Y582538D01*
X975278Y560462D01*
X973683Y556611D01*
X970735Y553663D01*
X966884Y552068D01*
X962716Y552068D01*
G37*
%LPD*%
%LPC*%
G36*
X912716Y552068D02*
X912716Y552068D01*
X908865Y553663D01*
X905917Y556611D01*
X904322Y560462D01*
X904322Y582538D01*
X905917Y586389D01*
X908865Y589337D01*
X912716Y590932D01*
X916884Y590932D01*
X920735Y589337D01*
X923683Y586389D01*
X925278Y582538D01*
X925278Y560462D01*
X923683Y556611D01*
X920735Y553663D01*
X916884Y552068D01*
X912716Y552068D01*
G37*
%LPD*%
%LPC*%
G36*
X823016Y552068D02*
X823016Y552068D01*
X819165Y553663D01*
X816217Y556611D01*
X814622Y560462D01*
X814622Y582538D01*
X816217Y586389D01*
X819165Y589337D01*
X823016Y590932D01*
X827184Y590932D01*
X831035Y589337D01*
X833983Y586389D01*
X835578Y582538D01*
X835578Y560462D01*
X833983Y556611D01*
X831035Y553663D01*
X827184Y552068D01*
X823016Y552068D01*
G37*
%LPD*%
%LPC*%
G36*
X487079Y29971D02*
X487079Y29971D01*
X484091Y31209D01*
X481805Y33495D01*
X480567Y36483D01*
X480567Y39717D01*
X481805Y42705D01*
X484091Y44991D01*
X487079Y46229D01*
X503521Y46229D01*
X506509Y44991D01*
X508795Y42705D01*
X510033Y39717D01*
X510033Y36483D01*
X508795Y33495D01*
X506509Y31209D01*
X503521Y29971D01*
X487079Y29971D01*
G37*
%LPD*%
%LPC*%
G36*
X106079Y29971D02*
X106079Y29971D01*
X103091Y31209D01*
X100805Y33495D01*
X99567Y36483D01*
X99567Y39717D01*
X100805Y42705D01*
X103091Y44991D01*
X106079Y46229D01*
X122521Y46229D01*
X125509Y44991D01*
X127795Y42705D01*
X129033Y39717D01*
X129033Y36483D01*
X127795Y33495D01*
X125509Y31209D01*
X122521Y29971D01*
X106079Y29971D01*
G37*
%LPD*%
%LPC*%
G36*
X595578Y239085D02*
X595578Y239085D01*
X594685Y239978D01*
X594685Y255322D01*
X595578Y256215D01*
X610922Y256215D01*
X611815Y255322D01*
X611815Y239978D01*
X610922Y239085D01*
X595578Y239085D01*
G37*
%LPD*%
%LPC*%
G36*
X678128Y239085D02*
X678128Y239085D01*
X677235Y239978D01*
X677235Y255322D01*
X678128Y256215D01*
X693472Y256215D01*
X694365Y255322D01*
X694365Y239978D01*
X693472Y239085D01*
X678128Y239085D01*
G37*
%LPD*%
%LPC*%
G36*
X703528Y16835D02*
X703528Y16835D01*
X702635Y17728D01*
X702635Y33072D01*
X703528Y33965D01*
X718872Y33965D01*
X719765Y33072D01*
X719765Y17728D01*
X718872Y16835D01*
X703528Y16835D01*
G37*
%LPD*%
%LPC*%
G36*
X570178Y16835D02*
X570178Y16835D01*
X569285Y17728D01*
X569285Y33072D01*
X570178Y33965D01*
X585522Y33965D01*
X586415Y33072D01*
X586415Y17728D01*
X585522Y16835D01*
X570178Y16835D01*
G37*
%LPD*%
%LPC*%
G36*
X174012Y28955D02*
X174012Y28955D01*
X168655Y34312D01*
X168655Y41888D01*
X174012Y47245D01*
X181588Y47245D01*
X186945Y41888D01*
X186945Y34312D01*
X181588Y28955D01*
X174012Y28955D01*
G37*
%LPD*%
%LPC*%
G36*
X428012Y28955D02*
X428012Y28955D01*
X422655Y34312D01*
X422655Y41888D01*
X428012Y47245D01*
X435588Y47245D01*
X440945Y41888D01*
X440945Y34312D01*
X435588Y28955D01*
X428012Y28955D01*
G37*
%LPD*%
%LPC*%
G36*
X777747Y117347D02*
X777747Y117347D01*
X777747Y136653D01*
X792013Y136653D01*
X791736Y135800D01*
X791010Y134375D01*
X790070Y133081D01*
X788939Y131950D01*
X787645Y131010D01*
X786220Y130284D01*
X785034Y129898D01*
X785006Y129886D01*
X784976Y129879D01*
X784777Y129791D01*
X784578Y129708D01*
X784553Y129692D01*
X784525Y129680D01*
X784342Y129561D01*
X784160Y129447D01*
X784137Y129427D01*
X784111Y129410D01*
X783951Y129264D01*
X783789Y129122D01*
X783769Y129099D01*
X783747Y129078D01*
X783612Y128908D01*
X783475Y128742D01*
X783459Y128715D01*
X783440Y128691D01*
X783335Y128502D01*
X783227Y128315D01*
X783216Y128287D01*
X783201Y128260D01*
X783128Y128057D01*
X783050Y127854D01*
X783044Y127824D01*
X783034Y127796D01*
X782995Y127584D01*
X782951Y127371D01*
X782950Y127341D01*
X782944Y127311D01*
X782939Y127094D01*
X782931Y126878D01*
X782934Y126848D01*
X782934Y126817D01*
X782964Y126603D01*
X782990Y126389D01*
X782999Y126359D01*
X783003Y126329D01*
X783067Y126122D01*
X783128Y125915D01*
X783141Y125887D01*
X783150Y125858D01*
X783247Y125664D01*
X783340Y125470D01*
X783358Y125445D01*
X783371Y125417D01*
X783498Y125242D01*
X783622Y125064D01*
X783643Y125042D01*
X783661Y125018D01*
X783814Y124866D01*
X783965Y124710D01*
X783989Y124692D01*
X784011Y124670D01*
X784187Y124545D01*
X784361Y124416D01*
X784388Y124402D01*
X784413Y124384D01*
X784490Y124349D01*
X784799Y124189D01*
X784952Y124139D01*
X785034Y124102D01*
X786220Y123716D01*
X787645Y122990D01*
X788939Y122050D01*
X790070Y120919D01*
X791010Y119625D01*
X791736Y118200D01*
X792013Y117347D01*
X777747Y117347D01*
G37*
%LPD*%
%LPC*%
G36*
X777747Y142747D02*
X777747Y142747D01*
X777747Y162053D01*
X792013Y162053D01*
X791736Y161200D01*
X791010Y159775D01*
X790070Y158481D01*
X788939Y157350D01*
X787645Y156410D01*
X786220Y155684D01*
X785034Y155298D01*
X785006Y155286D01*
X784976Y155279D01*
X784777Y155191D01*
X784578Y155108D01*
X784553Y155092D01*
X784525Y155080D01*
X784342Y154961D01*
X784160Y154847D01*
X784137Y154827D01*
X784111Y154810D01*
X783951Y154664D01*
X783789Y154522D01*
X783769Y154499D01*
X783747Y154478D01*
X783612Y154308D01*
X783475Y154142D01*
X783459Y154115D01*
X783440Y154091D01*
X783335Y153902D01*
X783227Y153715D01*
X783216Y153687D01*
X783201Y153660D01*
X783128Y153457D01*
X783050Y153254D01*
X783044Y153224D01*
X783034Y153196D01*
X782995Y152984D01*
X782951Y152771D01*
X782950Y152741D01*
X782944Y152711D01*
X782939Y152494D01*
X782931Y152278D01*
X782934Y152248D01*
X782934Y152217D01*
X782964Y152003D01*
X782990Y151789D01*
X782999Y151759D01*
X783003Y151729D01*
X783067Y151522D01*
X783128Y151315D01*
X783141Y151287D01*
X783150Y151258D01*
X783247Y151064D01*
X783340Y150870D01*
X783358Y150845D01*
X783371Y150817D01*
X783498Y150642D01*
X783622Y150464D01*
X783643Y150442D01*
X783661Y150418D01*
X783814Y150266D01*
X783965Y150110D01*
X783989Y150092D01*
X784011Y150070D01*
X784187Y149945D01*
X784361Y149816D01*
X784388Y149802D01*
X784413Y149784D01*
X784490Y149749D01*
X784799Y149589D01*
X784952Y149539D01*
X785034Y149502D01*
X786220Y149116D01*
X787645Y148390D01*
X788939Y147450D01*
X790070Y146319D01*
X791010Y145025D01*
X791736Y143600D01*
X792013Y142747D01*
X777747Y142747D01*
G37*
%LPD*%
%LPC*%
G36*
X777747Y91947D02*
X777747Y91947D01*
X777747Y111253D01*
X792013Y111253D01*
X791736Y110400D01*
X791010Y108975D01*
X790070Y107681D01*
X788939Y106550D01*
X787645Y105610D01*
X786220Y104884D01*
X785034Y104498D01*
X785006Y104486D01*
X784976Y104479D01*
X784777Y104391D01*
X784578Y104308D01*
X784553Y104292D01*
X784525Y104280D01*
X784342Y104161D01*
X784160Y104047D01*
X784137Y104027D01*
X784111Y104010D01*
X783951Y103864D01*
X783789Y103722D01*
X783769Y103699D01*
X783747Y103678D01*
X783612Y103508D01*
X783475Y103342D01*
X783459Y103315D01*
X783440Y103291D01*
X783335Y103102D01*
X783227Y102915D01*
X783216Y102887D01*
X783201Y102860D01*
X783128Y102657D01*
X783050Y102454D01*
X783044Y102424D01*
X783034Y102396D01*
X782995Y102184D01*
X782951Y101971D01*
X782950Y101941D01*
X782944Y101911D01*
X782939Y101694D01*
X782931Y101478D01*
X782934Y101448D01*
X782934Y101417D01*
X782964Y101203D01*
X782990Y100989D01*
X782999Y100959D01*
X783003Y100929D01*
X783068Y100721D01*
X783128Y100515D01*
X783141Y100487D01*
X783150Y100458D01*
X783247Y100264D01*
X783340Y100070D01*
X783358Y100045D01*
X783371Y100017D01*
X783498Y99842D01*
X783622Y99664D01*
X783643Y99642D01*
X783661Y99618D01*
X783814Y99466D01*
X783965Y99310D01*
X783989Y99292D01*
X784011Y99270D01*
X784187Y99145D01*
X784361Y99016D01*
X784388Y99002D01*
X784413Y98984D01*
X784490Y98949D01*
X784799Y98789D01*
X784952Y98739D01*
X785034Y98702D01*
X786220Y98316D01*
X787645Y97590D01*
X788939Y96650D01*
X790070Y95519D01*
X791010Y94225D01*
X791736Y92800D01*
X792013Y91947D01*
X777747Y91947D01*
G37*
%LPD*%
%LPC*%
G36*
X777747Y66547D02*
X777747Y66547D01*
X777747Y85853D01*
X792013Y85853D01*
X791736Y85000D01*
X791010Y83575D01*
X790070Y82281D01*
X788939Y81150D01*
X787645Y80210D01*
X786220Y79484D01*
X785034Y79098D01*
X785005Y79086D01*
X784976Y79079D01*
X784778Y78992D01*
X784578Y78908D01*
X784552Y78892D01*
X784525Y78880D01*
X784344Y78762D01*
X784160Y78647D01*
X784137Y78627D01*
X784111Y78610D01*
X783952Y78465D01*
X783789Y78322D01*
X783769Y78299D01*
X783747Y78278D01*
X783613Y78109D01*
X783475Y77942D01*
X783459Y77915D01*
X783440Y77891D01*
X783335Y77702D01*
X783227Y77515D01*
X783216Y77487D01*
X783201Y77460D01*
X783127Y77256D01*
X783050Y77054D01*
X783044Y77025D01*
X783034Y76996D01*
X782994Y76783D01*
X782951Y76571D01*
X782950Y76541D01*
X782944Y76511D01*
X782939Y76294D01*
X782931Y76078D01*
X782934Y76048D01*
X782934Y76017D01*
X782964Y75803D01*
X782990Y75589D01*
X782999Y75559D01*
X783003Y75529D01*
X783067Y75323D01*
X783128Y75115D01*
X783141Y75087D01*
X783150Y75058D01*
X783247Y74865D01*
X783340Y74670D01*
X783358Y74645D01*
X783371Y74617D01*
X783499Y74442D01*
X783622Y74264D01*
X783643Y74243D01*
X783661Y74218D01*
X783815Y74065D01*
X783965Y73910D01*
X783989Y73892D01*
X784011Y73870D01*
X784187Y73745D01*
X784361Y73616D01*
X784388Y73602D01*
X784413Y73584D01*
X784490Y73549D01*
X784799Y73389D01*
X784952Y73339D01*
X785034Y73302D01*
X786220Y72916D01*
X787645Y72190D01*
X788939Y71250D01*
X790070Y70119D01*
X791010Y68825D01*
X791736Y67400D01*
X792013Y66547D01*
X777747Y66547D01*
G37*
%LPD*%
%LPC*%
G36*
X777747Y41147D02*
X777747Y41147D01*
X777747Y60453D01*
X792013Y60453D01*
X791736Y59600D01*
X791010Y58175D01*
X790070Y56881D01*
X788939Y55750D01*
X787645Y54810D01*
X786220Y54084D01*
X785034Y53698D01*
X785005Y53686D01*
X784976Y53679D01*
X784778Y53592D01*
X784578Y53508D01*
X784552Y53492D01*
X784525Y53480D01*
X784344Y53362D01*
X784160Y53247D01*
X784137Y53227D01*
X784111Y53210D01*
X783952Y53065D01*
X783789Y52922D01*
X783769Y52899D01*
X783747Y52878D01*
X783613Y52709D01*
X783475Y52542D01*
X783459Y52515D01*
X783440Y52491D01*
X783335Y52302D01*
X783227Y52115D01*
X783216Y52087D01*
X783201Y52060D01*
X783127Y51856D01*
X783050Y51654D01*
X783044Y51625D01*
X783034Y51596D01*
X782994Y51383D01*
X782951Y51171D01*
X782950Y51141D01*
X782944Y51111D01*
X782939Y50894D01*
X782931Y50678D01*
X782934Y50648D01*
X782934Y50617D01*
X782964Y50403D01*
X782990Y50189D01*
X782999Y50159D01*
X783003Y50129D01*
X783067Y49923D01*
X783128Y49715D01*
X783141Y49687D01*
X783150Y49658D01*
X783247Y49465D01*
X783340Y49270D01*
X783358Y49245D01*
X783371Y49217D01*
X783499Y49042D01*
X783622Y48864D01*
X783643Y48843D01*
X783661Y48818D01*
X783815Y48665D01*
X783965Y48510D01*
X783989Y48492D01*
X784011Y48470D01*
X784187Y48345D01*
X784361Y48216D01*
X784388Y48202D01*
X784413Y48184D01*
X784490Y48149D01*
X784799Y47989D01*
X784952Y47939D01*
X785034Y47902D01*
X786220Y47516D01*
X787645Y46790D01*
X788939Y45850D01*
X790070Y44719D01*
X791010Y43425D01*
X791736Y42000D01*
X792013Y41147D01*
X777747Y41147D01*
G37*
%LPD*%
%LPC*%
G36*
X757387Y142747D02*
X757387Y142747D01*
X757664Y143600D01*
X758390Y145025D01*
X759330Y146319D01*
X760461Y147450D01*
X761755Y148390D01*
X763180Y149116D01*
X764366Y149502D01*
X764394Y149514D01*
X764424Y149521D01*
X764622Y149609D01*
X764822Y149692D01*
X764847Y149708D01*
X764875Y149720D01*
X765057Y149839D01*
X765240Y149953D01*
X765263Y149973D01*
X765289Y149989D01*
X765449Y150135D01*
X765611Y150278D01*
X765631Y150301D01*
X765653Y150322D01*
X765788Y150492D01*
X765925Y150658D01*
X765941Y150685D01*
X765959Y150709D01*
X766065Y150898D01*
X766173Y151085D01*
X766184Y151113D01*
X766199Y151140D01*
X766273Y151344D01*
X766350Y151546D01*
X766356Y151575D01*
X766366Y151604D01*
X766406Y151817D01*
X766449Y152029D01*
X766450Y152059D01*
X766456Y152089D01*
X766461Y152306D01*
X766469Y152522D01*
X766466Y152552D01*
X766466Y152582D01*
X766436Y152797D01*
X766410Y153011D01*
X766401Y153041D01*
X766397Y153071D01*
X766333Y153277D01*
X766272Y153485D01*
X766259Y153513D01*
X766250Y153542D01*
X766153Y153735D01*
X766060Y153930D01*
X766042Y153955D01*
X766029Y153983D01*
X765901Y154158D01*
X765778Y154335D01*
X765757Y154357D01*
X765739Y154382D01*
X765585Y154535D01*
X765435Y154690D01*
X765411Y154708D01*
X765389Y154730D01*
X765212Y154856D01*
X765039Y154984D01*
X765012Y154998D01*
X764987Y155016D01*
X764910Y155051D01*
X764601Y155211D01*
X764448Y155261D01*
X764366Y155298D01*
X763180Y155684D01*
X761755Y156410D01*
X760461Y157350D01*
X759330Y158481D01*
X758390Y159775D01*
X757664Y161200D01*
X757387Y162053D01*
X771653Y162053D01*
X771653Y142747D01*
X757387Y142747D01*
G37*
%LPD*%
%LPC*%
G36*
X757387Y91947D02*
X757387Y91947D01*
X757664Y92800D01*
X758390Y94225D01*
X759330Y95519D01*
X760461Y96650D01*
X761755Y97590D01*
X763180Y98316D01*
X764366Y98702D01*
X764394Y98714D01*
X764424Y98721D01*
X764622Y98809D01*
X764822Y98892D01*
X764847Y98908D01*
X764875Y98920D01*
X765057Y99039D01*
X765240Y99153D01*
X765263Y99173D01*
X765289Y99189D01*
X765449Y99335D01*
X765611Y99478D01*
X765631Y99501D01*
X765653Y99522D01*
X765788Y99692D01*
X765925Y99858D01*
X765941Y99885D01*
X765959Y99909D01*
X766065Y100098D01*
X766173Y100285D01*
X766184Y100313D01*
X766199Y100340D01*
X766273Y100544D01*
X766350Y100746D01*
X766356Y100775D01*
X766366Y100804D01*
X766406Y101017D01*
X766449Y101229D01*
X766450Y101259D01*
X766456Y101289D01*
X766461Y101506D01*
X766469Y101722D01*
X766466Y101752D01*
X766466Y101782D01*
X766436Y101997D01*
X766410Y102211D01*
X766401Y102241D01*
X766397Y102271D01*
X766333Y102477D01*
X766272Y102685D01*
X766259Y102713D01*
X766250Y102742D01*
X766153Y102935D01*
X766060Y103130D01*
X766042Y103155D01*
X766029Y103183D01*
X765901Y103358D01*
X765778Y103535D01*
X765757Y103557D01*
X765739Y103582D01*
X765585Y103735D01*
X765435Y103890D01*
X765411Y103908D01*
X765389Y103930D01*
X765212Y104056D01*
X765039Y104184D01*
X765012Y104198D01*
X764987Y104216D01*
X764910Y104251D01*
X764601Y104411D01*
X764448Y104461D01*
X764366Y104498D01*
X763180Y104884D01*
X761755Y105610D01*
X760461Y106550D01*
X759330Y107681D01*
X758390Y108975D01*
X757664Y110400D01*
X757387Y111253D01*
X771653Y111253D01*
X771653Y91947D01*
X757387Y91947D01*
G37*
%LPD*%
%LPC*%
G36*
X757387Y117347D02*
X757387Y117347D01*
X757664Y118200D01*
X758390Y119625D01*
X759330Y120919D01*
X760461Y122050D01*
X761755Y122990D01*
X763180Y123716D01*
X764366Y124102D01*
X764394Y124114D01*
X764424Y124121D01*
X764622Y124209D01*
X764822Y124292D01*
X764847Y124308D01*
X764875Y124320D01*
X765057Y124439D01*
X765240Y124553D01*
X765263Y124573D01*
X765289Y124589D01*
X765449Y124735D01*
X765611Y124878D01*
X765631Y124901D01*
X765653Y124922D01*
X765788Y125092D01*
X765925Y125258D01*
X765941Y125285D01*
X765959Y125309D01*
X766065Y125498D01*
X766173Y125685D01*
X766184Y125713D01*
X766199Y125740D01*
X766273Y125944D01*
X766350Y126146D01*
X766356Y126175D01*
X766366Y126204D01*
X766406Y126417D01*
X766449Y126629D01*
X766450Y126659D01*
X766456Y126689D01*
X766461Y126906D01*
X766469Y127122D01*
X766466Y127152D01*
X766466Y127182D01*
X766436Y127397D01*
X766410Y127611D01*
X766401Y127641D01*
X766397Y127671D01*
X766333Y127877D01*
X766272Y128085D01*
X766259Y128113D01*
X766250Y128142D01*
X766153Y128335D01*
X766060Y128530D01*
X766042Y128555D01*
X766029Y128583D01*
X765901Y128758D01*
X765778Y128935D01*
X765757Y128957D01*
X765739Y128982D01*
X765585Y129135D01*
X765435Y129290D01*
X765411Y129308D01*
X765389Y129330D01*
X765212Y129456D01*
X765039Y129584D01*
X765012Y129598D01*
X764987Y129616D01*
X764910Y129651D01*
X764601Y129811D01*
X764448Y129861D01*
X764366Y129898D01*
X763180Y130284D01*
X761755Y131010D01*
X760461Y131950D01*
X759330Y133081D01*
X758390Y134375D01*
X757664Y135800D01*
X757387Y136653D01*
X771653Y136653D01*
X771653Y117347D01*
X757387Y117347D01*
G37*
%LPD*%
%LPC*%
G36*
X757387Y41147D02*
X757387Y41147D01*
X757664Y42000D01*
X758390Y43425D01*
X759330Y44719D01*
X760461Y45850D01*
X761755Y46790D01*
X763180Y47516D01*
X764366Y47902D01*
X764394Y47914D01*
X764424Y47921D01*
X764622Y48008D01*
X764822Y48092D01*
X764847Y48108D01*
X764875Y48120D01*
X765057Y48239D01*
X765240Y48353D01*
X765263Y48373D01*
X765289Y48389D01*
X765449Y48536D01*
X765611Y48678D01*
X765631Y48701D01*
X765653Y48722D01*
X765788Y48892D01*
X765925Y49058D01*
X765941Y49085D01*
X765960Y49109D01*
X766065Y49298D01*
X766173Y49485D01*
X766184Y49513D01*
X766199Y49540D01*
X766273Y49744D01*
X766350Y49946D01*
X766356Y49975D01*
X766366Y50004D01*
X766406Y50218D01*
X766449Y50429D01*
X766450Y50459D01*
X766456Y50489D01*
X766461Y50706D01*
X766469Y50922D01*
X766466Y50952D01*
X766466Y50982D01*
X766436Y51197D01*
X766410Y51411D01*
X766401Y51441D01*
X766397Y51471D01*
X766333Y51677D01*
X766272Y51885D01*
X766259Y51913D01*
X766250Y51942D01*
X766153Y52135D01*
X766060Y52330D01*
X766042Y52355D01*
X766029Y52383D01*
X765902Y52558D01*
X765778Y52735D01*
X765757Y52758D01*
X765739Y52782D01*
X765586Y52934D01*
X765435Y53090D01*
X765411Y53108D01*
X765389Y53130D01*
X765213Y53255D01*
X765039Y53384D01*
X765012Y53398D01*
X764987Y53416D01*
X764910Y53451D01*
X764601Y53611D01*
X764448Y53661D01*
X764366Y53698D01*
X763180Y54084D01*
X761755Y54810D01*
X760461Y55750D01*
X759330Y56881D01*
X758390Y58175D01*
X757664Y59600D01*
X757387Y60453D01*
X771653Y60453D01*
X771653Y41147D01*
X757387Y41147D01*
G37*
%LPD*%
%LPC*%
G36*
X757387Y66547D02*
X757387Y66547D01*
X757664Y67400D01*
X758390Y68825D01*
X759330Y70119D01*
X760461Y71250D01*
X761755Y72190D01*
X763180Y72916D01*
X764366Y73302D01*
X764394Y73314D01*
X764424Y73321D01*
X764622Y73408D01*
X764822Y73492D01*
X764847Y73508D01*
X764875Y73520D01*
X765057Y73639D01*
X765240Y73753D01*
X765263Y73773D01*
X765289Y73789D01*
X765449Y73936D01*
X765611Y74078D01*
X765631Y74101D01*
X765653Y74122D01*
X765788Y74292D01*
X765925Y74458D01*
X765941Y74485D01*
X765960Y74509D01*
X766065Y74698D01*
X766173Y74885D01*
X766184Y74913D01*
X766199Y74940D01*
X766273Y75144D01*
X766350Y75346D01*
X766356Y75375D01*
X766366Y75404D01*
X766406Y75618D01*
X766449Y75829D01*
X766450Y75859D01*
X766456Y75889D01*
X766461Y76106D01*
X766469Y76322D01*
X766466Y76352D01*
X766466Y76382D01*
X766436Y76597D01*
X766410Y76811D01*
X766401Y76841D01*
X766397Y76871D01*
X766333Y77077D01*
X766272Y77285D01*
X766259Y77313D01*
X766250Y77342D01*
X766153Y77535D01*
X766060Y77730D01*
X766042Y77755D01*
X766029Y77783D01*
X765902Y77958D01*
X765778Y78135D01*
X765757Y78158D01*
X765739Y78182D01*
X765586Y78334D01*
X765435Y78490D01*
X765411Y78508D01*
X765389Y78530D01*
X765213Y78655D01*
X765039Y78784D01*
X765012Y78798D01*
X764987Y78816D01*
X764910Y78851D01*
X764601Y79011D01*
X764448Y79061D01*
X764366Y79098D01*
X763180Y79484D01*
X761755Y80210D01*
X760461Y81150D01*
X759330Y82281D01*
X758390Y83575D01*
X757664Y85000D01*
X757387Y85853D01*
X771653Y85853D01*
X771653Y66547D01*
X757387Y66547D01*
G37*
%LPD*%
%LPC*%
G36*
X1103352Y498420D02*
X1103352Y498420D01*
X1100493Y499605D01*
X1098305Y501793D01*
X1097120Y504652D01*
X1097120Y507748D01*
X1098305Y510607D01*
X1100493Y512795D01*
X1103352Y513980D01*
X1106448Y513980D01*
X1109307Y512795D01*
X1111495Y510607D01*
X1112680Y507748D01*
X1112680Y504652D01*
X1111495Y501793D01*
X1109307Y499605D01*
X1106448Y498420D01*
X1103352Y498420D01*
G37*
%LPD*%
%LPC*%
G36*
X1077952Y68420D02*
X1077952Y68420D01*
X1075093Y69605D01*
X1072905Y71793D01*
X1071720Y74652D01*
X1071720Y77748D01*
X1072905Y80607D01*
X1075093Y82795D01*
X1077952Y83980D01*
X1081048Y83980D01*
X1083907Y82795D01*
X1086095Y80607D01*
X1087280Y77748D01*
X1087280Y74652D01*
X1086095Y71793D01*
X1083907Y69605D01*
X1081048Y68420D01*
X1077952Y68420D01*
G37*
%LPD*%
%LPC*%
G36*
X1103352Y68420D02*
X1103352Y68420D01*
X1100493Y69605D01*
X1098305Y71793D01*
X1097120Y74652D01*
X1097120Y77748D01*
X1098305Y80607D01*
X1100493Y82795D01*
X1103352Y83980D01*
X1106448Y83980D01*
X1109307Y82795D01*
X1111495Y80607D01*
X1112680Y77748D01*
X1112680Y74652D01*
X1111495Y71793D01*
X1109307Y69605D01*
X1106448Y68420D01*
X1103352Y68420D01*
G37*
%LPD*%
%LPC*%
G36*
X1103352Y180920D02*
X1103352Y180920D01*
X1100493Y182105D01*
X1098305Y184293D01*
X1097120Y187152D01*
X1097120Y190248D01*
X1098305Y193107D01*
X1100493Y195295D01*
X1103352Y196480D01*
X1106448Y196480D01*
X1109307Y195295D01*
X1111495Y193107D01*
X1112680Y190248D01*
X1112680Y187152D01*
X1111495Y184293D01*
X1109307Y182105D01*
X1106448Y180920D01*
X1103352Y180920D01*
G37*
%LPD*%
%LPC*%
G36*
X1077952Y180920D02*
X1077952Y180920D01*
X1075093Y182105D01*
X1072905Y184293D01*
X1071720Y187152D01*
X1071720Y190248D01*
X1072905Y193107D01*
X1075093Y195295D01*
X1077952Y196480D01*
X1081048Y196480D01*
X1083907Y195295D01*
X1086095Y193107D01*
X1087280Y190248D01*
X1087280Y187152D01*
X1086095Y184293D01*
X1083907Y182105D01*
X1081048Y180920D01*
X1077952Y180920D01*
G37*
%LPD*%
%LPC*%
G36*
X1103352Y385920D02*
X1103352Y385920D01*
X1100493Y387105D01*
X1098305Y389293D01*
X1097120Y392152D01*
X1097120Y395248D01*
X1098305Y398107D01*
X1100493Y400295D01*
X1103352Y401480D01*
X1106448Y401480D01*
X1109307Y400295D01*
X1111495Y398107D01*
X1112680Y395248D01*
X1112680Y392152D01*
X1111495Y389293D01*
X1109307Y387105D01*
X1106448Y385920D01*
X1103352Y385920D01*
G37*
%LPD*%
%LPC*%
G36*
X1077952Y498420D02*
X1077952Y498420D01*
X1075093Y499605D01*
X1072905Y501793D01*
X1071720Y504652D01*
X1071720Y507748D01*
X1072905Y510607D01*
X1075093Y512795D01*
X1077952Y513980D01*
X1081048Y513980D01*
X1083907Y512795D01*
X1086095Y510607D01*
X1087280Y507748D01*
X1087280Y504652D01*
X1086095Y501793D01*
X1083907Y499605D01*
X1081048Y498420D01*
X1077952Y498420D01*
G37*
%LPD*%
%LPC*%
G36*
X431738Y510138D02*
X431738Y510138D01*
X431528Y510245D01*
X431521Y510247D01*
X431514Y510250D01*
X431482Y510259D01*
X431057Y510393D01*
X430955Y510404D01*
X430856Y510432D01*
X429414Y510660D01*
X427888Y511156D01*
X426459Y511884D01*
X425161Y512827D01*
X424027Y513961D01*
X423084Y515259D01*
X422356Y516688D01*
X422075Y517553D01*
X431800Y517553D01*
X441525Y517553D01*
X441244Y516688D01*
X440516Y515259D01*
X439573Y513961D01*
X438439Y512827D01*
X437141Y511884D01*
X435712Y511156D01*
X434186Y510660D01*
X432744Y510432D01*
X432736Y510430D01*
X432729Y510429D01*
X432498Y510372D01*
X432264Y510315D01*
X432257Y510312D01*
X432250Y510311D01*
X432031Y510217D01*
X431810Y510123D01*
X431803Y510119D01*
X431796Y510116D01*
X431791Y510112D01*
X431738Y510138D01*
G37*
%LPD*%
%LPC*%
G36*
X638047Y422147D02*
X638047Y422147D01*
X638047Y436413D01*
X638900Y436136D01*
X640325Y435410D01*
X641619Y434470D01*
X642750Y433339D01*
X643690Y432045D01*
X644416Y430620D01*
X644911Y429099D01*
X645161Y427520D01*
X645161Y422147D01*
X638047Y422147D01*
G37*
%LPD*%
%LPC*%
G36*
X777747Y168147D02*
X777747Y168147D01*
X777747Y175261D01*
X783120Y175261D01*
X784699Y175011D01*
X786220Y174516D01*
X787645Y173790D01*
X788939Y172850D01*
X790070Y171719D01*
X791010Y170425D01*
X791736Y169000D01*
X792013Y168147D01*
X777747Y168147D01*
G37*
%LPD*%
%LPC*%
G36*
X757387Y168147D02*
X757387Y168147D01*
X757664Y169000D01*
X758390Y170425D01*
X759330Y171719D01*
X760461Y172850D01*
X761755Y173790D01*
X763180Y174516D01*
X764701Y175011D01*
X766280Y175261D01*
X771653Y175261D01*
X771653Y168147D01*
X757387Y168147D01*
G37*
%LPD*%
%LPC*%
G36*
X638047Y416053D02*
X638047Y416053D01*
X645161Y416053D01*
X645161Y410680D01*
X644911Y409101D01*
X644416Y407580D01*
X643690Y406155D01*
X642750Y404861D01*
X641619Y403730D01*
X640325Y402790D01*
X638900Y402064D01*
X638047Y401787D01*
X638047Y416053D01*
G37*
%LPD*%
%LPC*%
G36*
X624839Y422147D02*
X624839Y422147D01*
X624839Y427520D01*
X625089Y429099D01*
X625584Y430620D01*
X626310Y432045D01*
X627250Y433339D01*
X628381Y434470D01*
X629675Y435410D01*
X631100Y436136D01*
X631953Y436413D01*
X631953Y422147D01*
X624839Y422147D01*
G37*
%LPD*%
%LPC*%
G36*
X777747Y27939D02*
X777747Y27939D01*
X777747Y35053D01*
X792013Y35053D01*
X791736Y34200D01*
X791010Y32775D01*
X790070Y31481D01*
X788939Y30350D01*
X787645Y29410D01*
X786220Y28684D01*
X784699Y28189D01*
X783120Y27939D01*
X777747Y27939D01*
G37*
%LPD*%
%LPC*%
G36*
X631100Y402064D02*
X631100Y402064D01*
X629675Y402790D01*
X628381Y403730D01*
X627250Y404861D01*
X626310Y406155D01*
X625584Y407580D01*
X625089Y409101D01*
X624839Y410680D01*
X624839Y416053D01*
X631953Y416053D01*
X631953Y401787D01*
X631100Y402064D01*
G37*
%LPD*%
%LPC*%
G36*
X766280Y27939D02*
X766280Y27939D01*
X764701Y28189D01*
X763180Y28684D01*
X761755Y29410D01*
X760461Y30350D01*
X759330Y31481D01*
X758390Y32775D01*
X757664Y34200D01*
X757387Y35053D01*
X771653Y35053D01*
X771653Y27939D01*
X766280Y27939D01*
G37*
%LPD*%
%LPC*%
G36*
X918947Y409447D02*
X918947Y409447D01*
X918947Y423041D01*
X922135Y423041D01*
X922781Y422868D01*
X923360Y422533D01*
X923833Y422060D01*
X924168Y421481D01*
X924341Y420835D01*
X924341Y409447D01*
X918947Y409447D01*
G37*
%LPD*%
%LPC*%
G36*
X918947Y389759D02*
X918947Y389759D01*
X918947Y403353D01*
X924341Y403353D01*
X924341Y391965D01*
X924168Y391319D01*
X923833Y390740D01*
X923360Y390267D01*
X922781Y389932D01*
X922135Y389759D01*
X918947Y389759D01*
G37*
%LPD*%
%LPC*%
G36*
X907459Y409447D02*
X907459Y409447D01*
X907459Y420835D01*
X907632Y421481D01*
X907967Y422060D01*
X908440Y422533D01*
X909019Y422868D01*
X909665Y423041D01*
X912853Y423041D01*
X912853Y409447D01*
X907459Y409447D01*
G37*
%LPD*%
%LPC*%
G36*
X909665Y389759D02*
X909665Y389759D01*
X909019Y389932D01*
X908440Y390267D01*
X907967Y390740D01*
X907632Y391319D01*
X907459Y391965D01*
X907459Y403353D01*
X912853Y403353D01*
X912853Y389759D01*
X909665Y389759D01*
G37*
%LPD*%
%LPC*%
G36*
X498347Y523747D02*
X498347Y523747D01*
X498347Y529845D01*
X502624Y529845D01*
X504045Y529620D01*
X505414Y529175D01*
X506697Y528521D01*
X507861Y527675D01*
X508879Y526657D01*
X509725Y525493D01*
X510379Y524210D01*
X510529Y523747D01*
X498347Y523747D01*
G37*
%LPD*%
%LPC*%
G36*
X480071Y523747D02*
X480071Y523747D01*
X480221Y524210D01*
X480875Y525493D01*
X481721Y526657D01*
X482739Y527675D01*
X483903Y528521D01*
X485186Y529175D01*
X486555Y529620D01*
X487976Y529845D01*
X492253Y529845D01*
X492253Y523747D01*
X480071Y523747D01*
G37*
%LPD*%
%LPC*%
G36*
X498347Y511555D02*
X498347Y511555D01*
X498347Y517653D01*
X510529Y517653D01*
X510379Y517190D01*
X509725Y515907D01*
X508879Y514743D01*
X507861Y513725D01*
X506697Y512879D01*
X505414Y512225D01*
X504045Y511780D01*
X502624Y511555D01*
X498347Y511555D01*
G37*
%LPD*%
%LPC*%
G36*
X487976Y511555D02*
X487976Y511555D01*
X486555Y511780D01*
X485186Y512225D01*
X483903Y512879D01*
X482739Y513725D01*
X481721Y514743D01*
X480875Y515907D01*
X480221Y517190D01*
X480071Y517653D01*
X492253Y517653D01*
X492253Y511555D01*
X487976Y511555D01*
G37*
%LPD*%
%LPC*%
G36*
X714247Y250697D02*
X714247Y250697D01*
X714247Y257231D01*
X718575Y257231D01*
X719221Y257058D01*
X719800Y256723D01*
X720273Y256250D01*
X720608Y255671D01*
X720781Y255025D01*
X720781Y250697D01*
X714247Y250697D01*
G37*
%LPD*%
%LPC*%
G36*
X701619Y250697D02*
X701619Y250697D01*
X701619Y255025D01*
X701792Y255671D01*
X702127Y256250D01*
X702600Y256723D01*
X703179Y257058D01*
X703825Y257231D01*
X708153Y257231D01*
X708153Y250697D01*
X701619Y250697D01*
G37*
%LPD*%
%LPC*%
G36*
X714247Y238069D02*
X714247Y238069D01*
X714247Y244603D01*
X720781Y244603D01*
X720781Y240275D01*
X720608Y239629D01*
X720273Y239050D01*
X719800Y238577D01*
X719221Y238242D01*
X718575Y238069D01*
X714247Y238069D01*
G37*
%LPD*%
%LPC*%
G36*
X703825Y238069D02*
X703825Y238069D01*
X703179Y238242D01*
X702600Y238577D01*
X702127Y239050D01*
X701792Y239629D01*
X701619Y240275D01*
X701619Y244603D01*
X708153Y244603D01*
X708153Y238069D01*
X703825Y238069D01*
G37*
%LPD*%
%LPC*%
G36*
X434847Y523647D02*
X434847Y523647D01*
X434847Y530325D01*
X435712Y530044D01*
X437141Y529316D01*
X438439Y528373D01*
X439573Y527239D01*
X440516Y525941D01*
X441244Y524512D01*
X441525Y523647D01*
X434847Y523647D01*
G37*
%LPD*%
%LPC*%
G36*
X422075Y523647D02*
X422075Y523647D01*
X422356Y524512D01*
X423084Y525941D01*
X424027Y527239D01*
X425161Y528373D01*
X426459Y529316D01*
X427888Y530044D01*
X428753Y530325D01*
X428753Y523647D01*
X422075Y523647D01*
G37*
%LPD*%
D10*
X577850Y25400D03*
X711200Y25400D03*
X711200Y247650D03*
X577850Y247650D03*
X603250Y247650D03*
X685800Y247650D03*
D11*
X177800Y520600D03*
D12*
X177800Y495200D03*
X177800Y469800D03*
X177800Y444400D03*
X177800Y419000D03*
X177800Y393600D03*
X177800Y368200D03*
X177800Y342800D03*
X177800Y317400D03*
X177800Y292000D03*
X177800Y266600D03*
X177800Y241200D03*
X177800Y215800D03*
X177800Y190400D03*
X177800Y165000D03*
X177800Y139600D03*
X177800Y114200D03*
X177800Y88800D03*
X177800Y63400D03*
X431800Y63400D03*
X431800Y88800D03*
X431800Y114200D03*
X431800Y139600D03*
X431800Y165000D03*
X431800Y190400D03*
X431800Y215800D03*
X431800Y241200D03*
X431800Y266600D03*
X431800Y292000D03*
X431800Y317400D03*
X431800Y342800D03*
X431800Y368200D03*
X431800Y393600D03*
X431800Y419000D03*
X431800Y444400D03*
X431800Y469800D03*
X431800Y495200D03*
X431800Y520600D03*
D13*
X120904Y38100D02*
X107696Y38100D01*
X107696Y63500D02*
X120904Y63500D01*
X120904Y88900D02*
X107696Y88900D01*
X107696Y114300D02*
X120904Y114300D01*
X120904Y139700D02*
X107696Y139700D01*
X107696Y165100D02*
X120904Y165100D01*
X120904Y190500D02*
X107696Y190500D01*
X107696Y215900D02*
X120904Y215900D01*
X120904Y241300D02*
X107696Y241300D01*
X107696Y266700D02*
X120904Y266700D01*
X120904Y292100D02*
X107696Y292100D01*
X107696Y317500D02*
X120904Y317500D01*
X120904Y342900D02*
X107696Y342900D01*
X107696Y368300D02*
X120904Y368300D01*
X120904Y393700D02*
X107696Y393700D01*
X107696Y419100D02*
X120904Y419100D01*
X120904Y444500D02*
X107696Y444500D01*
X107696Y469900D02*
X120904Y469900D01*
X120904Y495300D02*
X107696Y495300D01*
X107696Y520700D02*
X120904Y520700D01*
X488696Y38100D02*
X501904Y38100D01*
X501904Y63500D02*
X488696Y63500D01*
X488696Y88900D02*
X501904Y88900D01*
X501904Y114300D02*
X488696Y114300D01*
X488696Y139700D02*
X501904Y139700D01*
X501904Y165100D02*
X488696Y165100D01*
X488696Y190500D02*
X501904Y190500D01*
X501904Y215900D02*
X488696Y215900D01*
X488696Y241300D02*
X501904Y241300D01*
X501904Y266700D02*
X488696Y266700D01*
X488696Y292100D02*
X501904Y292100D01*
X501904Y317500D02*
X488696Y317500D01*
X488696Y342900D02*
X501904Y342900D01*
X501904Y368300D02*
X488696Y368300D01*
X488696Y393700D02*
X501904Y393700D01*
X501904Y419100D02*
X488696Y419100D01*
X488696Y444500D02*
X501904Y444500D01*
X501904Y469900D02*
X488696Y469900D01*
X488696Y495300D02*
X501904Y495300D01*
X501904Y520700D02*
X488696Y520700D01*
D14*
X177800Y38100D03*
X431800Y38100D03*
D15*
X825100Y562547D02*
X825100Y580454D01*
X775100Y580454D02*
X775100Y562547D01*
X914800Y562547D02*
X914800Y580454D01*
X964800Y580454D02*
X964800Y562547D01*
D16*
X845820Y38100D02*
X830580Y38100D01*
X830580Y63500D02*
X845820Y63500D01*
X845820Y88900D02*
X830580Y88900D01*
X830580Y114300D02*
X845820Y114300D01*
X845820Y139700D02*
X830580Y139700D01*
X830580Y165100D02*
X845820Y165100D01*
X782320Y38100D02*
X767080Y38100D01*
X767080Y63500D02*
X782320Y63500D01*
X782320Y88900D02*
X767080Y88900D01*
X767080Y114300D02*
X782320Y114300D01*
X782320Y139700D02*
X767080Y139700D01*
X767080Y165100D02*
X782320Y165100D01*
X609600Y411480D02*
X609600Y426720D01*
X635000Y426720D02*
X635000Y411480D01*
X660400Y411480D02*
X660400Y426720D01*
X894080Y38100D02*
X909320Y38100D01*
X909320Y63500D02*
X894080Y63500D01*
X894080Y88900D02*
X909320Y88900D01*
X909320Y114300D02*
X894080Y114300D01*
X894080Y139700D02*
X909320Y139700D01*
X909320Y165100D02*
X894080Y165100D01*
D17*
X887500Y406400D03*
X915900Y406400D03*
D18*
X1054100Y393700D03*
D19*
X1079500Y393700D03*
X1104900Y393700D03*
X1104900Y506200D03*
X1079500Y506200D03*
X1054100Y506200D03*
D18*
X1054100Y76200D03*
D19*
X1079500Y76200D03*
X1104900Y76200D03*
X1104900Y188700D03*
X1079500Y188700D03*
X1054100Y188700D03*
D20*
X177800Y495200D02*
X177700Y495300D01*
X114300Y495300D01*
X177700Y469900D02*
X177800Y469800D01*
X177700Y469900D02*
X114300Y469900D01*
X177700Y444500D02*
X177800Y444400D01*
X177700Y444500D02*
X114300Y444500D01*
X177700Y419100D02*
X177800Y419000D01*
X177700Y419100D02*
X114300Y419100D01*
X177700Y393700D02*
X177800Y393600D01*
X177700Y393700D02*
X114300Y393700D01*
X177700Y368300D02*
X177800Y368200D01*
X177700Y368300D02*
X114300Y368300D01*
X177700Y342900D02*
X177800Y342800D01*
X177700Y342900D02*
X114300Y342900D01*
X177700Y317500D02*
X177800Y317400D01*
X177700Y317500D02*
X114300Y317500D01*
X177700Y292100D02*
X177800Y292000D01*
X177700Y292100D02*
X114300Y292100D01*
X177700Y266700D02*
X177800Y266600D01*
X177700Y266700D02*
X114300Y266700D01*
X177700Y241300D02*
X177800Y241200D01*
X177700Y241300D02*
X114300Y241300D01*
X177700Y215900D02*
X177800Y215800D01*
X177700Y215900D02*
X114300Y215900D01*
X431800Y520600D02*
X431900Y520700D01*
X495300Y520700D01*
D21*
X533400Y520700D01*
X635000Y419100D02*
X635000Y342900D01*
X711200Y279400D02*
X711200Y247650D01*
X711200Y279400D02*
X673100Y317500D01*
X660400Y317500D01*
X635000Y342900D01*
X711200Y247650D02*
X730250Y228600D01*
X749300Y228600D01*
X774700Y203200D01*
X774700Y165100D01*
X774700Y139700D01*
X774700Y114300D01*
X774700Y88900D01*
X774700Y63500D01*
X774700Y38100D01*
X635000Y419100D02*
X635000Y495300D01*
X609600Y520700D01*
X533400Y520700D01*
X915900Y406400D02*
X952500Y369800D01*
X952500Y25400D01*
X927100Y0D01*
X800100Y0D01*
X774700Y25400D01*
X774700Y38100D01*
D20*
X177800Y165000D02*
X114400Y165000D01*
X114300Y165100D01*
X177700Y139700D02*
X177800Y139600D01*
X177700Y139700D02*
X114300Y139700D01*
X177700Y114300D02*
X177800Y114200D01*
X177700Y114300D02*
X114300Y114300D01*
X177700Y88900D02*
X177800Y88800D01*
X177700Y88900D02*
X114300Y88900D01*
X431800Y495200D02*
X431900Y495300D01*
X495300Y495300D01*
X431900Y469900D02*
X431800Y469800D01*
X431900Y469900D02*
X495300Y469900D01*
X431900Y444500D02*
X431800Y444400D01*
X431900Y444500D02*
X495300Y444500D01*
X431900Y419100D02*
X431800Y419000D01*
X431900Y419100D02*
X495300Y419100D01*
X495200Y393600D02*
X431800Y393600D01*
X495200Y393600D02*
X495300Y393700D01*
X431900Y342900D02*
X431800Y342800D01*
X431900Y342900D02*
X495300Y342900D01*
X431900Y317500D02*
X431800Y317400D01*
X431900Y317500D02*
X495300Y317500D01*
X431900Y292100D02*
X431800Y292000D01*
X431900Y292100D02*
X495300Y292100D01*
X431900Y266700D02*
X431800Y266600D01*
X431900Y266700D02*
X495300Y266700D01*
X431900Y241300D02*
X431800Y241200D01*
X431900Y241300D02*
X495300Y241300D01*
X431900Y215900D02*
X431800Y215800D01*
X431900Y215900D02*
X495300Y215900D01*
X431900Y190500D02*
X431800Y190400D01*
X431900Y190500D02*
X495300Y190500D01*
X431900Y165100D02*
X431800Y165000D01*
X431900Y165100D02*
X495300Y165100D01*
X431900Y139700D02*
X431800Y139600D01*
X431900Y139700D02*
X495300Y139700D01*
X431900Y114300D02*
X431800Y114200D01*
X431900Y114300D02*
X495300Y114300D01*
X431900Y88900D02*
X431800Y88800D01*
X431900Y88900D02*
X495300Y88900D01*
X431900Y63500D02*
X431800Y63400D01*
X431900Y63500D02*
X495300Y63500D01*
D21*
X787400Y292100D02*
X660400Y419100D01*
X787400Y292100D02*
X812800Y292100D01*
X838200Y266700D01*
X838200Y165100D01*
X838200Y139700D01*
X838200Y114300D01*
X838200Y88900D01*
X838200Y63500D01*
X838200Y38100D01*
X577850Y247650D02*
X577850Y311150D01*
X609600Y342900D01*
X609600Y419100D01*
X609600Y431800D01*
D20*
X177800Y63400D02*
X177700Y63500D01*
X114300Y63500D01*
D21*
X775100Y494900D02*
X775100Y571500D01*
X775100Y494900D02*
X863600Y406400D01*
X887500Y406400D01*
X431900Y368300D02*
X431800Y368200D01*
X431900Y368300D02*
X495300Y368300D01*
D20*
X177800Y190400D02*
X177700Y190500D01*
X114300Y190500D01*
D21*
X177800Y190400D02*
X177900Y190500D01*
X939800Y-12700D02*
X977900Y25400D01*
X939800Y-12700D02*
X368300Y-12700D01*
X266700Y88900D01*
X266700Y165100D01*
X241400Y190400D01*
X177800Y190400D01*
X977900Y101600D02*
X977900Y25400D01*
X1168400Y279400D02*
X1054100Y393700D01*
X1168400Y279400D02*
X1168400Y50800D01*
X1155700Y38100D01*
X1066800Y38100D01*
X1054100Y50800D01*
X1054100Y76200D01*
X1016000Y114300D01*
X990600Y114300D02*
X977900Y101600D01*
X990600Y114300D02*
X1016000Y114300D01*
D20*
X177800Y520600D02*
X177700Y520700D01*
X114300Y520700D01*
D21*
X177800Y520600D02*
X216000Y558800D01*
X673100Y558800D02*
X901700Y330200D01*
X901700Y165100D01*
X673100Y558800D02*
X216000Y558800D01*
X901700Y165100D02*
X901700Y139700D01*
X901700Y114300D01*
X901700Y88900D01*
X901700Y63500D01*
X901700Y38100D01*
X1054100Y188700D02*
X1054100Y279400D01*
X1016000Y317500D01*
X1016000Y431800D01*
X1054100Y469900D01*
X1054100Y506200D01*
M02*
