G04 EAGLE Gerber RS-274X export*
G75*
%MOMM*%
%FSLAX34Y34*%
%LPD*%
%INBottom Copper*%
%IPPOS*%
%AMOC8*
5,1,8,0,0,1.08239X$1,22.5*%
G01*
%ADD10R,1.408000X1.408000*%
%ADD11R,1.530000X1.530000*%
%ADD12C,1.530000*%
%ADD13C,1.320800*%
%ADD14P,1.649562X8X22.500000*%
%ADD15C,1.790700*%
%ADD16C,1.524000*%
%ADD17R,1.251000X1.251000*%
%ADD18C,1.251000*%
%ADD19C,0.609600*%

G36*
X1162988Y-27924D02*
X1162988Y-27924D01*
X1163177Y-27916D01*
X1163233Y-27904D01*
X1163290Y-27899D01*
X1163475Y-27854D01*
X1163660Y-27815D01*
X1163714Y-27794D01*
X1163769Y-27781D01*
X1163944Y-27706D01*
X1164121Y-27637D01*
X1164170Y-27609D01*
X1164222Y-27586D01*
X1164382Y-27484D01*
X1164546Y-27388D01*
X1164590Y-27352D01*
X1164638Y-27321D01*
X1164780Y-27194D01*
X1164926Y-27073D01*
X1164964Y-27030D01*
X1165006Y-26992D01*
X1165126Y-26844D01*
X1165250Y-26701D01*
X1165280Y-26653D01*
X1165316Y-26608D01*
X1165410Y-26444D01*
X1165510Y-26282D01*
X1165532Y-26229D01*
X1165560Y-26180D01*
X1165626Y-26001D01*
X1165699Y-25826D01*
X1165712Y-25771D01*
X1165732Y-25717D01*
X1165768Y-25531D01*
X1165812Y-25346D01*
X1165816Y-25289D01*
X1165826Y-25233D01*
X1165832Y-25043D01*
X1165845Y-24854D01*
X1165840Y-24797D01*
X1165842Y-24740D01*
X1165817Y-24552D01*
X1165799Y-24362D01*
X1165785Y-24307D01*
X1165777Y-24251D01*
X1165722Y-24069D01*
X1165674Y-23885D01*
X1165651Y-23833D01*
X1165635Y-23779D01*
X1165551Y-23608D01*
X1165474Y-23434D01*
X1165443Y-23386D01*
X1165418Y-23335D01*
X1165308Y-23181D01*
X1165204Y-23022D01*
X1165165Y-22979D01*
X1165132Y-22933D01*
X1164999Y-22798D01*
X1164871Y-22658D01*
X1164834Y-22631D01*
X1164786Y-22582D01*
X1164387Y-22292D01*
X1164347Y-22271D01*
X1164322Y-22253D01*
X1164116Y-22134D01*
X1158966Y-16984D01*
X1155324Y-10677D01*
X1153439Y-3642D01*
X1153439Y3642D01*
X1155324Y10677D01*
X1158966Y16984D01*
X1164116Y22134D01*
X1170423Y25776D01*
X1177458Y27661D01*
X1184742Y27661D01*
X1191777Y25776D01*
X1198084Y22134D01*
X1203456Y16762D01*
X1203485Y16737D01*
X1203511Y16709D01*
X1203673Y16578D01*
X1203832Y16442D01*
X1203865Y16423D01*
X1203895Y16399D01*
X1204076Y16296D01*
X1204255Y16188D01*
X1204290Y16174D01*
X1204323Y16155D01*
X1204519Y16082D01*
X1204713Y16005D01*
X1204750Y15996D01*
X1204786Y15983D01*
X1204991Y15943D01*
X1205195Y15898D01*
X1205233Y15896D01*
X1205270Y15889D01*
X1205478Y15882D01*
X1205687Y15870D01*
X1205725Y15874D01*
X1205763Y15873D01*
X1205970Y15900D01*
X1206178Y15923D01*
X1206214Y15933D01*
X1206252Y15938D01*
X1206452Y15998D01*
X1206653Y16053D01*
X1206688Y16069D01*
X1206725Y16080D01*
X1206912Y16172D01*
X1207102Y16259D01*
X1207134Y16280D01*
X1207168Y16297D01*
X1207337Y16417D01*
X1207511Y16534D01*
X1207539Y16560D01*
X1207570Y16582D01*
X1207718Y16729D01*
X1207871Y16872D01*
X1207894Y16902D01*
X1207921Y16929D01*
X1208044Y17098D01*
X1208171Y17264D01*
X1208189Y17297D01*
X1208211Y17328D01*
X1208305Y17514D01*
X1208404Y17698D01*
X1208417Y17734D01*
X1208434Y17768D01*
X1208496Y17967D01*
X1208564Y18165D01*
X1208570Y18202D01*
X1208582Y18239D01*
X1208592Y18331D01*
X1208647Y18651D01*
X1208648Y18823D01*
X1208658Y18917D01*
X1208658Y590683D01*
X1208655Y590721D01*
X1208657Y590759D01*
X1208654Y590791D01*
X1208654Y590805D01*
X1208644Y590881D01*
X1208635Y590967D01*
X1208618Y591175D01*
X1208609Y591212D01*
X1208605Y591250D01*
X1208550Y591451D01*
X1208500Y591654D01*
X1208485Y591689D01*
X1208474Y591726D01*
X1208387Y591916D01*
X1208305Y592107D01*
X1208285Y592139D01*
X1208269Y592174D01*
X1208152Y592348D01*
X1208040Y592523D01*
X1208015Y592552D01*
X1207993Y592583D01*
X1207850Y592735D01*
X1207711Y592891D01*
X1207682Y592915D01*
X1207656Y592943D01*
X1207490Y593070D01*
X1207327Y593201D01*
X1207294Y593220D01*
X1207264Y593243D01*
X1207080Y593342D01*
X1206899Y593445D01*
X1206863Y593458D01*
X1206829Y593476D01*
X1206632Y593544D01*
X1206436Y593617D01*
X1206399Y593624D01*
X1206363Y593636D01*
X1206156Y593672D01*
X1205952Y593711D01*
X1205914Y593713D01*
X1205876Y593719D01*
X1205667Y593720D01*
X1205459Y593727D01*
X1205421Y593722D01*
X1205383Y593722D01*
X1205176Y593690D01*
X1204970Y593662D01*
X1204933Y593651D01*
X1204896Y593645D01*
X1204697Y593580D01*
X1204498Y593520D01*
X1204463Y593503D01*
X1204427Y593491D01*
X1204242Y593395D01*
X1204054Y593303D01*
X1204023Y593281D01*
X1203989Y593263D01*
X1203917Y593205D01*
X1203760Y593094D01*
X1203740Y593082D01*
X1203732Y593074D01*
X1203652Y593018D01*
X1203530Y592897D01*
X1203456Y592838D01*
X1198084Y587466D01*
X1191777Y583824D01*
X1184742Y581939D01*
X1177458Y581939D01*
X1170423Y583824D01*
X1164116Y587466D01*
X1158966Y592616D01*
X1155324Y598923D01*
X1153439Y605958D01*
X1153439Y613242D01*
X1155324Y620277D01*
X1158966Y626584D01*
X1164338Y631956D01*
X1164363Y631985D01*
X1164391Y632011D01*
X1164522Y632173D01*
X1164658Y632332D01*
X1164677Y632365D01*
X1164701Y632395D01*
X1164804Y632576D01*
X1164912Y632755D01*
X1164926Y632790D01*
X1164945Y632823D01*
X1165018Y633019D01*
X1165095Y633213D01*
X1165104Y633250D01*
X1165117Y633286D01*
X1165157Y633491D01*
X1165202Y633695D01*
X1165204Y633733D01*
X1165211Y633770D01*
X1165218Y633978D01*
X1165230Y634187D01*
X1165226Y634225D01*
X1165227Y634263D01*
X1165200Y634470D01*
X1165177Y634678D01*
X1165167Y634714D01*
X1165162Y634752D01*
X1165102Y634952D01*
X1165047Y635153D01*
X1165031Y635188D01*
X1165020Y635225D01*
X1164928Y635412D01*
X1164841Y635602D01*
X1164820Y635634D01*
X1164803Y635668D01*
X1164683Y635837D01*
X1164566Y636011D01*
X1164540Y636039D01*
X1164518Y636070D01*
X1164371Y636218D01*
X1164228Y636371D01*
X1164198Y636394D01*
X1164171Y636421D01*
X1164002Y636544D01*
X1163836Y636671D01*
X1163803Y636689D01*
X1163772Y636711D01*
X1163586Y636805D01*
X1163402Y636904D01*
X1163366Y636917D01*
X1163332Y636934D01*
X1163133Y636996D01*
X1162935Y637064D01*
X1162898Y637070D01*
X1162861Y637082D01*
X1162769Y637092D01*
X1162449Y637147D01*
X1162277Y637148D01*
X1162183Y637158D01*
X57017Y637158D01*
X56979Y637155D01*
X56941Y637157D01*
X56733Y637135D01*
X56525Y637118D01*
X56488Y637109D01*
X56450Y637105D01*
X56249Y637050D01*
X56046Y637000D01*
X56011Y636985D01*
X55974Y636974D01*
X55784Y636887D01*
X55593Y636805D01*
X55561Y636785D01*
X55526Y636769D01*
X55352Y636652D01*
X55177Y636540D01*
X55148Y636515D01*
X55117Y636493D01*
X54965Y636350D01*
X54809Y636211D01*
X54785Y636182D01*
X54757Y636156D01*
X54630Y635990D01*
X54499Y635827D01*
X54480Y635794D01*
X54457Y635764D01*
X54358Y635580D01*
X54255Y635399D01*
X54242Y635363D01*
X54224Y635329D01*
X54156Y635132D01*
X54083Y634936D01*
X54076Y634899D01*
X54064Y634863D01*
X54028Y634656D01*
X53989Y634452D01*
X53987Y634414D01*
X53981Y634376D01*
X53980Y634167D01*
X53973Y633959D01*
X53978Y633921D01*
X53978Y633883D01*
X54010Y633676D01*
X54038Y633470D01*
X54049Y633433D01*
X54055Y633396D01*
X54120Y633197D01*
X54180Y632998D01*
X54197Y632963D01*
X54209Y632927D01*
X54305Y632742D01*
X54397Y632554D01*
X54419Y632523D01*
X54437Y632489D01*
X54495Y632417D01*
X54682Y632152D01*
X54803Y632030D01*
X54862Y631956D01*
X60234Y626584D01*
X63876Y620277D01*
X65761Y613242D01*
X65761Y605958D01*
X63876Y598923D01*
X60234Y592616D01*
X55084Y587466D01*
X48777Y583824D01*
X41742Y581939D01*
X34458Y581939D01*
X27423Y583824D01*
X21116Y587466D01*
X15966Y592616D01*
X15847Y592822D01*
X15739Y592978D01*
X15637Y593138D01*
X15599Y593181D01*
X15567Y593228D01*
X15435Y593365D01*
X15308Y593506D01*
X15264Y593542D01*
X15224Y593583D01*
X15072Y593697D01*
X14924Y593816D01*
X14875Y593844D01*
X14829Y593878D01*
X14660Y593966D01*
X14496Y594060D01*
X14442Y594080D01*
X14392Y594106D01*
X14211Y594166D01*
X14033Y594232D01*
X13977Y594243D01*
X13923Y594260D01*
X13735Y594290D01*
X13549Y594326D01*
X13492Y594328D01*
X13436Y594337D01*
X13245Y594336D01*
X13056Y594342D01*
X12999Y594334D01*
X12942Y594334D01*
X12755Y594302D01*
X12567Y594277D01*
X12512Y594261D01*
X12456Y594251D01*
X12276Y594190D01*
X12094Y594135D01*
X12043Y594110D01*
X11989Y594091D01*
X11822Y594002D01*
X11651Y593918D01*
X11605Y593885D01*
X11555Y593858D01*
X11404Y593743D01*
X11249Y593632D01*
X11208Y593592D01*
X11163Y593558D01*
X11033Y593419D01*
X10898Y593286D01*
X10865Y593240D01*
X10826Y593198D01*
X10719Y593040D01*
X10608Y592887D01*
X10582Y592836D01*
X10550Y592789D01*
X10471Y592616D01*
X10385Y592447D01*
X10368Y592392D01*
X10344Y592340D01*
X10294Y592157D01*
X10237Y591976D01*
X10232Y591931D01*
X10214Y591865D01*
X10162Y591374D01*
X10164Y591329D01*
X10161Y591298D01*
X10161Y18302D01*
X10176Y18112D01*
X10184Y17923D01*
X10196Y17867D01*
X10201Y17810D01*
X10246Y17625D01*
X10285Y17440D01*
X10306Y17386D01*
X10319Y17331D01*
X10394Y17156D01*
X10463Y16979D01*
X10491Y16930D01*
X10514Y16878D01*
X10616Y16718D01*
X10712Y16554D01*
X10748Y16510D01*
X10779Y16462D01*
X10906Y16320D01*
X11027Y16174D01*
X11070Y16136D01*
X11108Y16094D01*
X11256Y15974D01*
X11399Y15850D01*
X11447Y15820D01*
X11492Y15784D01*
X11656Y15690D01*
X11818Y15590D01*
X11871Y15568D01*
X11920Y15540D01*
X12099Y15474D01*
X12274Y15401D01*
X12329Y15388D01*
X12383Y15368D01*
X12569Y15332D01*
X12754Y15288D01*
X12811Y15284D01*
X12867Y15274D01*
X13057Y15268D01*
X13246Y15255D01*
X13303Y15260D01*
X13360Y15258D01*
X13548Y15283D01*
X13738Y15301D01*
X13793Y15315D01*
X13849Y15323D01*
X14031Y15378D01*
X14215Y15426D01*
X14267Y15449D01*
X14321Y15465D01*
X14492Y15549D01*
X14666Y15626D01*
X14714Y15657D01*
X14765Y15682D01*
X14919Y15792D01*
X15078Y15896D01*
X15121Y15935D01*
X15167Y15968D01*
X15302Y16101D01*
X15442Y16229D01*
X15469Y16266D01*
X15518Y16314D01*
X15808Y16713D01*
X15829Y16753D01*
X15847Y16778D01*
X15966Y16984D01*
X21116Y22134D01*
X27423Y25776D01*
X34458Y27661D01*
X41742Y27661D01*
X48777Y25776D01*
X55084Y22134D01*
X60234Y16984D01*
X63876Y10677D01*
X65761Y3642D01*
X65761Y-3642D01*
X63876Y-10677D01*
X60234Y-16984D01*
X55084Y-22134D01*
X54878Y-22253D01*
X54722Y-22361D01*
X54562Y-22463D01*
X54519Y-22501D01*
X54472Y-22533D01*
X54335Y-22665D01*
X54194Y-22792D01*
X54158Y-22836D01*
X54117Y-22876D01*
X54003Y-23028D01*
X53884Y-23176D01*
X53856Y-23225D01*
X53822Y-23271D01*
X53734Y-23440D01*
X53640Y-23604D01*
X53620Y-23658D01*
X53594Y-23708D01*
X53534Y-23889D01*
X53468Y-24067D01*
X53457Y-24123D01*
X53440Y-24177D01*
X53410Y-24365D01*
X53374Y-24551D01*
X53372Y-24608D01*
X53363Y-24664D01*
X53364Y-24855D01*
X53358Y-25044D01*
X53366Y-25101D01*
X53366Y-25158D01*
X53398Y-25345D01*
X53423Y-25533D01*
X53439Y-25588D01*
X53449Y-25644D01*
X53510Y-25824D01*
X53565Y-26006D01*
X53590Y-26057D01*
X53609Y-26111D01*
X53698Y-26278D01*
X53782Y-26449D01*
X53815Y-26495D01*
X53842Y-26545D01*
X53957Y-26696D01*
X54068Y-26851D01*
X54108Y-26892D01*
X54142Y-26937D01*
X54281Y-27067D01*
X54414Y-27202D01*
X54460Y-27235D01*
X54502Y-27274D01*
X54660Y-27381D01*
X54813Y-27492D01*
X54864Y-27518D01*
X54911Y-27550D01*
X55084Y-27629D01*
X55253Y-27715D01*
X55308Y-27732D01*
X55360Y-27756D01*
X55543Y-27806D01*
X55724Y-27863D01*
X55769Y-27868D01*
X55835Y-27886D01*
X56326Y-27938D01*
X56371Y-27936D01*
X56402Y-27939D01*
X1162798Y-27939D01*
X1162988Y-27924D01*
G37*
%LPC*%
G36*
X87990Y-4573D02*
X87990Y-4573D01*
X86310Y-3877D01*
X72323Y10110D01*
X71627Y11790D01*
X71627Y267610D01*
X72323Y269290D01*
X97295Y294262D01*
X99010Y295977D01*
X100271Y296499D01*
X100280Y296504D01*
X100289Y296507D01*
X100498Y296615D01*
X100710Y296724D01*
X100718Y296730D01*
X100727Y296734D01*
X100758Y296759D01*
X101107Y297017D01*
X101199Y297111D01*
X101260Y297160D01*
X103091Y298991D01*
X106079Y300229D01*
X122521Y300229D01*
X125509Y298991D01*
X127795Y296705D01*
X129033Y293717D01*
X129033Y290483D01*
X127795Y287495D01*
X125509Y285209D01*
X122521Y283971D01*
X106079Y283971D01*
X103618Y284991D01*
X103411Y285057D01*
X103203Y285129D01*
X103175Y285133D01*
X103148Y285142D01*
X102933Y285174D01*
X102717Y285211D01*
X102689Y285211D01*
X102660Y285216D01*
X102443Y285213D01*
X102224Y285214D01*
X102196Y285210D01*
X102167Y285209D01*
X101952Y285172D01*
X101736Y285138D01*
X101709Y285129D01*
X101681Y285124D01*
X101476Y285052D01*
X101268Y284983D01*
X101243Y284970D01*
X101216Y284961D01*
X101024Y284857D01*
X100830Y284755D01*
X100812Y284741D01*
X100782Y284725D01*
X100393Y284422D01*
X100338Y284363D01*
X100297Y284330D01*
X81665Y265698D01*
X81591Y265611D01*
X81510Y265531D01*
X81432Y265424D01*
X81346Y265322D01*
X81287Y265225D01*
X81220Y265132D01*
X81160Y265014D01*
X81091Y264900D01*
X81049Y264794D01*
X80997Y264692D01*
X80957Y264565D01*
X80908Y264442D01*
X80883Y264331D01*
X80849Y264221D01*
X80839Y264128D01*
X80801Y263960D01*
X80783Y263636D01*
X80773Y263544D01*
X80773Y15856D01*
X80782Y15743D01*
X80781Y15628D01*
X80802Y15497D01*
X80813Y15365D01*
X80840Y15254D01*
X80858Y15141D01*
X80899Y15015D01*
X80931Y14886D01*
X80976Y14781D01*
X81012Y14672D01*
X81074Y14554D01*
X81126Y14432D01*
X81187Y14336D01*
X81240Y14235D01*
X81299Y14161D01*
X81391Y14016D01*
X81607Y13774D01*
X81665Y13702D01*
X89902Y5465D01*
X89989Y5391D01*
X90069Y5310D01*
X90176Y5232D01*
X90278Y5146D01*
X90375Y5087D01*
X90468Y5020D01*
X90586Y4960D01*
X90700Y4891D01*
X90806Y4849D01*
X90908Y4797D01*
X91035Y4757D01*
X91158Y4708D01*
X91269Y4683D01*
X91379Y4649D01*
X91472Y4639D01*
X91640Y4601D01*
X91964Y4583D01*
X92056Y4573D01*
X619144Y4573D01*
X619257Y4582D01*
X619372Y4581D01*
X619503Y4602D01*
X619635Y4613D01*
X619746Y4640D01*
X619859Y4658D01*
X619985Y4699D01*
X620114Y4731D01*
X620219Y4776D01*
X620328Y4812D01*
X620446Y4874D01*
X620568Y4926D01*
X620664Y4987D01*
X620765Y5040D01*
X620839Y5099D01*
X620984Y5191D01*
X621226Y5407D01*
X621298Y5465D01*
X642235Y26402D01*
X642309Y26489D01*
X642390Y26569D01*
X642468Y26676D01*
X642554Y26778D01*
X642613Y26875D01*
X642680Y26968D01*
X642740Y27086D01*
X642809Y27200D01*
X642851Y27306D01*
X642903Y27408D01*
X642943Y27535D01*
X642992Y27658D01*
X643017Y27769D01*
X643051Y27879D01*
X643061Y27972D01*
X643099Y28140D01*
X643117Y28464D01*
X643127Y28556D01*
X643127Y102510D01*
X643823Y104190D01*
X772110Y232477D01*
X773790Y233173D01*
X1105810Y233173D01*
X1107490Y232477D01*
X1146877Y193090D01*
X1147573Y191410D01*
X1147573Y138790D01*
X1146877Y137110D01*
X1110365Y100598D01*
X1110291Y100511D01*
X1110210Y100431D01*
X1110132Y100324D01*
X1110046Y100222D01*
X1109987Y100125D01*
X1109920Y100032D01*
X1109860Y99914D01*
X1109791Y99800D01*
X1109749Y99694D01*
X1109697Y99592D01*
X1109657Y99465D01*
X1109608Y99342D01*
X1109583Y99231D01*
X1109549Y99121D01*
X1109539Y99028D01*
X1109501Y98860D01*
X1109483Y98536D01*
X1109473Y98444D01*
X1109473Y83892D01*
X1109482Y83778D01*
X1109481Y83664D01*
X1109502Y83532D01*
X1109513Y83400D01*
X1109540Y83289D01*
X1109558Y83176D01*
X1109599Y83050D01*
X1109631Y82921D01*
X1109676Y82816D01*
X1109712Y82708D01*
X1109774Y82590D01*
X1109826Y82468D01*
X1109887Y82372D01*
X1109940Y82270D01*
X1109999Y82197D01*
X1110091Y82052D01*
X1110307Y81810D01*
X1110365Y81737D01*
X1111495Y80607D01*
X1112680Y77748D01*
X1112680Y74652D01*
X1111495Y71793D01*
X1109307Y69605D01*
X1106448Y68420D01*
X1103352Y68420D01*
X1100493Y69605D01*
X1098305Y71793D01*
X1097120Y74652D01*
X1097120Y77748D01*
X1098305Y80607D01*
X1099435Y81737D01*
X1099509Y81824D01*
X1099590Y81904D01*
X1099668Y82012D01*
X1099754Y82113D01*
X1099813Y82211D01*
X1099880Y82303D01*
X1099940Y82421D01*
X1100009Y82535D01*
X1100051Y82642D01*
X1100103Y82743D01*
X1100143Y82870D01*
X1100192Y82994D01*
X1100217Y83105D01*
X1100251Y83214D01*
X1100261Y83307D01*
X1100299Y83475D01*
X1100317Y83799D01*
X1100327Y83892D01*
X1100327Y102510D01*
X1101023Y104190D01*
X1137535Y140702D01*
X1137609Y140789D01*
X1137690Y140869D01*
X1137768Y140976D01*
X1137854Y141078D01*
X1137913Y141175D01*
X1137980Y141268D01*
X1138040Y141386D01*
X1138109Y141500D01*
X1138151Y141606D01*
X1138203Y141708D01*
X1138243Y141835D01*
X1138292Y141958D01*
X1138317Y142069D01*
X1138351Y142179D01*
X1138361Y142272D01*
X1138399Y142440D01*
X1138417Y142764D01*
X1138427Y142856D01*
X1138427Y187344D01*
X1138418Y187457D01*
X1138419Y187572D01*
X1138398Y187703D01*
X1138387Y187835D01*
X1138360Y187946D01*
X1138342Y188059D01*
X1138301Y188185D01*
X1138269Y188314D01*
X1138224Y188419D01*
X1138188Y188528D01*
X1138126Y188646D01*
X1138074Y188768D01*
X1138013Y188864D01*
X1137960Y188965D01*
X1137901Y189039D01*
X1137809Y189184D01*
X1137593Y189426D01*
X1137535Y189498D01*
X1103898Y223135D01*
X1103811Y223209D01*
X1103731Y223290D01*
X1103624Y223368D01*
X1103522Y223454D01*
X1103425Y223513D01*
X1103332Y223580D01*
X1103214Y223640D01*
X1103100Y223709D01*
X1102994Y223751D01*
X1102892Y223803D01*
X1102765Y223843D01*
X1102642Y223892D01*
X1102531Y223917D01*
X1102421Y223951D01*
X1102328Y223961D01*
X1102160Y223999D01*
X1101836Y224017D01*
X1101744Y224027D01*
X777856Y224027D01*
X777743Y224018D01*
X777628Y224019D01*
X777497Y223998D01*
X777365Y223987D01*
X777254Y223960D01*
X777141Y223942D01*
X777015Y223901D01*
X776886Y223869D01*
X776781Y223824D01*
X776672Y223788D01*
X776554Y223726D01*
X776432Y223674D01*
X776336Y223613D01*
X776235Y223560D01*
X776161Y223501D01*
X776016Y223409D01*
X775774Y223193D01*
X775702Y223135D01*
X653165Y100598D01*
X653091Y100511D01*
X653010Y100431D01*
X652932Y100324D01*
X652846Y100222D01*
X652787Y100125D01*
X652720Y100032D01*
X652660Y99914D01*
X652591Y99800D01*
X652549Y99694D01*
X652497Y99592D01*
X652457Y99465D01*
X652408Y99342D01*
X652383Y99231D01*
X652349Y99121D01*
X652339Y99028D01*
X652301Y98860D01*
X652283Y98536D01*
X652273Y98444D01*
X652273Y24490D01*
X651577Y22810D01*
X626605Y-2162D01*
X624890Y-3877D01*
X623210Y-4573D01*
X87990Y-4573D01*
G37*
%LPD*%
%LPC*%
G36*
X175975Y308225D02*
X175975Y308225D01*
X172603Y309622D01*
X170022Y312203D01*
X168625Y315575D01*
X168625Y319225D01*
X170022Y322597D01*
X172603Y325178D01*
X175975Y326575D01*
X179625Y326575D01*
X182997Y325178D01*
X185310Y322865D01*
X185397Y322791D01*
X185477Y322710D01*
X185584Y322632D01*
X185686Y322546D01*
X185784Y322487D01*
X185876Y322420D01*
X185994Y322360D01*
X186108Y322291D01*
X186214Y322249D01*
X186316Y322197D01*
X186443Y322157D01*
X186566Y322108D01*
X186678Y322083D01*
X186787Y322049D01*
X186880Y322039D01*
X187048Y322001D01*
X187372Y321983D01*
X187465Y321973D01*
X212644Y321973D01*
X212757Y321982D01*
X212872Y321981D01*
X213003Y322002D01*
X213135Y322013D01*
X213246Y322040D01*
X213359Y322058D01*
X213485Y322099D01*
X213614Y322131D01*
X213719Y322176D01*
X213828Y322212D01*
X213946Y322274D01*
X214068Y322326D01*
X214164Y322387D01*
X214265Y322440D01*
X214339Y322499D01*
X214484Y322591D01*
X214726Y322807D01*
X214798Y322865D01*
X261235Y369302D01*
X261309Y369389D01*
X261390Y369469D01*
X261468Y369576D01*
X261554Y369678D01*
X261613Y369775D01*
X261680Y369868D01*
X261740Y369986D01*
X261809Y370100D01*
X261851Y370206D01*
X261903Y370308D01*
X261943Y370435D01*
X261992Y370558D01*
X262017Y370669D01*
X262051Y370779D01*
X262061Y370872D01*
X262099Y371040D01*
X262117Y371364D01*
X262127Y371456D01*
X262127Y508910D01*
X262823Y510590D01*
X365710Y613477D01*
X367390Y614173D01*
X1055010Y614173D01*
X1056690Y613477D01*
X1134177Y535990D01*
X1134873Y534310D01*
X1134873Y430890D01*
X1134177Y429210D01*
X1110365Y405398D01*
X1110291Y405311D01*
X1110210Y405231D01*
X1110132Y405124D01*
X1110046Y405022D01*
X1109987Y404925D01*
X1109920Y404832D01*
X1109860Y404714D01*
X1109791Y404600D01*
X1109749Y404494D01*
X1109697Y404392D01*
X1109657Y404265D01*
X1109608Y404142D01*
X1109583Y404031D01*
X1109549Y403921D01*
X1109539Y403828D01*
X1109501Y403660D01*
X1109483Y403336D01*
X1109473Y403244D01*
X1109473Y401392D01*
X1109482Y401278D01*
X1109481Y401164D01*
X1109502Y401032D01*
X1109513Y400900D01*
X1109540Y400789D01*
X1109558Y400676D01*
X1109599Y400550D01*
X1109631Y400421D01*
X1109676Y400316D01*
X1109712Y400208D01*
X1109773Y400090D01*
X1109826Y399968D01*
X1109887Y399871D01*
X1109940Y399770D01*
X1109999Y399697D01*
X1110091Y399552D01*
X1110307Y399310D01*
X1110365Y399237D01*
X1111495Y398107D01*
X1112680Y395248D01*
X1112680Y392152D01*
X1111495Y389293D01*
X1109307Y387105D01*
X1106448Y385920D01*
X1103352Y385920D01*
X1100493Y387105D01*
X1098305Y389293D01*
X1097120Y392152D01*
X1097120Y395248D01*
X1098305Y398107D01*
X1099435Y399237D01*
X1099509Y399324D01*
X1099590Y399404D01*
X1099668Y399512D01*
X1099754Y399613D01*
X1099813Y399711D01*
X1099880Y399803D01*
X1099940Y399922D01*
X1100009Y400035D01*
X1100051Y400142D01*
X1100103Y400243D01*
X1100143Y400370D01*
X1100192Y400494D01*
X1100217Y400605D01*
X1100251Y400714D01*
X1100261Y400807D01*
X1100299Y400975D01*
X1100317Y401299D01*
X1100327Y401392D01*
X1100327Y407310D01*
X1101023Y408990D01*
X1124835Y432802D01*
X1124909Y432889D01*
X1124990Y432969D01*
X1125068Y433076D01*
X1125154Y433178D01*
X1125213Y433275D01*
X1125280Y433368D01*
X1125340Y433486D01*
X1125409Y433600D01*
X1125451Y433706D01*
X1125503Y433808D01*
X1125543Y433935D01*
X1125592Y434058D01*
X1125617Y434169D01*
X1125651Y434279D01*
X1125661Y434372D01*
X1125699Y434540D01*
X1125717Y434864D01*
X1125727Y434956D01*
X1125727Y530244D01*
X1125718Y530357D01*
X1125719Y530472D01*
X1125698Y530603D01*
X1125687Y530735D01*
X1125660Y530846D01*
X1125642Y530959D01*
X1125601Y531085D01*
X1125569Y531214D01*
X1125524Y531319D01*
X1125488Y531428D01*
X1125426Y531546D01*
X1125374Y531668D01*
X1125313Y531764D01*
X1125260Y531865D01*
X1125201Y531939D01*
X1125109Y532084D01*
X1124893Y532326D01*
X1124835Y532398D01*
X1053098Y604135D01*
X1053011Y604209D01*
X1052931Y604290D01*
X1052824Y604368D01*
X1052722Y604454D01*
X1052625Y604513D01*
X1052532Y604580D01*
X1052414Y604640D01*
X1052300Y604709D01*
X1052194Y604751D01*
X1052092Y604803D01*
X1051965Y604843D01*
X1051842Y604892D01*
X1051731Y604917D01*
X1051621Y604951D01*
X1051528Y604961D01*
X1051360Y604999D01*
X1051036Y605017D01*
X1050944Y605027D01*
X371456Y605027D01*
X371343Y605018D01*
X371228Y605019D01*
X371097Y604998D01*
X370965Y604987D01*
X370854Y604960D01*
X370741Y604942D01*
X370615Y604901D01*
X370486Y604869D01*
X370381Y604824D01*
X370272Y604788D01*
X370154Y604726D01*
X370032Y604674D01*
X369936Y604613D01*
X369835Y604560D01*
X369761Y604501D01*
X369616Y604409D01*
X369374Y604193D01*
X369302Y604135D01*
X272165Y506998D01*
X272091Y506911D01*
X272010Y506831D01*
X271932Y506724D01*
X271846Y506622D01*
X271787Y506525D01*
X271720Y506432D01*
X271660Y506314D01*
X271591Y506200D01*
X271549Y506094D01*
X271497Y505992D01*
X271457Y505865D01*
X271408Y505742D01*
X271383Y505631D01*
X271349Y505521D01*
X271339Y505428D01*
X271301Y505260D01*
X271283Y504936D01*
X271273Y504844D01*
X271273Y367390D01*
X270577Y365710D01*
X218390Y313523D01*
X216710Y312827D01*
X187465Y312827D01*
X187351Y312818D01*
X187237Y312819D01*
X187105Y312798D01*
X186973Y312787D01*
X186862Y312760D01*
X186749Y312742D01*
X186623Y312701D01*
X186494Y312669D01*
X186389Y312624D01*
X186281Y312588D01*
X186163Y312526D01*
X186041Y312474D01*
X185944Y312413D01*
X185843Y312360D01*
X185769Y312301D01*
X185625Y312209D01*
X185382Y311993D01*
X185310Y311935D01*
X182997Y309622D01*
X179625Y308225D01*
X175975Y308225D01*
G37*
%LPD*%
%LPC*%
G36*
X175975Y54225D02*
X175975Y54225D01*
X172603Y55622D01*
X170022Y58203D01*
X168625Y61575D01*
X168625Y65225D01*
X170022Y68597D01*
X172603Y71178D01*
X175975Y72575D01*
X179625Y72575D01*
X182997Y71178D01*
X185210Y68965D01*
X185297Y68891D01*
X185377Y68810D01*
X185484Y68732D01*
X185586Y68646D01*
X185684Y68587D01*
X185776Y68520D01*
X185894Y68460D01*
X186008Y68391D01*
X186114Y68349D01*
X186216Y68297D01*
X186343Y68257D01*
X186466Y68208D01*
X186578Y68183D01*
X186687Y68149D01*
X186780Y68139D01*
X186948Y68101D01*
X187272Y68083D01*
X187365Y68073D01*
X225444Y68073D01*
X225557Y68082D01*
X225672Y68081D01*
X225803Y68102D01*
X225935Y68113D01*
X226046Y68140D01*
X226159Y68158D01*
X226285Y68199D01*
X226414Y68231D01*
X226519Y68276D01*
X226628Y68312D01*
X226746Y68374D01*
X226868Y68426D01*
X226964Y68487D01*
X227065Y68540D01*
X227139Y68599D01*
X227284Y68691D01*
X227526Y68907D01*
X227598Y68965D01*
X286635Y128002D01*
X286709Y128089D01*
X286790Y128169D01*
X286868Y128276D01*
X286954Y128378D01*
X287013Y128475D01*
X287080Y128568D01*
X287140Y128686D01*
X287209Y128800D01*
X287251Y128906D01*
X287303Y129008D01*
X287343Y129135D01*
X287392Y129258D01*
X287417Y129369D01*
X287451Y129479D01*
X287461Y129572D01*
X287499Y129740D01*
X287517Y130064D01*
X287527Y130156D01*
X287527Y496210D01*
X288223Y497890D01*
X365710Y575377D01*
X367390Y576073D01*
X761575Y576073D01*
X761651Y576079D01*
X761727Y576077D01*
X761896Y576099D01*
X762066Y576113D01*
X762140Y576131D01*
X762216Y576141D01*
X762379Y576190D01*
X762545Y576231D01*
X762615Y576261D01*
X762688Y576283D01*
X762842Y576359D01*
X762998Y576426D01*
X763063Y576467D01*
X763131Y576500D01*
X763271Y576599D01*
X763415Y576691D01*
X763471Y576742D01*
X763533Y576786D01*
X763655Y576906D01*
X763782Y577020D01*
X763830Y577079D01*
X763884Y577133D01*
X763985Y577271D01*
X764092Y577404D01*
X764130Y577470D01*
X764175Y577531D01*
X764252Y577684D01*
X764336Y577832D01*
X764363Y577904D01*
X764397Y577972D01*
X764448Y578134D01*
X764508Y578295D01*
X764523Y578370D01*
X764545Y578442D01*
X764557Y578547D01*
X764603Y578779D01*
X764610Y579015D01*
X764622Y579120D01*
X764622Y582538D01*
X766217Y586389D01*
X769165Y589337D01*
X773016Y590932D01*
X777184Y590932D01*
X781035Y589337D01*
X783983Y586389D01*
X785578Y582538D01*
X785578Y560462D01*
X783983Y556611D01*
X781035Y553663D01*
X777184Y552068D01*
X773016Y552068D01*
X769165Y553663D01*
X766217Y556611D01*
X764622Y560462D01*
X764622Y563880D01*
X764616Y563956D01*
X764618Y564032D01*
X764596Y564201D01*
X764582Y564372D01*
X764563Y564446D01*
X764554Y564521D01*
X764504Y564685D01*
X764463Y564851D01*
X764433Y564920D01*
X764411Y564994D01*
X764336Y565147D01*
X764269Y565304D01*
X764228Y565368D01*
X764194Y565437D01*
X764095Y565576D01*
X764004Y565720D01*
X763953Y565777D01*
X763909Y565839D01*
X763789Y565960D01*
X763675Y566088D01*
X763615Y566136D01*
X763562Y566190D01*
X763424Y566291D01*
X763291Y566398D01*
X763225Y566435D01*
X763163Y566480D01*
X763011Y566557D01*
X762862Y566642D01*
X762791Y566668D01*
X762723Y566703D01*
X762560Y566754D01*
X762400Y566813D01*
X762325Y566828D01*
X762252Y566851D01*
X762147Y566863D01*
X761916Y566908D01*
X761679Y566915D01*
X761575Y566927D01*
X371456Y566927D01*
X371343Y566918D01*
X371228Y566919D01*
X371097Y566898D01*
X370965Y566887D01*
X370854Y566860D01*
X370741Y566842D01*
X370615Y566801D01*
X370486Y566769D01*
X370381Y566724D01*
X370272Y566688D01*
X370154Y566626D01*
X370032Y566574D01*
X369936Y566513D01*
X369835Y566460D01*
X369761Y566401D01*
X369616Y566309D01*
X369374Y566093D01*
X369302Y566035D01*
X297565Y494298D01*
X297491Y494211D01*
X297410Y494131D01*
X297332Y494024D01*
X297246Y493922D01*
X297187Y493825D01*
X297120Y493732D01*
X297060Y493614D01*
X296991Y493500D01*
X296949Y493394D01*
X296897Y493292D01*
X296857Y493165D01*
X296808Y493042D01*
X296783Y492931D01*
X296749Y492821D01*
X296739Y492728D01*
X296701Y492560D01*
X296683Y492236D01*
X296673Y492144D01*
X296673Y126090D01*
X295977Y124410D01*
X231190Y59623D01*
X229510Y58927D01*
X187565Y58927D01*
X187451Y58918D01*
X187337Y58919D01*
X187205Y58898D01*
X187073Y58887D01*
X186962Y58860D01*
X186849Y58842D01*
X186723Y58801D01*
X186594Y58769D01*
X186489Y58724D01*
X186381Y58688D01*
X186263Y58626D01*
X186141Y58574D01*
X186044Y58513D01*
X185943Y58460D01*
X185869Y58401D01*
X185725Y58309D01*
X185482Y58093D01*
X185410Y58035D01*
X182997Y55622D01*
X179625Y54225D01*
X175975Y54225D01*
G37*
%LPD*%
%LPC*%
G36*
X595578Y239085D02*
X595578Y239085D01*
X594685Y239978D01*
X594685Y255322D01*
X595578Y256215D01*
X595630Y256215D01*
X595706Y256221D01*
X595782Y256219D01*
X595951Y256241D01*
X596122Y256255D01*
X596196Y256273D01*
X596271Y256283D01*
X596435Y256332D01*
X596601Y256373D01*
X596670Y256403D01*
X596744Y256425D01*
X596897Y256501D01*
X597054Y256568D01*
X597118Y256609D01*
X597187Y256642D01*
X597326Y256741D01*
X597470Y256833D01*
X597527Y256884D01*
X597589Y256928D01*
X597710Y257048D01*
X597838Y257162D01*
X597886Y257221D01*
X597940Y257275D01*
X598041Y257413D01*
X598148Y257546D01*
X598185Y257612D01*
X598230Y257673D01*
X598307Y257826D01*
X598392Y257974D01*
X598418Y258046D01*
X598453Y258114D01*
X598504Y258277D01*
X598563Y258437D01*
X598578Y258512D01*
X598601Y258584D01*
X598613Y258689D01*
X598658Y258921D01*
X598665Y259157D01*
X598677Y259262D01*
X598677Y286660D01*
X599373Y288340D01*
X797510Y486477D01*
X799190Y487173D01*
X835044Y487173D01*
X835157Y487182D01*
X835272Y487181D01*
X835403Y487202D01*
X835535Y487213D01*
X835646Y487240D01*
X835759Y487258D01*
X835885Y487299D01*
X836014Y487331D01*
X836119Y487376D01*
X836228Y487412D01*
X836346Y487474D01*
X836468Y487526D01*
X836564Y487587D01*
X836665Y487640D01*
X836739Y487699D01*
X836884Y487791D01*
X837126Y488007D01*
X837198Y488065D01*
X904427Y555293D01*
X904567Y555459D01*
X904713Y555624D01*
X904728Y555648D01*
X904746Y555669D01*
X904859Y555856D01*
X904975Y556041D01*
X904986Y556068D01*
X905001Y556092D01*
X905082Y556295D01*
X905167Y556496D01*
X905173Y556524D01*
X905184Y556550D01*
X905231Y556763D01*
X905282Y556976D01*
X905284Y557004D01*
X905291Y557032D01*
X905303Y557250D01*
X905319Y557468D01*
X905317Y557496D01*
X905318Y557524D01*
X905295Y557742D01*
X905276Y557959D01*
X905270Y557982D01*
X905266Y558015D01*
X905135Y558491D01*
X905102Y558564D01*
X905087Y558614D01*
X904322Y560462D01*
X904322Y582538D01*
X905917Y586389D01*
X908865Y589337D01*
X912716Y590932D01*
X916884Y590932D01*
X920735Y589337D01*
X923683Y586389D01*
X925278Y582538D01*
X925278Y560462D01*
X923683Y556611D01*
X920735Y553663D01*
X916884Y552068D01*
X915397Y552068D01*
X915284Y552059D01*
X915169Y552060D01*
X915038Y552039D01*
X914906Y552028D01*
X914795Y552001D01*
X914682Y551983D01*
X914556Y551942D01*
X914427Y551910D01*
X914322Y551865D01*
X914213Y551829D01*
X914095Y551767D01*
X913973Y551715D01*
X913877Y551654D01*
X913776Y551601D01*
X913702Y551542D01*
X913557Y551450D01*
X913315Y551234D01*
X913243Y551176D01*
X840790Y478723D01*
X839110Y478027D01*
X803256Y478027D01*
X803143Y478018D01*
X803028Y478019D01*
X802897Y477998D01*
X802765Y477987D01*
X802654Y477960D01*
X802541Y477942D01*
X802415Y477901D01*
X802286Y477869D01*
X802181Y477824D01*
X802072Y477788D01*
X801954Y477726D01*
X801832Y477674D01*
X801736Y477613D01*
X801635Y477560D01*
X801561Y477501D01*
X801416Y477409D01*
X801174Y477193D01*
X801102Y477135D01*
X608715Y284748D01*
X608641Y284661D01*
X608560Y284581D01*
X608482Y284474D01*
X608396Y284372D01*
X608337Y284275D01*
X608270Y284182D01*
X608210Y284064D01*
X608141Y283950D01*
X608099Y283844D01*
X608047Y283742D01*
X608007Y283615D01*
X607958Y283492D01*
X607933Y283381D01*
X607899Y283271D01*
X607889Y283178D01*
X607851Y283010D01*
X607833Y282686D01*
X607823Y282594D01*
X607823Y259262D01*
X607829Y259186D01*
X607827Y259110D01*
X607849Y258941D01*
X607863Y258770D01*
X607881Y258696D01*
X607891Y258621D01*
X607940Y258457D01*
X607981Y258291D01*
X608011Y258222D01*
X608033Y258148D01*
X608109Y257995D01*
X608176Y257838D01*
X608217Y257774D01*
X608250Y257705D01*
X608349Y257566D01*
X608441Y257422D01*
X608492Y257365D01*
X608536Y257303D01*
X608656Y257182D01*
X608770Y257054D01*
X608829Y257006D01*
X608883Y256952D01*
X609021Y256851D01*
X609154Y256744D01*
X609220Y256707D01*
X609281Y256662D01*
X609434Y256585D01*
X609582Y256500D01*
X609654Y256474D01*
X609722Y256439D01*
X609885Y256388D01*
X610045Y256329D01*
X610120Y256314D01*
X610192Y256291D01*
X610297Y256279D01*
X610529Y256234D01*
X610765Y256227D01*
X610870Y256215D01*
X610922Y256215D01*
X611815Y255322D01*
X611815Y239978D01*
X610922Y239085D01*
X595578Y239085D01*
G37*
%LPD*%
%LPC*%
G36*
X678128Y239085D02*
X678128Y239085D01*
X677235Y239978D01*
X677235Y255322D01*
X678128Y256215D01*
X678180Y256215D01*
X678256Y256221D01*
X678332Y256219D01*
X678501Y256241D01*
X678672Y256255D01*
X678746Y256273D01*
X678821Y256283D01*
X678985Y256332D01*
X679151Y256373D01*
X679220Y256403D01*
X679294Y256425D01*
X679447Y256501D01*
X679604Y256568D01*
X679668Y256609D01*
X679737Y256642D01*
X679876Y256741D01*
X680020Y256833D01*
X680077Y256884D01*
X680139Y256928D01*
X680260Y257048D01*
X680388Y257162D01*
X680436Y257221D01*
X680490Y257275D01*
X680591Y257413D01*
X680698Y257546D01*
X680735Y257612D01*
X680780Y257673D01*
X680857Y257826D01*
X680942Y257974D01*
X680968Y258046D01*
X681003Y258114D01*
X681054Y258277D01*
X681113Y258437D01*
X681128Y258512D01*
X681151Y258584D01*
X681163Y258689D01*
X681208Y258921D01*
X681215Y259157D01*
X681227Y259262D01*
X681227Y305710D01*
X681923Y307390D01*
X822910Y448377D01*
X824590Y449073D01*
X873144Y449073D01*
X873257Y449082D01*
X873372Y449081D01*
X873503Y449102D01*
X873635Y449113D01*
X873746Y449140D01*
X873859Y449158D01*
X873985Y449199D01*
X874114Y449231D01*
X874219Y449276D01*
X874328Y449312D01*
X874446Y449374D01*
X874568Y449426D01*
X874664Y449487D01*
X874765Y449540D01*
X874839Y449599D01*
X874984Y449691D01*
X875226Y449907D01*
X875298Y449965D01*
X959335Y534002D01*
X959409Y534089D01*
X959490Y534169D01*
X959568Y534276D01*
X959654Y534378D01*
X959713Y534475D01*
X959780Y534568D01*
X959840Y534686D01*
X959909Y534800D01*
X959951Y534906D01*
X960003Y535008D01*
X960043Y535135D01*
X960092Y535258D01*
X960117Y535369D01*
X960151Y535479D01*
X960161Y535572D01*
X960199Y535740D01*
X960217Y536064D01*
X960227Y536156D01*
X960227Y551063D01*
X960222Y551132D01*
X960223Y551190D01*
X960208Y551309D01*
X960196Y551499D01*
X960190Y551527D01*
X960187Y551555D01*
X960162Y551656D01*
X960159Y551679D01*
X960144Y551729D01*
X960135Y551767D01*
X960086Y551980D01*
X960075Y552006D01*
X960069Y552033D01*
X959982Y552234D01*
X959900Y552437D01*
X959885Y552461D01*
X959874Y552487D01*
X959757Y552671D01*
X959643Y552858D01*
X959624Y552879D01*
X959609Y552903D01*
X959464Y553065D01*
X959321Y553232D01*
X959299Y553250D01*
X959280Y553271D01*
X959160Y553368D01*
X955917Y556611D01*
X954322Y560462D01*
X954322Y582538D01*
X955917Y586389D01*
X958865Y589337D01*
X962716Y590932D01*
X966884Y590932D01*
X970735Y589337D01*
X973683Y586389D01*
X975278Y582538D01*
X975278Y560462D01*
X973683Y556611D01*
X970489Y553417D01*
X970461Y553397D01*
X970441Y553377D01*
X970418Y553361D01*
X970265Y553204D01*
X970110Y553050D01*
X970094Y553028D01*
X970074Y553008D01*
X969948Y552828D01*
X969820Y552652D01*
X969807Y552627D01*
X969791Y552603D01*
X969696Y552406D01*
X969597Y552211D01*
X969589Y552184D01*
X969577Y552159D01*
X969515Y551949D01*
X969494Y551884D01*
X969487Y551863D01*
X969485Y551854D01*
X969449Y551741D01*
X969446Y551718D01*
X969437Y551686D01*
X969411Y551475D01*
X969392Y551379D01*
X969390Y551308D01*
X969376Y551196D01*
X969379Y551115D01*
X969373Y551063D01*
X969373Y532090D01*
X968677Y530410D01*
X878890Y440623D01*
X877210Y439927D01*
X828656Y439927D01*
X828543Y439918D01*
X828428Y439919D01*
X828297Y439898D01*
X828165Y439887D01*
X828054Y439860D01*
X827941Y439842D01*
X827815Y439801D01*
X827686Y439769D01*
X827581Y439724D01*
X827472Y439688D01*
X827354Y439626D01*
X827232Y439574D01*
X827136Y439513D01*
X827035Y439460D01*
X826961Y439401D01*
X826816Y439309D01*
X826574Y439093D01*
X826502Y439035D01*
X691265Y303798D01*
X691191Y303711D01*
X691110Y303631D01*
X691032Y303524D01*
X690946Y303422D01*
X690887Y303325D01*
X690820Y303232D01*
X690760Y303114D01*
X690691Y303000D01*
X690649Y302894D01*
X690597Y302792D01*
X690557Y302665D01*
X690508Y302542D01*
X690483Y302431D01*
X690449Y302321D01*
X690439Y302228D01*
X690401Y302060D01*
X690383Y301736D01*
X690373Y301644D01*
X690373Y259262D01*
X690379Y259186D01*
X690377Y259110D01*
X690399Y258941D01*
X690413Y258770D01*
X690431Y258696D01*
X690441Y258621D01*
X690490Y258457D01*
X690531Y258291D01*
X690561Y258222D01*
X690583Y258148D01*
X690659Y257995D01*
X690726Y257838D01*
X690767Y257774D01*
X690800Y257705D01*
X690899Y257566D01*
X690991Y257422D01*
X691042Y257365D01*
X691086Y257303D01*
X691206Y257182D01*
X691320Y257054D01*
X691379Y257006D01*
X691433Y256952D01*
X691571Y256851D01*
X691704Y256744D01*
X691770Y256707D01*
X691831Y256662D01*
X691984Y256585D01*
X692132Y256500D01*
X692204Y256474D01*
X692272Y256439D01*
X692435Y256388D01*
X692595Y256329D01*
X692670Y256314D01*
X692742Y256291D01*
X692847Y256279D01*
X693079Y256234D01*
X693315Y256227D01*
X693420Y256215D01*
X693472Y256215D01*
X694365Y255322D01*
X694365Y239978D01*
X693472Y239085D01*
X678128Y239085D01*
G37*
%LPD*%
%LPC*%
G36*
X658581Y402335D02*
X658581Y402335D01*
X655220Y403727D01*
X652647Y406300D01*
X651255Y409661D01*
X651255Y428539D01*
X652647Y431900D01*
X655220Y434473D01*
X658581Y435865D01*
X662219Y435865D01*
X665580Y434473D01*
X668153Y431900D01*
X669545Y428539D01*
X669545Y426720D01*
X669551Y426644D01*
X669549Y426568D01*
X669571Y426399D01*
X669585Y426228D01*
X669603Y426154D01*
X669613Y426079D01*
X669662Y425915D01*
X669703Y425749D01*
X669733Y425680D01*
X669755Y425606D01*
X669831Y425453D01*
X669898Y425296D01*
X669939Y425232D01*
X669972Y425163D01*
X670071Y425024D01*
X670163Y424880D01*
X670214Y424823D01*
X670258Y424761D01*
X670378Y424640D01*
X670492Y424512D01*
X670551Y424464D01*
X670605Y424410D01*
X670743Y424309D01*
X670876Y424202D01*
X670942Y424165D01*
X671003Y424120D01*
X671156Y424043D01*
X671304Y423958D01*
X671376Y423932D01*
X671444Y423897D01*
X671607Y423846D01*
X671767Y423787D01*
X671842Y423772D01*
X671914Y423749D01*
X672019Y423737D01*
X672251Y423692D01*
X672487Y423685D01*
X672592Y423673D01*
X708044Y423673D01*
X708157Y423682D01*
X708272Y423681D01*
X708403Y423702D01*
X708535Y423713D01*
X708646Y423740D01*
X708759Y423758D01*
X708885Y423799D01*
X709014Y423831D01*
X709119Y423876D01*
X709228Y423912D01*
X709346Y423974D01*
X709468Y424026D01*
X709564Y424087D01*
X709665Y424140D01*
X709739Y424199D01*
X709884Y424291D01*
X710126Y424507D01*
X710198Y424565D01*
X819635Y534002D01*
X819709Y534089D01*
X819790Y534169D01*
X819868Y534276D01*
X819954Y534378D01*
X820013Y534475D01*
X820080Y534568D01*
X820140Y534686D01*
X820209Y534800D01*
X820251Y534906D01*
X820303Y535008D01*
X820343Y535135D01*
X820392Y535258D01*
X820417Y535369D01*
X820451Y535479D01*
X820461Y535572D01*
X820499Y535740D01*
X820517Y536064D01*
X820527Y536156D01*
X820527Y551063D01*
X820522Y551132D01*
X820523Y551190D01*
X820508Y551309D01*
X820496Y551499D01*
X820490Y551527D01*
X820487Y551555D01*
X820462Y551656D01*
X820459Y551679D01*
X820444Y551729D01*
X820435Y551767D01*
X820386Y551980D01*
X820375Y552006D01*
X820369Y552033D01*
X820282Y552234D01*
X820200Y552437D01*
X820185Y552461D01*
X820174Y552487D01*
X820057Y552671D01*
X819943Y552858D01*
X819924Y552879D01*
X819909Y552903D01*
X819764Y553065D01*
X819621Y553232D01*
X819599Y553250D01*
X819580Y553271D01*
X819460Y553368D01*
X816217Y556611D01*
X814622Y560462D01*
X814622Y582538D01*
X816217Y586389D01*
X819165Y589337D01*
X823016Y590932D01*
X827184Y590932D01*
X831035Y589337D01*
X833983Y586389D01*
X835578Y582538D01*
X835578Y560462D01*
X833983Y556611D01*
X830789Y553417D01*
X830761Y553397D01*
X830741Y553377D01*
X830718Y553361D01*
X830565Y553204D01*
X830410Y553050D01*
X830394Y553028D01*
X830374Y553008D01*
X830248Y552828D01*
X830120Y552652D01*
X830107Y552627D01*
X830091Y552603D01*
X829996Y552406D01*
X829897Y552211D01*
X829889Y552184D01*
X829877Y552159D01*
X829815Y551949D01*
X829794Y551884D01*
X829787Y551863D01*
X829785Y551854D01*
X829749Y551741D01*
X829746Y551718D01*
X829737Y551686D01*
X829711Y551475D01*
X829692Y551379D01*
X829690Y551308D01*
X829676Y551196D01*
X829679Y551115D01*
X829673Y551063D01*
X829673Y532090D01*
X828977Y530410D01*
X713790Y415223D01*
X712110Y414527D01*
X672592Y414527D01*
X672516Y414521D01*
X672440Y414523D01*
X672271Y414501D01*
X672100Y414487D01*
X672026Y414469D01*
X671951Y414459D01*
X671787Y414410D01*
X671621Y414369D01*
X671552Y414339D01*
X671478Y414317D01*
X671325Y414241D01*
X671168Y414174D01*
X671104Y414133D01*
X671035Y414100D01*
X670896Y414001D01*
X670752Y413909D01*
X670695Y413858D01*
X670633Y413814D01*
X670512Y413694D01*
X670384Y413580D01*
X670336Y413521D01*
X670282Y413467D01*
X670181Y413329D01*
X670074Y413196D01*
X670037Y413130D01*
X669992Y413069D01*
X669915Y412916D01*
X669830Y412768D01*
X669804Y412696D01*
X669769Y412628D01*
X669718Y412465D01*
X669659Y412305D01*
X669644Y412230D01*
X669621Y412158D01*
X669609Y412053D01*
X669564Y411821D01*
X669557Y411585D01*
X669545Y411480D01*
X669545Y409661D01*
X668153Y406300D01*
X665580Y403727D01*
X662219Y402335D01*
X658581Y402335D01*
G37*
%LPD*%
%LPC*%
G36*
X892261Y130555D02*
X892261Y130555D01*
X888900Y131947D01*
X886327Y134520D01*
X884935Y137881D01*
X884935Y141519D01*
X886327Y144880D01*
X888900Y147453D01*
X892261Y148845D01*
X911139Y148845D01*
X914500Y147453D01*
X916787Y145165D01*
X916874Y145091D01*
X916955Y145010D01*
X917062Y144932D01*
X917163Y144846D01*
X917261Y144787D01*
X917353Y144720D01*
X917472Y144660D01*
X917586Y144591D01*
X917692Y144549D01*
X917794Y144497D01*
X917921Y144457D01*
X918044Y144408D01*
X918155Y144383D01*
X918264Y144349D01*
X918358Y144339D01*
X918526Y144301D01*
X918850Y144283D01*
X918942Y144273D01*
X987444Y144273D01*
X987557Y144282D01*
X987672Y144281D01*
X987803Y144302D01*
X987935Y144313D01*
X988046Y144340D01*
X988159Y144358D01*
X988285Y144399D01*
X988414Y144431D01*
X988519Y144476D01*
X988628Y144512D01*
X988746Y144574D01*
X988868Y144626D01*
X988964Y144687D01*
X989065Y144740D01*
X989139Y144799D01*
X989284Y144891D01*
X989526Y145107D01*
X989598Y145165D01*
X1037010Y192577D01*
X1038690Y193273D01*
X1046408Y193273D01*
X1046522Y193282D01*
X1046636Y193281D01*
X1046768Y193302D01*
X1046900Y193313D01*
X1047011Y193340D01*
X1047124Y193358D01*
X1047250Y193399D01*
X1047379Y193431D01*
X1047484Y193476D01*
X1047592Y193512D01*
X1047710Y193574D01*
X1047832Y193626D01*
X1047928Y193687D01*
X1048030Y193740D01*
X1048103Y193799D01*
X1048248Y193891D01*
X1048490Y194107D01*
X1048563Y194165D01*
X1049693Y195295D01*
X1052552Y196480D01*
X1055648Y196480D01*
X1058507Y195295D01*
X1060695Y193107D01*
X1061880Y190248D01*
X1061880Y187152D01*
X1060695Y184293D01*
X1058507Y182105D01*
X1055648Y180920D01*
X1052552Y180920D01*
X1049693Y182105D01*
X1048563Y183235D01*
X1048476Y183309D01*
X1048396Y183390D01*
X1048288Y183468D01*
X1048187Y183554D01*
X1048089Y183613D01*
X1047997Y183680D01*
X1047879Y183740D01*
X1047765Y183809D01*
X1047658Y183851D01*
X1047557Y183903D01*
X1047430Y183943D01*
X1047306Y183992D01*
X1047195Y184017D01*
X1047086Y184051D01*
X1046993Y184061D01*
X1046825Y184099D01*
X1046501Y184117D01*
X1046408Y184127D01*
X1042756Y184127D01*
X1042643Y184118D01*
X1042528Y184119D01*
X1042397Y184098D01*
X1042265Y184087D01*
X1042154Y184060D01*
X1042041Y184042D01*
X1041915Y184001D01*
X1041786Y183969D01*
X1041681Y183924D01*
X1041572Y183888D01*
X1041454Y183826D01*
X1041332Y183774D01*
X1041236Y183713D01*
X1041135Y183660D01*
X1041061Y183601D01*
X1040916Y183509D01*
X1040674Y183293D01*
X1040602Y183235D01*
X993190Y135823D01*
X991510Y135127D01*
X918942Y135127D01*
X918828Y135118D01*
X918714Y135119D01*
X918583Y135098D01*
X918450Y135087D01*
X918340Y135060D01*
X918227Y135042D01*
X918100Y135001D01*
X917972Y134969D01*
X917867Y134924D01*
X917758Y134888D01*
X917640Y134826D01*
X917518Y134774D01*
X917422Y134713D01*
X917321Y134660D01*
X917247Y134601D01*
X917102Y134509D01*
X916860Y134293D01*
X916787Y134235D01*
X914500Y131947D01*
X911139Y130555D01*
X892261Y130555D01*
G37*
%LPD*%
%LPC*%
G36*
X828761Y105155D02*
X828761Y105155D01*
X825400Y106547D01*
X822827Y109120D01*
X821435Y112481D01*
X821435Y116119D01*
X822827Y119480D01*
X825400Y122053D01*
X828761Y123445D01*
X847639Y123445D01*
X851000Y122053D01*
X853573Y119480D01*
X854965Y116119D01*
X854965Y112481D01*
X853573Y109120D01*
X851000Y106547D01*
X847639Y105155D01*
X828761Y105155D01*
G37*
%LPD*%
%LPC*%
G36*
X765261Y28955D02*
X765261Y28955D01*
X761900Y30347D01*
X759327Y32920D01*
X757935Y36281D01*
X757935Y39919D01*
X759327Y43280D01*
X761900Y45853D01*
X765261Y47245D01*
X784139Y47245D01*
X787500Y45853D01*
X790073Y43280D01*
X791465Y39919D01*
X791465Y36281D01*
X790073Y32920D01*
X787500Y30347D01*
X784139Y28955D01*
X765261Y28955D01*
G37*
%LPD*%
%LPC*%
G36*
X765261Y155955D02*
X765261Y155955D01*
X761900Y157347D01*
X759327Y159920D01*
X757935Y163281D01*
X757935Y166919D01*
X759327Y170280D01*
X761900Y172853D01*
X765261Y174245D01*
X784139Y174245D01*
X787500Y172853D01*
X790073Y170280D01*
X791465Y166919D01*
X791465Y163281D01*
X790073Y159920D01*
X787500Y157347D01*
X784139Y155955D01*
X765261Y155955D01*
G37*
%LPD*%
%LPC*%
G36*
X828761Y155955D02*
X828761Y155955D01*
X825400Y157347D01*
X822827Y159920D01*
X821435Y163281D01*
X821435Y166919D01*
X822827Y170280D01*
X825400Y172853D01*
X828761Y174245D01*
X847639Y174245D01*
X851000Y172853D01*
X853573Y170280D01*
X854965Y166919D01*
X854965Y163281D01*
X853573Y159920D01*
X851000Y157347D01*
X847639Y155955D01*
X828761Y155955D01*
G37*
%LPD*%
%LPC*%
G36*
X892261Y28955D02*
X892261Y28955D01*
X888900Y30347D01*
X886327Y32920D01*
X884935Y36281D01*
X884935Y39919D01*
X886327Y43280D01*
X888900Y45853D01*
X892261Y47245D01*
X911139Y47245D01*
X914500Y45853D01*
X917073Y43280D01*
X918465Y39919D01*
X918465Y36281D01*
X917073Y32920D01*
X914500Y30347D01*
X911139Y28955D01*
X892261Y28955D01*
G37*
%LPD*%
%LPC*%
G36*
X828761Y28955D02*
X828761Y28955D01*
X825400Y30347D01*
X822827Y32920D01*
X821435Y36281D01*
X821435Y39919D01*
X822827Y43280D01*
X825400Y45853D01*
X828761Y47245D01*
X847639Y47245D01*
X851000Y45853D01*
X853573Y43280D01*
X854965Y39919D01*
X854965Y36281D01*
X853573Y32920D01*
X851000Y30347D01*
X847639Y28955D01*
X828761Y28955D01*
G37*
%LPD*%
%LPC*%
G36*
X892261Y105155D02*
X892261Y105155D01*
X888900Y106547D01*
X886327Y109120D01*
X884935Y112481D01*
X884935Y116119D01*
X886327Y119480D01*
X888900Y122053D01*
X892261Y123445D01*
X911139Y123445D01*
X914500Y122053D01*
X917073Y119480D01*
X918465Y116119D01*
X918465Y112481D01*
X917073Y109120D01*
X914500Y106547D01*
X911139Y105155D01*
X892261Y105155D01*
G37*
%LPD*%
%LPC*%
G36*
X828761Y130555D02*
X828761Y130555D01*
X825400Y131947D01*
X822827Y134520D01*
X821435Y137881D01*
X821435Y141519D01*
X822827Y144880D01*
X825400Y147453D01*
X828761Y148845D01*
X847639Y148845D01*
X851000Y147453D01*
X853573Y144880D01*
X854965Y141519D01*
X854965Y137881D01*
X853573Y134520D01*
X851000Y131947D01*
X847639Y130555D01*
X828761Y130555D01*
G37*
%LPD*%
%LPC*%
G36*
X892261Y54355D02*
X892261Y54355D01*
X888900Y55747D01*
X886327Y58320D01*
X884935Y61681D01*
X884935Y65319D01*
X886327Y68680D01*
X888900Y71253D01*
X892261Y72645D01*
X911139Y72645D01*
X914500Y71253D01*
X917073Y68680D01*
X918465Y65319D01*
X918465Y61681D01*
X917073Y58320D01*
X914500Y55747D01*
X911139Y54355D01*
X892261Y54355D01*
G37*
%LPD*%
%LPC*%
G36*
X765261Y54355D02*
X765261Y54355D01*
X761900Y55747D01*
X759327Y58320D01*
X757935Y61681D01*
X757935Y65319D01*
X759327Y68680D01*
X761900Y71253D01*
X765261Y72645D01*
X784139Y72645D01*
X787500Y71253D01*
X790073Y68680D01*
X791465Y65319D01*
X791465Y61681D01*
X790073Y58320D01*
X787500Y55747D01*
X784139Y54355D01*
X765261Y54355D01*
G37*
%LPD*%
%LPC*%
G36*
X828761Y54355D02*
X828761Y54355D01*
X825400Y55747D01*
X822827Y58320D01*
X821435Y61681D01*
X821435Y65319D01*
X822827Y68680D01*
X825400Y71253D01*
X828761Y72645D01*
X847639Y72645D01*
X851000Y71253D01*
X853573Y68680D01*
X854965Y65319D01*
X854965Y61681D01*
X853573Y58320D01*
X851000Y55747D01*
X847639Y54355D01*
X828761Y54355D01*
G37*
%LPD*%
%LPC*%
G36*
X892261Y79755D02*
X892261Y79755D01*
X888900Y81147D01*
X886327Y83720D01*
X884935Y87081D01*
X884935Y90719D01*
X886327Y94080D01*
X888900Y96653D01*
X892261Y98045D01*
X911139Y98045D01*
X914500Y96653D01*
X917073Y94080D01*
X918465Y90719D01*
X918465Y87081D01*
X917073Y83720D01*
X914500Y81147D01*
X911139Y79755D01*
X892261Y79755D01*
G37*
%LPD*%
%LPC*%
G36*
X828761Y79755D02*
X828761Y79755D01*
X825400Y81147D01*
X822827Y83720D01*
X821435Y87081D01*
X821435Y90719D01*
X822827Y94080D01*
X825400Y96653D01*
X828761Y98045D01*
X847639Y98045D01*
X851000Y96653D01*
X853573Y94080D01*
X854965Y90719D01*
X854965Y87081D01*
X853573Y83720D01*
X851000Y81147D01*
X847639Y79755D01*
X828761Y79755D01*
G37*
%LPD*%
%LPC*%
G36*
X892261Y155955D02*
X892261Y155955D01*
X888900Y157347D01*
X886327Y159920D01*
X884935Y163281D01*
X884935Y166919D01*
X886327Y170280D01*
X888900Y172853D01*
X892261Y174245D01*
X911139Y174245D01*
X914500Y172853D01*
X917073Y170280D01*
X918465Y166919D01*
X918465Y163281D01*
X917073Y159920D01*
X914500Y157347D01*
X911139Y155955D01*
X892261Y155955D01*
G37*
%LPD*%
%LPC*%
G36*
X765261Y79755D02*
X765261Y79755D01*
X761900Y81147D01*
X759327Y83720D01*
X757935Y87081D01*
X757935Y90719D01*
X759327Y94080D01*
X761900Y96653D01*
X765261Y98045D01*
X784139Y98045D01*
X787500Y96653D01*
X790073Y94080D01*
X791465Y90719D01*
X791465Y87081D01*
X790073Y83720D01*
X787500Y81147D01*
X784139Y79755D01*
X765261Y79755D01*
G37*
%LPD*%
%LPC*%
G36*
X765261Y105155D02*
X765261Y105155D01*
X761900Y106547D01*
X759327Y109120D01*
X757935Y112481D01*
X757935Y116119D01*
X759327Y119480D01*
X761900Y122053D01*
X765261Y123445D01*
X784139Y123445D01*
X787500Y122053D01*
X790073Y119480D01*
X791465Y116119D01*
X791465Y112481D01*
X790073Y109120D01*
X787500Y106547D01*
X784139Y105155D01*
X765261Y105155D01*
G37*
%LPD*%
%LPC*%
G36*
X765261Y130555D02*
X765261Y130555D01*
X761900Y131947D01*
X759327Y134520D01*
X757935Y137881D01*
X757935Y141519D01*
X759327Y144880D01*
X761900Y147453D01*
X765261Y148845D01*
X784139Y148845D01*
X787500Y147453D01*
X790073Y144880D01*
X791465Y141519D01*
X791465Y137881D01*
X790073Y134520D01*
X787500Y131947D01*
X784139Y130555D01*
X765261Y130555D01*
G37*
%LPD*%
%LPC*%
G36*
X633181Y402335D02*
X633181Y402335D01*
X629820Y403727D01*
X627247Y406300D01*
X625855Y409661D01*
X625855Y428539D01*
X627247Y431900D01*
X629820Y434473D01*
X633181Y435865D01*
X636819Y435865D01*
X640180Y434473D01*
X642753Y431900D01*
X644145Y428539D01*
X644145Y409661D01*
X642753Y406300D01*
X640180Y403727D01*
X636819Y402335D01*
X633181Y402335D01*
G37*
%LPD*%
%LPC*%
G36*
X607781Y402335D02*
X607781Y402335D01*
X604420Y403727D01*
X601847Y406300D01*
X600455Y409661D01*
X600455Y428539D01*
X601847Y431900D01*
X604420Y434473D01*
X607781Y435865D01*
X611419Y435865D01*
X614780Y434473D01*
X617353Y431900D01*
X618745Y428539D01*
X618745Y409661D01*
X617353Y406300D01*
X614780Y403727D01*
X611419Y402335D01*
X607781Y402335D01*
G37*
%LPD*%
%LPC*%
G36*
X106079Y156971D02*
X106079Y156971D01*
X103091Y158209D01*
X100805Y160495D01*
X99567Y163483D01*
X99567Y166717D01*
X100805Y169705D01*
X103091Y171991D01*
X106079Y173229D01*
X122521Y173229D01*
X125509Y171991D01*
X127795Y169705D01*
X129033Y166717D01*
X129033Y163483D01*
X127795Y160495D01*
X125509Y158209D01*
X122521Y156971D01*
X106079Y156971D01*
G37*
%LPD*%
%LPC*%
G36*
X487079Y131571D02*
X487079Y131571D01*
X484091Y132809D01*
X481805Y135095D01*
X480567Y138083D01*
X480567Y141317D01*
X481805Y144305D01*
X484091Y146591D01*
X487079Y147829D01*
X503521Y147829D01*
X506509Y146591D01*
X508795Y144305D01*
X510033Y141317D01*
X510033Y138083D01*
X508795Y135095D01*
X506509Y132809D01*
X503521Y131571D01*
X487079Y131571D01*
G37*
%LPD*%
%LPC*%
G36*
X487079Y512571D02*
X487079Y512571D01*
X484091Y513809D01*
X481805Y516095D01*
X480567Y519083D01*
X480567Y522317D01*
X481805Y525305D01*
X484091Y527591D01*
X487079Y528829D01*
X503521Y528829D01*
X506509Y527591D01*
X508795Y525305D01*
X510033Y522317D01*
X510033Y519083D01*
X508795Y516095D01*
X506509Y513809D01*
X503521Y512571D01*
X487079Y512571D01*
G37*
%LPD*%
%LPC*%
G36*
X106079Y512571D02*
X106079Y512571D01*
X103091Y513809D01*
X100805Y516095D01*
X99567Y519083D01*
X99567Y522317D01*
X100805Y525305D01*
X103091Y527591D01*
X106079Y528829D01*
X122521Y528829D01*
X125509Y527591D01*
X127795Y525305D01*
X129033Y522317D01*
X129033Y519083D01*
X127795Y516095D01*
X125509Y513809D01*
X122521Y512571D01*
X106079Y512571D01*
G37*
%LPD*%
%LPC*%
G36*
X106079Y131571D02*
X106079Y131571D01*
X103091Y132809D01*
X100805Y135095D01*
X99567Y138083D01*
X99567Y141317D01*
X100805Y144305D01*
X103091Y146591D01*
X106079Y147829D01*
X122521Y147829D01*
X125509Y146591D01*
X127795Y144305D01*
X129033Y141317D01*
X129033Y138083D01*
X127795Y135095D01*
X125509Y132809D01*
X122521Y131571D01*
X106079Y131571D01*
G37*
%LPD*%
%LPC*%
G36*
X106079Y106171D02*
X106079Y106171D01*
X103091Y107409D01*
X100805Y109695D01*
X99567Y112683D01*
X99567Y115917D01*
X100805Y118905D01*
X103091Y121191D01*
X106079Y122429D01*
X122521Y122429D01*
X125509Y121191D01*
X127795Y118905D01*
X129033Y115917D01*
X129033Y112683D01*
X127795Y109695D01*
X125509Y107409D01*
X122521Y106171D01*
X106079Y106171D01*
G37*
%LPD*%
%LPC*%
G36*
X487079Y106171D02*
X487079Y106171D01*
X484091Y107409D01*
X481805Y109695D01*
X480567Y112683D01*
X480567Y115917D01*
X481805Y118905D01*
X484091Y121191D01*
X487079Y122429D01*
X503521Y122429D01*
X506509Y121191D01*
X508795Y118905D01*
X510033Y115917D01*
X510033Y112683D01*
X508795Y109695D01*
X506509Y107409D01*
X503521Y106171D01*
X487079Y106171D01*
G37*
%LPD*%
%LPC*%
G36*
X106079Y80771D02*
X106079Y80771D01*
X103091Y82009D01*
X100805Y84295D01*
X99567Y87283D01*
X99567Y90517D01*
X100805Y93505D01*
X103091Y95791D01*
X106079Y97029D01*
X122521Y97029D01*
X125509Y95791D01*
X127795Y93505D01*
X129033Y90517D01*
X129033Y87283D01*
X127795Y84295D01*
X125509Y82009D01*
X122521Y80771D01*
X106079Y80771D01*
G37*
%LPD*%
%LPC*%
G36*
X487079Y487171D02*
X487079Y487171D01*
X484091Y488409D01*
X481805Y490695D01*
X480567Y493683D01*
X480567Y496917D01*
X481805Y499905D01*
X484091Y502191D01*
X487079Y503429D01*
X503521Y503429D01*
X506509Y502191D01*
X508795Y499905D01*
X510033Y496917D01*
X510033Y493683D01*
X508795Y490695D01*
X506509Y488409D01*
X503521Y487171D01*
X487079Y487171D01*
G37*
%LPD*%
%LPC*%
G36*
X106079Y487171D02*
X106079Y487171D01*
X103091Y488409D01*
X100805Y490695D01*
X99567Y493683D01*
X99567Y496917D01*
X100805Y499905D01*
X103091Y502191D01*
X106079Y503429D01*
X122521Y503429D01*
X125509Y502191D01*
X127795Y499905D01*
X129033Y496917D01*
X129033Y493683D01*
X127795Y490695D01*
X125509Y488409D01*
X122521Y487171D01*
X106079Y487171D01*
G37*
%LPD*%
%LPC*%
G36*
X487079Y80771D02*
X487079Y80771D01*
X484091Y82009D01*
X481805Y84295D01*
X480567Y87283D01*
X480567Y90517D01*
X481805Y93505D01*
X484091Y95791D01*
X487079Y97029D01*
X503521Y97029D01*
X506509Y95791D01*
X508795Y93505D01*
X510033Y90517D01*
X510033Y87283D01*
X508795Y84295D01*
X506509Y82009D01*
X503521Y80771D01*
X487079Y80771D01*
G37*
%LPD*%
%LPC*%
G36*
X487079Y55371D02*
X487079Y55371D01*
X484091Y56609D01*
X481805Y58895D01*
X480567Y61883D01*
X480567Y65117D01*
X481805Y68105D01*
X484091Y70391D01*
X487079Y71629D01*
X503521Y71629D01*
X506509Y70391D01*
X508795Y68105D01*
X510033Y65117D01*
X510033Y61883D01*
X508795Y58895D01*
X506509Y56609D01*
X503521Y55371D01*
X487079Y55371D01*
G37*
%LPD*%
%LPC*%
G36*
X487079Y461771D02*
X487079Y461771D01*
X484091Y463009D01*
X481805Y465295D01*
X480567Y468283D01*
X480567Y471517D01*
X481805Y474505D01*
X484091Y476791D01*
X487079Y478029D01*
X503521Y478029D01*
X506509Y476791D01*
X508795Y474505D01*
X510033Y471517D01*
X510033Y468283D01*
X508795Y465295D01*
X506509Y463009D01*
X503521Y461771D01*
X487079Y461771D01*
G37*
%LPD*%
%LPC*%
G36*
X106079Y461771D02*
X106079Y461771D01*
X103091Y463009D01*
X100805Y465295D01*
X99567Y468283D01*
X99567Y471517D01*
X100805Y474505D01*
X103091Y476791D01*
X106079Y478029D01*
X122521Y478029D01*
X125509Y476791D01*
X127795Y474505D01*
X129033Y471517D01*
X129033Y468283D01*
X127795Y465295D01*
X125509Y463009D01*
X122521Y461771D01*
X106079Y461771D01*
G37*
%LPD*%
%LPC*%
G36*
X106079Y55371D02*
X106079Y55371D01*
X103091Y56609D01*
X100805Y58895D01*
X99567Y61883D01*
X99567Y65117D01*
X100805Y68105D01*
X103091Y70391D01*
X106079Y71629D01*
X122521Y71629D01*
X125509Y70391D01*
X127795Y68105D01*
X129033Y65117D01*
X129033Y61883D01*
X127795Y58895D01*
X125509Y56609D01*
X122521Y55371D01*
X106079Y55371D01*
G37*
%LPD*%
%LPC*%
G36*
X487079Y29971D02*
X487079Y29971D01*
X484091Y31209D01*
X481805Y33495D01*
X480567Y36483D01*
X480567Y39717D01*
X481805Y42705D01*
X484091Y44991D01*
X487079Y46229D01*
X503521Y46229D01*
X506509Y44991D01*
X508795Y42705D01*
X510033Y39717D01*
X510033Y36483D01*
X508795Y33495D01*
X506509Y31209D01*
X503521Y29971D01*
X487079Y29971D01*
G37*
%LPD*%
%LPC*%
G36*
X487079Y436371D02*
X487079Y436371D01*
X484091Y437609D01*
X481805Y439895D01*
X480567Y442883D01*
X480567Y446117D01*
X481805Y449105D01*
X484091Y451391D01*
X487079Y452629D01*
X503521Y452629D01*
X506509Y451391D01*
X508795Y449105D01*
X510033Y446117D01*
X510033Y442883D01*
X508795Y439895D01*
X506509Y437609D01*
X503521Y436371D01*
X487079Y436371D01*
G37*
%LPD*%
%LPC*%
G36*
X106079Y436371D02*
X106079Y436371D01*
X103091Y437609D01*
X100805Y439895D01*
X99567Y442883D01*
X99567Y446117D01*
X100805Y449105D01*
X103091Y451391D01*
X106079Y452629D01*
X122521Y452629D01*
X125509Y451391D01*
X127795Y449105D01*
X129033Y446117D01*
X129033Y442883D01*
X127795Y439895D01*
X125509Y437609D01*
X122521Y436371D01*
X106079Y436371D01*
G37*
%LPD*%
%LPC*%
G36*
X106079Y29971D02*
X106079Y29971D01*
X103091Y31209D01*
X100805Y33495D01*
X99567Y36483D01*
X99567Y39717D01*
X100805Y42705D01*
X103091Y44991D01*
X106079Y46229D01*
X122521Y46229D01*
X125509Y44991D01*
X127795Y42705D01*
X129033Y39717D01*
X129033Y36483D01*
X127795Y33495D01*
X125509Y31209D01*
X122521Y29971D01*
X106079Y29971D01*
G37*
%LPD*%
%LPC*%
G36*
X487079Y410971D02*
X487079Y410971D01*
X484091Y412209D01*
X481805Y414495D01*
X480567Y417483D01*
X480567Y420717D01*
X481805Y423705D01*
X484091Y425991D01*
X487079Y427229D01*
X503521Y427229D01*
X506509Y425991D01*
X508795Y423705D01*
X510033Y420717D01*
X510033Y417483D01*
X508795Y414495D01*
X506509Y412209D01*
X503521Y410971D01*
X487079Y410971D01*
G37*
%LPD*%
%LPC*%
G36*
X106079Y410971D02*
X106079Y410971D01*
X103091Y412209D01*
X100805Y414495D01*
X99567Y417483D01*
X99567Y420717D01*
X100805Y423705D01*
X103091Y425991D01*
X106079Y427229D01*
X122521Y427229D01*
X125509Y425991D01*
X127795Y423705D01*
X129033Y420717D01*
X129033Y417483D01*
X127795Y414495D01*
X125509Y412209D01*
X122521Y410971D01*
X106079Y410971D01*
G37*
%LPD*%
%LPC*%
G36*
X487079Y385571D02*
X487079Y385571D01*
X484091Y386809D01*
X481805Y389095D01*
X480567Y392083D01*
X480567Y395317D01*
X481805Y398305D01*
X484091Y400591D01*
X487079Y401829D01*
X503521Y401829D01*
X506509Y400591D01*
X508795Y398305D01*
X510033Y395317D01*
X510033Y392083D01*
X508795Y389095D01*
X506509Y386809D01*
X503521Y385571D01*
X487079Y385571D01*
G37*
%LPD*%
%LPC*%
G36*
X106079Y385571D02*
X106079Y385571D01*
X103091Y386809D01*
X100805Y389095D01*
X99567Y392083D01*
X99567Y395317D01*
X100805Y398305D01*
X103091Y400591D01*
X106079Y401829D01*
X122521Y401829D01*
X125509Y400591D01*
X127795Y398305D01*
X129033Y395317D01*
X129033Y392083D01*
X127795Y389095D01*
X125509Y386809D01*
X122521Y385571D01*
X106079Y385571D01*
G37*
%LPD*%
%LPC*%
G36*
X487079Y360171D02*
X487079Y360171D01*
X484091Y361409D01*
X481805Y363695D01*
X480567Y366683D01*
X480567Y369917D01*
X481805Y372905D01*
X484091Y375191D01*
X487079Y376429D01*
X503521Y376429D01*
X506509Y375191D01*
X508795Y372905D01*
X510033Y369917D01*
X510033Y366683D01*
X508795Y363695D01*
X506509Y361409D01*
X503521Y360171D01*
X487079Y360171D01*
G37*
%LPD*%
%LPC*%
G36*
X106079Y360171D02*
X106079Y360171D01*
X103091Y361409D01*
X100805Y363695D01*
X99567Y366683D01*
X99567Y369917D01*
X100805Y372905D01*
X103091Y375191D01*
X106079Y376429D01*
X122521Y376429D01*
X125509Y375191D01*
X127795Y372905D01*
X129033Y369917D01*
X129033Y366683D01*
X127795Y363695D01*
X125509Y361409D01*
X122521Y360171D01*
X106079Y360171D01*
G37*
%LPD*%
%LPC*%
G36*
X487079Y334771D02*
X487079Y334771D01*
X484091Y336009D01*
X481805Y338295D01*
X480567Y341283D01*
X480567Y344517D01*
X481805Y347505D01*
X484091Y349791D01*
X487079Y351029D01*
X503521Y351029D01*
X506509Y349791D01*
X508795Y347505D01*
X510033Y344517D01*
X510033Y341283D01*
X508795Y338295D01*
X506509Y336009D01*
X503521Y334771D01*
X487079Y334771D01*
G37*
%LPD*%
%LPC*%
G36*
X487079Y309371D02*
X487079Y309371D01*
X484091Y310609D01*
X481805Y312895D01*
X480567Y315883D01*
X480567Y319117D01*
X481805Y322105D01*
X484091Y324391D01*
X487079Y325629D01*
X503521Y325629D01*
X506509Y324391D01*
X508795Y322105D01*
X510033Y319117D01*
X510033Y315883D01*
X508795Y312895D01*
X506509Y310609D01*
X503521Y309371D01*
X487079Y309371D01*
G37*
%LPD*%
%LPC*%
G36*
X106079Y309371D02*
X106079Y309371D01*
X103091Y310609D01*
X100805Y312895D01*
X99567Y315883D01*
X99567Y319117D01*
X100805Y322105D01*
X103091Y324391D01*
X106079Y325629D01*
X122521Y325629D01*
X125509Y324391D01*
X127795Y322105D01*
X129033Y319117D01*
X129033Y315883D01*
X127795Y312895D01*
X125509Y310609D01*
X122521Y309371D01*
X106079Y309371D01*
G37*
%LPD*%
%LPC*%
G36*
X487079Y283971D02*
X487079Y283971D01*
X484091Y285209D01*
X481805Y287495D01*
X480567Y290483D01*
X480567Y293717D01*
X481805Y296705D01*
X484091Y298991D01*
X487079Y300229D01*
X503521Y300229D01*
X506509Y298991D01*
X508795Y296705D01*
X510033Y293717D01*
X510033Y290483D01*
X508795Y287495D01*
X506509Y285209D01*
X503521Y283971D01*
X487079Y283971D01*
G37*
%LPD*%
%LPC*%
G36*
X106079Y258571D02*
X106079Y258571D01*
X103091Y259809D01*
X100805Y262095D01*
X99567Y265083D01*
X99567Y268317D01*
X100805Y271305D01*
X103091Y273591D01*
X106079Y274829D01*
X122521Y274829D01*
X125509Y273591D01*
X127795Y271305D01*
X129033Y268317D01*
X129033Y265083D01*
X127795Y262095D01*
X125509Y259809D01*
X122521Y258571D01*
X106079Y258571D01*
G37*
%LPD*%
%LPC*%
G36*
X487079Y258571D02*
X487079Y258571D01*
X484091Y259809D01*
X481805Y262095D01*
X480567Y265083D01*
X480567Y268317D01*
X481805Y271305D01*
X484091Y273591D01*
X487079Y274829D01*
X503521Y274829D01*
X506509Y273591D01*
X508795Y271305D01*
X510033Y268317D01*
X510033Y265083D01*
X508795Y262095D01*
X506509Y259809D01*
X503521Y258571D01*
X487079Y258571D01*
G37*
%LPD*%
%LPC*%
G36*
X106079Y334771D02*
X106079Y334771D01*
X103091Y336009D01*
X100805Y338295D01*
X99567Y341283D01*
X99567Y344517D01*
X100805Y347505D01*
X103091Y349791D01*
X106079Y351029D01*
X122521Y351029D01*
X125509Y349791D01*
X127795Y347505D01*
X129033Y344517D01*
X129033Y341283D01*
X127795Y338295D01*
X125509Y336009D01*
X122521Y334771D01*
X106079Y334771D01*
G37*
%LPD*%
%LPC*%
G36*
X106079Y233171D02*
X106079Y233171D01*
X103091Y234409D01*
X100805Y236695D01*
X99567Y239683D01*
X99567Y242917D01*
X100805Y245905D01*
X103091Y248191D01*
X106079Y249429D01*
X122521Y249429D01*
X125509Y248191D01*
X127795Y245905D01*
X129033Y242917D01*
X129033Y239683D01*
X127795Y236695D01*
X125509Y234409D01*
X122521Y233171D01*
X106079Y233171D01*
G37*
%LPD*%
%LPC*%
G36*
X487079Y233171D02*
X487079Y233171D01*
X484091Y234409D01*
X481805Y236695D01*
X480567Y239683D01*
X480567Y242917D01*
X481805Y245905D01*
X484091Y248191D01*
X487079Y249429D01*
X503521Y249429D01*
X506509Y248191D01*
X508795Y245905D01*
X510033Y242917D01*
X510033Y239683D01*
X508795Y236695D01*
X506509Y234409D01*
X503521Y233171D01*
X487079Y233171D01*
G37*
%LPD*%
%LPC*%
G36*
X487079Y207771D02*
X487079Y207771D01*
X484091Y209009D01*
X481805Y211295D01*
X480567Y214283D01*
X480567Y217517D01*
X481805Y220505D01*
X484091Y222791D01*
X487079Y224029D01*
X503521Y224029D01*
X506509Y222791D01*
X508795Y220505D01*
X510033Y217517D01*
X510033Y214283D01*
X508795Y211295D01*
X506509Y209009D01*
X503521Y207771D01*
X487079Y207771D01*
G37*
%LPD*%
%LPC*%
G36*
X106079Y207771D02*
X106079Y207771D01*
X103091Y209009D01*
X100805Y211295D01*
X99567Y214283D01*
X99567Y217517D01*
X100805Y220505D01*
X103091Y222791D01*
X106079Y224029D01*
X122521Y224029D01*
X125509Y222791D01*
X127795Y220505D01*
X129033Y217517D01*
X129033Y214283D01*
X127795Y211295D01*
X125509Y209009D01*
X122521Y207771D01*
X106079Y207771D01*
G37*
%LPD*%
%LPC*%
G36*
X487079Y182371D02*
X487079Y182371D01*
X484091Y183609D01*
X481805Y185895D01*
X480567Y188883D01*
X480567Y192117D01*
X481805Y195105D01*
X484091Y197391D01*
X487079Y198629D01*
X503521Y198629D01*
X506509Y197391D01*
X508795Y195105D01*
X510033Y192117D01*
X510033Y188883D01*
X508795Y185895D01*
X506509Y183609D01*
X503521Y182371D01*
X487079Y182371D01*
G37*
%LPD*%
%LPC*%
G36*
X106079Y182371D02*
X106079Y182371D01*
X103091Y183609D01*
X100805Y185895D01*
X99567Y188883D01*
X99567Y192117D01*
X100805Y195105D01*
X103091Y197391D01*
X106079Y198629D01*
X122521Y198629D01*
X125509Y197391D01*
X127795Y195105D01*
X129033Y192117D01*
X129033Y188883D01*
X127795Y185895D01*
X125509Y183609D01*
X122521Y182371D01*
X106079Y182371D01*
G37*
%LPD*%
%LPC*%
G36*
X487079Y156971D02*
X487079Y156971D01*
X484091Y158209D01*
X481805Y160495D01*
X480567Y163483D01*
X480567Y166717D01*
X481805Y169705D01*
X484091Y171991D01*
X487079Y173229D01*
X503521Y173229D01*
X506509Y171991D01*
X508795Y169705D01*
X510033Y166717D01*
X510033Y163483D01*
X508795Y160495D01*
X506509Y158209D01*
X503521Y156971D01*
X487079Y156971D01*
G37*
%LPD*%
%LPC*%
G36*
X169518Y511425D02*
X169518Y511425D01*
X168625Y512318D01*
X168625Y528882D01*
X169518Y529775D01*
X186082Y529775D01*
X186975Y528882D01*
X186975Y512318D01*
X186082Y511425D01*
X169518Y511425D01*
G37*
%LPD*%
%LPC*%
G36*
X570178Y16835D02*
X570178Y16835D01*
X569285Y17728D01*
X569285Y33072D01*
X570178Y33965D01*
X585522Y33965D01*
X586415Y33072D01*
X586415Y17728D01*
X585522Y16835D01*
X570178Y16835D01*
G37*
%LPD*%
%LPC*%
G36*
X570178Y239085D02*
X570178Y239085D01*
X569285Y239978D01*
X569285Y255322D01*
X570178Y256215D01*
X585522Y256215D01*
X586415Y255322D01*
X586415Y239978D01*
X585522Y239085D01*
X570178Y239085D01*
G37*
%LPD*%
%LPC*%
G36*
X703528Y239085D02*
X703528Y239085D01*
X702635Y239978D01*
X702635Y255322D01*
X703528Y256215D01*
X718872Y256215D01*
X719765Y255322D01*
X719765Y239978D01*
X718872Y239085D01*
X703528Y239085D01*
G37*
%LPD*%
%LPC*%
G36*
X703528Y16835D02*
X703528Y16835D01*
X702635Y17728D01*
X702635Y33072D01*
X703528Y33965D01*
X718872Y33965D01*
X719765Y33072D01*
X719765Y17728D01*
X718872Y16835D01*
X703528Y16835D01*
G37*
%LPD*%
%LPC*%
G36*
X428012Y28955D02*
X428012Y28955D01*
X422655Y34312D01*
X422655Y41888D01*
X428012Y47245D01*
X435588Y47245D01*
X440945Y41888D01*
X440945Y34312D01*
X435588Y28955D01*
X428012Y28955D01*
G37*
%LPD*%
%LPC*%
G36*
X174012Y28955D02*
X174012Y28955D01*
X168655Y34312D01*
X168655Y41888D01*
X174012Y47245D01*
X181588Y47245D01*
X186945Y41888D01*
X186945Y34312D01*
X181588Y28955D01*
X174012Y28955D01*
G37*
%LPD*%
%LPC*%
G36*
X175975Y460625D02*
X175975Y460625D01*
X172603Y462022D01*
X170022Y464603D01*
X168625Y467975D01*
X168625Y471625D01*
X170022Y474997D01*
X172603Y477578D01*
X175975Y478975D01*
X179625Y478975D01*
X182997Y477578D01*
X185578Y474997D01*
X186975Y471625D01*
X186975Y467975D01*
X185578Y464603D01*
X182997Y462022D01*
X179625Y460625D01*
X175975Y460625D01*
G37*
%LPD*%
%LPC*%
G36*
X429975Y435225D02*
X429975Y435225D01*
X426603Y436622D01*
X424022Y439203D01*
X422625Y442575D01*
X422625Y446225D01*
X424022Y449597D01*
X426603Y452178D01*
X429975Y453575D01*
X433625Y453575D01*
X436997Y452178D01*
X439578Y449597D01*
X440975Y446225D01*
X440975Y442575D01*
X439578Y439203D01*
X436997Y436622D01*
X433625Y435225D01*
X429975Y435225D01*
G37*
%LPD*%
%LPC*%
G36*
X175975Y435225D02*
X175975Y435225D01*
X172603Y436622D01*
X170022Y439203D01*
X168625Y442575D01*
X168625Y446225D01*
X170022Y449597D01*
X172603Y452178D01*
X175975Y453575D01*
X179625Y453575D01*
X182997Y452178D01*
X185578Y449597D01*
X186975Y446225D01*
X186975Y442575D01*
X185578Y439203D01*
X182997Y436622D01*
X179625Y435225D01*
X175975Y435225D01*
G37*
%LPD*%
%LPC*%
G36*
X429975Y409825D02*
X429975Y409825D01*
X426603Y411222D01*
X424022Y413803D01*
X422625Y417175D01*
X422625Y420825D01*
X424022Y424197D01*
X426603Y426778D01*
X429975Y428175D01*
X433625Y428175D01*
X436997Y426778D01*
X439578Y424197D01*
X440975Y420825D01*
X440975Y417175D01*
X439578Y413803D01*
X436997Y411222D01*
X433625Y409825D01*
X429975Y409825D01*
G37*
%LPD*%
%LPC*%
G36*
X429975Y155825D02*
X429975Y155825D01*
X426603Y157222D01*
X424022Y159803D01*
X422625Y163175D01*
X422625Y166825D01*
X424022Y170197D01*
X426603Y172778D01*
X429975Y174175D01*
X433625Y174175D01*
X436997Y172778D01*
X439578Y170197D01*
X440975Y166825D01*
X440975Y163175D01*
X439578Y159803D01*
X436997Y157222D01*
X433625Y155825D01*
X429975Y155825D01*
G37*
%LPD*%
%LPC*%
G36*
X429975Y206625D02*
X429975Y206625D01*
X426603Y208022D01*
X424022Y210603D01*
X422625Y213975D01*
X422625Y217625D01*
X424022Y220997D01*
X426603Y223578D01*
X429975Y224975D01*
X433625Y224975D01*
X436997Y223578D01*
X439578Y220997D01*
X440975Y217625D01*
X440975Y213975D01*
X439578Y210603D01*
X436997Y208022D01*
X433625Y206625D01*
X429975Y206625D01*
G37*
%LPD*%
%LPC*%
G36*
X429975Y181225D02*
X429975Y181225D01*
X426603Y182622D01*
X424022Y185203D01*
X422625Y188575D01*
X422625Y192225D01*
X424022Y195597D01*
X426603Y198178D01*
X429975Y199575D01*
X433625Y199575D01*
X436997Y198178D01*
X439578Y195597D01*
X440975Y192225D01*
X440975Y188575D01*
X439578Y185203D01*
X436997Y182622D01*
X433625Y181225D01*
X429975Y181225D01*
G37*
%LPD*%
%LPC*%
G36*
X429975Y257425D02*
X429975Y257425D01*
X426603Y258822D01*
X424022Y261403D01*
X422625Y264775D01*
X422625Y268425D01*
X424022Y271797D01*
X426603Y274378D01*
X429975Y275775D01*
X433625Y275775D01*
X436997Y274378D01*
X439578Y271797D01*
X440975Y268425D01*
X440975Y264775D01*
X439578Y261403D01*
X436997Y258822D01*
X433625Y257425D01*
X429975Y257425D01*
G37*
%LPD*%
%LPC*%
G36*
X175975Y282825D02*
X175975Y282825D01*
X172603Y284222D01*
X170022Y286803D01*
X168625Y290175D01*
X168625Y293825D01*
X170022Y297197D01*
X172603Y299778D01*
X175975Y301175D01*
X179625Y301175D01*
X182997Y299778D01*
X185578Y297197D01*
X186975Y293825D01*
X186975Y290175D01*
X185578Y286803D01*
X182997Y284222D01*
X179625Y282825D01*
X175975Y282825D01*
G37*
%LPD*%
%LPC*%
G36*
X429975Y130425D02*
X429975Y130425D01*
X426603Y131822D01*
X424022Y134403D01*
X422625Y137775D01*
X422625Y141425D01*
X424022Y144797D01*
X426603Y147378D01*
X429975Y148775D01*
X433625Y148775D01*
X436997Y147378D01*
X439578Y144797D01*
X440975Y141425D01*
X440975Y137775D01*
X439578Y134403D01*
X436997Y131822D01*
X433625Y130425D01*
X429975Y130425D01*
G37*
%LPD*%
%LPC*%
G36*
X175975Y130425D02*
X175975Y130425D01*
X172603Y131822D01*
X170022Y134403D01*
X168625Y137775D01*
X168625Y141425D01*
X170022Y144797D01*
X172603Y147378D01*
X175975Y148775D01*
X179625Y148775D01*
X182997Y147378D01*
X185578Y144797D01*
X186975Y141425D01*
X186975Y137775D01*
X185578Y134403D01*
X182997Y131822D01*
X179625Y130425D01*
X175975Y130425D01*
G37*
%LPD*%
%LPC*%
G36*
X175975Y181225D02*
X175975Y181225D01*
X172603Y182622D01*
X170022Y185203D01*
X168625Y188575D01*
X168625Y192225D01*
X170022Y195597D01*
X172603Y198178D01*
X175975Y199575D01*
X179625Y199575D01*
X182997Y198178D01*
X185578Y195597D01*
X186975Y192225D01*
X186975Y188575D01*
X185578Y185203D01*
X182997Y182622D01*
X179625Y181225D01*
X175975Y181225D01*
G37*
%LPD*%
%LPC*%
G36*
X175975Y206625D02*
X175975Y206625D01*
X172603Y208022D01*
X170022Y210603D01*
X168625Y213975D01*
X168625Y217625D01*
X170022Y220997D01*
X172603Y223578D01*
X175975Y224975D01*
X179625Y224975D01*
X182997Y223578D01*
X185578Y220997D01*
X186975Y217625D01*
X186975Y213975D01*
X185578Y210603D01*
X182997Y208022D01*
X179625Y206625D01*
X175975Y206625D01*
G37*
%LPD*%
%LPC*%
G36*
X429975Y282825D02*
X429975Y282825D01*
X426603Y284222D01*
X424022Y286803D01*
X422625Y290175D01*
X422625Y293825D01*
X424022Y297197D01*
X426603Y299778D01*
X429975Y301175D01*
X433625Y301175D01*
X436997Y299778D01*
X439578Y297197D01*
X440975Y293825D01*
X440975Y290175D01*
X439578Y286803D01*
X436997Y284222D01*
X433625Y282825D01*
X429975Y282825D01*
G37*
%LPD*%
%LPC*%
G36*
X429975Y308225D02*
X429975Y308225D01*
X426603Y309622D01*
X424022Y312203D01*
X422625Y315575D01*
X422625Y319225D01*
X424022Y322597D01*
X426603Y325178D01*
X429975Y326575D01*
X433625Y326575D01*
X436997Y325178D01*
X439578Y322597D01*
X440975Y319225D01*
X440975Y315575D01*
X439578Y312203D01*
X436997Y309622D01*
X433625Y308225D01*
X429975Y308225D01*
G37*
%LPD*%
%LPC*%
G36*
X175975Y333625D02*
X175975Y333625D01*
X172603Y335022D01*
X170022Y337603D01*
X168625Y340975D01*
X168625Y344625D01*
X170022Y347997D01*
X172603Y350578D01*
X175975Y351975D01*
X179625Y351975D01*
X182997Y350578D01*
X185578Y347997D01*
X186975Y344625D01*
X186975Y340975D01*
X185578Y337603D01*
X182997Y335022D01*
X179625Y333625D01*
X175975Y333625D01*
G37*
%LPD*%
%LPC*%
G36*
X429975Y105025D02*
X429975Y105025D01*
X426603Y106422D01*
X424022Y109003D01*
X422625Y112375D01*
X422625Y116025D01*
X424022Y119397D01*
X426603Y121978D01*
X429975Y123375D01*
X433625Y123375D01*
X436997Y121978D01*
X439578Y119397D01*
X440975Y116025D01*
X440975Y112375D01*
X439578Y109003D01*
X436997Y106422D01*
X433625Y105025D01*
X429975Y105025D01*
G37*
%LPD*%
%LPC*%
G36*
X175975Y105025D02*
X175975Y105025D01*
X172603Y106422D01*
X170022Y109003D01*
X168625Y112375D01*
X168625Y116025D01*
X170022Y119397D01*
X172603Y121978D01*
X175975Y123375D01*
X179625Y123375D01*
X182997Y121978D01*
X185578Y119397D01*
X186975Y116025D01*
X186975Y112375D01*
X185578Y109003D01*
X182997Y106422D01*
X179625Y105025D01*
X175975Y105025D01*
G37*
%LPD*%
%LPC*%
G36*
X429975Y232025D02*
X429975Y232025D01*
X426603Y233422D01*
X424022Y236003D01*
X422625Y239375D01*
X422625Y243025D01*
X424022Y246397D01*
X426603Y248978D01*
X429975Y250375D01*
X433625Y250375D01*
X436997Y248978D01*
X439578Y246397D01*
X440975Y243025D01*
X440975Y239375D01*
X439578Y236003D01*
X436997Y233422D01*
X433625Y232025D01*
X429975Y232025D01*
G37*
%LPD*%
%LPC*%
G36*
X429975Y333625D02*
X429975Y333625D01*
X426603Y335022D01*
X424022Y337603D01*
X422625Y340975D01*
X422625Y344625D01*
X424022Y347997D01*
X426603Y350578D01*
X429975Y351975D01*
X433625Y351975D01*
X436997Y350578D01*
X439578Y347997D01*
X440975Y344625D01*
X440975Y340975D01*
X439578Y337603D01*
X436997Y335022D01*
X433625Y333625D01*
X429975Y333625D01*
G37*
%LPD*%
%LPC*%
G36*
X175975Y359025D02*
X175975Y359025D01*
X172603Y360422D01*
X170022Y363003D01*
X168625Y366375D01*
X168625Y370025D01*
X170022Y373397D01*
X172603Y375978D01*
X175975Y377375D01*
X179625Y377375D01*
X182997Y375978D01*
X185578Y373397D01*
X186975Y370025D01*
X186975Y366375D01*
X185578Y363003D01*
X182997Y360422D01*
X179625Y359025D01*
X175975Y359025D01*
G37*
%LPD*%
%LPC*%
G36*
X429975Y359025D02*
X429975Y359025D01*
X426603Y360422D01*
X424022Y363003D01*
X422625Y366375D01*
X422625Y370025D01*
X424022Y373397D01*
X426603Y375978D01*
X429975Y377375D01*
X433625Y377375D01*
X436997Y375978D01*
X439578Y373397D01*
X440975Y370025D01*
X440975Y366375D01*
X439578Y363003D01*
X436997Y360422D01*
X433625Y359025D01*
X429975Y359025D01*
G37*
%LPD*%
%LPC*%
G36*
X175975Y79625D02*
X175975Y79625D01*
X172603Y81022D01*
X170022Y83603D01*
X168625Y86975D01*
X168625Y90625D01*
X170022Y93997D01*
X172603Y96578D01*
X175975Y97975D01*
X179625Y97975D01*
X182997Y96578D01*
X185578Y93997D01*
X186975Y90625D01*
X186975Y86975D01*
X185578Y83603D01*
X182997Y81022D01*
X179625Y79625D01*
X175975Y79625D01*
G37*
%LPD*%
%LPC*%
G36*
X429975Y79625D02*
X429975Y79625D01*
X426603Y81022D01*
X424022Y83603D01*
X422625Y86975D01*
X422625Y90625D01*
X424022Y93997D01*
X426603Y96578D01*
X429975Y97975D01*
X433625Y97975D01*
X436997Y96578D01*
X439578Y93997D01*
X440975Y90625D01*
X440975Y86975D01*
X439578Y83603D01*
X436997Y81022D01*
X433625Y79625D01*
X429975Y79625D01*
G37*
%LPD*%
%LPC*%
G36*
X175975Y232025D02*
X175975Y232025D01*
X172603Y233422D01*
X170022Y236003D01*
X168625Y239375D01*
X168625Y243025D01*
X170022Y246397D01*
X172603Y248978D01*
X175975Y250375D01*
X179625Y250375D01*
X182997Y248978D01*
X185578Y246397D01*
X186975Y243025D01*
X186975Y239375D01*
X185578Y236003D01*
X182997Y233422D01*
X179625Y232025D01*
X175975Y232025D01*
G37*
%LPD*%
%LPC*%
G36*
X175975Y486025D02*
X175975Y486025D01*
X172603Y487422D01*
X170022Y490003D01*
X168625Y493375D01*
X168625Y497025D01*
X170022Y500397D01*
X172603Y502978D01*
X175975Y504375D01*
X179625Y504375D01*
X182997Y502978D01*
X185578Y500397D01*
X186975Y497025D01*
X186975Y493375D01*
X185578Y490003D01*
X182997Y487422D01*
X179625Y486025D01*
X175975Y486025D01*
G37*
%LPD*%
%LPC*%
G36*
X429975Y54225D02*
X429975Y54225D01*
X426603Y55622D01*
X424022Y58203D01*
X422625Y61575D01*
X422625Y65225D01*
X424022Y68597D01*
X426603Y71178D01*
X429975Y72575D01*
X433625Y72575D01*
X436997Y71178D01*
X439578Y68597D01*
X440975Y65225D01*
X440975Y61575D01*
X439578Y58203D01*
X436997Y55622D01*
X433625Y54225D01*
X429975Y54225D01*
G37*
%LPD*%
%LPC*%
G36*
X175975Y384425D02*
X175975Y384425D01*
X172603Y385822D01*
X170022Y388403D01*
X168625Y391775D01*
X168625Y395425D01*
X170022Y398797D01*
X172603Y401378D01*
X175975Y402775D01*
X179625Y402775D01*
X182997Y401378D01*
X185578Y398797D01*
X186975Y395425D01*
X186975Y391775D01*
X185578Y388403D01*
X182997Y385822D01*
X179625Y384425D01*
X175975Y384425D01*
G37*
%LPD*%
%LPC*%
G36*
X429975Y384425D02*
X429975Y384425D01*
X426603Y385822D01*
X424022Y388403D01*
X422625Y391775D01*
X422625Y395425D01*
X424022Y398797D01*
X426603Y401378D01*
X429975Y402775D01*
X433625Y402775D01*
X436997Y401378D01*
X439578Y398797D01*
X440975Y395425D01*
X440975Y391775D01*
X439578Y388403D01*
X436997Y385822D01*
X433625Y384425D01*
X429975Y384425D01*
G37*
%LPD*%
%LPC*%
G36*
X175975Y409825D02*
X175975Y409825D01*
X172603Y411222D01*
X170022Y413803D01*
X168625Y417175D01*
X168625Y420825D01*
X170022Y424197D01*
X172603Y426778D01*
X175975Y428175D01*
X179625Y428175D01*
X182997Y426778D01*
X185578Y424197D01*
X186975Y420825D01*
X186975Y417175D01*
X185578Y413803D01*
X182997Y411222D01*
X179625Y409825D01*
X175975Y409825D01*
G37*
%LPD*%
%LPC*%
G36*
X429975Y511425D02*
X429975Y511425D01*
X426603Y512822D01*
X424022Y515403D01*
X422625Y518775D01*
X422625Y522425D01*
X424022Y525797D01*
X426603Y528378D01*
X429975Y529775D01*
X433625Y529775D01*
X436997Y528378D01*
X439578Y525797D01*
X440975Y522425D01*
X440975Y518775D01*
X439578Y515403D01*
X436997Y512822D01*
X433625Y511425D01*
X429975Y511425D01*
G37*
%LPD*%
%LPC*%
G36*
X429975Y486025D02*
X429975Y486025D01*
X426603Y487422D01*
X424022Y490003D01*
X422625Y493375D01*
X422625Y497025D01*
X424022Y500397D01*
X426603Y502978D01*
X429975Y504375D01*
X433625Y504375D01*
X436997Y502978D01*
X439578Y500397D01*
X440975Y497025D01*
X440975Y493375D01*
X439578Y490003D01*
X436997Y487422D01*
X433625Y486025D01*
X429975Y486025D01*
G37*
%LPD*%
%LPC*%
G36*
X175975Y257425D02*
X175975Y257425D01*
X172603Y258822D01*
X170022Y261403D01*
X168625Y264775D01*
X168625Y268425D01*
X170022Y271797D01*
X172603Y274378D01*
X175975Y275775D01*
X179625Y275775D01*
X182997Y274378D01*
X185578Y271797D01*
X186975Y268425D01*
X186975Y264775D01*
X185578Y261403D01*
X182997Y258822D01*
X179625Y257425D01*
X175975Y257425D01*
G37*
%LPD*%
%LPC*%
G36*
X175975Y155825D02*
X175975Y155825D01*
X172603Y157222D01*
X170022Y159803D01*
X168625Y163175D01*
X168625Y166825D01*
X170022Y170197D01*
X172603Y172778D01*
X175975Y174175D01*
X179625Y174175D01*
X182997Y172778D01*
X185578Y170197D01*
X186975Y166825D01*
X186975Y163175D01*
X185578Y159803D01*
X182997Y157222D01*
X179625Y155825D01*
X175975Y155825D01*
G37*
%LPD*%
%LPC*%
G36*
X429975Y460625D02*
X429975Y460625D01*
X426603Y462022D01*
X424022Y464603D01*
X422625Y467975D01*
X422625Y471625D01*
X424022Y474997D01*
X426603Y477578D01*
X429975Y478975D01*
X433625Y478975D01*
X436997Y477578D01*
X439578Y474997D01*
X440975Y471625D01*
X440975Y467975D01*
X439578Y464603D01*
X436997Y462022D01*
X433625Y460625D01*
X429975Y460625D01*
G37*
%LPD*%
%LPC*%
G36*
X1047213Y68420D02*
X1047213Y68420D01*
X1046320Y69313D01*
X1046320Y83087D01*
X1047213Y83980D01*
X1060987Y83980D01*
X1061880Y83087D01*
X1061880Y69313D01*
X1060987Y68420D01*
X1047213Y68420D01*
G37*
%LPD*%
%LPC*%
G36*
X1047213Y385920D02*
X1047213Y385920D01*
X1046320Y386813D01*
X1046320Y400587D01*
X1047213Y401480D01*
X1060987Y401480D01*
X1061880Y400587D01*
X1061880Y386813D01*
X1060987Y385920D01*
X1047213Y385920D01*
G37*
%LPD*%
%LPC*%
G36*
X1077952Y68420D02*
X1077952Y68420D01*
X1075093Y69605D01*
X1072905Y71793D01*
X1071720Y74652D01*
X1071720Y77748D01*
X1072905Y80607D01*
X1075093Y82795D01*
X1077952Y83980D01*
X1081048Y83980D01*
X1083907Y82795D01*
X1086095Y80607D01*
X1087280Y77748D01*
X1087280Y74652D01*
X1086095Y71793D01*
X1083907Y69605D01*
X1081048Y68420D01*
X1077952Y68420D01*
G37*
%LPD*%
%LPC*%
G36*
X1077952Y180920D02*
X1077952Y180920D01*
X1075093Y182105D01*
X1072905Y184293D01*
X1071720Y187152D01*
X1071720Y190248D01*
X1072905Y193107D01*
X1075093Y195295D01*
X1077952Y196480D01*
X1081048Y196480D01*
X1083907Y195295D01*
X1086095Y193107D01*
X1087280Y190248D01*
X1087280Y187152D01*
X1086095Y184293D01*
X1083907Y182105D01*
X1081048Y180920D01*
X1077952Y180920D01*
G37*
%LPD*%
%LPC*%
G36*
X1077952Y498420D02*
X1077952Y498420D01*
X1075093Y499605D01*
X1072905Y501793D01*
X1071720Y504652D01*
X1071720Y507748D01*
X1072905Y510607D01*
X1075093Y512795D01*
X1077952Y513980D01*
X1081048Y513980D01*
X1083907Y512795D01*
X1086095Y510607D01*
X1087280Y507748D01*
X1087280Y504652D01*
X1086095Y501793D01*
X1083907Y499605D01*
X1081048Y498420D01*
X1077952Y498420D01*
G37*
%LPD*%
%LPC*%
G36*
X1103352Y180920D02*
X1103352Y180920D01*
X1100493Y182105D01*
X1098305Y184293D01*
X1097120Y187152D01*
X1097120Y190248D01*
X1098305Y193107D01*
X1100493Y195295D01*
X1103352Y196480D01*
X1106448Y196480D01*
X1109307Y195295D01*
X1111495Y193107D01*
X1112680Y190248D01*
X1112680Y187152D01*
X1111495Y184293D01*
X1109307Y182105D01*
X1106448Y180920D01*
X1103352Y180920D01*
G37*
%LPD*%
%LPC*%
G36*
X1052552Y498420D02*
X1052552Y498420D01*
X1049693Y499605D01*
X1047505Y501793D01*
X1046320Y504652D01*
X1046320Y507748D01*
X1047505Y510607D01*
X1049693Y512795D01*
X1052552Y513980D01*
X1055648Y513980D01*
X1058507Y512795D01*
X1060695Y510607D01*
X1061880Y507748D01*
X1061880Y504652D01*
X1060695Y501793D01*
X1058507Y499605D01*
X1055648Y498420D01*
X1052552Y498420D01*
G37*
%LPD*%
%LPC*%
G36*
X1103352Y498420D02*
X1103352Y498420D01*
X1100493Y499605D01*
X1098305Y501793D01*
X1097120Y504652D01*
X1097120Y507748D01*
X1098305Y510607D01*
X1100493Y512795D01*
X1103352Y513980D01*
X1106448Y513980D01*
X1109307Y512795D01*
X1111495Y510607D01*
X1112680Y507748D01*
X1112680Y504652D01*
X1111495Y501793D01*
X1109307Y499605D01*
X1106448Y498420D01*
X1103352Y498420D01*
G37*
%LPD*%
%LPC*%
G36*
X1077952Y385920D02*
X1077952Y385920D01*
X1075093Y387105D01*
X1072905Y389293D01*
X1071720Y392152D01*
X1071720Y395248D01*
X1072905Y398107D01*
X1075093Y400295D01*
X1077952Y401480D01*
X1081048Y401480D01*
X1083907Y400295D01*
X1086095Y398107D01*
X1087280Y395248D01*
X1087280Y392152D01*
X1086095Y389293D01*
X1083907Y387105D01*
X1081048Y385920D01*
X1077952Y385920D01*
G37*
%LPD*%
D10*
X577850Y25400D03*
X711200Y25400D03*
X711200Y247650D03*
X577850Y247650D03*
X603250Y247650D03*
X685800Y247650D03*
D11*
X177800Y520600D03*
D12*
X177800Y495200D03*
X177800Y469800D03*
X177800Y444400D03*
X177800Y419000D03*
X177800Y393600D03*
X177800Y368200D03*
X177800Y342800D03*
X177800Y317400D03*
X177800Y292000D03*
X177800Y266600D03*
X177800Y241200D03*
X177800Y215800D03*
X177800Y190400D03*
X177800Y165000D03*
X177800Y139600D03*
X177800Y114200D03*
X177800Y88800D03*
X177800Y63400D03*
X431800Y63400D03*
X431800Y88800D03*
X431800Y114200D03*
X431800Y139600D03*
X431800Y165000D03*
X431800Y190400D03*
X431800Y215800D03*
X431800Y241200D03*
X431800Y266600D03*
X431800Y292000D03*
X431800Y317400D03*
X431800Y342800D03*
X431800Y368200D03*
X431800Y393600D03*
X431800Y419000D03*
X431800Y444400D03*
X431800Y469800D03*
X431800Y495200D03*
X431800Y520600D03*
D13*
X120904Y38100D02*
X107696Y38100D01*
X107696Y63500D02*
X120904Y63500D01*
X120904Y88900D02*
X107696Y88900D01*
X107696Y114300D02*
X120904Y114300D01*
X120904Y139700D02*
X107696Y139700D01*
X107696Y165100D02*
X120904Y165100D01*
X120904Y190500D02*
X107696Y190500D01*
X107696Y215900D02*
X120904Y215900D01*
X120904Y241300D02*
X107696Y241300D01*
X107696Y266700D02*
X120904Y266700D01*
X120904Y292100D02*
X107696Y292100D01*
X107696Y317500D02*
X120904Y317500D01*
X120904Y342900D02*
X107696Y342900D01*
X107696Y368300D02*
X120904Y368300D01*
X120904Y393700D02*
X107696Y393700D01*
X107696Y419100D02*
X120904Y419100D01*
X120904Y444500D02*
X107696Y444500D01*
X107696Y469900D02*
X120904Y469900D01*
X120904Y495300D02*
X107696Y495300D01*
X107696Y520700D02*
X120904Y520700D01*
X488696Y38100D02*
X501904Y38100D01*
X501904Y63500D02*
X488696Y63500D01*
X488696Y88900D02*
X501904Y88900D01*
X501904Y114300D02*
X488696Y114300D01*
X488696Y139700D02*
X501904Y139700D01*
X501904Y165100D02*
X488696Y165100D01*
X488696Y190500D02*
X501904Y190500D01*
X501904Y215900D02*
X488696Y215900D01*
X488696Y241300D02*
X501904Y241300D01*
X501904Y266700D02*
X488696Y266700D01*
X488696Y292100D02*
X501904Y292100D01*
X501904Y317500D02*
X488696Y317500D01*
X488696Y342900D02*
X501904Y342900D01*
X501904Y368300D02*
X488696Y368300D01*
X488696Y393700D02*
X501904Y393700D01*
X501904Y419100D02*
X488696Y419100D01*
X488696Y444500D02*
X501904Y444500D01*
X501904Y469900D02*
X488696Y469900D01*
X488696Y495300D02*
X501904Y495300D01*
X501904Y520700D02*
X488696Y520700D01*
D14*
X177800Y38100D03*
X431800Y38100D03*
D15*
X825100Y562547D02*
X825100Y580454D01*
X775100Y580454D02*
X775100Y562547D01*
X914800Y562547D02*
X914800Y580454D01*
X964800Y580454D02*
X964800Y562547D01*
D16*
X845820Y38100D02*
X830580Y38100D01*
X830580Y63500D02*
X845820Y63500D01*
X845820Y88900D02*
X830580Y88900D01*
X830580Y114300D02*
X845820Y114300D01*
X845820Y139700D02*
X830580Y139700D01*
X830580Y165100D02*
X845820Y165100D01*
X782320Y38100D02*
X767080Y38100D01*
X767080Y63500D02*
X782320Y63500D01*
X782320Y88900D02*
X767080Y88900D01*
X767080Y114300D02*
X782320Y114300D01*
X782320Y139700D02*
X767080Y139700D01*
X767080Y165100D02*
X782320Y165100D01*
X609600Y411480D02*
X609600Y426720D01*
X635000Y426720D02*
X635000Y411480D01*
X660400Y411480D02*
X660400Y426720D01*
X894080Y38100D02*
X909320Y38100D01*
X909320Y63500D02*
X894080Y63500D01*
X894080Y88900D02*
X909320Y88900D01*
X909320Y114300D02*
X894080Y114300D01*
X894080Y139700D02*
X909320Y139700D01*
X909320Y165100D02*
X894080Y165100D01*
D17*
X1054100Y393700D03*
D18*
X1079500Y393700D03*
X1104900Y393700D03*
X1104900Y506200D03*
X1079500Y506200D03*
X1054100Y506200D03*
D17*
X1054100Y76200D03*
D18*
X1079500Y76200D03*
X1104900Y76200D03*
X1104900Y188700D03*
X1079500Y188700D03*
X1054100Y188700D03*
D19*
X215800Y317400D02*
X177800Y317400D01*
X266700Y368300D02*
X266700Y508000D01*
X368300Y609600D01*
X266700Y368300D02*
X215800Y317400D01*
X1104900Y393700D02*
X1104900Y406400D01*
X1130300Y431800D01*
X1130300Y533400D01*
X1054100Y609600D01*
X368300Y609600D01*
X774700Y228600D02*
X647700Y101600D01*
X647700Y25400D01*
X622300Y0D01*
X88900Y0D01*
X76200Y12700D01*
X76200Y266700D01*
X101600Y292100D01*
X114300Y292100D01*
X1104900Y101600D02*
X1104900Y76200D01*
X1104900Y101600D02*
X1143000Y139700D01*
X1143000Y190500D01*
X1104900Y228600D01*
X774700Y228600D01*
X603250Y247650D02*
X603250Y285750D01*
X800100Y482600D01*
X838200Y482600D01*
X914800Y559200D01*
X914800Y571500D01*
X685800Y304800D02*
X685800Y247650D01*
X825500Y444500D02*
X876300Y444500D01*
X964800Y533000D01*
X964800Y571500D01*
X825500Y444500D02*
X685800Y304800D01*
X660400Y419100D02*
X711200Y419100D01*
X825100Y533000D02*
X825100Y571500D01*
X825100Y533000D02*
X711200Y419100D01*
X177900Y63500D02*
X177800Y63400D01*
X177900Y63500D02*
X228600Y63500D01*
X292100Y127000D01*
X292100Y495300D01*
X368300Y571500D01*
X775100Y571500D01*
X1039600Y188700D02*
X1054100Y188700D01*
X1039600Y188700D02*
X990600Y139700D01*
X901700Y139700D01*
M02*
