G04 EAGLE Gerber RS-274X export*
G75*
%MOMM*%
%FSLAX34Y34*%
%LPD*%
%INBottom Copper*%
%IPPOS*%
%AMOC8*
5,1,8,0,0,1.08239X$1,22.5*%
G01*
%ADD10R,1.238000X1.238000*%
%ADD11C,1.238000*%
%ADD12C,1.524000*%
%ADD13C,1.508000*%
%ADD14C,0.406400*%
%ADD15C,0.756400*%
%ADD16C,0.457200*%
%ADD17C,0.152400*%
%ADD18C,0.254000*%

G36*
X511444Y16528D02*
X511444Y16528D01*
X511583Y16541D01*
X511602Y16548D01*
X511622Y16551D01*
X511751Y16602D01*
X511882Y16649D01*
X511899Y16660D01*
X511918Y16668D01*
X512031Y16749D01*
X512146Y16827D01*
X512159Y16843D01*
X512175Y16854D01*
X512264Y16962D01*
X512356Y17066D01*
X512365Y17084D01*
X512378Y17099D01*
X512437Y17225D01*
X512501Y17349D01*
X512505Y17369D01*
X512514Y17387D01*
X512540Y17523D01*
X512570Y17659D01*
X512570Y17680D01*
X512574Y17699D01*
X512565Y17838D01*
X512561Y17977D01*
X512555Y17997D01*
X512554Y18017D01*
X512511Y18149D01*
X512472Y18283D01*
X512462Y18300D01*
X512456Y18319D01*
X512381Y18437D01*
X512311Y18557D01*
X512292Y18578D01*
X512286Y18588D01*
X512271Y18602D01*
X512204Y18677D01*
X507866Y23016D01*
X504224Y29323D01*
X502339Y36358D01*
X502339Y43642D01*
X504224Y50677D01*
X507866Y56984D01*
X513016Y62134D01*
X519323Y65776D01*
X526358Y67661D01*
X533642Y67661D01*
X540677Y65776D01*
X546735Y62278D01*
X546858Y62226D01*
X546977Y62170D01*
X547004Y62165D01*
X547029Y62154D01*
X547160Y62135D01*
X547290Y62110D01*
X547316Y62112D01*
X547343Y62108D01*
X547475Y62122D01*
X547607Y62130D01*
X547633Y62138D01*
X547659Y62141D01*
X547784Y62187D01*
X547909Y62228D01*
X547932Y62242D01*
X547958Y62252D01*
X548066Y62327D01*
X548178Y62398D01*
X548197Y62418D01*
X548219Y62433D01*
X548305Y62533D01*
X548396Y62630D01*
X548409Y62653D01*
X548427Y62674D01*
X548486Y62793D01*
X548550Y62908D01*
X548556Y62934D01*
X548568Y62959D01*
X548596Y63088D01*
X548629Y63216D01*
X548631Y63254D01*
X548635Y63270D01*
X548634Y63291D01*
X548639Y63377D01*
X548639Y606623D01*
X548623Y606754D01*
X548612Y606886D01*
X548603Y606912D01*
X548599Y606939D01*
X548551Y607062D01*
X548507Y607187D01*
X548492Y607209D01*
X548482Y607234D01*
X548405Y607341D01*
X548331Y607452D01*
X548311Y607470D01*
X548296Y607492D01*
X548193Y607576D01*
X548095Y607665D01*
X548071Y607677D01*
X548051Y607695D01*
X547931Y607751D01*
X547814Y607812D01*
X547787Y607819D01*
X547763Y607830D01*
X547633Y607855D01*
X547504Y607885D01*
X547477Y607885D01*
X547451Y607890D01*
X547319Y607882D01*
X547186Y607879D01*
X547160Y607872D01*
X547133Y607870D01*
X547007Y607829D01*
X546880Y607794D01*
X546845Y607777D01*
X546831Y607772D01*
X546812Y607760D01*
X546735Y607722D01*
X540677Y604224D01*
X533642Y602339D01*
X526358Y602339D01*
X519323Y604224D01*
X513016Y607866D01*
X507866Y613016D01*
X504224Y619323D01*
X502339Y626358D01*
X502339Y633642D01*
X504224Y640677D01*
X507866Y646984D01*
X508954Y648073D01*
X509039Y648182D01*
X509128Y648289D01*
X509137Y648308D01*
X509149Y648324D01*
X509205Y648451D01*
X509264Y648577D01*
X509268Y648597D01*
X509276Y648616D01*
X509298Y648754D01*
X509324Y648890D01*
X509322Y648910D01*
X509325Y648930D01*
X509312Y649069D01*
X509304Y649207D01*
X509298Y649226D01*
X509296Y649246D01*
X509248Y649378D01*
X509206Y649509D01*
X509195Y649527D01*
X509188Y649546D01*
X509110Y649661D01*
X509036Y649778D01*
X509021Y649792D01*
X509009Y649809D01*
X508905Y649901D01*
X508804Y649996D01*
X508786Y650006D01*
X508771Y650019D01*
X508647Y650082D01*
X508525Y650150D01*
X508506Y650155D01*
X508488Y650164D01*
X508352Y650194D01*
X508218Y650229D01*
X508189Y650231D01*
X508178Y650234D01*
X508157Y650233D01*
X508057Y650239D01*
X61943Y650239D01*
X61805Y650222D01*
X61667Y650209D01*
X61648Y650202D01*
X61628Y650199D01*
X61499Y650148D01*
X61367Y650101D01*
X61351Y650090D01*
X61332Y650082D01*
X61220Y650001D01*
X61104Y649923D01*
X61091Y649907D01*
X61075Y649896D01*
X60986Y649788D01*
X60894Y649684D01*
X60885Y649666D01*
X60872Y649651D01*
X60813Y649525D01*
X60749Y649401D01*
X60745Y649381D01*
X60736Y649363D01*
X60710Y649226D01*
X60680Y649091D01*
X60680Y649070D01*
X60676Y649051D01*
X60685Y648912D01*
X60689Y648773D01*
X60695Y648753D01*
X60696Y648733D01*
X60739Y648601D01*
X60778Y648467D01*
X60788Y648450D01*
X60794Y648431D01*
X60869Y648313D01*
X60939Y648193D01*
X60958Y648172D01*
X60964Y648162D01*
X60979Y648148D01*
X61046Y648073D01*
X62134Y646984D01*
X65776Y640677D01*
X67661Y633642D01*
X67661Y626358D01*
X65776Y619323D01*
X62134Y613016D01*
X56984Y607866D01*
X50677Y604224D01*
X43642Y602339D01*
X36358Y602339D01*
X29323Y604224D01*
X23016Y607866D01*
X18677Y612204D01*
X18568Y612290D01*
X18461Y612378D01*
X18442Y612387D01*
X18426Y612399D01*
X18298Y612455D01*
X18173Y612514D01*
X18153Y612518D01*
X18134Y612526D01*
X17996Y612548D01*
X17860Y612574D01*
X17840Y612572D01*
X17820Y612575D01*
X17681Y612562D01*
X17543Y612554D01*
X17524Y612548D01*
X17504Y612546D01*
X17372Y612498D01*
X17241Y612456D01*
X17223Y612445D01*
X17204Y612438D01*
X17089Y612360D01*
X16972Y612286D01*
X16958Y612271D01*
X16941Y612259D01*
X16849Y612155D01*
X16754Y612054D01*
X16744Y612036D01*
X16731Y612021D01*
X16667Y611897D01*
X16600Y611775D01*
X16595Y611756D01*
X16586Y611738D01*
X16556Y611602D01*
X16521Y611468D01*
X16519Y611439D01*
X16516Y611428D01*
X16517Y611407D01*
X16511Y611307D01*
X16511Y58693D01*
X16528Y58556D01*
X16541Y58417D01*
X16548Y58398D01*
X16551Y58378D01*
X16602Y58249D01*
X16649Y58118D01*
X16660Y58101D01*
X16668Y58082D01*
X16749Y57969D01*
X16827Y57854D01*
X16843Y57841D01*
X16854Y57825D01*
X16962Y57736D01*
X17066Y57644D01*
X17084Y57635D01*
X17099Y57622D01*
X17225Y57563D01*
X17349Y57499D01*
X17369Y57495D01*
X17387Y57486D01*
X17523Y57460D01*
X17659Y57430D01*
X17680Y57430D01*
X17699Y57426D01*
X17838Y57435D01*
X17977Y57439D01*
X17997Y57445D01*
X18017Y57446D01*
X18149Y57489D01*
X18283Y57528D01*
X18300Y57538D01*
X18319Y57544D01*
X18437Y57619D01*
X18557Y57689D01*
X18578Y57708D01*
X18588Y57714D01*
X18602Y57729D01*
X18677Y57796D01*
X23016Y62134D01*
X29323Y65776D01*
X36358Y67661D01*
X43642Y67661D01*
X50677Y65776D01*
X56984Y62134D01*
X62134Y56984D01*
X65776Y50677D01*
X67661Y43642D01*
X67661Y36358D01*
X65776Y29323D01*
X62134Y23016D01*
X57796Y18677D01*
X57710Y18568D01*
X57622Y18461D01*
X57613Y18442D01*
X57601Y18426D01*
X57545Y18298D01*
X57486Y18173D01*
X57482Y18153D01*
X57474Y18134D01*
X57452Y17996D01*
X57426Y17860D01*
X57428Y17840D01*
X57425Y17820D01*
X57438Y17681D01*
X57446Y17543D01*
X57452Y17524D01*
X57454Y17504D01*
X57502Y17372D01*
X57544Y17241D01*
X57555Y17223D01*
X57562Y17204D01*
X57640Y17089D01*
X57714Y16972D01*
X57729Y16958D01*
X57741Y16941D01*
X57845Y16849D01*
X57946Y16754D01*
X57964Y16744D01*
X57979Y16731D01*
X58103Y16667D01*
X58225Y16600D01*
X58244Y16595D01*
X58262Y16586D01*
X58398Y16556D01*
X58532Y16521D01*
X58561Y16519D01*
X58572Y16516D01*
X58593Y16517D01*
X58693Y16511D01*
X511307Y16511D01*
X511444Y16528D01*
G37*
%LPC*%
G36*
X194087Y67055D02*
X194087Y67055D01*
X117855Y143287D01*
X117855Y182467D01*
X117843Y182565D01*
X117840Y182664D01*
X117823Y182722D01*
X117815Y182782D01*
X117779Y182874D01*
X117751Y182969D01*
X117721Y183022D01*
X117698Y183078D01*
X117640Y183158D01*
X117590Y183243D01*
X117524Y183319D01*
X117512Y183335D01*
X117502Y183343D01*
X117484Y183364D01*
X110798Y190050D01*
X110711Y190117D01*
X110671Y190155D01*
X110662Y190160D01*
X110614Y190202D01*
X110578Y190220D01*
X110546Y190245D01*
X110437Y190292D01*
X110331Y190346D01*
X110292Y190355D01*
X110254Y190371D01*
X110137Y190390D01*
X110021Y190416D01*
X109980Y190415D01*
X109940Y190421D01*
X109822Y190410D01*
X109703Y190406D01*
X109664Y190395D01*
X109624Y190391D01*
X109512Y190351D01*
X109397Y190318D01*
X109363Y190297D01*
X109324Y190284D01*
X109226Y190217D01*
X109123Y190156D01*
X109078Y190117D01*
X109061Y190105D01*
X109048Y190090D01*
X109003Y190050D01*
X108050Y189097D01*
X104689Y187705D01*
X85811Y187705D01*
X82450Y189097D01*
X79877Y191670D01*
X78485Y195031D01*
X78485Y198669D01*
X79877Y202030D01*
X82450Y204603D01*
X85811Y205995D01*
X104689Y205995D01*
X108050Y204603D01*
X110623Y202030D01*
X112015Y198669D01*
X112015Y197263D01*
X112027Y197165D01*
X112030Y197066D01*
X112047Y197008D01*
X112055Y196948D01*
X112091Y196856D01*
X112119Y196761D01*
X112149Y196708D01*
X112172Y196652D01*
X112230Y196572D01*
X112280Y196487D01*
X112346Y196411D01*
X112358Y196395D01*
X112368Y196387D01*
X112386Y196366D01*
X123445Y185308D01*
X123445Y146128D01*
X123457Y146030D01*
X123460Y145931D01*
X123477Y145873D01*
X123485Y145813D01*
X123521Y145720D01*
X123549Y145625D01*
X123579Y145573D01*
X123602Y145517D01*
X123660Y145437D01*
X123710Y145351D01*
X123776Y145276D01*
X123788Y145259D01*
X123798Y145252D01*
X123816Y145231D01*
X160039Y109009D01*
X160078Y108978D01*
X160111Y108941D01*
X160203Y108881D01*
X160290Y108814D01*
X160335Y108794D01*
X160377Y108767D01*
X160481Y108731D01*
X160582Y108687D01*
X160631Y108679D01*
X160678Y108663D01*
X160787Y108655D01*
X160896Y108637D01*
X160945Y108642D01*
X160995Y108638D01*
X161103Y108657D01*
X161212Y108667D01*
X161259Y108684D01*
X161308Y108692D01*
X161408Y108738D01*
X161512Y108775D01*
X161553Y108803D01*
X161598Y108823D01*
X161684Y108892D01*
X161775Y108953D01*
X161808Y108991D01*
X161846Y109022D01*
X161913Y109110D01*
X161985Y109192D01*
X162008Y109236D01*
X162038Y109276D01*
X162109Y109420D01*
X162148Y109514D01*
X162155Y109543D01*
X162169Y109569D01*
X162197Y109696D01*
X162232Y109821D01*
X162232Y109851D01*
X162238Y109879D01*
X162235Y110009D01*
X162237Y110139D01*
X162230Y110168D01*
X162229Y110197D01*
X162193Y110322D01*
X162162Y110448D01*
X162149Y110474D01*
X162140Y110503D01*
X162074Y110615D01*
X162014Y110729D01*
X161994Y110751D01*
X161979Y110777D01*
X161872Y110898D01*
X142493Y130277D01*
X142493Y211023D01*
X167522Y236051D01*
X167582Y236130D01*
X167650Y236202D01*
X167679Y236255D01*
X167716Y236303D01*
X167756Y236394D01*
X167804Y236480D01*
X167819Y236539D01*
X167843Y236595D01*
X167858Y236693D01*
X167883Y236788D01*
X167889Y236888D01*
X167893Y236909D01*
X167891Y236921D01*
X167893Y236949D01*
X167893Y243176D01*
X167881Y243274D01*
X167878Y243373D01*
X167861Y243432D01*
X167853Y243492D01*
X167817Y243584D01*
X167789Y243679D01*
X167759Y243731D01*
X167736Y243787D01*
X167678Y243867D01*
X167628Y243953D01*
X167562Y244028D01*
X167550Y244045D01*
X167540Y244052D01*
X167522Y244074D01*
X166951Y244644D01*
X166143Y246594D01*
X166143Y248706D01*
X166951Y250656D01*
X167522Y251226D01*
X167582Y251305D01*
X167650Y251377D01*
X167679Y251430D01*
X167716Y251478D01*
X167756Y251569D01*
X167804Y251655D01*
X167819Y251714D01*
X167843Y251770D01*
X167858Y251867D01*
X167883Y251963D01*
X167889Y252063D01*
X167893Y252084D01*
X167891Y252096D01*
X167893Y252124D01*
X167893Y258351D01*
X167881Y258449D01*
X167878Y258548D01*
X167861Y258606D01*
X167853Y258667D01*
X167817Y258759D01*
X167789Y258854D01*
X167759Y258906D01*
X167736Y258962D01*
X167678Y259042D01*
X167628Y259128D01*
X167562Y259203D01*
X167550Y259220D01*
X167540Y259227D01*
X167522Y259249D01*
X135659Y291111D01*
X135565Y291184D01*
X135475Y291263D01*
X135440Y291281D01*
X135408Y291306D01*
X135298Y291353D01*
X135192Y291408D01*
X135153Y291416D01*
X135116Y291433D01*
X134998Y291451D01*
X134882Y291477D01*
X134842Y291476D01*
X134802Y291482D01*
X134683Y291471D01*
X134564Y291468D01*
X134525Y291456D01*
X134485Y291453D01*
X134373Y291412D01*
X134259Y291379D01*
X134224Y291359D01*
X134186Y291345D01*
X134087Y291278D01*
X133985Y291218D01*
X133939Y291178D01*
X133923Y291166D01*
X133909Y291151D01*
X133864Y291111D01*
X133450Y290697D01*
X130089Y289305D01*
X111211Y289305D01*
X107850Y290697D01*
X105277Y293270D01*
X103885Y296631D01*
X103885Y300269D01*
X105277Y303630D01*
X107850Y306203D01*
X111211Y307595D01*
X130089Y307595D01*
X133450Y306203D01*
X133864Y305789D01*
X133958Y305716D01*
X134047Y305637D01*
X134083Y305619D01*
X134115Y305594D01*
X134224Y305547D01*
X134330Y305492D01*
X134370Y305484D01*
X134407Y305467D01*
X134525Y305449D01*
X134641Y305423D01*
X134681Y305424D01*
X134721Y305418D01*
X134840Y305429D01*
X134959Y305432D01*
X134997Y305444D01*
X135038Y305447D01*
X135150Y305488D01*
X135264Y305521D01*
X135299Y305541D01*
X135337Y305555D01*
X135435Y305622D01*
X135538Y305682D01*
X135583Y305722D01*
X135600Y305734D01*
X135614Y305749D01*
X135659Y305789D01*
X142122Y312251D01*
X142182Y312330D01*
X142250Y312402D01*
X142279Y312455D01*
X142316Y312503D01*
X142356Y312594D01*
X142404Y312680D01*
X142419Y312739D01*
X142443Y312795D01*
X142458Y312893D01*
X142483Y312988D01*
X142489Y313088D01*
X142493Y313109D01*
X142491Y313121D01*
X142493Y313149D01*
X142493Y448851D01*
X142481Y448949D01*
X142478Y449048D01*
X142461Y449106D01*
X142453Y449167D01*
X142417Y449259D01*
X142389Y449354D01*
X142359Y449406D01*
X142336Y449462D01*
X142278Y449542D01*
X142228Y449628D01*
X142162Y449703D01*
X142150Y449720D01*
X142140Y449727D01*
X142122Y449749D01*
X132603Y459268D01*
X132524Y459328D01*
X132452Y459396D01*
X132399Y459425D01*
X132351Y459462D01*
X132260Y459502D01*
X132174Y459550D01*
X132115Y459565D01*
X132059Y459589D01*
X131961Y459604D01*
X131887Y459623D01*
X121189Y470322D01*
X121189Y510919D01*
X121186Y510948D01*
X121188Y510977D01*
X121166Y511106D01*
X121149Y511234D01*
X121139Y511262D01*
X121134Y511291D01*
X121080Y511409D01*
X121032Y511530D01*
X121015Y511554D01*
X121003Y511581D01*
X120922Y511682D01*
X120846Y511787D01*
X120823Y511806D01*
X120804Y511829D01*
X120701Y511907D01*
X120601Y511990D01*
X120574Y512003D01*
X120550Y512020D01*
X120406Y512091D01*
X119865Y512315D01*
X117315Y514865D01*
X115935Y518197D01*
X115935Y521803D01*
X117315Y525135D01*
X119865Y527685D01*
X123197Y529065D01*
X126803Y529065D01*
X130135Y527685D01*
X132685Y525135D01*
X134065Y521803D01*
X134065Y518197D01*
X132685Y514865D01*
X130135Y512315D01*
X129594Y512091D01*
X129569Y512077D01*
X129541Y512068D01*
X129431Y511998D01*
X129318Y511934D01*
X129297Y511913D01*
X129272Y511898D01*
X129183Y511803D01*
X129090Y511713D01*
X129074Y511687D01*
X129054Y511666D01*
X128991Y511552D01*
X128923Y511441D01*
X128915Y511413D01*
X128900Y511387D01*
X128868Y511262D01*
X128830Y511138D01*
X128828Y511108D01*
X128821Y511079D01*
X128811Y510919D01*
X128811Y474004D01*
X128823Y473906D01*
X128826Y473807D01*
X128843Y473749D01*
X128851Y473689D01*
X128887Y473597D01*
X128915Y473501D01*
X128945Y473449D01*
X128968Y473393D01*
X129026Y473313D01*
X129076Y473228D01*
X129142Y473152D01*
X129154Y473136D01*
X129164Y473128D01*
X129182Y473107D01*
X137276Y465014D01*
X137276Y464998D01*
X137293Y464940D01*
X137301Y464879D01*
X137337Y464787D01*
X137365Y464692D01*
X137395Y464640D01*
X137418Y464584D01*
X137476Y464504D01*
X137526Y464418D01*
X137592Y464343D01*
X137604Y464326D01*
X137614Y464319D01*
X137632Y464297D01*
X147151Y454778D01*
X149607Y452323D01*
X149607Y309677D01*
X139277Y299348D01*
X139204Y299253D01*
X139126Y299164D01*
X139107Y299128D01*
X139083Y299096D01*
X139035Y298987D01*
X138981Y298881D01*
X138972Y298842D01*
X138956Y298804D01*
X138937Y298687D01*
X138911Y298571D01*
X138913Y298530D01*
X138906Y298490D01*
X138917Y298372D01*
X138921Y298253D01*
X138932Y298214D01*
X138936Y298174D01*
X138976Y298061D01*
X139010Y297947D01*
X139030Y297913D01*
X139044Y297874D01*
X139111Y297776D01*
X139171Y297673D01*
X139211Y297628D01*
X139222Y297611D01*
X139238Y297598D01*
X139277Y297553D01*
X175007Y261823D01*
X175007Y252124D01*
X175019Y252026D01*
X175022Y251927D01*
X175039Y251868D01*
X175047Y251808D01*
X175083Y251716D01*
X175111Y251621D01*
X175141Y251569D01*
X175164Y251513D01*
X175222Y251433D01*
X175272Y251347D01*
X175338Y251272D01*
X175350Y251255D01*
X175360Y251248D01*
X175378Y251226D01*
X175949Y250656D01*
X176757Y248706D01*
X176757Y246594D01*
X175949Y244644D01*
X175378Y244074D01*
X175318Y243995D01*
X175250Y243923D01*
X175221Y243870D01*
X175184Y243822D01*
X175144Y243731D01*
X175096Y243645D01*
X175081Y243586D01*
X175057Y243530D01*
X175042Y243433D01*
X175017Y243337D01*
X175011Y243237D01*
X175007Y243216D01*
X175009Y243204D01*
X175007Y243176D01*
X175007Y233477D01*
X149978Y208449D01*
X149918Y208370D01*
X149850Y208298D01*
X149821Y208245D01*
X149784Y208197D01*
X149744Y208106D01*
X149696Y208020D01*
X149681Y207961D01*
X149657Y207905D01*
X149642Y207807D01*
X149617Y207712D01*
X149611Y207612D01*
X149607Y207591D01*
X149609Y207579D01*
X149607Y207551D01*
X149607Y133749D01*
X149619Y133651D01*
X149622Y133552D01*
X149639Y133494D01*
X149647Y133433D01*
X149683Y133341D01*
X149711Y133246D01*
X149741Y133194D01*
X149764Y133138D01*
X149822Y133058D01*
X149872Y132972D01*
X149938Y132897D01*
X149950Y132880D01*
X149960Y132873D01*
X149978Y132851D01*
X166902Y115928D01*
X166926Y115909D01*
X166945Y115887D01*
X167051Y115812D01*
X167154Y115733D01*
X167181Y115721D01*
X167205Y115704D01*
X167326Y115658D01*
X167446Y115606D01*
X167475Y115602D01*
X167502Y115591D01*
X167631Y115577D01*
X167760Y115556D01*
X167789Y115559D01*
X167818Y115556D01*
X167947Y115574D01*
X168076Y115586D01*
X168104Y115596D01*
X168133Y115600D01*
X168286Y115652D01*
X168315Y115665D01*
X171385Y115665D01*
X174220Y114490D01*
X176390Y112320D01*
X177565Y109485D01*
X177565Y106415D01*
X176390Y103580D01*
X174220Y101410D01*
X171320Y100209D01*
X171277Y100184D01*
X171230Y100167D01*
X171139Y100106D01*
X171044Y100051D01*
X171008Y100017D01*
X170967Y99989D01*
X170895Y99906D01*
X170816Y99830D01*
X170790Y99787D01*
X170757Y99750D01*
X170707Y99652D01*
X170649Y99559D01*
X170635Y99511D01*
X170612Y99467D01*
X170588Y99360D01*
X170556Y99255D01*
X170553Y99205D01*
X170543Y99157D01*
X170546Y99047D01*
X170541Y98937D01*
X170551Y98889D01*
X170552Y98839D01*
X170583Y98733D01*
X170605Y98626D01*
X170627Y98581D01*
X170641Y98533D01*
X170696Y98439D01*
X170745Y98340D01*
X170777Y98302D01*
X170802Y98259D01*
X170909Y98139D01*
X196031Y73016D01*
X196109Y72956D01*
X196181Y72888D01*
X196234Y72859D01*
X196282Y72822D01*
X196373Y72782D01*
X196459Y72734D01*
X196518Y72719D01*
X196574Y72695D01*
X196672Y72680D01*
X196767Y72655D01*
X196867Y72649D01*
X196888Y72645D01*
X196900Y72647D01*
X196928Y72645D01*
X207867Y72645D01*
X207965Y72657D01*
X208064Y72660D01*
X208122Y72677D01*
X208182Y72685D01*
X208274Y72721D01*
X208369Y72749D01*
X208422Y72779D01*
X208478Y72802D01*
X208558Y72860D01*
X208643Y72910D01*
X208719Y72976D01*
X208735Y72988D01*
X208743Y72998D01*
X208764Y73016D01*
X219084Y83336D01*
X219144Y83414D01*
X219212Y83486D01*
X219241Y83539D01*
X219278Y83587D01*
X219318Y83678D01*
X219366Y83765D01*
X219381Y83823D01*
X219405Y83879D01*
X219420Y83977D01*
X219445Y84073D01*
X219451Y84173D01*
X219455Y84193D01*
X219453Y84205D01*
X219455Y84233D01*
X219455Y132908D01*
X221464Y134916D01*
X241588Y155040D01*
X241606Y155064D01*
X241629Y155083D01*
X241703Y155189D01*
X241783Y155292D01*
X241795Y155319D01*
X241812Y155343D01*
X241858Y155464D01*
X241909Y155584D01*
X241914Y155613D01*
X241924Y155640D01*
X241939Y155769D01*
X241959Y155898D01*
X241956Y155927D01*
X241960Y155956D01*
X241942Y156085D01*
X241929Y156214D01*
X241919Y156242D01*
X241915Y156271D01*
X241863Y156424D01*
X241535Y157215D01*
X241535Y160285D01*
X242710Y163120D01*
X244880Y165290D01*
X247715Y166465D01*
X250785Y166465D01*
X253620Y165290D01*
X255790Y163120D01*
X256965Y160285D01*
X256965Y157215D01*
X255790Y154380D01*
X253620Y152210D01*
X250785Y151035D01*
X247715Y151035D01*
X246924Y151363D01*
X246895Y151371D01*
X246869Y151384D01*
X246742Y151413D01*
X246617Y151447D01*
X246587Y151448D01*
X246559Y151454D01*
X246429Y151450D01*
X246299Y151452D01*
X246270Y151445D01*
X246241Y151444D01*
X246116Y151408D01*
X245990Y151378D01*
X245964Y151364D01*
X245935Y151356D01*
X245823Y151290D01*
X245709Y151229D01*
X245687Y151210D01*
X245661Y151195D01*
X245540Y151088D01*
X225416Y130964D01*
X225356Y130886D01*
X225288Y130814D01*
X225259Y130761D01*
X225222Y130713D01*
X225182Y130622D01*
X225134Y130535D01*
X225119Y130477D01*
X225095Y130421D01*
X225080Y130323D01*
X225055Y130227D01*
X225049Y130127D01*
X225045Y130107D01*
X225047Y130095D01*
X225045Y130067D01*
X225045Y81392D01*
X210708Y67055D01*
X194087Y67055D01*
G37*
%LPD*%
%LPC*%
G36*
X242428Y100235D02*
X242428Y100235D01*
X241535Y101128D01*
X241535Y114772D01*
X242428Y115665D01*
X256072Y115665D01*
X256379Y115358D01*
X256473Y115285D01*
X256562Y115206D01*
X256598Y115187D01*
X256630Y115163D01*
X256739Y115115D01*
X256845Y115061D01*
X256885Y115052D01*
X256922Y115036D01*
X257040Y115018D01*
X257156Y114992D01*
X257196Y114993D01*
X257236Y114986D01*
X257354Y114998D01*
X257473Y115001D01*
X257512Y115013D01*
X257552Y115016D01*
X257665Y115057D01*
X257779Y115090D01*
X257814Y115110D01*
X257852Y115124D01*
X257950Y115191D01*
X258053Y115251D01*
X258098Y115291D01*
X258115Y115302D01*
X258128Y115318D01*
X258174Y115358D01*
X289442Y146625D01*
X289502Y146704D01*
X289570Y146776D01*
X289599Y146829D01*
X289636Y146877D01*
X289676Y146968D01*
X289724Y147054D01*
X289739Y147113D01*
X289763Y147169D01*
X289778Y147267D01*
X289803Y147362D01*
X289809Y147462D01*
X289813Y147483D01*
X289811Y147495D01*
X289813Y147523D01*
X289813Y166897D01*
X289796Y167035D01*
X289783Y167173D01*
X289776Y167192D01*
X289773Y167212D01*
X289722Y167341D01*
X289675Y167472D01*
X289664Y167489D01*
X289656Y167508D01*
X289575Y167620D01*
X289497Y167735D01*
X289481Y167749D01*
X289470Y167765D01*
X289362Y167854D01*
X289258Y167946D01*
X289240Y167955D01*
X289225Y167968D01*
X289099Y168027D01*
X288975Y168091D01*
X288955Y168095D01*
X288937Y168104D01*
X288800Y168130D01*
X288665Y168160D01*
X288644Y168160D01*
X288625Y168163D01*
X288486Y168155D01*
X288347Y168151D01*
X288327Y168145D01*
X288307Y168144D01*
X288175Y168101D01*
X288041Y168062D01*
X288024Y168052D01*
X288005Y168046D01*
X287887Y167971D01*
X287767Y167901D01*
X287746Y167882D01*
X287736Y167875D01*
X287722Y167860D01*
X287647Y167794D01*
X286536Y166684D01*
X256912Y137060D01*
X256894Y137036D01*
X256871Y137017D01*
X256797Y136911D01*
X256717Y136808D01*
X256705Y136781D01*
X256688Y136757D01*
X256642Y136636D01*
X256591Y136516D01*
X256586Y136487D01*
X256576Y136460D01*
X256561Y136331D01*
X256541Y136202D01*
X256544Y136173D01*
X256540Y136144D01*
X256558Y136015D01*
X256571Y135886D01*
X256581Y135858D01*
X256585Y135829D01*
X256637Y135676D01*
X256965Y134885D01*
X256965Y131815D01*
X255790Y128980D01*
X253620Y126810D01*
X250785Y125635D01*
X247715Y125635D01*
X244880Y126810D01*
X242710Y128980D01*
X241535Y131815D01*
X241535Y134885D01*
X242710Y137720D01*
X244880Y139890D01*
X247715Y141065D01*
X250785Y141065D01*
X251576Y140737D01*
X251605Y140729D01*
X251631Y140716D01*
X251758Y140687D01*
X251883Y140653D01*
X251913Y140652D01*
X251941Y140646D01*
X252071Y140650D01*
X252201Y140648D01*
X252230Y140655D01*
X252259Y140656D01*
X252384Y140692D01*
X252510Y140722D01*
X252536Y140736D01*
X252565Y140744D01*
X252677Y140810D01*
X252791Y140871D01*
X252813Y140890D01*
X252839Y140905D01*
X252960Y141012D01*
X282584Y170636D01*
X282644Y170714D01*
X282712Y170786D01*
X282741Y170839D01*
X282778Y170887D01*
X282818Y170978D01*
X282866Y171065D01*
X282881Y171123D01*
X282905Y171179D01*
X282920Y171277D01*
X282945Y171373D01*
X282951Y171473D01*
X282955Y171493D01*
X282953Y171505D01*
X282955Y171533D01*
X282955Y337708D01*
X284964Y339716D01*
X333384Y388136D01*
X333444Y388214D01*
X333512Y388286D01*
X333541Y388339D01*
X333578Y388387D01*
X333618Y388478D01*
X333666Y388565D01*
X333681Y388623D01*
X333705Y388679D01*
X333720Y388777D01*
X333745Y388873D01*
X333751Y388973D01*
X333755Y388993D01*
X333753Y389005D01*
X333755Y389033D01*
X333755Y433641D01*
X333752Y433671D01*
X333754Y433700D01*
X333732Y433828D01*
X333715Y433957D01*
X333705Y433984D01*
X333700Y434013D01*
X333646Y434132D01*
X333598Y434253D01*
X333581Y434276D01*
X333569Y434303D01*
X333488Y434405D01*
X333412Y434510D01*
X333389Y434529D01*
X333370Y434552D01*
X333267Y434630D01*
X333167Y434713D01*
X333140Y434725D01*
X333116Y434743D01*
X332972Y434814D01*
X331370Y435477D01*
X328797Y438050D01*
X327405Y441411D01*
X327405Y460289D01*
X328797Y463650D01*
X331370Y466223D01*
X334731Y467615D01*
X338369Y467615D01*
X341730Y466223D01*
X344303Y463650D01*
X345695Y460289D01*
X345695Y441411D01*
X344303Y438050D01*
X341730Y435477D01*
X340128Y434814D01*
X340103Y434799D01*
X340075Y434790D01*
X339965Y434721D01*
X339852Y434656D01*
X339831Y434636D01*
X339806Y434620D01*
X339717Y434525D01*
X339624Y434435D01*
X339608Y434410D01*
X339588Y434388D01*
X339525Y434275D01*
X339457Y434164D01*
X339449Y434136D01*
X339434Y434110D01*
X339402Y433984D01*
X339364Y433860D01*
X339362Y433831D01*
X339355Y433802D01*
X339345Y433641D01*
X339345Y386192D01*
X337336Y384184D01*
X288916Y335764D01*
X288856Y335686D01*
X288788Y335614D01*
X288759Y335561D01*
X288722Y335513D01*
X288682Y335422D01*
X288634Y335335D01*
X288619Y335277D01*
X288595Y335221D01*
X288580Y335123D01*
X288555Y335027D01*
X288549Y334927D01*
X288545Y334907D01*
X288547Y334895D01*
X288545Y334867D01*
X288545Y193243D01*
X288562Y193105D01*
X288575Y192967D01*
X288582Y192948D01*
X288585Y192927D01*
X288636Y192798D01*
X288683Y192667D01*
X288694Y192650D01*
X288702Y192632D01*
X288783Y192519D01*
X288861Y192404D01*
X288877Y192391D01*
X288888Y192374D01*
X288996Y192286D01*
X289100Y192194D01*
X289118Y192184D01*
X289133Y192172D01*
X289259Y192112D01*
X289383Y192049D01*
X289403Y192045D01*
X289421Y192036D01*
X289558Y192010D01*
X289693Y191979D01*
X289714Y191980D01*
X289733Y191976D01*
X289872Y191985D01*
X290011Y191989D01*
X290031Y191995D01*
X290051Y191996D01*
X290183Y192039D01*
X290317Y192077D01*
X290334Y192088D01*
X290353Y192094D01*
X290471Y192168D01*
X290591Y192239D01*
X290612Y192258D01*
X290622Y192264D01*
X290636Y192279D01*
X290711Y192345D01*
X291524Y193158D01*
X291525Y193158D01*
X322903Y224537D01*
X400755Y224537D01*
X400785Y224540D01*
X400814Y224538D01*
X400942Y224560D01*
X401071Y224577D01*
X401098Y224587D01*
X401127Y224593D01*
X401246Y224646D01*
X401366Y224694D01*
X401390Y224711D01*
X401417Y224723D01*
X401519Y224804D01*
X401624Y224880D01*
X401643Y224903D01*
X401666Y224922D01*
X401744Y225025D01*
X401827Y225125D01*
X401839Y225152D01*
X401857Y225176D01*
X401892Y225246D01*
X403394Y226749D01*
X405344Y227557D01*
X407456Y227557D01*
X409406Y226749D01*
X410899Y225256D01*
X411707Y223306D01*
X411707Y221194D01*
X410899Y219244D01*
X409406Y217751D01*
X407456Y216943D01*
X405344Y216943D01*
X403394Y217751D01*
X401891Y219254D01*
X401834Y219343D01*
X401770Y219456D01*
X401750Y219477D01*
X401734Y219502D01*
X401639Y219591D01*
X401549Y219684D01*
X401524Y219700D01*
X401502Y219720D01*
X401389Y219783D01*
X401278Y219851D01*
X401250Y219859D01*
X401224Y219874D01*
X401098Y219906D01*
X400974Y219944D01*
X400944Y219946D01*
X400916Y219953D01*
X400755Y219963D01*
X325323Y219963D01*
X325225Y219951D01*
X325126Y219948D01*
X325068Y219931D01*
X325007Y219923D01*
X324915Y219887D01*
X324820Y219859D01*
X324768Y219829D01*
X324712Y219806D01*
X324632Y219748D01*
X324546Y219698D01*
X324471Y219632D01*
X324454Y219620D01*
X324447Y219610D01*
X324425Y219592D01*
X320428Y215594D01*
X320385Y215538D01*
X320335Y215490D01*
X320288Y215413D01*
X320233Y215342D01*
X320205Y215278D01*
X320168Y215219D01*
X320142Y215133D01*
X320106Y215051D01*
X320095Y214981D01*
X320075Y214915D01*
X320071Y214825D01*
X320056Y214736D01*
X320063Y214667D01*
X320060Y214597D01*
X320078Y214509D01*
X320086Y214420D01*
X320110Y214354D01*
X320124Y214286D01*
X320163Y214205D01*
X320194Y214121D01*
X320233Y214063D01*
X320264Y214000D01*
X320322Y213932D01*
X320372Y213857D01*
X320425Y213811D01*
X320470Y213758D01*
X320543Y213706D01*
X320611Y213647D01*
X320673Y213615D01*
X320730Y213575D01*
X320814Y213543D01*
X320894Y213502D01*
X320962Y213487D01*
X321027Y213462D01*
X321117Y213452D01*
X321204Y213433D01*
X321274Y213435D01*
X321344Y213427D01*
X321433Y213440D01*
X321522Y213442D01*
X321589Y213462D01*
X321658Y213471D01*
X321811Y213524D01*
X322031Y213615D01*
X325669Y213615D01*
X329030Y212223D01*
X331603Y209650D01*
X332995Y206289D01*
X332995Y187411D01*
X331603Y184050D01*
X329030Y181477D01*
X325669Y180085D01*
X322031Y180085D01*
X318670Y181477D01*
X316097Y184050D01*
X314705Y187411D01*
X314705Y206289D01*
X314796Y206509D01*
X314815Y206576D01*
X314843Y206641D01*
X314857Y206729D01*
X314880Y206816D01*
X314882Y206886D01*
X314892Y206955D01*
X314884Y207044D01*
X314885Y207134D01*
X314869Y207202D01*
X314863Y207271D01*
X314832Y207356D01*
X314811Y207443D01*
X314779Y207505D01*
X314755Y207571D01*
X314705Y207645D01*
X314663Y207724D01*
X314616Y207776D01*
X314576Y207834D01*
X314509Y207893D01*
X314449Y207960D01*
X314390Y207998D01*
X314338Y208044D01*
X314258Y208085D01*
X314183Y208134D01*
X314117Y208157D01*
X314055Y208189D01*
X313967Y208208D01*
X313882Y208238D01*
X313813Y208243D01*
X313745Y208258D01*
X313655Y208256D01*
X313565Y208263D01*
X313496Y208251D01*
X313427Y208249D01*
X313340Y208224D01*
X313252Y208208D01*
X313188Y208180D01*
X313121Y208160D01*
X313044Y208115D01*
X312962Y208078D01*
X312907Y208034D01*
X312847Y207999D01*
X312726Y207892D01*
X294758Y189925D01*
X294698Y189846D01*
X294630Y189774D01*
X294601Y189721D01*
X294564Y189673D01*
X294524Y189582D01*
X294476Y189496D01*
X294461Y189437D01*
X294437Y189381D01*
X294422Y189283D01*
X294397Y189188D01*
X294391Y189088D01*
X294387Y189067D01*
X294389Y189055D01*
X294387Y189027D01*
X294387Y145103D01*
X257336Y108053D01*
X257276Y107974D01*
X257208Y107902D01*
X257179Y107849D01*
X257142Y107801D01*
X257102Y107710D01*
X257054Y107624D01*
X257039Y107565D01*
X257015Y107509D01*
X257000Y107411D01*
X256975Y107316D01*
X256969Y107216D01*
X256965Y107195D01*
X256967Y107183D01*
X256965Y107155D01*
X256965Y101128D01*
X256072Y100235D01*
X242428Y100235D01*
G37*
%LPD*%
%LPC*%
G36*
X168315Y151035D02*
X168315Y151035D01*
X165480Y152210D01*
X163310Y154380D01*
X162135Y157215D01*
X162135Y160285D01*
X163310Y163120D01*
X165480Y165290D01*
X168315Y166465D01*
X171385Y166465D01*
X172176Y166137D01*
X172205Y166129D01*
X172231Y166116D01*
X172358Y166087D01*
X172483Y166053D01*
X172513Y166052D01*
X172541Y166046D01*
X172671Y166050D01*
X172801Y166048D01*
X172830Y166055D01*
X172859Y166056D01*
X172984Y166092D01*
X173110Y166122D01*
X173136Y166136D01*
X173165Y166144D01*
X173277Y166210D01*
X173391Y166271D01*
X173413Y166290D01*
X173439Y166305D01*
X173560Y166412D01*
X217384Y210236D01*
X217444Y210314D01*
X217512Y210386D01*
X217541Y210439D01*
X217578Y210487D01*
X217618Y210578D01*
X217666Y210665D01*
X217681Y210723D01*
X217705Y210779D01*
X217720Y210877D01*
X217745Y210973D01*
X217751Y211073D01*
X217755Y211093D01*
X217753Y211105D01*
X217755Y211133D01*
X217755Y321708D01*
X226834Y330786D01*
X226894Y330864D01*
X226962Y330936D01*
X226991Y330989D01*
X227028Y331037D01*
X227068Y331128D01*
X227116Y331215D01*
X227131Y331273D01*
X227155Y331329D01*
X227170Y331427D01*
X227195Y331523D01*
X227201Y331623D01*
X227205Y331643D01*
X227203Y331655D01*
X227205Y331683D01*
X227205Y388317D01*
X227193Y388415D01*
X227190Y388514D01*
X227173Y388572D01*
X227165Y388632D01*
X227129Y388724D01*
X227101Y388819D01*
X227071Y388872D01*
X227048Y388928D01*
X226990Y389008D01*
X226940Y389093D01*
X226874Y389169D01*
X226862Y389185D01*
X226852Y389193D01*
X226834Y389214D01*
X217205Y398842D01*
X217205Y434816D01*
X217193Y434915D01*
X217190Y435014D01*
X217173Y435072D01*
X217165Y435132D01*
X217129Y435224D01*
X217101Y435319D01*
X217071Y435371D01*
X217048Y435428D01*
X216990Y435508D01*
X216940Y435593D01*
X216874Y435668D01*
X216862Y435685D01*
X216852Y435693D01*
X216834Y435714D01*
X214497Y438050D01*
X213105Y441411D01*
X213105Y460289D01*
X214497Y463650D01*
X217070Y466223D01*
X220431Y467615D01*
X224069Y467615D01*
X227430Y466223D01*
X230003Y463650D01*
X231395Y460289D01*
X231395Y441411D01*
X230003Y438050D01*
X227430Y435477D01*
X224069Y434085D01*
X224064Y434085D01*
X223946Y434070D01*
X223827Y434063D01*
X223789Y434050D01*
X223748Y434045D01*
X223638Y434002D01*
X223525Y433965D01*
X223490Y433943D01*
X223453Y433928D01*
X223357Y433859D01*
X223256Y433795D01*
X223228Y433765D01*
X223195Y433742D01*
X223119Y433650D01*
X223038Y433563D01*
X223018Y433528D01*
X222993Y433497D01*
X222942Y433389D01*
X222884Y433285D01*
X222874Y433245D01*
X222857Y433209D01*
X222835Y433092D01*
X222805Y432977D01*
X222801Y432917D01*
X222797Y432897D01*
X222799Y432876D01*
X222795Y432816D01*
X222795Y401683D01*
X222807Y401585D01*
X222810Y401486D01*
X222827Y401428D01*
X222835Y401368D01*
X222871Y401276D01*
X222899Y401181D01*
X222929Y401128D01*
X222952Y401072D01*
X223010Y400992D01*
X223060Y400907D01*
X223126Y400831D01*
X223138Y400815D01*
X223148Y400807D01*
X223166Y400786D01*
X232795Y391158D01*
X232795Y328842D01*
X223716Y319764D01*
X223656Y319686D01*
X223588Y319614D01*
X223559Y319561D01*
X223522Y319513D01*
X223482Y319422D01*
X223434Y319335D01*
X223419Y319277D01*
X223395Y319221D01*
X223380Y319123D01*
X223355Y319027D01*
X223349Y318927D01*
X223345Y318907D01*
X223347Y318895D01*
X223345Y318867D01*
X223345Y208292D01*
X221336Y206284D01*
X177512Y162460D01*
X177494Y162436D01*
X177471Y162417D01*
X177397Y162311D01*
X177317Y162208D01*
X177305Y162181D01*
X177288Y162157D01*
X177242Y162036D01*
X177191Y161916D01*
X177186Y161887D01*
X177176Y161860D01*
X177161Y161731D01*
X177141Y161602D01*
X177144Y161573D01*
X177140Y161544D01*
X177158Y161415D01*
X177171Y161286D01*
X177181Y161258D01*
X177185Y161229D01*
X177237Y161076D01*
X177565Y160285D01*
X177565Y157215D01*
X176390Y154380D01*
X174220Y152210D01*
X171385Y151035D01*
X168315Y151035D01*
G37*
%LPD*%
%LPC*%
G36*
X285492Y522339D02*
X285492Y522339D01*
X277164Y525789D01*
X270789Y532164D01*
X267339Y540492D01*
X267339Y549508D01*
X270789Y557836D01*
X277164Y564211D01*
X280620Y565642D01*
X280723Y565701D01*
X280830Y565754D01*
X280861Y565780D01*
X280896Y565800D01*
X280981Y565883D01*
X281072Y565960D01*
X281095Y565993D01*
X281124Y566021D01*
X281186Y566123D01*
X281255Y566220D01*
X281269Y566258D01*
X281291Y566292D01*
X281326Y566406D01*
X281368Y566517D01*
X281372Y566558D01*
X281384Y566596D01*
X281390Y566715D01*
X281403Y566833D01*
X281397Y566873D01*
X281399Y566914D01*
X281375Y567031D01*
X281359Y567148D01*
X281339Y567205D01*
X281335Y567225D01*
X281326Y567244D01*
X281307Y567301D01*
X280935Y568197D01*
X280935Y571803D01*
X282315Y575135D01*
X284865Y577685D01*
X288197Y579065D01*
X291803Y579065D01*
X295135Y577685D01*
X297685Y575135D01*
X299065Y571803D01*
X299065Y568197D01*
X298693Y567301D01*
X298662Y567186D01*
X298623Y567073D01*
X298620Y567033D01*
X298610Y566994D01*
X298608Y566875D01*
X298598Y566756D01*
X298605Y566716D01*
X298604Y566676D01*
X298632Y566560D01*
X298653Y566443D01*
X298669Y566406D01*
X298679Y566367D01*
X298734Y566261D01*
X298783Y566153D01*
X298808Y566121D01*
X298827Y566086D01*
X298907Y565997D01*
X298982Y565904D01*
X299014Y565880D01*
X299041Y565850D01*
X299141Y565785D01*
X299236Y565713D01*
X299290Y565687D01*
X299307Y565675D01*
X299326Y565669D01*
X299380Y565642D01*
X302836Y564211D01*
X309211Y557836D01*
X312661Y549508D01*
X312661Y540492D01*
X309211Y532164D01*
X302836Y525789D01*
X294508Y522339D01*
X285492Y522339D01*
G37*
%LPD*%
%LPC*%
G36*
X145492Y522339D02*
X145492Y522339D01*
X137164Y525789D01*
X130789Y532164D01*
X127339Y540492D01*
X127339Y549508D01*
X130789Y557836D01*
X137164Y564211D01*
X140620Y565642D01*
X140723Y565701D01*
X140830Y565754D01*
X140861Y565780D01*
X140896Y565800D01*
X140981Y565883D01*
X141072Y565960D01*
X141095Y565993D01*
X141124Y566021D01*
X141186Y566123D01*
X141255Y566220D01*
X141269Y566258D01*
X141291Y566292D01*
X141326Y566406D01*
X141368Y566517D01*
X141372Y566558D01*
X141384Y566596D01*
X141390Y566715D01*
X141403Y566833D01*
X141397Y566873D01*
X141399Y566914D01*
X141375Y567031D01*
X141359Y567148D01*
X141339Y567205D01*
X141335Y567225D01*
X141326Y567244D01*
X141307Y567301D01*
X140935Y568197D01*
X140935Y571803D01*
X142315Y575135D01*
X144865Y577685D01*
X148197Y579065D01*
X151803Y579065D01*
X155135Y577685D01*
X157685Y575135D01*
X159065Y571803D01*
X159065Y568197D01*
X158693Y567301D01*
X158662Y567186D01*
X158623Y567073D01*
X158620Y567033D01*
X158610Y566994D01*
X158608Y566875D01*
X158598Y566756D01*
X158605Y566716D01*
X158604Y566676D01*
X158632Y566560D01*
X158653Y566443D01*
X158669Y566406D01*
X158679Y566367D01*
X158734Y566261D01*
X158783Y566153D01*
X158808Y566121D01*
X158827Y566086D01*
X158907Y565997D01*
X158982Y565904D01*
X159014Y565880D01*
X159041Y565850D01*
X159141Y565785D01*
X159236Y565713D01*
X159290Y565687D01*
X159307Y565675D01*
X159326Y565669D01*
X159380Y565642D01*
X162836Y564211D01*
X169211Y557836D01*
X172661Y549508D01*
X172661Y540492D01*
X169211Y532164D01*
X162836Y525789D01*
X154508Y522339D01*
X145492Y522339D01*
G37*
%LPD*%
%LPC*%
G36*
X111211Y340105D02*
X111211Y340105D01*
X107850Y341497D01*
X105277Y344070D01*
X103885Y347431D01*
X103885Y351069D01*
X105277Y354430D01*
X107850Y357003D01*
X111211Y358395D01*
X130089Y358395D01*
X133450Y357003D01*
X136023Y354430D01*
X137415Y351069D01*
X137415Y347431D01*
X136023Y344070D01*
X133450Y341497D01*
X130089Y340105D01*
X111211Y340105D01*
G37*
%LPD*%
%LPC*%
G36*
X111211Y365505D02*
X111211Y365505D01*
X107850Y366897D01*
X105277Y369470D01*
X103885Y372831D01*
X103885Y376469D01*
X105277Y379830D01*
X107850Y382403D01*
X111211Y383795D01*
X130089Y383795D01*
X133450Y382403D01*
X136023Y379830D01*
X137415Y376469D01*
X137415Y372831D01*
X136023Y369470D01*
X133450Y366897D01*
X130089Y365505D01*
X111211Y365505D01*
G37*
%LPD*%
%LPC*%
G36*
X111211Y390905D02*
X111211Y390905D01*
X107850Y392297D01*
X105277Y394870D01*
X103885Y398231D01*
X103885Y401869D01*
X105277Y405230D01*
X107850Y407803D01*
X111211Y409195D01*
X130089Y409195D01*
X133450Y407803D01*
X136023Y405230D01*
X137415Y401869D01*
X137415Y398231D01*
X136023Y394870D01*
X133450Y392297D01*
X130089Y390905D01*
X111211Y390905D01*
G37*
%LPD*%
%LPC*%
G36*
X111211Y416305D02*
X111211Y416305D01*
X107850Y417697D01*
X105277Y420270D01*
X103885Y423631D01*
X103885Y427269D01*
X105277Y430630D01*
X107850Y433203D01*
X111211Y434595D01*
X130089Y434595D01*
X133450Y433203D01*
X136023Y430630D01*
X137415Y427269D01*
X137415Y423631D01*
X136023Y420270D01*
X133450Y417697D01*
X130089Y416305D01*
X111211Y416305D01*
G37*
%LPD*%
%LPC*%
G36*
X322031Y91185D02*
X322031Y91185D01*
X318670Y92577D01*
X316097Y95150D01*
X314705Y98511D01*
X314705Y117389D01*
X316097Y120750D01*
X318670Y123323D01*
X322031Y124715D01*
X325669Y124715D01*
X329030Y123323D01*
X331603Y120750D01*
X332995Y117389D01*
X332995Y98511D01*
X331603Y95150D01*
X329030Y92577D01*
X325669Y91185D01*
X322031Y91185D01*
G37*
%LPD*%
%LPC*%
G36*
X85811Y98805D02*
X85811Y98805D01*
X82450Y100197D01*
X79877Y102770D01*
X78485Y106131D01*
X78485Y109769D01*
X79877Y113130D01*
X82450Y115703D01*
X85811Y117095D01*
X104689Y117095D01*
X108050Y115703D01*
X110623Y113130D01*
X112015Y109769D01*
X112015Y106131D01*
X110623Y102770D01*
X108050Y100197D01*
X104689Y98805D01*
X85811Y98805D01*
G37*
%LPD*%
%LPC*%
G36*
X263197Y510935D02*
X263197Y510935D01*
X259865Y512315D01*
X257315Y514865D01*
X255935Y518197D01*
X255935Y521803D01*
X257315Y525135D01*
X259865Y527685D01*
X263197Y529065D01*
X266803Y529065D01*
X270135Y527685D01*
X272685Y525135D01*
X274065Y521803D01*
X274065Y518197D01*
X272685Y514865D01*
X270135Y512315D01*
X266803Y510935D01*
X263197Y510935D01*
G37*
%LPD*%
%LPC*%
G36*
X168315Y176435D02*
X168315Y176435D01*
X165480Y177610D01*
X163310Y179780D01*
X162135Y182615D01*
X162135Y185685D01*
X163310Y188520D01*
X165480Y190690D01*
X168315Y191865D01*
X171385Y191865D01*
X174220Y190690D01*
X176390Y188520D01*
X177565Y185685D01*
X177565Y182615D01*
X176390Y179780D01*
X174220Y177610D01*
X171385Y176435D01*
X168315Y176435D01*
G37*
%LPD*%
%LPC*%
G36*
X168315Y125635D02*
X168315Y125635D01*
X165480Y126810D01*
X163310Y128980D01*
X162135Y131815D01*
X162135Y134885D01*
X163310Y137720D01*
X165480Y139890D01*
X168315Y141065D01*
X171385Y141065D01*
X174220Y139890D01*
X176390Y137720D01*
X177565Y134885D01*
X177565Y131815D01*
X176390Y128980D01*
X174220Y126810D01*
X171385Y125635D01*
X168315Y125635D01*
G37*
%LPD*%
%LPC*%
G36*
X351789Y110489D02*
X351789Y110489D01*
X351789Y125429D01*
X353150Y124986D01*
X354575Y124260D01*
X355799Y123371D01*
X355869Y123320D01*
X357000Y122189D01*
X357940Y120895D01*
X358666Y119470D01*
X359161Y117949D01*
X359411Y116370D01*
X359411Y110489D01*
X351789Y110489D01*
G37*
%LPD*%
%LPC*%
G36*
X351789Y199389D02*
X351789Y199389D01*
X351789Y214329D01*
X353150Y213886D01*
X354575Y213160D01*
X355869Y212220D01*
X357000Y211089D01*
X357940Y209795D01*
X358666Y208370D01*
X359161Y206849D01*
X359411Y205270D01*
X359411Y199389D01*
X351789Y199389D01*
G37*
%LPD*%
%LPC*%
G36*
X97789Y224789D02*
X97789Y224789D01*
X97789Y232411D01*
X103670Y232411D01*
X105249Y232161D01*
X106770Y231666D01*
X108195Y230940D01*
X109489Y230000D01*
X110620Y228869D01*
X111560Y227575D01*
X112286Y226150D01*
X112729Y224789D01*
X97789Y224789D01*
G37*
%LPD*%
%LPC*%
G36*
X199389Y453389D02*
X199389Y453389D01*
X199389Y468329D01*
X200750Y467886D01*
X202175Y467160D01*
X203469Y466220D01*
X204600Y465089D01*
X205540Y463795D01*
X206266Y462370D01*
X206761Y460849D01*
X207011Y459270D01*
X207011Y453389D01*
X199389Y453389D01*
G37*
%LPD*%
%LPC*%
G36*
X313689Y453389D02*
X313689Y453389D01*
X313689Y468329D01*
X315050Y467886D01*
X316475Y467160D01*
X317769Y466220D01*
X318900Y465089D01*
X319840Y463795D01*
X320566Y462370D01*
X321061Y460849D01*
X321311Y459270D01*
X321311Y453389D01*
X313689Y453389D01*
G37*
%LPD*%
%LPC*%
G36*
X123189Y326389D02*
X123189Y326389D01*
X123189Y334011D01*
X129070Y334011D01*
X130649Y333761D01*
X132170Y333266D01*
X133595Y332540D01*
X134889Y331600D01*
X136020Y330469D01*
X136960Y329175D01*
X137686Y327750D01*
X138129Y326389D01*
X123189Y326389D01*
G37*
%LPD*%
%LPC*%
G36*
X97789Y135889D02*
X97789Y135889D01*
X97789Y143511D01*
X103670Y143511D01*
X105249Y143261D01*
X106770Y142766D01*
X108195Y142040D01*
X109489Y141100D01*
X110620Y139969D01*
X111560Y138675D01*
X112286Y137250D01*
X112729Y135889D01*
X97789Y135889D01*
G37*
%LPD*%
%LPC*%
G36*
X103171Y326389D02*
X103171Y326389D01*
X103614Y327750D01*
X104340Y329175D01*
X105280Y330469D01*
X106411Y331600D01*
X107705Y332540D01*
X109130Y333266D01*
X110651Y333761D01*
X112230Y334011D01*
X118111Y334011D01*
X118111Y326389D01*
X103171Y326389D01*
G37*
%LPD*%
%LPC*%
G36*
X351789Y194311D02*
X351789Y194311D01*
X359411Y194311D01*
X359411Y188430D01*
X359161Y186851D01*
X358666Y185330D01*
X357940Y183905D01*
X357000Y182611D01*
X355869Y181480D01*
X354575Y180540D01*
X353150Y179814D01*
X351789Y179371D01*
X351789Y194311D01*
G37*
%LPD*%
%LPC*%
G36*
X77771Y135889D02*
X77771Y135889D01*
X78214Y137250D01*
X78940Y138675D01*
X79880Y139969D01*
X81011Y141100D01*
X82305Y142040D01*
X83730Y142766D01*
X85251Y143261D01*
X86830Y143511D01*
X92711Y143511D01*
X92711Y135889D01*
X77771Y135889D01*
G37*
%LPD*%
%LPC*%
G36*
X77771Y224789D02*
X77771Y224789D01*
X78214Y226150D01*
X78940Y227575D01*
X79880Y228869D01*
X81011Y230000D01*
X82305Y230940D01*
X83730Y231666D01*
X85251Y232161D01*
X86830Y232411D01*
X92711Y232411D01*
X92711Y224789D01*
X77771Y224789D01*
G37*
%LPD*%
%LPC*%
G36*
X351789Y105411D02*
X351789Y105411D01*
X359411Y105411D01*
X359411Y99530D01*
X359161Y97951D01*
X358666Y96430D01*
X357940Y95005D01*
X357000Y93711D01*
X355869Y92580D01*
X354575Y91640D01*
X353150Y90914D01*
X351789Y90471D01*
X351789Y105411D01*
G37*
%LPD*%
%LPC*%
G36*
X199389Y448311D02*
X199389Y448311D01*
X207011Y448311D01*
X207011Y442430D01*
X206761Y440851D01*
X206266Y439330D01*
X205540Y437905D01*
X204600Y436611D01*
X203469Y435480D01*
X202175Y434540D01*
X200750Y433814D01*
X199389Y433371D01*
X199389Y448311D01*
G37*
%LPD*%
%LPC*%
G36*
X313689Y448311D02*
X313689Y448311D01*
X321311Y448311D01*
X321311Y442430D01*
X321061Y440851D01*
X320566Y439330D01*
X319840Y437905D01*
X318900Y436611D01*
X317769Y435480D01*
X316475Y434540D01*
X315050Y433814D01*
X313689Y433371D01*
X313689Y448311D01*
G37*
%LPD*%
%LPC*%
G36*
X300989Y453389D02*
X300989Y453389D01*
X300989Y459270D01*
X301239Y460849D01*
X301734Y462370D01*
X302460Y463795D01*
X303400Y465089D01*
X304531Y466220D01*
X305825Y467160D01*
X307250Y467886D01*
X308611Y468329D01*
X308611Y453389D01*
X300989Y453389D01*
G37*
%LPD*%
%LPC*%
G36*
X123189Y313689D02*
X123189Y313689D01*
X123189Y321311D01*
X138129Y321311D01*
X137686Y319950D01*
X136960Y318525D01*
X136020Y317231D01*
X134889Y316100D01*
X133595Y315160D01*
X132170Y314434D01*
X130649Y313939D01*
X129070Y313689D01*
X123189Y313689D01*
G37*
%LPD*%
%LPC*%
G36*
X186689Y453389D02*
X186689Y453389D01*
X186689Y459270D01*
X186939Y460849D01*
X187434Y462370D01*
X188160Y463795D01*
X189100Y465089D01*
X190231Y466220D01*
X191525Y467160D01*
X192950Y467886D01*
X194311Y468329D01*
X194311Y453389D01*
X186689Y453389D01*
G37*
%LPD*%
%LPC*%
G36*
X97789Y123189D02*
X97789Y123189D01*
X97789Y130811D01*
X112729Y130811D01*
X112286Y129450D01*
X111560Y128025D01*
X110620Y126731D01*
X109489Y125600D01*
X108195Y124660D01*
X106770Y123934D01*
X105249Y123439D01*
X103670Y123189D01*
X97789Y123189D01*
G37*
%LPD*%
%LPC*%
G36*
X339089Y110489D02*
X339089Y110489D01*
X339089Y116370D01*
X339339Y117949D01*
X339834Y119470D01*
X340560Y120895D01*
X341500Y122189D01*
X342631Y123320D01*
X343925Y124260D01*
X345350Y124986D01*
X346711Y125429D01*
X346711Y110489D01*
X339089Y110489D01*
G37*
%LPD*%
%LPC*%
G36*
X97789Y212089D02*
X97789Y212089D01*
X97789Y219711D01*
X112729Y219711D01*
X112286Y218350D01*
X111560Y216925D01*
X110620Y215631D01*
X109489Y214500D01*
X108195Y213560D01*
X106770Y212834D01*
X105249Y212339D01*
X103670Y212089D01*
X97789Y212089D01*
G37*
%LPD*%
%LPC*%
G36*
X339089Y199389D02*
X339089Y199389D01*
X339089Y205270D01*
X339339Y206849D01*
X339834Y208370D01*
X340560Y209795D01*
X341500Y211089D01*
X342631Y212220D01*
X343925Y213160D01*
X345350Y213886D01*
X346711Y214329D01*
X346711Y199389D01*
X339089Y199389D01*
G37*
%LPD*%
%LPC*%
G36*
X112230Y313689D02*
X112230Y313689D01*
X110651Y313939D01*
X109130Y314434D01*
X107705Y315160D01*
X106809Y315810D01*
X106809Y315811D01*
X106411Y316100D01*
X105280Y317231D01*
X104340Y318525D01*
X103614Y319950D01*
X103171Y321311D01*
X118111Y321311D01*
X118111Y313689D01*
X112230Y313689D01*
G37*
%LPD*%
%LPC*%
G36*
X86830Y123189D02*
X86830Y123189D01*
X85251Y123439D01*
X83730Y123934D01*
X82305Y124660D01*
X81254Y125423D01*
X81011Y125600D01*
X79880Y126731D01*
X78940Y128025D01*
X78214Y129450D01*
X77771Y130811D01*
X92711Y130811D01*
X92711Y123189D01*
X86830Y123189D01*
G37*
%LPD*%
%LPC*%
G36*
X192950Y433814D02*
X192950Y433814D01*
X191525Y434540D01*
X190231Y435480D01*
X189100Y436611D01*
X188160Y437905D01*
X187434Y439330D01*
X186939Y440851D01*
X186689Y442430D01*
X186689Y448311D01*
X194311Y448311D01*
X194311Y433371D01*
X192950Y433814D01*
G37*
%LPD*%
%LPC*%
G36*
X307250Y433814D02*
X307250Y433814D01*
X305825Y434540D01*
X304531Y435480D01*
X303400Y436611D01*
X302460Y437905D01*
X301734Y439330D01*
X301239Y440851D01*
X300989Y442430D01*
X300989Y448311D01*
X308611Y448311D01*
X308611Y433371D01*
X307250Y433814D01*
G37*
%LPD*%
%LPC*%
G36*
X86830Y212089D02*
X86830Y212089D01*
X85251Y212339D01*
X83730Y212834D01*
X82305Y213560D01*
X81011Y214500D01*
X79880Y215631D01*
X78940Y216925D01*
X78214Y218350D01*
X77771Y219711D01*
X92711Y219711D01*
X92711Y212089D01*
X86830Y212089D01*
G37*
%LPD*%
%LPC*%
G36*
X345350Y179814D02*
X345350Y179814D01*
X343925Y180540D01*
X342631Y181480D01*
X341500Y182611D01*
X340560Y183905D01*
X339834Y185330D01*
X339339Y186851D01*
X339089Y188430D01*
X339089Y194311D01*
X346711Y194311D01*
X346711Y179371D01*
X345350Y179814D01*
G37*
%LPD*%
%LPC*%
G36*
X345350Y90914D02*
X345350Y90914D01*
X343925Y91640D01*
X342631Y92580D01*
X341500Y93711D01*
X340560Y95005D01*
X339834Y96430D01*
X339339Y97951D01*
X339089Y99530D01*
X339089Y105411D01*
X346711Y105411D01*
X346711Y90471D01*
X345350Y90914D01*
G37*
%LPD*%
%LPC*%
G36*
X177499Y522499D02*
X177499Y522499D01*
X177499Y529787D01*
X178870Y529342D01*
X180283Y528622D01*
X181567Y527689D01*
X182689Y526567D01*
X183622Y525283D01*
X184342Y523870D01*
X184787Y522499D01*
X177499Y522499D01*
G37*
%LPD*%
%LPC*%
G36*
X317499Y522499D02*
X317499Y522499D01*
X317499Y529787D01*
X318870Y529342D01*
X320283Y528622D01*
X321567Y527689D01*
X322689Y526567D01*
X323622Y525283D01*
X324342Y523870D01*
X324787Y522499D01*
X317499Y522499D01*
G37*
%LPD*%
%LPC*%
G36*
X165213Y522499D02*
X165213Y522499D01*
X165658Y523870D01*
X166378Y525283D01*
X167311Y526567D01*
X168433Y527689D01*
X169717Y528622D01*
X171130Y529342D01*
X172501Y529787D01*
X172501Y522499D01*
X165213Y522499D01*
G37*
%LPD*%
%LPC*%
G36*
X177499Y517501D02*
X177499Y517501D01*
X184787Y517501D01*
X184342Y516130D01*
X183622Y514717D01*
X182689Y513433D01*
X181567Y512311D01*
X180283Y511378D01*
X178870Y510658D01*
X177499Y510213D01*
X177499Y517501D01*
G37*
%LPD*%
%LPC*%
G36*
X317499Y517501D02*
X317499Y517501D01*
X324787Y517501D01*
X324342Y516130D01*
X323622Y514717D01*
X322689Y513433D01*
X321567Y512311D01*
X320283Y511378D01*
X318870Y510658D01*
X317499Y510213D01*
X317499Y517501D01*
G37*
%LPD*%
%LPC*%
G36*
X305213Y522499D02*
X305213Y522499D01*
X305658Y523870D01*
X306378Y525283D01*
X307311Y526567D01*
X308433Y527689D01*
X309717Y528622D01*
X311130Y529342D01*
X312501Y529787D01*
X312501Y522499D01*
X305213Y522499D01*
G37*
%LPD*%
%LPC*%
G36*
X171130Y510658D02*
X171130Y510658D01*
X169717Y511378D01*
X168433Y512311D01*
X167311Y513433D01*
X166378Y514717D01*
X165658Y516130D01*
X165213Y517501D01*
X172501Y517501D01*
X172501Y510213D01*
X171130Y510658D01*
G37*
%LPD*%
%LPC*%
G36*
X311130Y510658D02*
X311130Y510658D01*
X309717Y511378D01*
X308433Y512311D01*
X307311Y513433D01*
X306378Y514717D01*
X305658Y516130D01*
X305213Y517501D01*
X312501Y517501D01*
X312501Y510213D01*
X311130Y510658D01*
G37*
%LPD*%
%LPC*%
G36*
X251074Y185974D02*
X251074Y185974D01*
X251074Y192689D01*
X251797Y192545D01*
X253386Y191887D01*
X254815Y190932D01*
X256032Y189715D01*
X256987Y188286D01*
X257645Y186697D01*
X257789Y185974D01*
X251074Y185974D01*
G37*
%LPD*%
%LPC*%
G36*
X240711Y185974D02*
X240711Y185974D01*
X240855Y186697D01*
X241513Y188286D01*
X242468Y189715D01*
X243685Y190932D01*
X245114Y191887D01*
X246703Y192545D01*
X247426Y192689D01*
X247426Y185974D01*
X240711Y185974D01*
G37*
%LPD*%
%LPC*%
G36*
X251074Y182326D02*
X251074Y182326D01*
X257789Y182326D01*
X257645Y181603D01*
X256987Y180014D01*
X256032Y178585D01*
X254815Y177368D01*
X253386Y176413D01*
X251797Y175755D01*
X251074Y175611D01*
X251074Y182326D01*
G37*
%LPD*%
%LPC*%
G36*
X246703Y175755D02*
X246703Y175755D01*
X245114Y176413D01*
X243685Y177368D01*
X242468Y178585D01*
X241513Y180014D01*
X240855Y181603D01*
X240711Y182326D01*
X247426Y182326D01*
X247426Y175611D01*
X246703Y175755D01*
G37*
%LPD*%
%LPC*%
G36*
X196849Y450849D02*
X196849Y450849D01*
X196849Y450851D01*
X196851Y450851D01*
X196851Y450849D01*
X196849Y450849D01*
G37*
%LPD*%
%LPC*%
G36*
X311149Y450849D02*
X311149Y450849D01*
X311149Y450851D01*
X311151Y450851D01*
X311151Y450849D01*
X311149Y450849D01*
G37*
%LPD*%
%LPC*%
G36*
X95249Y133349D02*
X95249Y133349D01*
X95249Y133351D01*
X95251Y133351D01*
X95251Y133349D01*
X95249Y133349D01*
G37*
%LPD*%
%LPC*%
G36*
X95249Y222249D02*
X95249Y222249D01*
X95249Y222251D01*
X95251Y222251D01*
X95251Y222249D01*
X95249Y222249D01*
G37*
%LPD*%
%LPC*%
G36*
X120649Y323849D02*
X120649Y323849D01*
X120649Y323851D01*
X120651Y323851D01*
X120651Y323849D01*
X120649Y323849D01*
G37*
%LPD*%
%LPC*%
G36*
X349249Y196849D02*
X349249Y196849D01*
X349249Y196851D01*
X349251Y196851D01*
X349251Y196849D01*
X349249Y196849D01*
G37*
%LPD*%
%LPC*%
G36*
X349249Y107949D02*
X349249Y107949D01*
X349249Y107951D01*
X349251Y107951D01*
X349251Y107949D01*
X349249Y107949D01*
G37*
%LPD*%
D10*
X249250Y107950D03*
D11*
X249250Y133350D03*
X249250Y158750D03*
X249250Y184150D03*
X169850Y184150D03*
X169850Y158750D03*
X169850Y133350D03*
X169850Y107950D03*
D12*
X323850Y100330D02*
X323850Y115570D01*
X349250Y115570D02*
X349250Y100330D01*
X323850Y189230D02*
X323850Y204470D01*
X349250Y204470D02*
X349250Y189230D01*
X196850Y443230D02*
X196850Y458470D01*
X222250Y458470D02*
X222250Y443230D01*
X311150Y443230D02*
X311150Y458470D01*
X336550Y458470D02*
X336550Y443230D01*
X128270Y298450D02*
X113030Y298450D01*
X113030Y323850D02*
X128270Y323850D01*
X128270Y349250D02*
X113030Y349250D01*
X113030Y374650D02*
X128270Y374650D01*
X128270Y400050D02*
X113030Y400050D01*
X113030Y425450D02*
X128270Y425450D01*
X102870Y196850D02*
X87630Y196850D01*
X87630Y222250D02*
X102870Y222250D01*
X102870Y107950D02*
X87630Y107950D01*
X87630Y133350D02*
X102870Y133350D01*
D13*
X125000Y520000D03*
X150000Y570000D03*
X175000Y520000D03*
X265000Y520000D03*
X290000Y570000D03*
X315000Y520000D03*
D14*
X133450Y463450D02*
X133350Y463550D01*
X133450Y463450D02*
X146050Y450850D01*
X146050Y311150D01*
X133350Y298450D01*
X120650Y298450D01*
X133350Y298450D02*
X171450Y260350D01*
X171450Y247650D01*
X171450Y234950D01*
X146050Y209550D01*
X146050Y131750D01*
X169850Y107950D01*
D15*
X171450Y247650D03*
D16*
X125000Y471900D02*
X125000Y520000D01*
X125000Y471900D02*
X133450Y463450D01*
D14*
X196850Y450850D02*
X222250Y476250D01*
X247650Y476250D01*
X285750Y476250D01*
X311150Y450850D01*
X95250Y222250D02*
X82550Y234950D01*
X82550Y260350D01*
X82550Y298450D01*
X107950Y323850D01*
X120650Y323850D01*
X69850Y158750D02*
X95250Y133350D01*
X69850Y158750D02*
X69850Y247650D01*
X82550Y260350D01*
X247650Y438150D02*
X247650Y476250D01*
X293088Y392712D02*
X293088Y369288D01*
X285750Y361950D01*
X247650Y323850D01*
X247650Y185750D01*
X249250Y184150D01*
X293088Y392712D02*
X247650Y438150D01*
D15*
X285750Y361950D03*
D14*
X349250Y196850D02*
X400050Y196850D01*
X438150Y158750D01*
X463550Y158750D01*
X476250Y158750D01*
X501650Y133350D01*
X501650Y120650D01*
X361950Y95250D02*
X349250Y107950D01*
X476250Y95250D02*
X501650Y120650D01*
X476250Y95250D02*
X361950Y95250D01*
D15*
X463550Y158750D03*
D14*
X374650Y450850D02*
X361950Y450850D01*
X349250Y463550D01*
X349250Y476250D01*
X336550Y488950D01*
X323850Y488950D01*
X317450Y482550D01*
X312450Y477550D01*
X311150Y476250D01*
X311150Y450850D01*
D15*
X374650Y450850D03*
D16*
X315000Y480100D02*
X312450Y477550D01*
X317450Y517550D02*
X315000Y520000D01*
X317450Y517550D02*
X317450Y482550D01*
X120650Y323850D02*
X80000Y364500D01*
X80000Y590000D01*
X90000Y600000D01*
X180000Y600000D01*
X200000Y580000D01*
X200000Y530000D02*
X190000Y520000D01*
X175000Y520000D01*
X200000Y530000D02*
X200000Y580000D01*
X175000Y520000D02*
X180000Y515000D01*
X180000Y460000D01*
X189150Y450850D01*
X196850Y450850D01*
D17*
X323850Y222250D02*
X406400Y222250D01*
X323850Y222250D02*
X292100Y190500D01*
X292100Y146050D01*
X254000Y107950D01*
X249250Y107950D01*
D15*
X406400Y222250D03*
D18*
X249250Y158750D02*
X222250Y131750D01*
X222250Y82550D01*
X209550Y69850D01*
X195245Y69850D02*
X120650Y144445D01*
X120650Y184150D01*
X107950Y196850D01*
X95250Y196850D01*
X195245Y69850D02*
X209550Y69850D01*
X249250Y133350D02*
X285750Y169850D01*
X285750Y336550D02*
X336550Y387350D01*
X336550Y450850D01*
X285750Y336550D02*
X285750Y169850D01*
X220550Y209450D02*
X169850Y158750D01*
X220550Y209450D02*
X220550Y320550D01*
X230000Y330000D01*
X230000Y390000D01*
X220000Y400000D01*
X220000Y448600D01*
X222250Y450850D01*
M02*
