G04 EAGLE Gerber RS-274X export*
G75*
%MOMM*%
%FSLAX34Y34*%
%LPD*%
%INTop Copper*%
%IPPOS*%
%AMOC8*
5,1,8,0,0,1.08239X$1,22.5*%
G01*
%ADD10R,1.238000X1.238000*%
%ADD11C,1.238000*%
%ADD12C,1.524000*%
%ADD13R,0.950000X0.950000*%
%ADD14R,0.900000X1.450000*%
%ADD15R,1.450000X0.900000*%
%ADD16C,1.508000*%
%ADD17C,0.406400*%
%ADD18C,0.756400*%
%ADD19C,0.457200*%
%ADD20C,0.254000*%
%ADD21C,0.152400*%

G36*
X511444Y16528D02*
X511444Y16528D01*
X511583Y16541D01*
X511602Y16548D01*
X511622Y16551D01*
X511751Y16602D01*
X511882Y16649D01*
X511899Y16660D01*
X511918Y16668D01*
X512031Y16749D01*
X512146Y16827D01*
X512159Y16843D01*
X512175Y16854D01*
X512264Y16962D01*
X512356Y17066D01*
X512365Y17084D01*
X512378Y17099D01*
X512437Y17225D01*
X512501Y17349D01*
X512505Y17369D01*
X512514Y17387D01*
X512540Y17523D01*
X512570Y17659D01*
X512570Y17680D01*
X512574Y17699D01*
X512565Y17838D01*
X512561Y17977D01*
X512555Y17997D01*
X512554Y18017D01*
X512511Y18149D01*
X512472Y18283D01*
X512462Y18300D01*
X512456Y18319D01*
X512381Y18437D01*
X512311Y18557D01*
X512292Y18578D01*
X512286Y18588D01*
X512271Y18602D01*
X512204Y18677D01*
X507866Y23016D01*
X504224Y29323D01*
X502339Y36358D01*
X502339Y43642D01*
X504224Y50677D01*
X507866Y56984D01*
X513016Y62134D01*
X519323Y65776D01*
X526358Y67661D01*
X533642Y67661D01*
X540677Y65776D01*
X546735Y62278D01*
X546858Y62226D01*
X546977Y62170D01*
X547004Y62165D01*
X547029Y62154D01*
X547160Y62135D01*
X547290Y62110D01*
X547316Y62112D01*
X547343Y62108D01*
X547475Y62122D01*
X547607Y62130D01*
X547633Y62138D01*
X547659Y62141D01*
X547784Y62187D01*
X547909Y62228D01*
X547932Y62242D01*
X547958Y62252D01*
X548066Y62327D01*
X548178Y62398D01*
X548197Y62418D01*
X548219Y62433D01*
X548305Y62533D01*
X548396Y62630D01*
X548409Y62653D01*
X548427Y62674D01*
X548486Y62793D01*
X548550Y62908D01*
X548556Y62934D01*
X548568Y62959D01*
X548596Y63088D01*
X548629Y63216D01*
X548631Y63254D01*
X548635Y63270D01*
X548634Y63291D01*
X548639Y63377D01*
X548639Y606623D01*
X548623Y606754D01*
X548612Y606886D01*
X548603Y606912D01*
X548599Y606939D01*
X548551Y607062D01*
X548507Y607187D01*
X548492Y607209D01*
X548482Y607234D01*
X548405Y607341D01*
X548331Y607452D01*
X548311Y607470D01*
X548296Y607492D01*
X548193Y607576D01*
X548095Y607665D01*
X548071Y607677D01*
X548051Y607695D01*
X547931Y607751D01*
X547814Y607812D01*
X547787Y607819D01*
X547763Y607830D01*
X547633Y607855D01*
X547504Y607885D01*
X547477Y607885D01*
X547451Y607890D01*
X547319Y607882D01*
X547186Y607879D01*
X547160Y607872D01*
X547133Y607870D01*
X547007Y607829D01*
X546880Y607794D01*
X546845Y607777D01*
X546831Y607772D01*
X546812Y607760D01*
X546735Y607722D01*
X540677Y604224D01*
X533642Y602339D01*
X526358Y602339D01*
X519323Y604224D01*
X513016Y607866D01*
X507866Y613016D01*
X504224Y619323D01*
X502339Y626358D01*
X502339Y633642D01*
X504224Y640677D01*
X507866Y646984D01*
X508954Y648073D01*
X509039Y648182D01*
X509128Y648289D01*
X509137Y648308D01*
X509149Y648324D01*
X509205Y648451D01*
X509264Y648577D01*
X509268Y648597D01*
X509276Y648616D01*
X509298Y648754D01*
X509324Y648890D01*
X509322Y648910D01*
X509325Y648930D01*
X509312Y649069D01*
X509304Y649207D01*
X509298Y649226D01*
X509296Y649246D01*
X509248Y649378D01*
X509206Y649509D01*
X509195Y649527D01*
X509188Y649546D01*
X509110Y649661D01*
X509036Y649778D01*
X509021Y649792D01*
X509009Y649809D01*
X508905Y649901D01*
X508804Y649996D01*
X508786Y650006D01*
X508771Y650019D01*
X508647Y650082D01*
X508525Y650150D01*
X508506Y650155D01*
X508488Y650164D01*
X508352Y650194D01*
X508218Y650229D01*
X508189Y650231D01*
X508178Y650234D01*
X508157Y650233D01*
X508057Y650239D01*
X61943Y650239D01*
X61805Y650222D01*
X61667Y650209D01*
X61648Y650202D01*
X61628Y650199D01*
X61499Y650148D01*
X61367Y650101D01*
X61351Y650090D01*
X61332Y650082D01*
X61220Y650001D01*
X61104Y649923D01*
X61091Y649907D01*
X61075Y649896D01*
X60986Y649788D01*
X60894Y649684D01*
X60885Y649666D01*
X60872Y649651D01*
X60813Y649525D01*
X60749Y649401D01*
X60745Y649381D01*
X60736Y649363D01*
X60710Y649226D01*
X60680Y649091D01*
X60680Y649070D01*
X60676Y649051D01*
X60685Y648912D01*
X60689Y648773D01*
X60695Y648753D01*
X60696Y648733D01*
X60739Y648601D01*
X60778Y648467D01*
X60788Y648450D01*
X60794Y648431D01*
X60869Y648313D01*
X60939Y648193D01*
X60958Y648172D01*
X60964Y648162D01*
X60979Y648148D01*
X61046Y648073D01*
X62134Y646984D01*
X65776Y640677D01*
X67661Y633642D01*
X67661Y626358D01*
X65776Y619323D01*
X62134Y613016D01*
X56984Y607866D01*
X50677Y604224D01*
X43642Y602339D01*
X36358Y602339D01*
X29323Y604224D01*
X23016Y607866D01*
X18677Y612204D01*
X18568Y612290D01*
X18461Y612378D01*
X18442Y612387D01*
X18426Y612399D01*
X18298Y612455D01*
X18173Y612514D01*
X18153Y612518D01*
X18134Y612526D01*
X17996Y612548D01*
X17860Y612574D01*
X17840Y612572D01*
X17820Y612575D01*
X17681Y612562D01*
X17543Y612554D01*
X17524Y612548D01*
X17504Y612546D01*
X17372Y612498D01*
X17241Y612456D01*
X17223Y612445D01*
X17204Y612438D01*
X17089Y612360D01*
X16972Y612286D01*
X16958Y612271D01*
X16941Y612259D01*
X16849Y612155D01*
X16754Y612054D01*
X16744Y612036D01*
X16731Y612021D01*
X16667Y611897D01*
X16600Y611775D01*
X16595Y611756D01*
X16586Y611738D01*
X16556Y611602D01*
X16521Y611468D01*
X16519Y611439D01*
X16516Y611428D01*
X16517Y611407D01*
X16511Y611307D01*
X16511Y58693D01*
X16528Y58556D01*
X16541Y58417D01*
X16548Y58398D01*
X16551Y58378D01*
X16602Y58249D01*
X16649Y58118D01*
X16660Y58101D01*
X16668Y58082D01*
X16749Y57969D01*
X16827Y57854D01*
X16843Y57841D01*
X16854Y57825D01*
X16962Y57736D01*
X17066Y57644D01*
X17084Y57635D01*
X17099Y57622D01*
X17225Y57563D01*
X17349Y57499D01*
X17369Y57495D01*
X17387Y57486D01*
X17523Y57460D01*
X17659Y57430D01*
X17680Y57430D01*
X17699Y57426D01*
X17838Y57435D01*
X17977Y57439D01*
X17997Y57445D01*
X18017Y57446D01*
X18149Y57489D01*
X18283Y57528D01*
X18300Y57538D01*
X18319Y57544D01*
X18437Y57619D01*
X18557Y57689D01*
X18578Y57708D01*
X18588Y57714D01*
X18602Y57729D01*
X18677Y57796D01*
X23016Y62134D01*
X29323Y65776D01*
X36358Y67661D01*
X43642Y67661D01*
X50677Y65776D01*
X56984Y62134D01*
X62134Y56984D01*
X65776Y50677D01*
X67661Y43642D01*
X67661Y36358D01*
X65776Y29323D01*
X62134Y23016D01*
X57796Y18677D01*
X57710Y18568D01*
X57622Y18461D01*
X57613Y18442D01*
X57601Y18426D01*
X57545Y18298D01*
X57486Y18173D01*
X57482Y18153D01*
X57474Y18134D01*
X57452Y17996D01*
X57426Y17860D01*
X57428Y17840D01*
X57425Y17820D01*
X57438Y17681D01*
X57446Y17543D01*
X57452Y17524D01*
X57454Y17504D01*
X57502Y17372D01*
X57544Y17241D01*
X57555Y17223D01*
X57562Y17204D01*
X57640Y17089D01*
X57714Y16972D01*
X57729Y16958D01*
X57741Y16941D01*
X57845Y16849D01*
X57946Y16754D01*
X57964Y16744D01*
X57979Y16731D01*
X58103Y16667D01*
X58225Y16600D01*
X58244Y16595D01*
X58262Y16586D01*
X58398Y16556D01*
X58532Y16521D01*
X58561Y16519D01*
X58572Y16516D01*
X58593Y16517D01*
X58693Y16511D01*
X511307Y16511D01*
X511444Y16528D01*
G37*
%LPC*%
G36*
X94092Y41655D02*
X94092Y41655D01*
X41655Y94092D01*
X41655Y426608D01*
X55992Y440945D01*
X109108Y440945D01*
X115086Y434966D01*
X115164Y434906D01*
X115236Y434838D01*
X115289Y434809D01*
X115337Y434772D01*
X115428Y434732D01*
X115515Y434684D01*
X115573Y434669D01*
X115629Y434645D01*
X115727Y434630D01*
X115823Y434605D01*
X115923Y434599D01*
X115943Y434595D01*
X115955Y434597D01*
X115983Y434595D01*
X130089Y434595D01*
X133450Y433203D01*
X136023Y430630D01*
X136686Y429028D01*
X136701Y429003D01*
X136710Y428975D01*
X136779Y428865D01*
X136844Y428752D01*
X136864Y428731D01*
X136880Y428706D01*
X136975Y428617D01*
X137065Y428524D01*
X137090Y428508D01*
X137112Y428488D01*
X137225Y428425D01*
X137336Y428357D01*
X137364Y428349D01*
X137390Y428334D01*
X137516Y428302D01*
X137640Y428264D01*
X137669Y428262D01*
X137698Y428255D01*
X137859Y428245D01*
X147208Y428245D01*
X172236Y403216D01*
X172314Y403156D01*
X172386Y403088D01*
X172439Y403059D01*
X172487Y403022D01*
X172578Y402982D01*
X172665Y402934D01*
X172723Y402919D01*
X172779Y402895D01*
X172877Y402880D01*
X172973Y402855D01*
X173073Y402849D01*
X173093Y402845D01*
X173105Y402847D01*
X173133Y402845D01*
X286908Y402845D01*
X292795Y396958D01*
X292795Y381683D01*
X292807Y381585D01*
X292810Y381486D01*
X292827Y381428D01*
X292835Y381368D01*
X292871Y381276D01*
X292899Y381181D01*
X292929Y381128D01*
X292952Y381072D01*
X293010Y380992D01*
X293060Y380907D01*
X293126Y380831D01*
X293138Y380815D01*
X293148Y380807D01*
X293166Y380786D01*
X304036Y369916D01*
X304114Y369856D01*
X304186Y369788D01*
X304239Y369759D01*
X304287Y369722D01*
X304378Y369682D01*
X304465Y369634D01*
X304523Y369619D01*
X304579Y369595D01*
X304677Y369580D01*
X304773Y369555D01*
X304873Y369549D01*
X304893Y369545D01*
X304905Y369547D01*
X304933Y369545D01*
X307508Y369545D01*
X309516Y367536D01*
X311936Y365116D01*
X313945Y363108D01*
X313945Y353344D01*
X313960Y353226D01*
X313967Y353107D01*
X313980Y353069D01*
X313985Y353028D01*
X314028Y352918D01*
X314065Y352805D01*
X314087Y352770D01*
X314102Y352733D01*
X314171Y352637D01*
X314235Y352536D01*
X314265Y352508D01*
X314288Y352475D01*
X314380Y352399D01*
X314467Y352318D01*
X314502Y352298D01*
X314533Y352273D01*
X314641Y352222D01*
X314745Y352164D01*
X314785Y352154D01*
X314821Y352137D01*
X314938Y352115D01*
X315053Y352085D01*
X315113Y352081D01*
X315133Y352077D01*
X315154Y352079D01*
X315214Y352075D01*
X319032Y352075D01*
X319925Y351182D01*
X319925Y340614D01*
X319940Y340496D01*
X319947Y340377D01*
X319960Y340339D01*
X319965Y340298D01*
X320008Y340188D01*
X320045Y340075D01*
X320067Y340040D01*
X320082Y340003D01*
X320151Y339907D01*
X320215Y339806D01*
X320245Y339778D01*
X320268Y339745D01*
X320360Y339669D01*
X320447Y339588D01*
X320482Y339568D01*
X320513Y339543D01*
X320621Y339492D01*
X320725Y339434D01*
X320765Y339424D01*
X320801Y339407D01*
X320918Y339385D01*
X321033Y339355D01*
X321093Y339351D01*
X321113Y339347D01*
X321134Y339349D01*
X321194Y339345D01*
X328208Y339345D01*
X330216Y337336D01*
X375393Y292160D01*
X375502Y292075D01*
X375609Y291986D01*
X375628Y291977D01*
X375644Y291965D01*
X375772Y291909D01*
X375897Y291850D01*
X375917Y291847D01*
X375936Y291839D01*
X376074Y291817D01*
X376210Y291791D01*
X376230Y291792D01*
X376250Y291789D01*
X376389Y291802D01*
X376527Y291810D01*
X376546Y291817D01*
X376566Y291818D01*
X376698Y291866D01*
X376829Y291908D01*
X376847Y291919D01*
X376866Y291926D01*
X376981Y292004D01*
X377098Y292079D01*
X377112Y292093D01*
X377129Y292105D01*
X377221Y292209D01*
X377316Y292310D01*
X377326Y292328D01*
X377339Y292343D01*
X377403Y292467D01*
X377470Y292589D01*
X377475Y292608D01*
X377484Y292626D01*
X377514Y292762D01*
X377549Y292897D01*
X377551Y292925D01*
X377554Y292937D01*
X377553Y292957D01*
X377556Y293001D01*
X385101Y293001D01*
X385101Y288209D01*
X382407Y288209D01*
X382270Y288192D01*
X382131Y288179D01*
X382112Y288172D01*
X382092Y288169D01*
X381963Y288118D01*
X381832Y288071D01*
X381815Y288060D01*
X381796Y288052D01*
X381684Y287971D01*
X381569Y287893D01*
X381555Y287877D01*
X381539Y287866D01*
X381450Y287758D01*
X381358Y287654D01*
X381349Y287636D01*
X381336Y287621D01*
X381277Y287495D01*
X381213Y287371D01*
X381209Y287351D01*
X381200Y287333D01*
X381174Y287197D01*
X381144Y287061D01*
X381144Y287040D01*
X381141Y287021D01*
X381149Y286882D01*
X381153Y286743D01*
X381159Y286723D01*
X381160Y286703D01*
X381203Y286571D01*
X381242Y286437D01*
X381252Y286420D01*
X381258Y286401D01*
X381333Y286283D01*
X381403Y286163D01*
X381422Y286142D01*
X381429Y286132D01*
X381444Y286118D01*
X381510Y286043D01*
X384906Y282646D01*
X384984Y282586D01*
X385056Y282518D01*
X385109Y282489D01*
X385157Y282452D01*
X385248Y282412D01*
X385335Y282364D01*
X385393Y282349D01*
X385449Y282325D01*
X385547Y282310D01*
X385643Y282285D01*
X385743Y282279D01*
X385763Y282275D01*
X385775Y282277D01*
X385803Y282275D01*
X395232Y282275D01*
X396125Y281382D01*
X396125Y271118D01*
X395232Y270225D01*
X379468Y270225D01*
X378575Y271118D01*
X378575Y280547D01*
X378563Y280645D01*
X378560Y280744D01*
X378543Y280802D01*
X378535Y280862D01*
X378499Y280954D01*
X378471Y281049D01*
X378441Y281102D01*
X378418Y281158D01*
X378360Y281238D01*
X378310Y281323D01*
X378244Y281399D01*
X378232Y281415D01*
X378222Y281423D01*
X378204Y281444D01*
X326264Y333384D01*
X326186Y333444D01*
X326114Y333512D01*
X326061Y333541D01*
X326013Y333578D01*
X325922Y333618D01*
X325835Y333666D01*
X325777Y333681D01*
X325721Y333705D01*
X325623Y333720D01*
X325527Y333745D01*
X325427Y333751D01*
X325407Y333755D01*
X325395Y333753D01*
X325367Y333755D01*
X322094Y333755D01*
X321969Y333739D01*
X321843Y333730D01*
X321811Y333720D01*
X321778Y333715D01*
X321661Y333669D01*
X321542Y333629D01*
X321514Y333611D01*
X321482Y333598D01*
X321380Y333524D01*
X321275Y333456D01*
X321252Y333431D01*
X321225Y333412D01*
X321145Y333315D01*
X321060Y333222D01*
X321044Y333193D01*
X321022Y333167D01*
X320969Y333053D01*
X320909Y332942D01*
X320901Y332909D01*
X320887Y332879D01*
X320863Y332756D01*
X320833Y332633D01*
X320833Y332600D01*
X320827Y332567D01*
X320835Y332441D01*
X320836Y332315D01*
X320845Y332267D01*
X320847Y332249D01*
X320853Y332229D01*
X320868Y332157D01*
X320941Y331884D01*
X320941Y329299D01*
X312130Y329299D01*
X312012Y329284D01*
X311893Y329277D01*
X311855Y329264D01*
X311815Y329259D01*
X311704Y329216D01*
X311591Y329179D01*
X311557Y329157D01*
X311519Y329142D01*
X311423Y329073D01*
X311322Y329009D01*
X311294Y328979D01*
X311262Y328956D01*
X311186Y328864D01*
X311154Y328830D01*
X311149Y328838D01*
X311119Y328866D01*
X311095Y328899D01*
X311004Y328975D01*
X310917Y329056D01*
X310882Y329076D01*
X310850Y329101D01*
X310743Y329152D01*
X310638Y329210D01*
X310599Y329220D01*
X310563Y329237D01*
X310446Y329259D01*
X310330Y329289D01*
X310270Y329293D01*
X310250Y329297D01*
X310230Y329295D01*
X310170Y329299D01*
X301359Y329299D01*
X301359Y331884D01*
X301432Y332157D01*
X301450Y332282D01*
X301473Y332406D01*
X301471Y332439D01*
X301476Y332472D01*
X301461Y332598D01*
X301453Y332723D01*
X301443Y332755D01*
X301439Y332788D01*
X301394Y332906D01*
X301355Y333025D01*
X301337Y333054D01*
X301325Y333085D01*
X301252Y333188D01*
X301185Y333294D01*
X301161Y333317D01*
X301141Y333345D01*
X301045Y333426D01*
X300954Y333512D01*
X300924Y333528D01*
X300898Y333550D01*
X300785Y333605D01*
X300675Y333666D01*
X300642Y333674D01*
X300612Y333689D01*
X300489Y333714D01*
X300367Y333745D01*
X300318Y333748D01*
X300300Y333752D01*
X300279Y333751D01*
X300206Y333755D01*
X300133Y333755D01*
X300035Y333743D01*
X299936Y333740D01*
X299878Y333723D01*
X299818Y333715D01*
X299726Y333679D01*
X299631Y333651D01*
X299578Y333621D01*
X299522Y333598D01*
X299442Y333540D01*
X299357Y333490D01*
X299281Y333424D01*
X299265Y333412D01*
X299257Y333402D01*
X299236Y333384D01*
X288916Y323064D01*
X288856Y322986D01*
X288788Y322914D01*
X288759Y322861D01*
X288722Y322813D01*
X288682Y322722D01*
X288634Y322635D01*
X288619Y322577D01*
X288595Y322521D01*
X288580Y322423D01*
X288555Y322327D01*
X288549Y322227D01*
X288545Y322207D01*
X288547Y322195D01*
X288545Y322167D01*
X288545Y309992D01*
X274208Y295655D01*
X271294Y295655D01*
X271169Y295640D01*
X271043Y295630D01*
X271011Y295620D01*
X270978Y295615D01*
X270861Y295569D01*
X270742Y295529D01*
X270714Y295511D01*
X270682Y295498D01*
X270581Y295425D01*
X270475Y295356D01*
X270452Y295331D01*
X270425Y295312D01*
X270345Y295215D01*
X270260Y295122D01*
X270244Y295093D01*
X270222Y295067D01*
X270169Y294953D01*
X270109Y294842D01*
X270101Y294809D01*
X270087Y294779D01*
X270063Y294655D01*
X270033Y294533D01*
X270033Y294500D01*
X270027Y294467D01*
X270035Y294341D01*
X270036Y294215D01*
X270046Y294167D01*
X270047Y294149D01*
X270053Y294129D01*
X270068Y294057D01*
X270141Y293784D01*
X270141Y291199D01*
X261330Y291199D01*
X261212Y291184D01*
X261093Y291177D01*
X261055Y291164D01*
X261015Y291159D01*
X260904Y291116D01*
X260791Y291079D01*
X260757Y291057D01*
X260719Y291042D01*
X260623Y290973D01*
X260522Y290909D01*
X260494Y290879D01*
X260462Y290856D01*
X260386Y290764D01*
X260354Y290730D01*
X260349Y290738D01*
X260319Y290766D01*
X260295Y290799D01*
X260204Y290875D01*
X260117Y290956D01*
X260082Y290976D01*
X260050Y291001D01*
X259943Y291052D01*
X259838Y291110D01*
X259799Y291120D01*
X259763Y291137D01*
X259646Y291159D01*
X259530Y291189D01*
X259470Y291193D01*
X259450Y291197D01*
X259430Y291195D01*
X259370Y291199D01*
X250559Y291199D01*
X250559Y293784D01*
X250632Y294057D01*
X250650Y294182D01*
X250673Y294306D01*
X250671Y294339D01*
X250676Y294373D01*
X250661Y294498D01*
X250653Y294623D01*
X250643Y294655D01*
X250639Y294688D01*
X250594Y294806D01*
X250555Y294925D01*
X250537Y294954D01*
X250525Y294985D01*
X250453Y295088D01*
X250385Y295194D01*
X250361Y295217D01*
X250341Y295245D01*
X250245Y295326D01*
X250154Y295412D01*
X250124Y295428D01*
X250098Y295450D01*
X249985Y295505D01*
X249875Y295566D01*
X249842Y295574D01*
X249812Y295589D01*
X249689Y295614D01*
X249567Y295645D01*
X249518Y295648D01*
X249500Y295652D01*
X249479Y295651D01*
X249406Y295655D01*
X246492Y295655D01*
X232155Y309992D01*
X232155Y360267D01*
X232143Y360365D01*
X232140Y360464D01*
X232123Y360522D01*
X232115Y360582D01*
X232079Y360674D01*
X232051Y360769D01*
X232021Y360822D01*
X231998Y360878D01*
X231940Y360958D01*
X231890Y361043D01*
X231824Y361119D01*
X231812Y361135D01*
X231802Y361143D01*
X231784Y361164D01*
X221464Y371484D01*
X221386Y371544D01*
X221314Y371612D01*
X221261Y371641D01*
X221213Y371678D01*
X221122Y371718D01*
X221035Y371766D01*
X220977Y371781D01*
X220921Y371805D01*
X220823Y371820D01*
X220727Y371845D01*
X220627Y371851D01*
X220607Y371855D01*
X220595Y371853D01*
X220567Y371855D01*
X185833Y371855D01*
X185735Y371843D01*
X185636Y371840D01*
X185578Y371823D01*
X185518Y371815D01*
X185426Y371779D01*
X185331Y371751D01*
X185278Y371721D01*
X185222Y371698D01*
X185142Y371640D01*
X185057Y371590D01*
X184981Y371524D01*
X184965Y371512D01*
X184957Y371502D01*
X184936Y371484D01*
X158040Y344588D01*
X157980Y344510D01*
X157912Y344438D01*
X157883Y344385D01*
X157846Y344337D01*
X157806Y344246D01*
X157758Y344159D01*
X157743Y344101D01*
X157719Y344045D01*
X157704Y343947D01*
X157679Y343851D01*
X157673Y343751D01*
X157669Y343731D01*
X157671Y343719D01*
X157669Y343691D01*
X157669Y200809D01*
X157681Y200711D01*
X157684Y200612D01*
X157701Y200554D01*
X157709Y200494D01*
X157745Y200402D01*
X157773Y200307D01*
X157803Y200254D01*
X157826Y200198D01*
X157884Y200118D01*
X157934Y200033D01*
X158000Y199957D01*
X158012Y199941D01*
X158022Y199933D01*
X158040Y199912D01*
X166140Y191812D01*
X166164Y191794D01*
X166183Y191771D01*
X166289Y191697D01*
X166392Y191617D01*
X166419Y191605D01*
X166443Y191588D01*
X166564Y191542D01*
X166684Y191491D01*
X166713Y191486D01*
X166740Y191476D01*
X166869Y191461D01*
X166998Y191441D01*
X167027Y191444D01*
X167056Y191440D01*
X167185Y191458D01*
X167314Y191471D01*
X167342Y191481D01*
X167371Y191485D01*
X167524Y191537D01*
X168315Y191865D01*
X171385Y191865D01*
X174220Y190690D01*
X176390Y188520D01*
X177565Y185685D01*
X177565Y182615D01*
X176390Y179780D01*
X174220Y177610D01*
X171991Y176687D01*
X171931Y176652D01*
X171866Y176626D01*
X171793Y176574D01*
X171715Y176529D01*
X171665Y176481D01*
X171608Y176440D01*
X171551Y176370D01*
X171487Y176308D01*
X171450Y176248D01*
X171406Y176195D01*
X171367Y176113D01*
X171320Y176037D01*
X171300Y175970D01*
X171270Y175907D01*
X171253Y175819D01*
X171227Y175733D01*
X171223Y175663D01*
X171210Y175594D01*
X171216Y175505D01*
X171212Y175415D01*
X171226Y175347D01*
X171230Y175277D01*
X171258Y175192D01*
X171276Y175104D01*
X171307Y175041D01*
X171328Y174975D01*
X171376Y174899D01*
X171416Y174818D01*
X171461Y174765D01*
X171498Y174706D01*
X171564Y174644D01*
X171622Y174576D01*
X171679Y174536D01*
X171730Y174488D01*
X171809Y174445D01*
X171882Y174393D01*
X171947Y174368D01*
X172008Y174334D01*
X172095Y174312D01*
X172179Y174280D01*
X172249Y174272D01*
X172316Y174255D01*
X172477Y174245D01*
X198008Y174245D01*
X212345Y159908D01*
X212345Y149333D01*
X212357Y149235D01*
X212360Y149136D01*
X212377Y149078D01*
X212385Y149018D01*
X212421Y148926D01*
X212449Y148831D01*
X212479Y148778D01*
X212502Y148722D01*
X212560Y148642D01*
X212610Y148557D01*
X212676Y148481D01*
X212688Y148465D01*
X212698Y148457D01*
X212716Y148436D01*
X245116Y116036D01*
X245194Y115976D01*
X245266Y115908D01*
X245319Y115879D01*
X245367Y115842D01*
X245458Y115802D01*
X245545Y115754D01*
X245603Y115739D01*
X245659Y115715D01*
X245757Y115700D01*
X245853Y115675D01*
X245953Y115669D01*
X245973Y115665D01*
X245985Y115667D01*
X246013Y115665D01*
X256072Y115665D01*
X256965Y114772D01*
X256965Y101128D01*
X256072Y100235D01*
X242428Y100235D01*
X241535Y101128D01*
X241535Y111187D01*
X241523Y111285D01*
X241520Y111384D01*
X241503Y111442D01*
X241495Y111502D01*
X241459Y111594D01*
X241431Y111689D01*
X241401Y111742D01*
X241378Y111798D01*
X241320Y111878D01*
X241270Y111963D01*
X241204Y112039D01*
X241192Y112055D01*
X241182Y112063D01*
X241164Y112084D01*
X206755Y146492D01*
X206755Y157067D01*
X206743Y157165D01*
X206740Y157264D01*
X206723Y157322D01*
X206715Y157382D01*
X206679Y157474D01*
X206651Y157569D01*
X206621Y157622D01*
X206598Y157678D01*
X206540Y157758D01*
X206490Y157843D01*
X206424Y157919D01*
X206412Y157935D01*
X206402Y157943D01*
X206384Y157964D01*
X196064Y168284D01*
X195986Y168344D01*
X195914Y168412D01*
X195861Y168441D01*
X195813Y168478D01*
X195722Y168518D01*
X195635Y168566D01*
X195577Y168581D01*
X195521Y168605D01*
X195423Y168620D01*
X195327Y168645D01*
X195227Y168651D01*
X195207Y168655D01*
X195195Y168653D01*
X195167Y168655D01*
X172477Y168655D01*
X172408Y168647D01*
X172338Y168648D01*
X172251Y168627D01*
X172162Y168615D01*
X172097Y168590D01*
X172029Y168573D01*
X171949Y168531D01*
X171866Y168498D01*
X171809Y168457D01*
X171748Y168425D01*
X171681Y168364D01*
X171608Y168312D01*
X171564Y168258D01*
X171512Y168211D01*
X171463Y168136D01*
X171406Y168067D01*
X171376Y168003D01*
X171338Y167945D01*
X171308Y167860D01*
X171270Y167779D01*
X171257Y167710D01*
X171234Y167644D01*
X171227Y167555D01*
X171210Y167467D01*
X171215Y167397D01*
X171209Y167327D01*
X171225Y167239D01*
X171230Y167149D01*
X171252Y167083D01*
X171264Y167014D01*
X171300Y166932D01*
X171328Y166847D01*
X171365Y166788D01*
X171394Y166724D01*
X171450Y166654D01*
X171498Y166578D01*
X171549Y166530D01*
X171593Y166476D01*
X171665Y166421D01*
X171730Y166360D01*
X171791Y166326D01*
X171847Y166284D01*
X171991Y166213D01*
X174220Y165290D01*
X176390Y163120D01*
X177565Y160285D01*
X177565Y157215D01*
X176390Y154380D01*
X174220Y152210D01*
X171385Y151035D01*
X168315Y151035D01*
X165480Y152210D01*
X163711Y153978D01*
X163602Y154064D01*
X163495Y154152D01*
X163476Y154161D01*
X163460Y154173D01*
X163332Y154229D01*
X163207Y154288D01*
X163187Y154291D01*
X163168Y154300D01*
X163030Y154321D01*
X162894Y154347D01*
X162874Y154346D01*
X162854Y154349D01*
X162715Y154336D01*
X162577Y154328D01*
X162558Y154321D01*
X162538Y154320D01*
X162406Y154272D01*
X162275Y154230D01*
X162257Y154219D01*
X162238Y154212D01*
X162123Y154134D01*
X162006Y154060D01*
X161992Y154045D01*
X161975Y154033D01*
X161883Y153929D01*
X161788Y153828D01*
X161778Y153810D01*
X161765Y153795D01*
X161701Y153671D01*
X161634Y153549D01*
X161629Y153530D01*
X161620Y153512D01*
X161590Y153376D01*
X161555Y153241D01*
X161553Y153213D01*
X161550Y153201D01*
X161551Y153181D01*
X161545Y153081D01*
X161545Y139019D01*
X161562Y138882D01*
X161575Y138743D01*
X161582Y138724D01*
X161585Y138704D01*
X161636Y138575D01*
X161683Y138444D01*
X161694Y138427D01*
X161702Y138408D01*
X161783Y138296D01*
X161861Y138180D01*
X161877Y138167D01*
X161888Y138151D01*
X161996Y138062D01*
X162100Y137970D01*
X162118Y137961D01*
X162133Y137948D01*
X162259Y137889D01*
X162383Y137825D01*
X162403Y137821D01*
X162421Y137812D01*
X162558Y137786D01*
X162693Y137756D01*
X162714Y137756D01*
X162733Y137753D01*
X162872Y137761D01*
X163011Y137765D01*
X163031Y137771D01*
X163051Y137772D01*
X163183Y137815D01*
X163317Y137854D01*
X163334Y137864D01*
X163353Y137870D01*
X163471Y137945D01*
X163591Y138015D01*
X163612Y138034D01*
X163622Y138040D01*
X163636Y138055D01*
X163711Y138122D01*
X165480Y139890D01*
X168315Y141065D01*
X171385Y141065D01*
X174220Y139890D01*
X176390Y137720D01*
X176718Y136928D01*
X176733Y136903D01*
X176742Y136875D01*
X176811Y136765D01*
X176876Y136652D01*
X176896Y136631D01*
X176912Y136606D01*
X177007Y136517D01*
X177097Y136424D01*
X177122Y136408D01*
X177144Y136388D01*
X177258Y136325D01*
X177368Y136257D01*
X177396Y136249D01*
X177422Y136234D01*
X177548Y136202D01*
X177672Y136164D01*
X177702Y136162D01*
X177730Y136155D01*
X177891Y136145D01*
X183708Y136145D01*
X234136Y85716D01*
X234214Y85656D01*
X234286Y85588D01*
X234339Y85559D01*
X234387Y85522D01*
X234478Y85482D01*
X234565Y85434D01*
X234623Y85419D01*
X234679Y85395D01*
X234777Y85380D01*
X234873Y85355D01*
X234973Y85349D01*
X234993Y85345D01*
X235005Y85347D01*
X235033Y85345D01*
X274208Y85345D01*
X299236Y60316D01*
X299314Y60256D01*
X299386Y60188D01*
X299439Y60159D01*
X299487Y60122D01*
X299578Y60082D01*
X299665Y60034D01*
X299723Y60019D01*
X299779Y59995D01*
X299877Y59980D01*
X299973Y59955D01*
X300073Y59949D01*
X300093Y59945D01*
X300105Y59947D01*
X300133Y59945D01*
X398367Y59945D01*
X398465Y59957D01*
X398564Y59960D01*
X398622Y59977D01*
X398682Y59985D01*
X398774Y60021D01*
X398869Y60049D01*
X398922Y60079D01*
X398978Y60102D01*
X399058Y60160D01*
X399143Y60210D01*
X399219Y60276D01*
X399235Y60288D01*
X399243Y60298D01*
X399264Y60316D01*
X447684Y108736D01*
X447744Y108814D01*
X447812Y108886D01*
X447841Y108939D01*
X447878Y108987D01*
X447918Y109078D01*
X447966Y109165D01*
X447981Y109223D01*
X448005Y109279D01*
X448020Y109377D01*
X448045Y109473D01*
X448051Y109573D01*
X448055Y109593D01*
X448053Y109605D01*
X448055Y109633D01*
X448055Y194808D01*
X460354Y207106D01*
X460414Y207184D01*
X460482Y207256D01*
X460511Y207309D01*
X460548Y207357D01*
X460588Y207448D01*
X460636Y207535D01*
X460651Y207593D01*
X460675Y207649D01*
X460690Y207747D01*
X460715Y207843D01*
X460721Y207943D01*
X460725Y207963D01*
X460723Y207975D01*
X460725Y208003D01*
X460725Y217432D01*
X461618Y218325D01*
X471882Y218325D01*
X472775Y217432D01*
X472775Y201668D01*
X471882Y200775D01*
X462453Y200775D01*
X462355Y200763D01*
X462256Y200760D01*
X462198Y200743D01*
X462138Y200735D01*
X462046Y200699D01*
X461951Y200671D01*
X461898Y200641D01*
X461842Y200618D01*
X461762Y200560D01*
X461677Y200510D01*
X461601Y200444D01*
X461585Y200432D01*
X461577Y200422D01*
X461556Y200404D01*
X454016Y192864D01*
X453956Y192786D01*
X453888Y192714D01*
X453859Y192661D01*
X453822Y192613D01*
X453782Y192522D01*
X453734Y192435D01*
X453719Y192377D01*
X453695Y192321D01*
X453680Y192223D01*
X453655Y192127D01*
X453649Y192027D01*
X453645Y192007D01*
X453647Y191995D01*
X453645Y191967D01*
X453645Y106792D01*
X401208Y54355D01*
X297292Y54355D01*
X272264Y79384D01*
X272186Y79444D01*
X272114Y79512D01*
X272061Y79541D01*
X272013Y79578D01*
X271922Y79618D01*
X271835Y79666D01*
X271777Y79681D01*
X271721Y79705D01*
X271623Y79720D01*
X271527Y79745D01*
X271427Y79751D01*
X271407Y79755D01*
X271395Y79753D01*
X271367Y79755D01*
X232192Y79755D01*
X230184Y81764D01*
X201811Y110136D01*
X201702Y110221D01*
X201595Y110310D01*
X201576Y110319D01*
X201560Y110331D01*
X201432Y110387D01*
X201307Y110446D01*
X201287Y110449D01*
X201268Y110457D01*
X201130Y110479D01*
X200994Y110505D01*
X200974Y110504D01*
X200954Y110507D01*
X200815Y110494D01*
X200677Y110486D01*
X200658Y110479D01*
X200638Y110478D01*
X200506Y110430D01*
X200375Y110388D01*
X200357Y110377D01*
X200338Y110370D01*
X200223Y110292D01*
X200106Y110217D01*
X200092Y110203D01*
X200075Y110191D01*
X199983Y110087D01*
X199888Y109986D01*
X199878Y109968D01*
X199865Y109953D01*
X199801Y109829D01*
X199734Y109707D01*
X199729Y109688D01*
X199720Y109670D01*
X199690Y109534D01*
X199655Y109399D01*
X199653Y109371D01*
X199650Y109359D01*
X199651Y109339D01*
X199645Y109239D01*
X199645Y81392D01*
X159908Y41655D01*
X94092Y41655D01*
G37*
%LPD*%
G36*
X157165Y47257D02*
X157165Y47257D01*
X157264Y47260D01*
X157322Y47277D01*
X157382Y47285D01*
X157474Y47321D01*
X157569Y47349D01*
X157622Y47379D01*
X157678Y47402D01*
X157758Y47460D01*
X157843Y47510D01*
X157919Y47576D01*
X157935Y47588D01*
X157943Y47598D01*
X157964Y47616D01*
X193684Y83336D01*
X193744Y83414D01*
X193812Y83486D01*
X193841Y83539D01*
X193878Y83587D01*
X193918Y83678D01*
X193966Y83765D01*
X193981Y83823D01*
X194005Y83879D01*
X194020Y83977D01*
X194045Y84073D01*
X194051Y84173D01*
X194055Y84193D01*
X194053Y84205D01*
X194055Y84233D01*
X194055Y104667D01*
X194043Y104765D01*
X194040Y104864D01*
X194023Y104922D01*
X194015Y104982D01*
X193979Y105074D01*
X193951Y105169D01*
X193921Y105222D01*
X193898Y105278D01*
X193840Y105358D01*
X193790Y105443D01*
X193724Y105519D01*
X193712Y105535D01*
X193702Y105543D01*
X193684Y105564D01*
X192084Y107164D01*
X173560Y125688D01*
X173536Y125706D01*
X173517Y125729D01*
X173411Y125803D01*
X173308Y125883D01*
X173281Y125895D01*
X173257Y125912D01*
X173136Y125958D01*
X173016Y126009D01*
X172987Y126014D01*
X172960Y126024D01*
X172831Y126039D01*
X172702Y126059D01*
X172673Y126056D01*
X172644Y126060D01*
X172515Y126042D01*
X172386Y126029D01*
X172358Y126019D01*
X172329Y126015D01*
X172176Y125963D01*
X171385Y125635D01*
X168315Y125635D01*
X165480Y126810D01*
X163711Y128578D01*
X163602Y128664D01*
X163495Y128752D01*
X163476Y128761D01*
X163460Y128773D01*
X163332Y128829D01*
X163207Y128888D01*
X163187Y128891D01*
X163168Y128900D01*
X163030Y128921D01*
X162894Y128947D01*
X162874Y128946D01*
X162854Y128949D01*
X162715Y128936D01*
X162577Y128928D01*
X162558Y128921D01*
X162538Y128920D01*
X162406Y128872D01*
X162275Y128830D01*
X162257Y128819D01*
X162238Y128812D01*
X162123Y128734D01*
X162006Y128660D01*
X161992Y128645D01*
X161975Y128633D01*
X161883Y128529D01*
X161788Y128428D01*
X161778Y128410D01*
X161765Y128395D01*
X161701Y128271D01*
X161634Y128149D01*
X161629Y128130D01*
X161620Y128112D01*
X161590Y127976D01*
X161555Y127841D01*
X161553Y127813D01*
X161550Y127801D01*
X161551Y127781D01*
X161545Y127681D01*
X161545Y115056D01*
X161562Y114918D01*
X161575Y114780D01*
X161582Y114761D01*
X161585Y114741D01*
X161636Y114611D01*
X161683Y114480D01*
X161694Y114464D01*
X161702Y114445D01*
X161783Y114332D01*
X161861Y114217D01*
X161877Y114204D01*
X161888Y114187D01*
X161996Y114099D01*
X162100Y114007D01*
X162118Y113998D01*
X162133Y113985D01*
X162259Y113925D01*
X162383Y113862D01*
X162403Y113858D01*
X162421Y113849D01*
X162558Y113823D01*
X162693Y113793D01*
X162714Y113793D01*
X162733Y113789D01*
X162872Y113798D01*
X163011Y113802D01*
X163031Y113808D01*
X163051Y113809D01*
X163183Y113852D01*
X163317Y113891D01*
X163334Y113901D01*
X163353Y113907D01*
X163471Y113981D01*
X163591Y114052D01*
X163612Y114071D01*
X163622Y114077D01*
X163636Y114092D01*
X163712Y114159D01*
X164285Y114732D01*
X165714Y115687D01*
X167303Y116345D01*
X168026Y116489D01*
X168026Y108505D01*
X168041Y108387D01*
X168048Y108268D01*
X168060Y108230D01*
X168066Y108190D01*
X168109Y108079D01*
X168146Y107966D01*
X168160Y107944D01*
X168115Y107863D01*
X168105Y107824D01*
X168088Y107788D01*
X168066Y107671D01*
X168036Y107555D01*
X168032Y107495D01*
X168028Y107475D01*
X168030Y107455D01*
X168026Y107395D01*
X168026Y99411D01*
X167303Y99555D01*
X165714Y100213D01*
X164285Y101168D01*
X163712Y101741D01*
X163602Y101827D01*
X163495Y101915D01*
X163476Y101924D01*
X163460Y101936D01*
X163332Y101992D01*
X163207Y102051D01*
X163187Y102055D01*
X163168Y102063D01*
X163030Y102085D01*
X162894Y102111D01*
X162874Y102109D01*
X162854Y102113D01*
X162715Y102099D01*
X162577Y102091D01*
X162558Y102085D01*
X162538Y102083D01*
X162407Y102036D01*
X162275Y101993D01*
X162257Y101982D01*
X162238Y101975D01*
X162124Y101897D01*
X162006Y101823D01*
X161992Y101808D01*
X161975Y101797D01*
X161883Y101693D01*
X161788Y101591D01*
X161778Y101573D01*
X161765Y101558D01*
X161702Y101434D01*
X161634Y101313D01*
X161629Y101293D01*
X161620Y101275D01*
X161590Y101139D01*
X161555Y101005D01*
X161553Y100977D01*
X161550Y100965D01*
X161551Y100944D01*
X161545Y100844D01*
X161545Y68692D01*
X147208Y54355D01*
X119492Y54355D01*
X67055Y106792D01*
X67055Y248808D01*
X81392Y263145D01*
X93567Y263145D01*
X93665Y263157D01*
X93764Y263160D01*
X93822Y263177D01*
X93882Y263185D01*
X93974Y263221D01*
X94069Y263249D01*
X94122Y263279D01*
X94178Y263302D01*
X94258Y263360D01*
X94343Y263410D01*
X94419Y263476D01*
X94435Y263488D01*
X94443Y263498D01*
X94464Y263516D01*
X99450Y268502D01*
X99510Y268580D01*
X99578Y268652D01*
X99607Y268705D01*
X99644Y268753D01*
X99684Y268844D01*
X99732Y268931D01*
X99747Y268989D01*
X99771Y269045D01*
X99786Y269143D01*
X99811Y269239D01*
X99817Y269339D01*
X99821Y269359D01*
X99819Y269371D01*
X99821Y269399D01*
X99821Y392821D01*
X101830Y394830D01*
X103680Y396680D01*
X103698Y396703D01*
X103720Y396722D01*
X103795Y396828D01*
X103875Y396931D01*
X103886Y396958D01*
X103903Y396982D01*
X103949Y397104D01*
X104001Y397223D01*
X104006Y397252D01*
X104016Y397280D01*
X104031Y397408D01*
X104051Y397537D01*
X104048Y397566D01*
X104051Y397596D01*
X104033Y397724D01*
X104021Y397854D01*
X104011Y397881D01*
X104007Y397911D01*
X103955Y398063D01*
X103885Y398231D01*
X103885Y401869D01*
X105277Y405230D01*
X107850Y407803D01*
X111211Y409195D01*
X130089Y409195D01*
X133450Y407803D01*
X136023Y405230D01*
X136686Y403628D01*
X136701Y403603D01*
X136710Y403575D01*
X136779Y403465D01*
X136844Y403352D01*
X136864Y403331D01*
X136880Y403306D01*
X136975Y403217D01*
X137065Y403124D01*
X137090Y403108D01*
X137112Y403088D01*
X137225Y403025D01*
X137336Y402957D01*
X137364Y402949D01*
X137390Y402934D01*
X137516Y402902D01*
X137640Y402864D01*
X137669Y402862D01*
X137698Y402855D01*
X137859Y402845D01*
X159908Y402845D01*
X161916Y400836D01*
X179586Y383166D01*
X179664Y383106D01*
X179736Y383038D01*
X179789Y383009D01*
X179837Y382972D01*
X179928Y382932D01*
X180015Y382884D01*
X180073Y382869D01*
X180129Y382845D01*
X180227Y382830D01*
X180323Y382805D01*
X180423Y382799D01*
X180443Y382795D01*
X180455Y382797D01*
X180483Y382795D01*
X241158Y382795D01*
X250786Y373166D01*
X252795Y371158D01*
X252795Y319983D01*
X252807Y319885D01*
X252810Y319786D01*
X252827Y319728D01*
X252835Y319668D01*
X252871Y319576D01*
X252899Y319481D01*
X252929Y319428D01*
X252952Y319372D01*
X253010Y319292D01*
X253060Y319207D01*
X253126Y319131D01*
X253138Y319115D01*
X253148Y319107D01*
X253166Y319086D01*
X257906Y314346D01*
X257984Y314286D01*
X258056Y314218D01*
X258109Y314189D01*
X258157Y314152D01*
X258248Y314112D01*
X258335Y314064D01*
X258393Y314049D01*
X258449Y314025D01*
X258547Y314010D01*
X258643Y313985D01*
X258743Y313979D01*
X258763Y313975D01*
X258775Y313977D01*
X258803Y313975D01*
X268232Y313975D01*
X269125Y313082D01*
X269125Y302514D01*
X269140Y302396D01*
X269147Y302277D01*
X269160Y302239D01*
X269165Y302198D01*
X269208Y302088D01*
X269245Y301975D01*
X269267Y301940D01*
X269282Y301903D01*
X269351Y301807D01*
X269415Y301706D01*
X269445Y301678D01*
X269468Y301645D01*
X269560Y301569D01*
X269647Y301488D01*
X269682Y301468D01*
X269713Y301443D01*
X269821Y301392D01*
X269925Y301334D01*
X269965Y301324D01*
X270001Y301307D01*
X270118Y301285D01*
X270233Y301255D01*
X270293Y301251D01*
X270313Y301247D01*
X270334Y301249D01*
X270394Y301245D01*
X271367Y301245D01*
X271465Y301257D01*
X271564Y301260D01*
X271622Y301277D01*
X271682Y301285D01*
X271774Y301321D01*
X271869Y301349D01*
X271922Y301379D01*
X271978Y301402D01*
X272058Y301460D01*
X272143Y301510D01*
X272219Y301576D01*
X272235Y301588D01*
X272243Y301598D01*
X272264Y301616D01*
X282584Y311936D01*
X282644Y312014D01*
X282712Y312086D01*
X282741Y312139D01*
X282778Y312187D01*
X282818Y312278D01*
X282866Y312365D01*
X282881Y312423D01*
X282905Y312479D01*
X282920Y312577D01*
X282945Y312673D01*
X282951Y312773D01*
X282955Y312793D01*
X282953Y312805D01*
X282955Y312833D01*
X282955Y325008D01*
X297292Y339345D01*
X301106Y339345D01*
X301224Y339360D01*
X301343Y339367D01*
X301381Y339380D01*
X301422Y339385D01*
X301532Y339428D01*
X301645Y339465D01*
X301680Y339487D01*
X301717Y339502D01*
X301813Y339571D01*
X301914Y339635D01*
X301942Y339665D01*
X301975Y339688D01*
X302051Y339780D01*
X302132Y339867D01*
X302152Y339902D01*
X302177Y339933D01*
X302228Y340041D01*
X302286Y340145D01*
X302296Y340185D01*
X302313Y340221D01*
X302335Y340338D01*
X302365Y340453D01*
X302369Y340513D01*
X302373Y340533D01*
X302371Y340554D01*
X302375Y340614D01*
X302375Y351182D01*
X303268Y352075D01*
X307086Y352075D01*
X307204Y352090D01*
X307323Y352097D01*
X307361Y352110D01*
X307402Y352115D01*
X307512Y352158D01*
X307625Y352195D01*
X307660Y352217D01*
X307697Y352232D01*
X307793Y352301D01*
X307894Y352365D01*
X307922Y352395D01*
X307955Y352418D01*
X308031Y352510D01*
X308112Y352597D01*
X308132Y352632D01*
X308157Y352663D01*
X308208Y352771D01*
X308266Y352875D01*
X308276Y352915D01*
X308293Y352951D01*
X308315Y353068D01*
X308345Y353183D01*
X308349Y353243D01*
X308353Y353263D01*
X308351Y353284D01*
X308355Y353344D01*
X308355Y360267D01*
X308343Y360365D01*
X308340Y360464D01*
X308323Y360522D01*
X308315Y360582D01*
X308279Y360674D01*
X308251Y360769D01*
X308221Y360822D01*
X308198Y360878D01*
X308140Y360958D01*
X308090Y361043D01*
X308024Y361119D01*
X308012Y361135D01*
X308002Y361143D01*
X307984Y361164D01*
X305564Y363584D01*
X305486Y363644D01*
X305414Y363712D01*
X305361Y363741D01*
X305313Y363778D01*
X305222Y363818D01*
X305135Y363866D01*
X305077Y363881D01*
X305021Y363905D01*
X304923Y363920D01*
X304827Y363945D01*
X304727Y363951D01*
X304707Y363955D01*
X304695Y363953D01*
X304667Y363955D01*
X302092Y363955D01*
X287205Y378842D01*
X287205Y394117D01*
X287193Y394215D01*
X287190Y394314D01*
X287173Y394372D01*
X287165Y394432D01*
X287129Y394524D01*
X287101Y394619D01*
X287071Y394672D01*
X287048Y394728D01*
X286990Y394808D01*
X286940Y394893D01*
X286874Y394969D01*
X286862Y394985D01*
X286852Y394993D01*
X286834Y395014D01*
X284964Y396884D01*
X284886Y396944D01*
X284814Y397012D01*
X284761Y397041D01*
X284713Y397078D01*
X284622Y397118D01*
X284535Y397166D01*
X284477Y397181D01*
X284421Y397205D01*
X284323Y397220D01*
X284227Y397245D01*
X284127Y397251D01*
X284107Y397255D01*
X284095Y397253D01*
X284067Y397255D01*
X170292Y397255D01*
X145264Y422284D01*
X145186Y422344D01*
X145114Y422412D01*
X145061Y422441D01*
X145013Y422478D01*
X144922Y422518D01*
X144835Y422566D01*
X144777Y422581D01*
X144721Y422605D01*
X144623Y422620D01*
X144527Y422645D01*
X144427Y422651D01*
X144407Y422655D01*
X144395Y422653D01*
X144367Y422655D01*
X137859Y422655D01*
X137829Y422652D01*
X137800Y422654D01*
X137672Y422632D01*
X137543Y422615D01*
X137516Y422605D01*
X137487Y422600D01*
X137368Y422546D01*
X137247Y422498D01*
X137224Y422481D01*
X137197Y422469D01*
X137095Y422388D01*
X136990Y422312D01*
X136971Y422289D01*
X136948Y422270D01*
X136870Y422167D01*
X136787Y422067D01*
X136775Y422040D01*
X136757Y422016D01*
X136686Y421872D01*
X136023Y420270D01*
X133450Y417697D01*
X130089Y416305D01*
X111211Y416305D01*
X107850Y417697D01*
X105277Y420270D01*
X103885Y423631D01*
X103885Y427269D01*
X105277Y430630D01*
X107500Y432853D01*
X107573Y432947D01*
X107652Y433036D01*
X107670Y433072D01*
X107695Y433104D01*
X107742Y433213D01*
X107796Y433319D01*
X107805Y433359D01*
X107821Y433396D01*
X107840Y433513D01*
X107866Y433629D01*
X107865Y433670D01*
X107871Y433710D01*
X107860Y433828D01*
X107856Y433947D01*
X107845Y433986D01*
X107841Y434026D01*
X107801Y434139D01*
X107768Y434253D01*
X107747Y434288D01*
X107734Y434326D01*
X107667Y434424D01*
X107606Y434527D01*
X107567Y434572D01*
X107555Y434589D01*
X107540Y434602D01*
X107500Y434648D01*
X107164Y434984D01*
X107086Y435044D01*
X107014Y435112D01*
X106961Y435141D01*
X106913Y435178D01*
X106822Y435218D01*
X106735Y435266D01*
X106677Y435281D01*
X106621Y435305D01*
X106523Y435320D01*
X106427Y435345D01*
X106327Y435351D01*
X106307Y435355D01*
X106295Y435353D01*
X106267Y435355D01*
X58833Y435355D01*
X58735Y435343D01*
X58636Y435340D01*
X58578Y435323D01*
X58518Y435315D01*
X58426Y435279D01*
X58331Y435251D01*
X58278Y435221D01*
X58222Y435198D01*
X58142Y435140D01*
X58057Y435090D01*
X57981Y435024D01*
X57965Y435012D01*
X57957Y435002D01*
X57936Y434984D01*
X47616Y424664D01*
X47556Y424586D01*
X47488Y424514D01*
X47459Y424461D01*
X47422Y424413D01*
X47382Y424322D01*
X47334Y424235D01*
X47319Y424177D01*
X47295Y424121D01*
X47280Y424023D01*
X47255Y423927D01*
X47249Y423827D01*
X47245Y423807D01*
X47247Y423795D01*
X47245Y423767D01*
X47245Y96933D01*
X47257Y96835D01*
X47260Y96736D01*
X47277Y96678D01*
X47285Y96618D01*
X47321Y96526D01*
X47349Y96431D01*
X47379Y96378D01*
X47402Y96322D01*
X47460Y96242D01*
X47510Y96157D01*
X47576Y96081D01*
X47588Y96065D01*
X47598Y96057D01*
X47616Y96036D01*
X96036Y47616D01*
X96114Y47556D01*
X96186Y47488D01*
X96239Y47459D01*
X96287Y47422D01*
X96378Y47382D01*
X96465Y47334D01*
X96523Y47319D01*
X96579Y47295D01*
X96677Y47280D01*
X96773Y47255D01*
X96873Y47249D01*
X96893Y47245D01*
X96905Y47247D01*
X96933Y47245D01*
X157067Y47245D01*
X157165Y47257D01*
G37*
G36*
X131765Y72657D02*
X131765Y72657D01*
X131864Y72660D01*
X131922Y72677D01*
X131982Y72685D01*
X132074Y72721D01*
X132169Y72749D01*
X132222Y72779D01*
X132278Y72802D01*
X132358Y72860D01*
X132443Y72910D01*
X132519Y72976D01*
X132535Y72988D01*
X132543Y72998D01*
X132564Y73016D01*
X142884Y83336D01*
X142944Y83414D01*
X143012Y83486D01*
X143041Y83539D01*
X143078Y83587D01*
X143118Y83678D01*
X143166Y83765D01*
X143181Y83823D01*
X143205Y83879D01*
X143220Y83977D01*
X143245Y84073D01*
X143251Y84173D01*
X143255Y84193D01*
X143253Y84205D01*
X143255Y84233D01*
X143255Y172608D01*
X145584Y174936D01*
X145644Y175014D01*
X145712Y175086D01*
X145741Y175139D01*
X145778Y175187D01*
X145818Y175278D01*
X145866Y175365D01*
X145881Y175423D01*
X145905Y175479D01*
X145920Y175577D01*
X145945Y175673D01*
X145951Y175773D01*
X145955Y175793D01*
X145953Y175805D01*
X145955Y175833D01*
X145955Y357567D01*
X145943Y357665D01*
X145940Y357764D01*
X145923Y357822D01*
X145915Y357882D01*
X145879Y357974D01*
X145851Y358069D01*
X145821Y358122D01*
X145798Y358178D01*
X145740Y358258D01*
X145690Y358343D01*
X145624Y358419D01*
X145612Y358435D01*
X145602Y358443D01*
X145584Y358464D01*
X136198Y367850D01*
X136103Y367923D01*
X136014Y368002D01*
X135978Y368020D01*
X135946Y368045D01*
X135837Y368092D01*
X135731Y368146D01*
X135692Y368155D01*
X135655Y368171D01*
X135537Y368190D01*
X135421Y368216D01*
X135380Y368215D01*
X135340Y368221D01*
X135222Y368210D01*
X135103Y368206D01*
X135064Y368195D01*
X135024Y368191D01*
X134912Y368151D01*
X134797Y368118D01*
X134763Y368097D01*
X134725Y368084D01*
X134626Y368017D01*
X134523Y367956D01*
X134478Y367917D01*
X134461Y367905D01*
X134448Y367890D01*
X134403Y367850D01*
X133450Y366897D01*
X130089Y365505D01*
X111211Y365505D01*
X107850Y366897D01*
X107578Y367170D01*
X107468Y367255D01*
X107361Y367344D01*
X107342Y367352D01*
X107326Y367365D01*
X107199Y367420D01*
X107073Y367479D01*
X107053Y367483D01*
X107034Y367491D01*
X106897Y367513D01*
X106760Y367539D01*
X106740Y367538D01*
X106720Y367541D01*
X106581Y367528D01*
X106443Y367519D01*
X106424Y367513D01*
X106404Y367511D01*
X106272Y367464D01*
X106141Y367421D01*
X106124Y367411D01*
X106104Y367404D01*
X105989Y367326D01*
X105872Y367251D01*
X105858Y367236D01*
X105841Y367225D01*
X105749Y367121D01*
X105654Y367020D01*
X105644Y367002D01*
X105631Y366987D01*
X105567Y366863D01*
X105500Y366741D01*
X105495Y366722D01*
X105486Y366703D01*
X105456Y366567D01*
X105421Y366433D01*
X105419Y366405D01*
X105416Y366393D01*
X105417Y366373D01*
X105411Y366272D01*
X105411Y357628D01*
X105428Y357490D01*
X105441Y357351D01*
X105448Y357332D01*
X105451Y357312D01*
X105502Y357183D01*
X105549Y357052D01*
X105560Y357035D01*
X105568Y357016D01*
X105649Y356904D01*
X105727Y356789D01*
X105743Y356775D01*
X105754Y356759D01*
X105861Y356670D01*
X105966Y356578D01*
X105984Y356569D01*
X105999Y356556D01*
X106125Y356497D01*
X106249Y356434D01*
X106269Y356429D01*
X106287Y356421D01*
X106423Y356395D01*
X106559Y356364D01*
X106580Y356365D01*
X106599Y356361D01*
X106738Y356370D01*
X106877Y356374D01*
X106897Y356379D01*
X106917Y356381D01*
X107049Y356423D01*
X107183Y356462D01*
X107200Y356472D01*
X107219Y356479D01*
X107337Y356553D01*
X107457Y356624D01*
X107478Y356642D01*
X107488Y356649D01*
X107502Y356664D01*
X107578Y356730D01*
X107850Y357003D01*
X111211Y358395D01*
X130089Y358395D01*
X133450Y357003D01*
X136023Y354430D01*
X137415Y351069D01*
X137415Y347431D01*
X136554Y345354D01*
X136547Y345325D01*
X136533Y345299D01*
X136505Y345172D01*
X136470Y345047D01*
X136470Y345017D01*
X136463Y344989D01*
X136467Y344859D01*
X136465Y344729D01*
X136472Y344700D01*
X136473Y344671D01*
X136509Y344546D01*
X136539Y344420D01*
X136553Y344394D01*
X136561Y344365D01*
X136627Y344254D01*
X136688Y344139D01*
X136708Y344117D01*
X136723Y344091D01*
X136829Y343971D01*
X139470Y341330D01*
X141479Y339321D01*
X141479Y258155D01*
X122018Y238694D01*
X121957Y238616D01*
X121890Y238544D01*
X121860Y238491D01*
X121823Y238443D01*
X121784Y238352D01*
X121736Y238265D01*
X121721Y238207D01*
X121697Y238151D01*
X121681Y238053D01*
X121657Y237957D01*
X121650Y237857D01*
X121647Y237837D01*
X121648Y237825D01*
X121646Y237797D01*
X121646Y206594D01*
X112386Y197334D01*
X112326Y197256D01*
X112258Y197184D01*
X112229Y197131D01*
X112192Y197083D01*
X112152Y196992D01*
X112104Y196905D01*
X112089Y196847D01*
X112065Y196791D01*
X112050Y196693D01*
X112025Y196597D01*
X112019Y196497D01*
X112015Y196477D01*
X112017Y196465D01*
X112015Y196437D01*
X112015Y195031D01*
X110623Y191670D01*
X108050Y189097D01*
X104689Y187705D01*
X85811Y187705D01*
X82450Y189097D01*
X79877Y191670D01*
X78485Y195031D01*
X78485Y198669D01*
X79877Y202030D01*
X82450Y204603D01*
X85811Y205995D01*
X104689Y205995D01*
X108050Y204603D01*
X109003Y203650D01*
X109097Y203577D01*
X109186Y203498D01*
X109222Y203480D01*
X109254Y203455D01*
X109363Y203408D01*
X109469Y203354D01*
X109509Y203345D01*
X109546Y203329D01*
X109663Y203310D01*
X109779Y203284D01*
X109820Y203285D01*
X109860Y203279D01*
X109978Y203290D01*
X110097Y203294D01*
X110136Y203305D01*
X110176Y203309D01*
X110289Y203349D01*
X110403Y203382D01*
X110438Y203403D01*
X110476Y203416D01*
X110574Y203483D01*
X110677Y203544D01*
X110722Y203583D01*
X110739Y203595D01*
X110752Y203610D01*
X110798Y203650D01*
X115685Y208538D01*
X115746Y208616D01*
X115814Y208688D01*
X115836Y208728D01*
X115859Y208756D01*
X115866Y208770D01*
X115880Y208789D01*
X115920Y208880D01*
X115967Y208966D01*
X115978Y209009D01*
X115995Y209044D01*
X115998Y209061D01*
X116006Y209081D01*
X116022Y209179D01*
X116047Y209274D01*
X116051Y209337D01*
X116054Y209356D01*
X116053Y209375D01*
X116056Y209395D01*
X116055Y209407D01*
X116057Y209435D01*
X116057Y240638D01*
X135518Y260098D01*
X135578Y260177D01*
X135646Y260249D01*
X135675Y260302D01*
X135712Y260350D01*
X135752Y260441D01*
X135800Y260527D01*
X135815Y260586D01*
X135839Y260641D01*
X135854Y260739D01*
X135879Y260835D01*
X135885Y260935D01*
X135889Y260956D01*
X135887Y260968D01*
X135889Y260996D01*
X135889Y288935D01*
X135884Y288975D01*
X135887Y289015D01*
X135864Y289132D01*
X135849Y289251D01*
X135835Y289288D01*
X135827Y289327D01*
X135776Y289435D01*
X135732Y289547D01*
X135709Y289579D01*
X135692Y289615D01*
X135616Y289707D01*
X135546Y289804D01*
X135515Y289829D01*
X135490Y289860D01*
X135393Y289930D01*
X135301Y290007D01*
X135265Y290024D01*
X135232Y290047D01*
X135121Y290091D01*
X135013Y290142D01*
X134974Y290150D01*
X134937Y290164D01*
X134818Y290180D01*
X134701Y290202D01*
X134661Y290200D01*
X134621Y290205D01*
X134502Y290190D01*
X134383Y290182D01*
X134345Y290170D01*
X134306Y290165D01*
X134194Y290121D01*
X134081Y290084D01*
X134047Y290063D01*
X134010Y290048D01*
X133874Y289962D01*
X133595Y289760D01*
X132170Y289034D01*
X130649Y288539D01*
X129070Y288289D01*
X123189Y288289D01*
X123189Y297180D01*
X123174Y297298D01*
X123167Y297417D01*
X123154Y297455D01*
X123149Y297495D01*
X123106Y297606D01*
X123069Y297719D01*
X123047Y297753D01*
X123032Y297791D01*
X122962Y297887D01*
X122899Y297988D01*
X122869Y298016D01*
X122845Y298048D01*
X122754Y298124D01*
X122667Y298206D01*
X122632Y298225D01*
X122601Y298251D01*
X122493Y298302D01*
X122389Y298359D01*
X122349Y298370D01*
X122313Y298387D01*
X122196Y298409D01*
X122081Y298439D01*
X122020Y298443D01*
X122000Y298447D01*
X121980Y298445D01*
X121920Y298449D01*
X119380Y298449D01*
X119262Y298434D01*
X119143Y298427D01*
X119105Y298414D01*
X119064Y298409D01*
X118954Y298365D01*
X118841Y298329D01*
X118806Y298307D01*
X118769Y298292D01*
X118673Y298222D01*
X118572Y298159D01*
X118544Y298129D01*
X118511Y298105D01*
X118436Y298014D01*
X118354Y297927D01*
X118334Y297892D01*
X118309Y297860D01*
X118258Y297753D01*
X118200Y297648D01*
X118190Y297609D01*
X118173Y297573D01*
X118151Y297456D01*
X118121Y297341D01*
X118117Y297280D01*
X118113Y297260D01*
X118115Y297240D01*
X118111Y297180D01*
X118111Y288289D01*
X112230Y288289D01*
X110651Y288539D01*
X109130Y289034D01*
X107705Y289760D01*
X107426Y289962D01*
X107391Y289981D01*
X107361Y290007D01*
X107252Y290058D01*
X107147Y290115D01*
X107109Y290125D01*
X107073Y290142D01*
X106956Y290165D01*
X106839Y290195D01*
X106799Y290195D01*
X106760Y290202D01*
X106641Y290195D01*
X106521Y290195D01*
X106483Y290185D01*
X106443Y290182D01*
X106329Y290145D01*
X106213Y290116D01*
X106178Y290096D01*
X106141Y290084D01*
X106039Y290020D01*
X105934Y289963D01*
X105905Y289935D01*
X105872Y289914D01*
X105790Y289827D01*
X105703Y289745D01*
X105681Y289711D01*
X105654Y289682D01*
X105596Y289578D01*
X105532Y289477D01*
X105520Y289439D01*
X105500Y289404D01*
X105471Y289288D01*
X105433Y289174D01*
X105431Y289135D01*
X105421Y289096D01*
X105411Y288935D01*
X105411Y266558D01*
X96408Y257555D01*
X84233Y257555D01*
X84135Y257543D01*
X84036Y257540D01*
X83978Y257523D01*
X83918Y257515D01*
X83826Y257479D01*
X83731Y257451D01*
X83678Y257421D01*
X83622Y257398D01*
X83542Y257340D01*
X83457Y257290D01*
X83381Y257224D01*
X83365Y257212D01*
X83357Y257202D01*
X83336Y257184D01*
X73016Y246864D01*
X72956Y246786D01*
X72888Y246714D01*
X72859Y246661D01*
X72822Y246613D01*
X72782Y246522D01*
X72734Y246435D01*
X72719Y246377D01*
X72695Y246321D01*
X72680Y246223D01*
X72655Y246127D01*
X72649Y246027D01*
X72645Y246007D01*
X72647Y245995D01*
X72645Y245967D01*
X72645Y109633D01*
X72657Y109535D01*
X72660Y109436D01*
X72677Y109378D01*
X72685Y109318D01*
X72721Y109226D01*
X72749Y109131D01*
X72779Y109078D01*
X72802Y109022D01*
X72860Y108942D01*
X72910Y108857D01*
X72976Y108781D01*
X72988Y108765D01*
X72998Y108757D01*
X73016Y108736D01*
X76319Y105434D01*
X76428Y105349D01*
X76535Y105260D01*
X76554Y105251D01*
X76570Y105239D01*
X76698Y105183D01*
X76823Y105124D01*
X76843Y105121D01*
X76862Y105113D01*
X77000Y105091D01*
X77136Y105065D01*
X77156Y105066D01*
X77176Y105063D01*
X77315Y105076D01*
X77453Y105084D01*
X77472Y105091D01*
X77492Y105092D01*
X77624Y105140D01*
X77755Y105182D01*
X77773Y105193D01*
X77792Y105200D01*
X77907Y105278D01*
X78024Y105353D01*
X78038Y105367D01*
X78055Y105379D01*
X78147Y105483D01*
X78242Y105584D01*
X78252Y105602D01*
X78265Y105617D01*
X78329Y105741D01*
X78396Y105863D01*
X78401Y105882D01*
X78410Y105900D01*
X78440Y106036D01*
X78475Y106171D01*
X78477Y106199D01*
X78480Y106211D01*
X78479Y106231D01*
X78485Y106331D01*
X78485Y109769D01*
X79877Y113130D01*
X82450Y115703D01*
X85811Y117095D01*
X104689Y117095D01*
X108050Y115703D01*
X110623Y113130D01*
X112015Y109769D01*
X112015Y106131D01*
X110623Y102770D01*
X108400Y100547D01*
X108327Y100453D01*
X108248Y100364D01*
X108230Y100328D01*
X108205Y100296D01*
X108158Y100187D01*
X108104Y100081D01*
X108095Y100041D01*
X108079Y100004D01*
X108060Y99887D01*
X108034Y99771D01*
X108035Y99730D01*
X108029Y99690D01*
X108040Y99572D01*
X108044Y99453D01*
X108055Y99414D01*
X108059Y99374D01*
X108099Y99261D01*
X108132Y99147D01*
X108153Y99112D01*
X108166Y99074D01*
X108233Y98976D01*
X108294Y98873D01*
X108333Y98828D01*
X108345Y98811D01*
X108360Y98798D01*
X108400Y98752D01*
X110745Y96408D01*
X110745Y84233D01*
X110757Y84135D01*
X110760Y84036D01*
X110777Y83978D01*
X110785Y83918D01*
X110821Y83826D01*
X110849Y83731D01*
X110879Y83678D01*
X110902Y83622D01*
X110960Y83542D01*
X111010Y83457D01*
X111076Y83381D01*
X111088Y83365D01*
X111098Y83357D01*
X111116Y83336D01*
X121436Y73016D01*
X121514Y72956D01*
X121586Y72888D01*
X121639Y72859D01*
X121687Y72822D01*
X121778Y72782D01*
X121865Y72734D01*
X121923Y72719D01*
X121979Y72695D01*
X122077Y72680D01*
X122173Y72655D01*
X122273Y72649D01*
X122293Y72645D01*
X122305Y72647D01*
X122333Y72645D01*
X131667Y72645D01*
X131765Y72657D01*
G37*
%LPC*%
G36*
X302626Y87121D02*
X302626Y87121D01*
X300618Y89130D01*
X282955Y106792D01*
X282955Y144367D01*
X282943Y144465D01*
X282940Y144564D01*
X282923Y144622D01*
X282915Y144682D01*
X282879Y144774D01*
X282851Y144869D01*
X282821Y144922D01*
X282798Y144978D01*
X282740Y145058D01*
X282690Y145143D01*
X282624Y145219D01*
X282612Y145235D01*
X282602Y145243D01*
X282584Y145264D01*
X272264Y155584D01*
X272186Y155644D01*
X272114Y155712D01*
X272061Y155741D01*
X272013Y155778D01*
X271922Y155818D01*
X271835Y155866D01*
X271777Y155881D01*
X271721Y155905D01*
X271623Y155920D01*
X271527Y155945D01*
X271427Y155951D01*
X271407Y155955D01*
X271395Y155953D01*
X271367Y155955D01*
X257291Y155955D01*
X257261Y155952D01*
X257232Y155954D01*
X257104Y155932D01*
X256975Y155915D01*
X256948Y155905D01*
X256919Y155900D01*
X256800Y155846D01*
X256680Y155798D01*
X256656Y155781D01*
X256629Y155769D01*
X256527Y155688D01*
X256422Y155612D01*
X256403Y155589D01*
X256380Y155570D01*
X256302Y155467D01*
X256219Y155367D01*
X256207Y155340D01*
X256189Y155316D01*
X256118Y155172D01*
X255790Y154380D01*
X253620Y152210D01*
X250785Y151035D01*
X247715Y151035D01*
X244880Y152210D01*
X242710Y154380D01*
X241535Y157215D01*
X241535Y160285D01*
X242710Y163120D01*
X244880Y165290D01*
X247715Y166465D01*
X250785Y166465D01*
X253620Y165290D01*
X255790Y163120D01*
X256118Y162328D01*
X256133Y162303D01*
X256142Y162275D01*
X256211Y162165D01*
X256276Y162052D01*
X256296Y162031D01*
X256312Y162006D01*
X256407Y161917D01*
X256497Y161824D01*
X256522Y161808D01*
X256544Y161788D01*
X256658Y161725D01*
X256768Y161657D01*
X256796Y161649D01*
X256822Y161634D01*
X256948Y161602D01*
X257072Y161564D01*
X257102Y161562D01*
X257130Y161555D01*
X257291Y161545D01*
X274208Y161545D01*
X288545Y147208D01*
X288545Y109633D01*
X288557Y109535D01*
X288560Y109436D01*
X288577Y109378D01*
X288585Y109318D01*
X288621Y109226D01*
X288649Y109131D01*
X288679Y109078D01*
X288702Y109022D01*
X288760Y108942D01*
X288810Y108857D01*
X288876Y108781D01*
X288888Y108765D01*
X288898Y108757D01*
X288916Y108736D01*
X304570Y93082D01*
X304648Y93022D01*
X304720Y92954D01*
X304773Y92925D01*
X304821Y92888D01*
X304912Y92848D01*
X304999Y92800D01*
X305057Y92785D01*
X305113Y92761D01*
X305211Y92746D01*
X305307Y92721D01*
X305407Y92715D01*
X305427Y92711D01*
X305439Y92713D01*
X305467Y92711D01*
X315472Y92711D01*
X315610Y92728D01*
X315749Y92741D01*
X315768Y92748D01*
X315788Y92751D01*
X315917Y92802D01*
X316048Y92849D01*
X316065Y92860D01*
X316084Y92868D01*
X316196Y92949D01*
X316311Y93027D01*
X316325Y93043D01*
X316341Y93054D01*
X316430Y93161D01*
X316522Y93266D01*
X316531Y93284D01*
X316544Y93299D01*
X316603Y93425D01*
X316666Y93549D01*
X316671Y93569D01*
X316679Y93587D01*
X316705Y93723D01*
X316736Y93859D01*
X316735Y93880D01*
X316739Y93899D01*
X316730Y94038D01*
X316726Y94177D01*
X316721Y94197D01*
X316719Y94217D01*
X316677Y94349D01*
X316638Y94483D01*
X316628Y94500D01*
X316621Y94519D01*
X316547Y94637D01*
X316476Y94757D01*
X316458Y94778D01*
X316451Y94788D01*
X316436Y94802D01*
X316370Y94878D01*
X316097Y95150D01*
X314705Y98511D01*
X314705Y117389D01*
X316097Y120750D01*
X318670Y123323D01*
X322031Y124715D01*
X323437Y124715D01*
X323535Y124727D01*
X323634Y124730D01*
X323692Y124747D01*
X323752Y124755D01*
X323844Y124791D01*
X323939Y124819D01*
X323992Y124849D01*
X324048Y124872D01*
X324128Y124930D01*
X324213Y124980D01*
X324289Y125046D01*
X324305Y125058D01*
X324313Y125068D01*
X324334Y125086D01*
X335392Y136145D01*
X372967Y136145D01*
X373065Y136157D01*
X373164Y136160D01*
X373222Y136177D01*
X373282Y136185D01*
X373374Y136221D01*
X373469Y136249D01*
X373522Y136279D01*
X373578Y136302D01*
X373658Y136360D01*
X373743Y136410D01*
X373819Y136476D01*
X373835Y136488D01*
X373843Y136498D01*
X373864Y136516D01*
X384184Y146836D01*
X384244Y146914D01*
X384312Y146986D01*
X384341Y147039D01*
X384378Y147087D01*
X384418Y147178D01*
X384466Y147265D01*
X384481Y147323D01*
X384505Y147379D01*
X384520Y147477D01*
X384545Y147573D01*
X384551Y147673D01*
X384555Y147693D01*
X384553Y147705D01*
X384555Y147733D01*
X384555Y207867D01*
X384543Y207965D01*
X384540Y208064D01*
X384523Y208122D01*
X384515Y208182D01*
X384479Y208274D01*
X384451Y208369D01*
X384421Y208422D01*
X384398Y208478D01*
X384340Y208558D01*
X384290Y208643D01*
X384224Y208719D01*
X384212Y208735D01*
X384202Y208743D01*
X384184Y208764D01*
X361164Y231784D01*
X361086Y231844D01*
X361014Y231912D01*
X360961Y231941D01*
X360913Y231978D01*
X360822Y232018D01*
X360735Y232066D01*
X360677Y232081D01*
X360621Y232105D01*
X360523Y232120D01*
X360427Y232145D01*
X360327Y232151D01*
X360307Y232155D01*
X360295Y232153D01*
X360267Y232155D01*
X233792Y232155D01*
X231784Y234164D01*
X208764Y257184D01*
X206755Y259192D01*
X206755Y332456D01*
X206740Y332574D01*
X206733Y332693D01*
X206720Y332731D01*
X206715Y332772D01*
X206672Y332882D01*
X206635Y332995D01*
X206613Y333030D01*
X206598Y333067D01*
X206529Y333163D01*
X206465Y333264D01*
X206435Y333292D01*
X206412Y333325D01*
X206320Y333401D01*
X206233Y333482D01*
X206198Y333502D01*
X206167Y333527D01*
X206059Y333578D01*
X205955Y333636D01*
X205915Y333646D01*
X205879Y333663D01*
X205762Y333685D01*
X205647Y333715D01*
X205587Y333719D01*
X205567Y333723D01*
X205546Y333721D01*
X205486Y333725D01*
X201668Y333725D01*
X200775Y334618D01*
X200775Y344882D01*
X201668Y345775D01*
X217432Y345775D01*
X218325Y344882D01*
X218325Y334618D01*
X217432Y333725D01*
X213614Y333725D01*
X213496Y333710D01*
X213377Y333703D01*
X213339Y333690D01*
X213298Y333685D01*
X213188Y333642D01*
X213075Y333605D01*
X213040Y333583D01*
X213003Y333568D01*
X212907Y333499D01*
X212806Y333435D01*
X212778Y333405D01*
X212745Y333382D01*
X212669Y333290D01*
X212588Y333203D01*
X212568Y333168D01*
X212543Y333137D01*
X212492Y333029D01*
X212434Y332925D01*
X212424Y332885D01*
X212407Y332849D01*
X212385Y332732D01*
X212355Y332617D01*
X212351Y332557D01*
X212347Y332537D01*
X212349Y332516D01*
X212345Y332456D01*
X212345Y262033D01*
X212357Y261935D01*
X212360Y261836D01*
X212377Y261778D01*
X212385Y261718D01*
X212421Y261626D01*
X212449Y261531D01*
X212479Y261478D01*
X212502Y261422D01*
X212560Y261342D01*
X212610Y261257D01*
X212676Y261181D01*
X212688Y261165D01*
X212698Y261157D01*
X212716Y261136D01*
X235736Y238116D01*
X235814Y238056D01*
X235886Y237988D01*
X235939Y237959D01*
X235987Y237922D01*
X236078Y237882D01*
X236165Y237834D01*
X236223Y237819D01*
X236279Y237795D01*
X236377Y237780D01*
X236473Y237755D01*
X236573Y237749D01*
X236593Y237745D01*
X236605Y237747D01*
X236633Y237745D01*
X363108Y237745D01*
X390145Y210708D01*
X390145Y144892D01*
X375808Y130555D01*
X338233Y130555D01*
X338135Y130543D01*
X338036Y130540D01*
X337978Y130523D01*
X337918Y130515D01*
X337826Y130479D01*
X337731Y130451D01*
X337678Y130421D01*
X337622Y130398D01*
X337542Y130340D01*
X337457Y130290D01*
X337381Y130224D01*
X337365Y130212D01*
X337357Y130202D01*
X337336Y130184D01*
X330650Y123498D01*
X330577Y123403D01*
X330498Y123314D01*
X330480Y123278D01*
X330455Y123246D01*
X330408Y123137D01*
X330354Y123031D01*
X330345Y122992D01*
X330329Y122955D01*
X330310Y122837D01*
X330284Y122721D01*
X330285Y122680D01*
X330279Y122640D01*
X330290Y122522D01*
X330294Y122403D01*
X330305Y122364D01*
X330309Y122324D01*
X330349Y122212D01*
X330382Y122097D01*
X330403Y122063D01*
X330416Y122025D01*
X330483Y121926D01*
X330544Y121823D01*
X330583Y121778D01*
X330595Y121761D01*
X330610Y121748D01*
X330650Y121703D01*
X331603Y120750D01*
X332995Y117389D01*
X332995Y98511D01*
X331603Y95150D01*
X331330Y94878D01*
X331245Y94768D01*
X331156Y94661D01*
X331148Y94642D01*
X331135Y94626D01*
X331080Y94499D01*
X331021Y94373D01*
X331017Y94353D01*
X331009Y94334D01*
X330987Y94197D01*
X330961Y94060D01*
X330962Y94040D01*
X330959Y94020D01*
X330972Y93881D01*
X330981Y93743D01*
X330987Y93724D01*
X330989Y93704D01*
X331036Y93572D01*
X331079Y93441D01*
X331089Y93424D01*
X331096Y93404D01*
X331174Y93289D01*
X331249Y93172D01*
X331264Y93158D01*
X331275Y93141D01*
X331379Y93049D01*
X331480Y92954D01*
X331498Y92944D01*
X331513Y92931D01*
X331637Y92867D01*
X331759Y92800D01*
X331778Y92795D01*
X331797Y92786D01*
X331933Y92756D01*
X332067Y92721D01*
X332095Y92719D01*
X332107Y92716D01*
X332127Y92717D01*
X332228Y92711D01*
X340872Y92711D01*
X341010Y92728D01*
X341149Y92741D01*
X341168Y92748D01*
X341188Y92751D01*
X341317Y92802D01*
X341448Y92849D01*
X341465Y92860D01*
X341484Y92868D01*
X341596Y92949D01*
X341711Y93027D01*
X341725Y93043D01*
X341741Y93054D01*
X341830Y93161D01*
X341922Y93266D01*
X341931Y93284D01*
X341944Y93299D01*
X342003Y93425D01*
X342066Y93549D01*
X342071Y93569D01*
X342079Y93587D01*
X342105Y93723D01*
X342136Y93859D01*
X342135Y93880D01*
X342139Y93899D01*
X342130Y94038D01*
X342126Y94177D01*
X342121Y94197D01*
X342119Y94217D01*
X342077Y94349D01*
X342038Y94483D01*
X342028Y94500D01*
X342021Y94519D01*
X341947Y94637D01*
X341876Y94757D01*
X341858Y94778D01*
X341851Y94788D01*
X341836Y94802D01*
X341770Y94878D01*
X341497Y95150D01*
X340105Y98511D01*
X340105Y117389D01*
X341497Y120750D01*
X344070Y123323D01*
X347431Y124715D01*
X351069Y124715D01*
X354430Y123323D01*
X356114Y121639D01*
X356208Y121566D01*
X356297Y121487D01*
X356333Y121469D01*
X356365Y121444D01*
X356475Y121396D01*
X356580Y121342D01*
X356620Y121334D01*
X356657Y121317D01*
X356775Y121299D01*
X356891Y121273D01*
X356931Y121274D01*
X356971Y121268D01*
X357090Y121279D01*
X357209Y121282D01*
X357247Y121294D01*
X357288Y121297D01*
X357400Y121338D01*
X357514Y121371D01*
X357549Y121391D01*
X357587Y121405D01*
X357686Y121472D01*
X357788Y121532D01*
X357833Y121572D01*
X357850Y121584D01*
X357864Y121599D01*
X357909Y121639D01*
X360477Y124207D01*
X390551Y124207D01*
X390649Y124219D01*
X390748Y124222D01*
X390806Y124239D01*
X390867Y124247D01*
X390959Y124283D01*
X391054Y124311D01*
X391106Y124341D01*
X391162Y124364D01*
X391242Y124422D01*
X391328Y124472D01*
X391403Y124538D01*
X391420Y124550D01*
X391427Y124560D01*
X391449Y124578D01*
X398604Y131733D01*
X398664Y131812D01*
X398732Y131884D01*
X398761Y131937D01*
X398798Y131985D01*
X398838Y132076D01*
X398886Y132162D01*
X398901Y132221D01*
X398925Y132277D01*
X398940Y132375D01*
X398965Y132470D01*
X398971Y132570D01*
X398975Y132591D01*
X398973Y132603D01*
X398975Y132631D01*
X398975Y138732D01*
X399868Y139625D01*
X410632Y139625D01*
X411852Y138404D01*
X411947Y138331D01*
X412036Y138252D01*
X412072Y138234D01*
X412104Y138209D01*
X412213Y138162D01*
X412319Y138107D01*
X412358Y138099D01*
X412396Y138083D01*
X412513Y138064D01*
X412629Y138038D01*
X412670Y138039D01*
X412710Y138033D01*
X412828Y138044D01*
X412947Y138047D01*
X412986Y138059D01*
X413026Y138062D01*
X413139Y138103D01*
X413253Y138136D01*
X413287Y138156D01*
X413326Y138170D01*
X413424Y138237D01*
X413527Y138297D01*
X413572Y138337D01*
X413589Y138349D01*
X413602Y138364D01*
X413647Y138404D01*
X414868Y139625D01*
X421386Y139625D01*
X421504Y139640D01*
X421623Y139647D01*
X421661Y139660D01*
X421702Y139665D01*
X421812Y139708D01*
X421925Y139745D01*
X421960Y139767D01*
X421997Y139782D01*
X422093Y139851D01*
X422194Y139915D01*
X422222Y139945D01*
X422255Y139968D01*
X422331Y140060D01*
X422412Y140147D01*
X422432Y140182D01*
X422457Y140213D01*
X422508Y140321D01*
X422566Y140425D01*
X422576Y140465D01*
X422593Y140501D01*
X422615Y140618D01*
X422645Y140733D01*
X422649Y140793D01*
X422653Y140813D01*
X422653Y140816D01*
X422653Y140817D01*
X422652Y140835D01*
X422655Y140894D01*
X422655Y157067D01*
X422643Y157165D01*
X422640Y157264D01*
X422623Y157322D01*
X422615Y157382D01*
X422579Y157474D01*
X422551Y157569D01*
X422521Y157622D01*
X422498Y157678D01*
X422440Y157758D01*
X422390Y157843D01*
X422324Y157919D01*
X422312Y157935D01*
X422302Y157943D01*
X422284Y157964D01*
X402464Y177784D01*
X400455Y179792D01*
X400455Y199506D01*
X400440Y199624D01*
X400433Y199743D01*
X400420Y199781D01*
X400415Y199822D01*
X400372Y199932D01*
X400335Y200045D01*
X400313Y200080D01*
X400298Y200117D01*
X400229Y200213D01*
X400165Y200314D01*
X400135Y200342D01*
X400112Y200375D01*
X400020Y200451D01*
X399933Y200532D01*
X399898Y200552D01*
X399867Y200577D01*
X399759Y200628D01*
X399655Y200686D01*
X399615Y200696D01*
X399579Y200713D01*
X399462Y200735D01*
X399347Y200765D01*
X399287Y200769D01*
X399267Y200773D01*
X399246Y200771D01*
X399186Y200775D01*
X398118Y200775D01*
X397225Y201668D01*
X397225Y217432D01*
X398118Y218325D01*
X400382Y218325D01*
X400432Y218331D01*
X400481Y218329D01*
X400589Y218351D01*
X400698Y218365D01*
X400744Y218383D01*
X400793Y218393D01*
X400892Y218441D01*
X400994Y218482D01*
X401034Y218511D01*
X401078Y218533D01*
X401162Y218604D01*
X401251Y218668D01*
X401283Y218707D01*
X401320Y218739D01*
X401384Y218829D01*
X401454Y218913D01*
X401475Y218958D01*
X401504Y218999D01*
X401543Y219102D01*
X401589Y219201D01*
X401599Y219250D01*
X401616Y219296D01*
X401628Y219406D01*
X401649Y219513D01*
X401646Y219563D01*
X401652Y219612D01*
X401636Y219721D01*
X401629Y219831D01*
X401614Y219878D01*
X401607Y219927D01*
X401555Y220080D01*
X401093Y221194D01*
X401093Y223306D01*
X401901Y225256D01*
X403394Y226749D01*
X405344Y227557D01*
X407456Y227557D01*
X409406Y226749D01*
X410899Y225256D01*
X411707Y223306D01*
X411707Y221180D01*
X411684Y221077D01*
X411649Y220952D01*
X411649Y220923D01*
X411642Y220894D01*
X411646Y220764D01*
X411644Y220634D01*
X411651Y220605D01*
X411652Y220576D01*
X411688Y220451D01*
X411718Y220325D01*
X411732Y220299D01*
X411741Y220270D01*
X411806Y220158D01*
X411867Y220044D01*
X411887Y220022D01*
X411902Y219996D01*
X412008Y219875D01*
X414441Y217443D01*
X414535Y217370D01*
X414625Y217291D01*
X414661Y217272D01*
X414693Y217248D01*
X414802Y217200D01*
X414908Y217146D01*
X414947Y217137D01*
X414984Y217121D01*
X415102Y217103D01*
X415218Y217077D01*
X415258Y217078D01*
X415299Y217071D01*
X415417Y217083D01*
X415536Y217086D01*
X415575Y217098D01*
X415615Y217101D01*
X415727Y217142D01*
X415842Y217175D01*
X415876Y217195D01*
X415914Y217209D01*
X416013Y217276D01*
X416115Y217336D01*
X416161Y217376D01*
X416178Y217387D01*
X416191Y217403D01*
X416236Y217443D01*
X417118Y218325D01*
X427382Y218325D01*
X428275Y217432D01*
X428275Y201668D01*
X427382Y200775D01*
X417118Y200775D01*
X416225Y201668D01*
X416225Y208665D01*
X416213Y208763D01*
X416210Y208862D01*
X416193Y208921D01*
X416185Y208981D01*
X416149Y209073D01*
X416121Y209168D01*
X416091Y209220D01*
X416068Y209276D01*
X416010Y209356D01*
X415960Y209442D01*
X415894Y209517D01*
X415882Y209534D01*
X415872Y209541D01*
X415854Y209563D01*
X411441Y213975D01*
X411332Y214060D01*
X411225Y214148D01*
X411206Y214157D01*
X411190Y214170D01*
X411062Y214225D01*
X410937Y214284D01*
X410917Y214288D01*
X410898Y214296D01*
X410760Y214318D01*
X410624Y214344D01*
X410604Y214343D01*
X410584Y214346D01*
X410445Y214333D01*
X410307Y214324D01*
X410288Y214318D01*
X410268Y214316D01*
X410136Y214269D01*
X410005Y214226D01*
X409987Y214215D01*
X409968Y214208D01*
X409853Y214130D01*
X409736Y214056D01*
X409722Y214041D01*
X409705Y214030D01*
X409613Y213926D01*
X409518Y213824D01*
X409508Y213806D01*
X409495Y213791D01*
X409431Y213667D01*
X409364Y213546D01*
X409359Y213526D01*
X409350Y213508D01*
X409320Y213372D01*
X409285Y213238D01*
X409283Y213210D01*
X409280Y213198D01*
X409281Y213177D01*
X409275Y213077D01*
X409275Y201668D01*
X408382Y200775D01*
X407314Y200775D01*
X407196Y200760D01*
X407077Y200753D01*
X407039Y200740D01*
X406998Y200735D01*
X406888Y200692D01*
X406775Y200655D01*
X406740Y200633D01*
X406703Y200618D01*
X406607Y200549D01*
X406506Y200485D01*
X406478Y200455D01*
X406445Y200432D01*
X406369Y200340D01*
X406288Y200253D01*
X406268Y200218D01*
X406243Y200187D01*
X406192Y200079D01*
X406134Y199975D01*
X406124Y199935D01*
X406107Y199899D01*
X406085Y199782D01*
X406055Y199667D01*
X406051Y199607D01*
X406047Y199587D01*
X406049Y199566D01*
X406045Y199506D01*
X406045Y182633D01*
X406057Y182535D01*
X406060Y182436D01*
X406077Y182378D01*
X406085Y182318D01*
X406121Y182226D01*
X406149Y182131D01*
X406179Y182078D01*
X406202Y182022D01*
X406260Y181942D01*
X406310Y181857D01*
X406376Y181781D01*
X406388Y181765D01*
X406398Y181757D01*
X406416Y181736D01*
X426236Y161916D01*
X428245Y159908D01*
X428245Y137392D01*
X426896Y136044D01*
X426836Y135966D01*
X426768Y135894D01*
X426739Y135841D01*
X426702Y135793D01*
X426662Y135702D01*
X426614Y135615D01*
X426599Y135557D01*
X426575Y135501D01*
X426560Y135403D01*
X426535Y135307D01*
X426529Y135207D01*
X426525Y135187D01*
X426527Y135175D01*
X426525Y135147D01*
X426525Y128741D01*
X426542Y128604D01*
X426555Y128465D01*
X426562Y128446D01*
X426565Y128426D01*
X426616Y128297D01*
X426663Y128166D01*
X426674Y128149D01*
X426682Y128130D01*
X426763Y128018D01*
X426841Y127903D01*
X426857Y127889D01*
X426868Y127873D01*
X426976Y127784D01*
X427080Y127692D01*
X427098Y127683D01*
X427113Y127670D01*
X427239Y127611D01*
X427363Y127547D01*
X427383Y127543D01*
X427401Y127534D01*
X427537Y127508D01*
X427673Y127478D01*
X427694Y127478D01*
X427713Y127475D01*
X427852Y127483D01*
X427991Y127487D01*
X428011Y127493D01*
X428031Y127494D01*
X428163Y127537D01*
X428297Y127576D01*
X428314Y127586D01*
X428333Y127592D01*
X428451Y127667D01*
X428571Y127737D01*
X428592Y127756D01*
X428602Y127763D01*
X428616Y127778D01*
X428691Y127844D01*
X434984Y134136D01*
X435044Y134214D01*
X435112Y134286D01*
X435141Y134339D01*
X435178Y134387D01*
X435218Y134478D01*
X435266Y134565D01*
X435281Y134623D01*
X435305Y134679D01*
X435320Y134777D01*
X435345Y134873D01*
X435351Y134973D01*
X435355Y134993D01*
X435353Y135005D01*
X435355Y135033D01*
X435355Y233267D01*
X435343Y233365D01*
X435340Y233464D01*
X435323Y233522D01*
X435315Y233582D01*
X435279Y233674D01*
X435251Y233769D01*
X435221Y233822D01*
X435198Y233878D01*
X435140Y233958D01*
X435090Y234043D01*
X435024Y234119D01*
X435012Y234135D01*
X435002Y234143D01*
X434984Y234164D01*
X424664Y244484D01*
X424586Y244544D01*
X424514Y244612D01*
X424461Y244641D01*
X424413Y244678D01*
X424322Y244718D01*
X424235Y244766D01*
X424177Y244781D01*
X424121Y244805D01*
X424023Y244820D01*
X423927Y244845D01*
X423827Y244851D01*
X423807Y244855D01*
X423795Y244853D01*
X423767Y244855D01*
X348092Y244855D01*
X345264Y247684D01*
X345186Y247744D01*
X345114Y247812D01*
X345061Y247841D01*
X345013Y247878D01*
X344922Y247918D01*
X344835Y247966D01*
X344777Y247981D01*
X344721Y248005D01*
X344623Y248020D01*
X344527Y248045D01*
X344427Y248051D01*
X344407Y248055D01*
X344395Y248053D01*
X344367Y248055D01*
X321194Y248055D01*
X321076Y248040D01*
X320957Y248033D01*
X320919Y248020D01*
X320878Y248015D01*
X320768Y247972D01*
X320655Y247935D01*
X320620Y247913D01*
X320583Y247898D01*
X320487Y247829D01*
X320386Y247765D01*
X320358Y247735D01*
X320325Y247712D01*
X320249Y247620D01*
X320168Y247533D01*
X320148Y247498D01*
X320123Y247467D01*
X320072Y247359D01*
X320014Y247255D01*
X320004Y247215D01*
X319987Y247179D01*
X319965Y247062D01*
X319935Y246947D01*
X319931Y246887D01*
X319927Y246867D01*
X319929Y246846D01*
X319925Y246786D01*
X319925Y245718D01*
X319032Y244825D01*
X303268Y244825D01*
X302375Y245718D01*
X302375Y255982D01*
X303268Y256875D01*
X319032Y256875D01*
X319925Y255982D01*
X319925Y254914D01*
X319940Y254796D01*
X319947Y254677D01*
X319960Y254639D01*
X319965Y254598D01*
X320008Y254488D01*
X320045Y254375D01*
X320067Y254340D01*
X320082Y254303D01*
X320151Y254207D01*
X320215Y254106D01*
X320245Y254078D01*
X320268Y254045D01*
X320360Y253969D01*
X320447Y253888D01*
X320482Y253868D01*
X320513Y253843D01*
X320621Y253792D01*
X320725Y253734D01*
X320765Y253724D01*
X320801Y253707D01*
X320918Y253685D01*
X321033Y253655D01*
X321093Y253651D01*
X321113Y253647D01*
X321134Y253649D01*
X321194Y253645D01*
X347208Y253645D01*
X350036Y250816D01*
X350114Y250756D01*
X350186Y250688D01*
X350239Y250659D01*
X350287Y250622D01*
X350378Y250582D01*
X350465Y250534D01*
X350523Y250519D01*
X350579Y250495D01*
X350677Y250480D01*
X350773Y250455D01*
X350873Y250449D01*
X350893Y250445D01*
X350905Y250447D01*
X350933Y250445D01*
X426608Y250445D01*
X440945Y236108D01*
X440945Y132192D01*
X413908Y105155D01*
X389033Y105155D01*
X388935Y105143D01*
X388836Y105140D01*
X388778Y105123D01*
X388718Y105115D01*
X388626Y105079D01*
X388531Y105051D01*
X388478Y105021D01*
X388422Y104998D01*
X388342Y104940D01*
X388257Y104890D01*
X388181Y104824D01*
X388165Y104812D01*
X388157Y104802D01*
X388136Y104784D01*
X370474Y87121D01*
X302626Y87121D01*
G37*
%LPD*%
%LPC*%
G36*
X284277Y167893D02*
X284277Y167893D01*
X271949Y180222D01*
X271870Y180282D01*
X271798Y180350D01*
X271745Y180379D01*
X271697Y180416D01*
X271606Y180456D01*
X271520Y180504D01*
X271461Y180519D01*
X271405Y180543D01*
X271307Y180558D01*
X271212Y180583D01*
X271112Y180589D01*
X271091Y180593D01*
X271079Y180591D01*
X271051Y180593D01*
X256975Y180593D01*
X256946Y180590D01*
X256916Y180592D01*
X256789Y180570D01*
X256660Y180553D01*
X256632Y180543D01*
X256603Y180537D01*
X256485Y180484D01*
X256364Y180436D01*
X256340Y180419D01*
X256313Y180407D01*
X256212Y180326D01*
X256107Y180250D01*
X256088Y180227D01*
X256065Y180208D01*
X255987Y180104D01*
X255904Y180005D01*
X255891Y179978D01*
X255873Y179954D01*
X255803Y179810D01*
X255790Y179780D01*
X253620Y177610D01*
X250785Y176435D01*
X247715Y176435D01*
X244880Y177610D01*
X242710Y179780D01*
X241535Y182615D01*
X241535Y185685D01*
X242710Y188520D01*
X244880Y190690D01*
X247715Y191865D01*
X250785Y191865D01*
X253620Y190690D01*
X255790Y188520D01*
X255803Y188490D01*
X255817Y188465D01*
X255826Y188437D01*
X255896Y188327D01*
X255960Y188214D01*
X255981Y188193D01*
X255996Y188168D01*
X256091Y188079D01*
X256181Y187986D01*
X256207Y187970D01*
X256228Y187950D01*
X256342Y187887D01*
X256452Y187819D01*
X256481Y187811D01*
X256507Y187796D01*
X256632Y187764D01*
X256756Y187726D01*
X256786Y187724D01*
X256815Y187717D01*
X256975Y187707D01*
X274523Y187707D01*
X286851Y175378D01*
X286930Y175318D01*
X287002Y175250D01*
X287055Y175221D01*
X287103Y175184D01*
X287194Y175144D01*
X287280Y175096D01*
X287339Y175081D01*
X287395Y175057D01*
X287493Y175042D01*
X287588Y175017D01*
X287688Y175011D01*
X287709Y175007D01*
X287721Y175009D01*
X287749Y175007D01*
X302408Y175007D01*
X302507Y175019D01*
X302606Y175022D01*
X302664Y175039D01*
X302724Y175047D01*
X302816Y175083D01*
X302911Y175111D01*
X302963Y175141D01*
X303020Y175164D01*
X303100Y175222D01*
X303185Y175272D01*
X303261Y175338D01*
X303277Y175350D01*
X303285Y175360D01*
X303306Y175378D01*
X305495Y177567D01*
X321730Y177567D01*
X321799Y177576D01*
X321869Y177575D01*
X321956Y177596D01*
X322045Y177607D01*
X322110Y177633D01*
X322178Y177649D01*
X322257Y177691D01*
X322341Y177724D01*
X322397Y177765D01*
X322459Y177798D01*
X322525Y177858D01*
X322598Y177911D01*
X322643Y177965D01*
X322694Y178011D01*
X322744Y178087D01*
X322801Y178156D01*
X322831Y178219D01*
X322869Y178277D01*
X322898Y178362D01*
X322937Y178443D01*
X322950Y178512D01*
X322972Y178578D01*
X322979Y178668D01*
X322996Y178756D01*
X322992Y178825D01*
X322998Y178895D01*
X322982Y178984D01*
X322977Y179073D01*
X322955Y179139D01*
X322943Y179208D01*
X322906Y179290D01*
X322879Y179376D01*
X322841Y179435D01*
X322813Y179498D01*
X322756Y179568D01*
X322708Y179644D01*
X322658Y179692D01*
X322614Y179747D01*
X322542Y179801D01*
X322477Y179862D01*
X322416Y179896D01*
X322360Y179938D01*
X322215Y180009D01*
X318670Y181477D01*
X316097Y184050D01*
X314705Y187411D01*
X314705Y206289D01*
X316097Y209650D01*
X317050Y210603D01*
X317123Y210697D01*
X317202Y210786D01*
X317220Y210822D01*
X317245Y210854D01*
X317292Y210963D01*
X317346Y211069D01*
X317355Y211109D01*
X317371Y211146D01*
X317390Y211263D01*
X317416Y211379D01*
X317415Y211420D01*
X317421Y211460D01*
X317410Y211578D01*
X317406Y211697D01*
X317395Y211736D01*
X317391Y211776D01*
X317351Y211889D01*
X317318Y212003D01*
X317297Y212038D01*
X317284Y212076D01*
X317217Y212174D01*
X317156Y212277D01*
X317117Y212322D01*
X317105Y212339D01*
X317090Y212352D01*
X317050Y212398D01*
X310364Y219084D01*
X310286Y219144D01*
X310214Y219212D01*
X310161Y219241D01*
X310113Y219278D01*
X310022Y219318D01*
X309935Y219366D01*
X309877Y219381D01*
X309821Y219405D01*
X309723Y219420D01*
X309627Y219445D01*
X309527Y219451D01*
X309507Y219455D01*
X309495Y219453D01*
X309467Y219455D01*
X221092Y219455D01*
X190855Y249692D01*
X190855Y288406D01*
X190840Y288524D01*
X190833Y288643D01*
X190820Y288681D01*
X190815Y288722D01*
X190772Y288832D01*
X190735Y288945D01*
X190713Y288980D01*
X190698Y289017D01*
X190629Y289113D01*
X190565Y289214D01*
X190535Y289242D01*
X190512Y289275D01*
X190420Y289351D01*
X190333Y289432D01*
X190298Y289452D01*
X190267Y289477D01*
X190159Y289528D01*
X190055Y289586D01*
X190015Y289596D01*
X189979Y289613D01*
X189862Y289635D01*
X189747Y289665D01*
X189687Y289669D01*
X189667Y289673D01*
X189646Y289671D01*
X189586Y289675D01*
X188518Y289675D01*
X187625Y290568D01*
X187625Y306332D01*
X188518Y307225D01*
X198782Y307225D01*
X199675Y306332D01*
X199675Y290568D01*
X198782Y289675D01*
X197714Y289675D01*
X197596Y289660D01*
X197477Y289653D01*
X197439Y289640D01*
X197398Y289635D01*
X197288Y289592D01*
X197175Y289555D01*
X197140Y289533D01*
X197103Y289518D01*
X197007Y289449D01*
X196906Y289385D01*
X196878Y289355D01*
X196845Y289332D01*
X196769Y289240D01*
X196688Y289153D01*
X196668Y289118D01*
X196643Y289087D01*
X196592Y288979D01*
X196534Y288875D01*
X196524Y288835D01*
X196507Y288799D01*
X196485Y288682D01*
X196455Y288567D01*
X196451Y288507D01*
X196447Y288487D01*
X196449Y288466D01*
X196445Y288406D01*
X196445Y252533D01*
X196457Y252435D01*
X196460Y252336D01*
X196477Y252278D01*
X196485Y252218D01*
X196521Y252126D01*
X196549Y252031D01*
X196579Y251978D01*
X196602Y251922D01*
X196660Y251842D01*
X196710Y251757D01*
X196776Y251681D01*
X196788Y251665D01*
X196798Y251657D01*
X196816Y251636D01*
X223036Y225416D01*
X223114Y225356D01*
X223186Y225288D01*
X223239Y225259D01*
X223287Y225222D01*
X223378Y225182D01*
X223465Y225134D01*
X223523Y225119D01*
X223579Y225095D01*
X223677Y225080D01*
X223773Y225055D01*
X223873Y225049D01*
X223893Y225045D01*
X223905Y225047D01*
X223933Y225045D01*
X312308Y225045D01*
X323366Y213986D01*
X323444Y213926D01*
X323516Y213858D01*
X323569Y213829D01*
X323617Y213792D01*
X323708Y213752D01*
X323795Y213704D01*
X323853Y213689D01*
X323909Y213665D01*
X324007Y213650D01*
X324103Y213625D01*
X324203Y213619D01*
X324223Y213615D01*
X324235Y213617D01*
X324263Y213615D01*
X325669Y213615D01*
X329030Y212223D01*
X331603Y209650D01*
X332995Y206289D01*
X332995Y187411D01*
X331603Y184050D01*
X329030Y181477D01*
X325485Y180009D01*
X325424Y179974D01*
X325359Y179949D01*
X325287Y179896D01*
X325208Y179851D01*
X325158Y179803D01*
X325102Y179762D01*
X325045Y179693D01*
X324980Y179630D01*
X324943Y179571D01*
X324899Y179517D01*
X324861Y179436D01*
X324814Y179359D01*
X324793Y179292D01*
X324763Y179229D01*
X324747Y179141D01*
X324720Y179055D01*
X324717Y178985D01*
X324704Y178917D01*
X324709Y178827D01*
X324705Y178737D01*
X324719Y178669D01*
X324723Y178599D01*
X324751Y178514D01*
X324769Y178426D01*
X324800Y178363D01*
X324821Y178297D01*
X324869Y178221D01*
X324909Y178140D01*
X324954Y178087D01*
X324992Y178028D01*
X325057Y177967D01*
X325115Y177898D01*
X325172Y177858D01*
X325223Y177810D01*
X325302Y177767D01*
X325375Y177715D01*
X325441Y177690D01*
X325502Y177657D01*
X325589Y177634D01*
X325673Y177602D01*
X325742Y177595D01*
X325810Y177577D01*
X325970Y177567D01*
X337111Y177567D01*
X337210Y177579D01*
X337309Y177582D01*
X337367Y177599D01*
X337427Y177607D01*
X337519Y177643D01*
X337614Y177671D01*
X337666Y177702D01*
X337723Y177724D01*
X337803Y177782D01*
X337888Y177832D01*
X337963Y177899D01*
X337980Y177911D01*
X337988Y177920D01*
X338009Y177939D01*
X341911Y181841D01*
X341984Y181935D01*
X342063Y182024D01*
X342081Y182060D01*
X342106Y182092D01*
X342154Y182202D01*
X342208Y182308D01*
X342216Y182347D01*
X342233Y182384D01*
X342251Y182502D01*
X342277Y182618D01*
X342276Y182658D01*
X342282Y182698D01*
X342271Y182817D01*
X342268Y182936D01*
X342256Y182975D01*
X342253Y183015D01*
X342212Y183127D01*
X342179Y183241D01*
X342159Y183276D01*
X342145Y183314D01*
X342078Y183413D01*
X342018Y183515D01*
X341978Y183561D01*
X341966Y183577D01*
X341951Y183591D01*
X341911Y183636D01*
X341497Y184050D01*
X340105Y187411D01*
X340105Y206289D01*
X341497Y209650D01*
X344070Y212223D01*
X347431Y213615D01*
X351069Y213615D01*
X354430Y212223D01*
X357003Y209650D01*
X358395Y206289D01*
X358395Y187411D01*
X357003Y184050D01*
X354430Y181477D01*
X351069Y180085D01*
X350741Y180085D01*
X350643Y180073D01*
X350544Y180070D01*
X350486Y180053D01*
X350425Y180045D01*
X350333Y180009D01*
X350238Y179981D01*
X350186Y179951D01*
X350130Y179928D01*
X350050Y179870D01*
X349964Y179820D01*
X349889Y179754D01*
X349872Y179742D01*
X349865Y179732D01*
X349843Y179714D01*
X343039Y172909D01*
X340584Y170454D01*
X308967Y170454D01*
X308869Y170441D01*
X308769Y170438D01*
X308711Y170421D01*
X308651Y170414D01*
X308559Y170377D01*
X308464Y170350D01*
X308412Y170319D01*
X308355Y170297D01*
X308275Y170238D01*
X308190Y170188D01*
X308115Y170122D01*
X308098Y170110D01*
X308090Y170100D01*
X308069Y170082D01*
X305881Y167893D01*
X284277Y167893D01*
G37*
%LPD*%
%LPC*%
G36*
X220431Y434085D02*
X220431Y434085D01*
X217070Y435477D01*
X214497Y438050D01*
X213105Y441411D01*
X213105Y460289D01*
X214497Y463650D01*
X217070Y466223D01*
X218672Y466886D01*
X218697Y466901D01*
X218725Y466910D01*
X218835Y466979D01*
X218948Y467044D01*
X218969Y467064D01*
X218994Y467080D01*
X219083Y467175D01*
X219176Y467265D01*
X219192Y467290D01*
X219212Y467312D01*
X219275Y467425D01*
X219343Y467536D01*
X219351Y467564D01*
X219366Y467590D01*
X219398Y467716D01*
X219436Y467840D01*
X219438Y467869D01*
X219445Y467898D01*
X219455Y468059D01*
X219455Y536067D01*
X219443Y536165D01*
X219440Y536264D01*
X219423Y536322D01*
X219415Y536382D01*
X219379Y536474D01*
X219351Y536569D01*
X219321Y536622D01*
X219298Y536678D01*
X219240Y536758D01*
X219190Y536843D01*
X219124Y536919D01*
X219112Y536935D01*
X219102Y536943D01*
X219084Y536964D01*
X189214Y566834D01*
X189136Y566894D01*
X189064Y566962D01*
X189011Y566991D01*
X188963Y567028D01*
X188872Y567068D01*
X188785Y567116D01*
X188727Y567131D01*
X188671Y567155D01*
X188573Y567170D01*
X188477Y567195D01*
X188377Y567201D01*
X188357Y567205D01*
X188345Y567203D01*
X188317Y567205D01*
X161988Y567205D01*
X161919Y567197D01*
X161849Y567198D01*
X161762Y567177D01*
X161672Y567165D01*
X161608Y567140D01*
X161540Y567123D01*
X161460Y567081D01*
X161377Y567048D01*
X161320Y567007D01*
X161259Y566975D01*
X161192Y566914D01*
X161119Y566862D01*
X161075Y566808D01*
X161023Y566761D01*
X160974Y566686D01*
X160917Y566617D01*
X160887Y566553D01*
X160849Y566495D01*
X160819Y566410D01*
X160781Y566329D01*
X160768Y566260D01*
X160745Y566194D01*
X160738Y566105D01*
X160721Y566017D01*
X160726Y565947D01*
X160720Y565877D01*
X160735Y565789D01*
X160741Y565699D01*
X160763Y565633D01*
X160775Y565564D01*
X160811Y565482D01*
X160839Y565397D01*
X160876Y565338D01*
X160905Y565274D01*
X160961Y565204D01*
X161009Y565128D01*
X161060Y565080D01*
X161104Y565026D01*
X161175Y564971D01*
X161241Y564910D01*
X161302Y564876D01*
X161358Y564834D01*
X161502Y564763D01*
X162836Y564211D01*
X169211Y557836D01*
X172661Y549508D01*
X172661Y540492D01*
X169211Y532164D01*
X162836Y525789D01*
X154508Y522339D01*
X145492Y522339D01*
X137164Y525789D01*
X130789Y532164D01*
X127339Y540492D01*
X127339Y549508D01*
X130789Y557836D01*
X137164Y564211D01*
X140620Y565642D01*
X140723Y565701D01*
X140830Y565754D01*
X140861Y565780D01*
X140896Y565800D01*
X140982Y565883D01*
X141072Y565960D01*
X141095Y565993D01*
X141124Y566021D01*
X141187Y566123D01*
X141255Y566220D01*
X141269Y566258D01*
X141291Y566292D01*
X141326Y566406D01*
X141368Y566517D01*
X141372Y566558D01*
X141384Y566596D01*
X141390Y566715D01*
X141403Y566833D01*
X141397Y566874D01*
X141399Y566914D01*
X141375Y567030D01*
X141359Y567148D01*
X141339Y567205D01*
X141335Y567225D01*
X141326Y567244D01*
X141307Y567301D01*
X140935Y568197D01*
X140935Y571803D01*
X142315Y575135D01*
X144865Y577685D01*
X148197Y579065D01*
X151803Y579065D01*
X155135Y577685D01*
X157685Y575135D01*
X158329Y573578D01*
X158344Y573553D01*
X158353Y573525D01*
X158423Y573415D01*
X158487Y573302D01*
X158508Y573281D01*
X158523Y573256D01*
X158618Y573167D01*
X158708Y573074D01*
X158733Y573058D01*
X158755Y573038D01*
X158869Y572975D01*
X158979Y572907D01*
X159008Y572899D01*
X159033Y572884D01*
X159159Y572852D01*
X159283Y572814D01*
X159313Y572812D01*
X159341Y572805D01*
X159502Y572795D01*
X191158Y572795D01*
X225045Y538908D01*
X225045Y468059D01*
X225048Y468029D01*
X225046Y468000D01*
X225068Y467872D01*
X225085Y467743D01*
X225095Y467716D01*
X225100Y467687D01*
X225154Y467568D01*
X225202Y467447D01*
X225219Y467424D01*
X225231Y467397D01*
X225312Y467295D01*
X225388Y467190D01*
X225411Y467171D01*
X225430Y467148D01*
X225533Y467070D01*
X225633Y466987D01*
X225660Y466975D01*
X225684Y466957D01*
X225828Y466886D01*
X227430Y466223D01*
X230003Y463650D01*
X231395Y460289D01*
X231395Y441411D01*
X230003Y438050D01*
X227430Y435477D01*
X224069Y434085D01*
X220431Y434085D01*
G37*
%LPD*%
%LPC*%
G36*
X334731Y434085D02*
X334731Y434085D01*
X331370Y435477D01*
X328797Y438050D01*
X327405Y441411D01*
X327405Y460289D01*
X328797Y463650D01*
X331370Y466223D01*
X334731Y467615D01*
X335936Y467615D01*
X336054Y467630D01*
X336173Y467637D01*
X336211Y467650D01*
X336252Y467655D01*
X336362Y467698D01*
X336475Y467735D01*
X336510Y467757D01*
X336547Y467772D01*
X336643Y467841D01*
X336744Y467905D01*
X336772Y467935D01*
X336805Y467958D01*
X336881Y468050D01*
X336962Y468137D01*
X336982Y468172D01*
X337007Y468203D01*
X337058Y468311D01*
X337116Y468415D01*
X337126Y468455D01*
X337143Y468491D01*
X337165Y468608D01*
X337195Y468723D01*
X337199Y468783D01*
X337203Y468803D01*
X337201Y468824D01*
X337205Y468884D01*
X337205Y538317D01*
X337193Y538415D01*
X337190Y538514D01*
X337173Y538572D01*
X337165Y538632D01*
X337129Y538724D01*
X337101Y538819D01*
X337071Y538872D01*
X337048Y538928D01*
X336990Y539008D01*
X336940Y539093D01*
X336874Y539169D01*
X336862Y539185D01*
X336852Y539193D01*
X336834Y539214D01*
X309214Y566834D01*
X309136Y566894D01*
X309064Y566962D01*
X309011Y566991D01*
X308963Y567028D01*
X308872Y567068D01*
X308785Y567116D01*
X308727Y567131D01*
X308671Y567155D01*
X308573Y567170D01*
X308477Y567195D01*
X308377Y567201D01*
X308357Y567205D01*
X308345Y567203D01*
X308317Y567205D01*
X301988Y567205D01*
X301919Y567197D01*
X301849Y567198D01*
X301762Y567177D01*
X301672Y567165D01*
X301608Y567140D01*
X301540Y567123D01*
X301460Y567081D01*
X301377Y567048D01*
X301320Y567007D01*
X301259Y566975D01*
X301192Y566914D01*
X301119Y566862D01*
X301075Y566808D01*
X301023Y566761D01*
X300974Y566686D01*
X300917Y566617D01*
X300887Y566553D01*
X300849Y566495D01*
X300819Y566410D01*
X300781Y566329D01*
X300768Y566260D01*
X300745Y566194D01*
X300738Y566105D01*
X300721Y566017D01*
X300726Y565947D01*
X300720Y565877D01*
X300735Y565789D01*
X300741Y565699D01*
X300763Y565633D01*
X300774Y565564D01*
X300811Y565482D01*
X300839Y565397D01*
X300876Y565338D01*
X300905Y565274D01*
X300961Y565204D01*
X301009Y565128D01*
X301060Y565080D01*
X301104Y565026D01*
X301175Y564971D01*
X301241Y564910D01*
X301302Y564876D01*
X301358Y564834D01*
X301502Y564763D01*
X302836Y564211D01*
X309211Y557836D01*
X312661Y549508D01*
X312661Y540492D01*
X309211Y532164D01*
X302836Y525789D01*
X294508Y522339D01*
X285492Y522339D01*
X277164Y525789D01*
X270789Y532164D01*
X267339Y540492D01*
X267339Y549508D01*
X270789Y557836D01*
X277164Y564211D01*
X280620Y565642D01*
X280723Y565701D01*
X280830Y565754D01*
X280861Y565780D01*
X280896Y565800D01*
X280981Y565883D01*
X281072Y565960D01*
X281095Y565993D01*
X281124Y566021D01*
X281186Y566123D01*
X281255Y566220D01*
X281269Y566258D01*
X281291Y566292D01*
X281326Y566406D01*
X281368Y566517D01*
X281372Y566558D01*
X281384Y566596D01*
X281390Y566715D01*
X281403Y566833D01*
X281397Y566873D01*
X281399Y566914D01*
X281375Y567031D01*
X281359Y567148D01*
X281339Y567205D01*
X281335Y567225D01*
X281326Y567244D01*
X281307Y567301D01*
X280935Y568197D01*
X280935Y571803D01*
X282315Y575135D01*
X284865Y577685D01*
X288197Y579065D01*
X291803Y579065D01*
X295135Y577685D01*
X297685Y575135D01*
X298329Y573578D01*
X298344Y573553D01*
X298353Y573525D01*
X298423Y573415D01*
X298487Y573302D01*
X298508Y573281D01*
X298523Y573256D01*
X298618Y573167D01*
X298708Y573074D01*
X298733Y573058D01*
X298755Y573038D01*
X298869Y572975D01*
X298979Y572907D01*
X299008Y572899D01*
X299033Y572884D01*
X299159Y572852D01*
X299283Y572814D01*
X299313Y572812D01*
X299341Y572805D01*
X299502Y572795D01*
X311158Y572795D01*
X342795Y541158D01*
X342795Y465684D01*
X342807Y465585D01*
X342810Y465486D01*
X342827Y465428D01*
X342835Y465368D01*
X342871Y465276D01*
X342899Y465181D01*
X342929Y465129D01*
X342952Y465072D01*
X343010Y464992D01*
X343060Y464907D01*
X343126Y464832D01*
X343138Y464815D01*
X343148Y464807D01*
X343166Y464786D01*
X344303Y463650D01*
X345695Y460289D01*
X345695Y441411D01*
X344303Y438050D01*
X341730Y435477D01*
X338369Y434085D01*
X334731Y434085D01*
G37*
%LPD*%
%LPC*%
G36*
X374468Y330275D02*
X374468Y330275D01*
X373575Y331168D01*
X373575Y337269D01*
X373563Y337367D01*
X373560Y337466D01*
X373543Y337524D01*
X373535Y337585D01*
X373499Y337677D01*
X373471Y337772D01*
X373441Y337824D01*
X373418Y337880D01*
X373360Y337960D01*
X373310Y338046D01*
X373244Y338121D01*
X373232Y338138D01*
X373222Y338145D01*
X373204Y338167D01*
X358393Y352977D01*
X358393Y439623D01*
X368972Y450201D01*
X369032Y450280D01*
X369100Y450352D01*
X369129Y450405D01*
X369166Y450453D01*
X369206Y450544D01*
X369254Y450630D01*
X369269Y450689D01*
X369293Y450745D01*
X369308Y450843D01*
X369333Y450938D01*
X369339Y451038D01*
X369343Y451059D01*
X369341Y451071D01*
X369343Y451099D01*
X369343Y451906D01*
X370151Y453856D01*
X371644Y455349D01*
X373594Y456157D01*
X375706Y456157D01*
X377656Y455349D01*
X379149Y453856D01*
X379957Y451906D01*
X379957Y449794D01*
X379149Y447844D01*
X377656Y446351D01*
X375706Y445543D01*
X374899Y445543D01*
X374801Y445531D01*
X374702Y445528D01*
X374644Y445511D01*
X374583Y445503D01*
X374491Y445467D01*
X374396Y445439D01*
X374344Y445409D01*
X374288Y445386D01*
X374208Y445328D01*
X374122Y445278D01*
X374047Y445212D01*
X374030Y445200D01*
X374023Y445190D01*
X374001Y445172D01*
X365878Y437049D01*
X365818Y436970D01*
X365750Y436898D01*
X365721Y436845D01*
X365684Y436797D01*
X365644Y436706D01*
X365596Y436620D01*
X365581Y436561D01*
X365557Y436505D01*
X365542Y436407D01*
X365517Y436312D01*
X365511Y436212D01*
X365507Y436191D01*
X365509Y436179D01*
X365507Y436151D01*
X365507Y356449D01*
X365519Y356351D01*
X365522Y356252D01*
X365539Y356194D01*
X365547Y356133D01*
X365583Y356041D01*
X365611Y355946D01*
X365641Y355894D01*
X365664Y355838D01*
X365722Y355758D01*
X365772Y355672D01*
X365838Y355597D01*
X365850Y355580D01*
X365860Y355573D01*
X365878Y355551D01*
X378233Y343196D01*
X378312Y343136D01*
X378384Y343068D01*
X378437Y343039D01*
X378485Y343002D01*
X378576Y342962D01*
X378662Y342914D01*
X378721Y342899D01*
X378777Y342875D01*
X378875Y342860D01*
X378970Y342835D01*
X379070Y342829D01*
X379091Y342825D01*
X379103Y342827D01*
X379131Y342825D01*
X385232Y342825D01*
X386452Y341604D01*
X386547Y341531D01*
X386636Y341452D01*
X386672Y341434D01*
X386704Y341409D01*
X386813Y341362D01*
X386919Y341307D01*
X386958Y341299D01*
X386996Y341283D01*
X387113Y341264D01*
X387229Y341238D01*
X387270Y341239D01*
X387310Y341233D01*
X387428Y341244D01*
X387547Y341247D01*
X387586Y341259D01*
X387626Y341262D01*
X387739Y341303D01*
X387853Y341336D01*
X387887Y341356D01*
X387926Y341370D01*
X388024Y341437D01*
X388127Y341497D01*
X388172Y341537D01*
X388189Y341549D01*
X388202Y341564D01*
X388247Y341604D01*
X389468Y342825D01*
X395986Y342825D01*
X396104Y342840D01*
X396223Y342847D01*
X396261Y342860D01*
X396302Y342865D01*
X396412Y342908D01*
X396525Y342945D01*
X396560Y342967D01*
X396597Y342982D01*
X396693Y343051D01*
X396794Y343115D01*
X396822Y343145D01*
X396855Y343168D01*
X396931Y343260D01*
X397012Y343347D01*
X397032Y343382D01*
X397057Y343413D01*
X397108Y343521D01*
X397166Y343625D01*
X397176Y343665D01*
X397193Y343701D01*
X397215Y343818D01*
X397245Y343933D01*
X397249Y343993D01*
X397253Y344013D01*
X397251Y344034D01*
X397255Y344094D01*
X397255Y347567D01*
X397243Y347665D01*
X397240Y347764D01*
X397223Y347822D01*
X397215Y347882D01*
X397179Y347974D01*
X397151Y348069D01*
X397121Y348122D01*
X397098Y348178D01*
X397040Y348258D01*
X396990Y348343D01*
X396924Y348419D01*
X396912Y348435D01*
X396902Y348443D01*
X396884Y348464D01*
X386564Y358784D01*
X384555Y360792D01*
X384555Y372967D01*
X384543Y373065D01*
X384540Y373164D01*
X384523Y373222D01*
X384515Y373282D01*
X384479Y373374D01*
X384451Y373469D01*
X384421Y373522D01*
X384398Y373578D01*
X384340Y373658D01*
X384290Y373743D01*
X384224Y373819D01*
X384212Y373835D01*
X384202Y373843D01*
X384184Y373864D01*
X375055Y382992D01*
X375055Y402706D01*
X375040Y402824D01*
X375033Y402943D01*
X375020Y402981D01*
X375015Y403022D01*
X374972Y403132D01*
X374935Y403245D01*
X374913Y403280D01*
X374898Y403317D01*
X374829Y403413D01*
X374765Y403514D01*
X374735Y403542D01*
X374712Y403575D01*
X374620Y403651D01*
X374533Y403732D01*
X374498Y403752D01*
X374467Y403777D01*
X374359Y403828D01*
X374255Y403886D01*
X374215Y403896D01*
X374179Y403913D01*
X374062Y403935D01*
X373947Y403965D01*
X373887Y403969D01*
X373867Y403973D01*
X373846Y403971D01*
X373786Y403975D01*
X372718Y403975D01*
X371825Y404868D01*
X371825Y420632D01*
X372718Y421525D01*
X382982Y421525D01*
X383875Y420632D01*
X383875Y404868D01*
X382982Y403975D01*
X381914Y403975D01*
X381796Y403960D01*
X381677Y403953D01*
X381639Y403940D01*
X381598Y403935D01*
X381488Y403892D01*
X381375Y403855D01*
X381340Y403833D01*
X381303Y403818D01*
X381207Y403749D01*
X381106Y403685D01*
X381078Y403655D01*
X381045Y403632D01*
X380969Y403540D01*
X380888Y403453D01*
X380868Y403418D01*
X380843Y403387D01*
X380792Y403279D01*
X380734Y403175D01*
X380724Y403135D01*
X380707Y403099D01*
X380685Y402982D01*
X380655Y402867D01*
X380651Y402807D01*
X380647Y402787D01*
X380649Y402766D01*
X380645Y402706D01*
X380645Y385833D01*
X380657Y385735D01*
X380660Y385636D01*
X380677Y385578D01*
X380685Y385518D01*
X380721Y385426D01*
X380749Y385331D01*
X380779Y385278D01*
X380802Y385222D01*
X380860Y385142D01*
X380910Y385057D01*
X380976Y384981D01*
X380988Y384965D01*
X380998Y384957D01*
X381016Y384936D01*
X390145Y375808D01*
X390145Y363633D01*
X390157Y363535D01*
X390160Y363436D01*
X390177Y363378D01*
X390185Y363318D01*
X390221Y363226D01*
X390249Y363131D01*
X390279Y363078D01*
X390302Y363022D01*
X390360Y362942D01*
X390410Y362857D01*
X390476Y362781D01*
X390488Y362765D01*
X390498Y362757D01*
X390516Y362736D01*
X400836Y352416D01*
X402845Y350408D01*
X402845Y340592D01*
X401496Y339244D01*
X401436Y339166D01*
X401368Y339094D01*
X401339Y339041D01*
X401302Y338993D01*
X401262Y338902D01*
X401214Y338815D01*
X401199Y338757D01*
X401175Y338701D01*
X401160Y338603D01*
X401135Y338507D01*
X401129Y338407D01*
X401125Y338387D01*
X401127Y338375D01*
X401125Y338347D01*
X401125Y331168D01*
X400232Y330275D01*
X389468Y330275D01*
X388247Y331496D01*
X388153Y331569D01*
X388064Y331648D01*
X388028Y331666D01*
X387996Y331691D01*
X387887Y331739D01*
X387781Y331793D01*
X387742Y331801D01*
X387704Y331817D01*
X387587Y331836D01*
X387471Y331862D01*
X387430Y331861D01*
X387390Y331867D01*
X387272Y331856D01*
X387153Y331853D01*
X387114Y331841D01*
X387074Y331838D01*
X386962Y331797D01*
X386847Y331764D01*
X386812Y331744D01*
X386774Y331730D01*
X386676Y331663D01*
X386573Y331603D01*
X386528Y331563D01*
X386511Y331551D01*
X386498Y331536D01*
X386452Y331496D01*
X385232Y330275D01*
X374468Y330275D01*
G37*
%LPD*%
%LPC*%
G36*
X463368Y127075D02*
X463368Y127075D01*
X462475Y127968D01*
X462475Y134069D01*
X462463Y134167D01*
X462460Y134266D01*
X462443Y134324D01*
X462435Y134385D01*
X462399Y134477D01*
X462371Y134572D01*
X462341Y134624D01*
X462318Y134680D01*
X462260Y134760D01*
X462210Y134846D01*
X462144Y134921D01*
X462132Y134938D01*
X462122Y134945D01*
X462104Y134967D01*
X459993Y137077D01*
X459993Y154276D01*
X459981Y154374D01*
X459978Y154473D01*
X459961Y154532D01*
X459953Y154592D01*
X459917Y154684D01*
X459889Y154779D01*
X459859Y154831D01*
X459836Y154887D01*
X459778Y154967D01*
X459728Y155053D01*
X459662Y155128D01*
X459650Y155145D01*
X459640Y155152D01*
X459622Y155174D01*
X459051Y155744D01*
X458243Y157694D01*
X458243Y159806D01*
X459051Y161756D01*
X460544Y163249D01*
X462494Y164057D01*
X464606Y164057D01*
X466556Y163249D01*
X468049Y161756D01*
X468857Y159806D01*
X468857Y157694D01*
X468049Y155744D01*
X467478Y155174D01*
X467418Y155095D01*
X467350Y155023D01*
X467321Y154970D01*
X467284Y154922D01*
X467244Y154831D01*
X467196Y154745D01*
X467181Y154686D01*
X467157Y154630D01*
X467142Y154533D01*
X467117Y154437D01*
X467111Y154337D01*
X467107Y154316D01*
X467109Y154304D01*
X467107Y154276D01*
X467107Y140894D01*
X467122Y140776D01*
X467129Y140657D01*
X467142Y140619D01*
X467147Y140578D01*
X467190Y140468D01*
X467227Y140355D01*
X467249Y140320D01*
X467264Y140283D01*
X467333Y140187D01*
X467397Y140086D01*
X467427Y140058D01*
X467450Y140025D01*
X467542Y139949D01*
X467629Y139868D01*
X467664Y139848D01*
X467695Y139823D01*
X467803Y139772D01*
X467907Y139714D01*
X467947Y139704D01*
X467983Y139687D01*
X468100Y139665D01*
X468215Y139635D01*
X468275Y139631D01*
X468295Y139627D01*
X468316Y139629D01*
X468376Y139625D01*
X474132Y139625D01*
X475352Y138404D01*
X475447Y138331D01*
X475536Y138252D01*
X475572Y138234D01*
X475604Y138209D01*
X475713Y138162D01*
X475819Y138107D01*
X475858Y138099D01*
X475896Y138083D01*
X476013Y138064D01*
X476129Y138038D01*
X476170Y138039D01*
X476210Y138033D01*
X476328Y138044D01*
X476447Y138047D01*
X476486Y138059D01*
X476526Y138062D01*
X476639Y138103D01*
X476753Y138136D01*
X476787Y138156D01*
X476826Y138170D01*
X476924Y138237D01*
X477027Y138297D01*
X477072Y138337D01*
X477089Y138349D01*
X477102Y138364D01*
X477147Y138404D01*
X478368Y139625D01*
X481686Y139625D01*
X481804Y139640D01*
X481923Y139647D01*
X481961Y139660D01*
X482002Y139665D01*
X482112Y139708D01*
X482225Y139745D01*
X482260Y139767D01*
X482297Y139782D01*
X482393Y139851D01*
X482494Y139915D01*
X482522Y139945D01*
X482555Y139968D01*
X482631Y140060D01*
X482712Y140147D01*
X482732Y140182D01*
X482757Y140213D01*
X482808Y140321D01*
X482866Y140425D01*
X482876Y140465D01*
X482893Y140501D01*
X482915Y140618D01*
X482945Y140733D01*
X482949Y140793D01*
X482953Y140813D01*
X482953Y140816D01*
X482953Y140817D01*
X482952Y140835D01*
X482955Y140894D01*
X482955Y199506D01*
X482940Y199624D01*
X482933Y199743D01*
X482920Y199781D01*
X482915Y199822D01*
X482872Y199932D01*
X482835Y200045D01*
X482813Y200080D01*
X482798Y200117D01*
X482729Y200213D01*
X482665Y200314D01*
X482635Y200342D01*
X482612Y200375D01*
X482520Y200451D01*
X482433Y200532D01*
X482398Y200552D01*
X482367Y200577D01*
X482259Y200628D01*
X482155Y200686D01*
X482115Y200696D01*
X482079Y200713D01*
X481962Y200735D01*
X481847Y200765D01*
X481787Y200769D01*
X481767Y200773D01*
X481746Y200771D01*
X481686Y200775D01*
X480618Y200775D01*
X479725Y201668D01*
X479725Y217432D01*
X480618Y218325D01*
X490882Y218325D01*
X491775Y217432D01*
X491775Y201668D01*
X490882Y200775D01*
X489814Y200775D01*
X489696Y200760D01*
X489577Y200753D01*
X489539Y200740D01*
X489498Y200735D01*
X489388Y200692D01*
X489275Y200655D01*
X489240Y200633D01*
X489203Y200618D01*
X489107Y200549D01*
X489006Y200485D01*
X488978Y200455D01*
X488945Y200432D01*
X488869Y200340D01*
X488788Y200253D01*
X488768Y200218D01*
X488743Y200187D01*
X488692Y200079D01*
X488634Y199975D01*
X488624Y199935D01*
X488607Y199899D01*
X488585Y199782D01*
X488555Y199667D01*
X488551Y199607D01*
X488547Y199587D01*
X488549Y199566D01*
X488545Y199506D01*
X488545Y140737D01*
X488557Y140639D01*
X488560Y140540D01*
X488577Y140482D01*
X488585Y140422D01*
X488621Y140330D01*
X488649Y140235D01*
X488679Y140182D01*
X488702Y140126D01*
X488760Y140046D01*
X488810Y139961D01*
X488876Y139885D01*
X488888Y139869D01*
X488898Y139861D01*
X488916Y139840D01*
X490025Y138732D01*
X490025Y127968D01*
X489132Y127075D01*
X478368Y127075D01*
X477147Y128296D01*
X477053Y128369D01*
X476964Y128448D01*
X476928Y128466D01*
X476896Y128491D01*
X476787Y128539D01*
X476681Y128593D01*
X476642Y128601D01*
X476604Y128617D01*
X476487Y128636D01*
X476371Y128662D01*
X476330Y128661D01*
X476290Y128667D01*
X476172Y128656D01*
X476053Y128653D01*
X476014Y128641D01*
X475974Y128638D01*
X475862Y128597D01*
X475747Y128564D01*
X475712Y128544D01*
X475674Y128530D01*
X475576Y128463D01*
X475473Y128403D01*
X475428Y128363D01*
X475411Y128351D01*
X475398Y128336D01*
X475352Y128296D01*
X474132Y127075D01*
X463368Y127075D01*
G37*
%LPD*%
%LPC*%
G36*
X85811Y124205D02*
X85811Y124205D01*
X82450Y125597D01*
X79877Y128170D01*
X78485Y131531D01*
X78485Y135169D01*
X79877Y138530D01*
X82450Y141103D01*
X85811Y142495D01*
X104689Y142495D01*
X108050Y141103D01*
X110623Y138530D01*
X112015Y135169D01*
X112015Y131531D01*
X110623Y128170D01*
X108050Y125597D01*
X104689Y124205D01*
X85811Y124205D01*
G37*
%LPD*%
%LPC*%
G36*
X85811Y213105D02*
X85811Y213105D01*
X82450Y214497D01*
X79877Y217070D01*
X78485Y220431D01*
X78485Y224069D01*
X79877Y227430D01*
X82450Y230003D01*
X85811Y231395D01*
X104689Y231395D01*
X108050Y230003D01*
X110623Y227430D01*
X112015Y224069D01*
X112015Y220431D01*
X110623Y217070D01*
X108050Y214497D01*
X104689Y213105D01*
X85811Y213105D01*
G37*
%LPD*%
%LPC*%
G36*
X309331Y434085D02*
X309331Y434085D01*
X305970Y435477D01*
X303397Y438050D01*
X302005Y441411D01*
X302005Y460289D01*
X303397Y463650D01*
X305970Y466223D01*
X309331Y467615D01*
X312969Y467615D01*
X316330Y466223D01*
X318903Y463650D01*
X320295Y460289D01*
X320295Y441411D01*
X318903Y438050D01*
X316330Y435477D01*
X312969Y434085D01*
X309331Y434085D01*
G37*
%LPD*%
%LPC*%
G36*
X195031Y434085D02*
X195031Y434085D01*
X191670Y435477D01*
X189097Y438050D01*
X187705Y441411D01*
X187705Y460289D01*
X189097Y463650D01*
X191670Y466223D01*
X195031Y467615D01*
X198669Y467615D01*
X202030Y466223D01*
X204603Y463650D01*
X205995Y460289D01*
X205995Y441411D01*
X204603Y438050D01*
X202030Y435477D01*
X198669Y434085D01*
X195031Y434085D01*
G37*
%LPD*%
G36*
X122038Y298466D02*
X122038Y298466D01*
X122157Y298473D01*
X122195Y298486D01*
X122235Y298491D01*
X122346Y298535D01*
X122459Y298571D01*
X122494Y298593D01*
X122531Y298608D01*
X122627Y298678D01*
X122728Y298741D01*
X122756Y298771D01*
X122789Y298795D01*
X122864Y298886D01*
X122946Y298973D01*
X122966Y299008D01*
X122991Y299040D01*
X123042Y299147D01*
X123100Y299252D01*
X123110Y299291D01*
X123127Y299327D01*
X123149Y299444D01*
X123179Y299559D01*
X123183Y299620D01*
X123187Y299640D01*
X123185Y299660D01*
X123189Y299720D01*
X123189Y308611D01*
X129070Y308611D01*
X130649Y308361D01*
X132170Y307866D01*
X133595Y307140D01*
X133874Y306938D01*
X133909Y306919D01*
X133939Y306893D01*
X134048Y306842D01*
X134153Y306785D01*
X134191Y306775D01*
X134227Y306758D01*
X134345Y306735D01*
X134461Y306705D01*
X134500Y306705D01*
X134540Y306698D01*
X134659Y306705D01*
X134779Y306705D01*
X134817Y306715D01*
X134857Y306718D01*
X134971Y306755D01*
X135087Y306784D01*
X135122Y306803D01*
X135159Y306816D01*
X135261Y306880D01*
X135365Y306937D01*
X135394Y306965D01*
X135428Y306986D01*
X135510Y307073D01*
X135597Y307155D01*
X135619Y307188D01*
X135646Y307218D01*
X135704Y307322D01*
X135768Y307423D01*
X135780Y307461D01*
X135800Y307496D01*
X135829Y307612D01*
X135867Y307726D01*
X135869Y307765D01*
X135879Y307804D01*
X135889Y307965D01*
X135889Y315472D01*
X135872Y315610D01*
X135859Y315749D01*
X135852Y315768D01*
X135849Y315788D01*
X135798Y315917D01*
X135751Y316048D01*
X135740Y316065D01*
X135732Y316084D01*
X135651Y316196D01*
X135573Y316311D01*
X135557Y316325D01*
X135546Y316341D01*
X135439Y316430D01*
X135334Y316522D01*
X135316Y316531D01*
X135301Y316544D01*
X135175Y316603D01*
X135051Y316666D01*
X135031Y316671D01*
X135013Y316679D01*
X134877Y316705D01*
X134741Y316736D01*
X134720Y316735D01*
X134701Y316739D01*
X134562Y316730D01*
X134423Y316726D01*
X134403Y316721D01*
X134383Y316719D01*
X134251Y316677D01*
X134117Y316638D01*
X134100Y316628D01*
X134081Y316621D01*
X133963Y316547D01*
X133843Y316476D01*
X133822Y316458D01*
X133812Y316451D01*
X133798Y316436D01*
X133722Y316370D01*
X133450Y316097D01*
X130089Y314705D01*
X111211Y314705D01*
X107850Y316097D01*
X107578Y316370D01*
X107468Y316455D01*
X107361Y316544D01*
X107342Y316552D01*
X107326Y316565D01*
X107199Y316620D01*
X107073Y316679D01*
X107053Y316683D01*
X107034Y316691D01*
X106897Y316713D01*
X106760Y316739D01*
X106740Y316738D01*
X106720Y316741D01*
X106581Y316728D01*
X106443Y316719D01*
X106424Y316713D01*
X106404Y316711D01*
X106272Y316664D01*
X106141Y316621D01*
X106124Y316611D01*
X106104Y316604D01*
X105989Y316526D01*
X105872Y316451D01*
X105858Y316436D01*
X105841Y316425D01*
X105749Y316321D01*
X105654Y316220D01*
X105644Y316202D01*
X105631Y316187D01*
X105567Y316063D01*
X105500Y315941D01*
X105495Y315922D01*
X105486Y315903D01*
X105456Y315767D01*
X105421Y315633D01*
X105419Y315605D01*
X105416Y315593D01*
X105417Y315573D01*
X105411Y315472D01*
X105411Y307965D01*
X105416Y307925D01*
X105413Y307886D01*
X105436Y307768D01*
X105451Y307649D01*
X105465Y307612D01*
X105473Y307573D01*
X105524Y307465D01*
X105568Y307353D01*
X105591Y307321D01*
X105608Y307285D01*
X105684Y307193D01*
X105754Y307096D01*
X105785Y307071D01*
X105810Y307040D01*
X105907Y306970D01*
X105999Y306893D01*
X106035Y306876D01*
X106068Y306853D01*
X106179Y306809D01*
X106287Y306758D01*
X106326Y306750D01*
X106363Y306736D01*
X106482Y306720D01*
X106599Y306698D01*
X106639Y306700D01*
X106679Y306695D01*
X106798Y306710D01*
X106917Y306718D01*
X106955Y306730D01*
X106994Y306735D01*
X107106Y306779D01*
X107219Y306816D01*
X107253Y306837D01*
X107290Y306852D01*
X107426Y306938D01*
X107705Y307140D01*
X109130Y307866D01*
X110651Y308361D01*
X112230Y308611D01*
X118111Y308611D01*
X118111Y299720D01*
X118126Y299602D01*
X118133Y299483D01*
X118146Y299445D01*
X118151Y299405D01*
X118194Y299294D01*
X118231Y299181D01*
X118253Y299147D01*
X118268Y299109D01*
X118338Y299013D01*
X118401Y298912D01*
X118431Y298884D01*
X118454Y298852D01*
X118546Y298776D01*
X118633Y298694D01*
X118668Y298675D01*
X118699Y298649D01*
X118807Y298598D01*
X118911Y298541D01*
X118951Y298530D01*
X118987Y298513D01*
X119104Y298491D01*
X119219Y298461D01*
X119280Y298457D01*
X119300Y298453D01*
X119320Y298455D01*
X119380Y298451D01*
X121920Y298451D01*
X122038Y298466D01*
G37*
%LPC*%
G36*
X173197Y510935D02*
X173197Y510935D01*
X169865Y512315D01*
X167315Y514865D01*
X165935Y518197D01*
X165935Y521803D01*
X167315Y525135D01*
X169865Y527685D01*
X173197Y529065D01*
X176803Y529065D01*
X180135Y527685D01*
X182685Y525135D01*
X184065Y521803D01*
X184065Y518197D01*
X182685Y514865D01*
X180135Y512315D01*
X176803Y510935D01*
X173197Y510935D01*
G37*
%LPD*%
%LPC*%
G36*
X313197Y510935D02*
X313197Y510935D01*
X309865Y512315D01*
X307315Y514865D01*
X305935Y518197D01*
X305935Y521803D01*
X307315Y525135D01*
X309865Y527685D01*
X313197Y529065D01*
X316803Y529065D01*
X320135Y527685D01*
X322685Y525135D01*
X324065Y521803D01*
X324065Y518197D01*
X322685Y514865D01*
X320135Y512315D01*
X316803Y510935D01*
X313197Y510935D01*
G37*
%LPD*%
%LPC*%
G36*
X247715Y125635D02*
X247715Y125635D01*
X244880Y126810D01*
X242710Y128980D01*
X241535Y131815D01*
X241535Y134885D01*
X242710Y137720D01*
X244880Y139890D01*
X247715Y141065D01*
X250785Y141065D01*
X253620Y139890D01*
X255790Y137720D01*
X256965Y134885D01*
X256965Y131815D01*
X255790Y128980D01*
X253620Y126810D01*
X250785Y125635D01*
X247715Y125635D01*
G37*
%LPD*%
%LPC*%
G36*
X284694Y356643D02*
X284694Y356643D01*
X282744Y357451D01*
X281251Y358944D01*
X280443Y360894D01*
X280443Y363006D01*
X281251Y364956D01*
X282744Y366449D01*
X284694Y367257D01*
X286806Y367257D01*
X288756Y366449D01*
X290249Y364956D01*
X291057Y363006D01*
X291057Y360894D01*
X290249Y358944D01*
X288756Y357451D01*
X286806Y356643D01*
X284694Y356643D01*
G37*
%LPD*%
%LPC*%
G36*
X267499Y522499D02*
X267499Y522499D01*
X267499Y529787D01*
X268870Y529342D01*
X270283Y528622D01*
X271567Y527689D01*
X272689Y526567D01*
X273622Y525283D01*
X274342Y523870D01*
X274787Y522499D01*
X267499Y522499D01*
G37*
%LPD*%
%LPC*%
G36*
X127499Y522499D02*
X127499Y522499D01*
X127499Y529787D01*
X128870Y529342D01*
X130283Y528622D01*
X131567Y527689D01*
X132689Y526567D01*
X133622Y525283D01*
X134342Y523870D01*
X134787Y522499D01*
X127499Y522499D01*
G37*
%LPD*%
%LPC*%
G36*
X115213Y522499D02*
X115213Y522499D01*
X115658Y523870D01*
X116378Y525283D01*
X117311Y526567D01*
X118433Y527689D01*
X119717Y528622D01*
X121130Y529342D01*
X122501Y529787D01*
X122501Y522499D01*
X115213Y522499D01*
G37*
%LPD*%
%LPC*%
G36*
X127499Y517501D02*
X127499Y517501D01*
X134787Y517501D01*
X134342Y516130D01*
X133622Y514717D01*
X132689Y513433D01*
X131567Y512311D01*
X130283Y511378D01*
X128870Y510658D01*
X127499Y510213D01*
X127499Y517501D01*
G37*
%LPD*%
%LPC*%
G36*
X267499Y517501D02*
X267499Y517501D01*
X274787Y517501D01*
X274342Y516130D01*
X273622Y514717D01*
X272689Y513433D01*
X271567Y512311D01*
X270283Y511378D01*
X268870Y510658D01*
X267499Y510213D01*
X267499Y517501D01*
G37*
%LPD*%
%LPC*%
G36*
X255213Y522499D02*
X255213Y522499D01*
X255658Y523870D01*
X256378Y525283D01*
X257311Y526567D01*
X258433Y527689D01*
X259717Y528622D01*
X261130Y529342D01*
X262501Y529787D01*
X262501Y522499D01*
X255213Y522499D01*
G37*
%LPD*%
%LPC*%
G36*
X261130Y510658D02*
X261130Y510658D01*
X259717Y511378D01*
X258433Y512311D01*
X257311Y513433D01*
X256378Y514717D01*
X255658Y516130D01*
X255213Y517501D01*
X262501Y517501D01*
X262501Y510213D01*
X261130Y510658D01*
G37*
%LPD*%
%LPC*%
G36*
X121130Y510658D02*
X121130Y510658D01*
X119717Y511378D01*
X118433Y512311D01*
X117311Y513433D01*
X116378Y514717D01*
X115658Y516130D01*
X115213Y517501D01*
X122501Y517501D01*
X122501Y510213D01*
X121130Y510658D01*
G37*
%LPD*%
%LPC*%
G36*
X211799Y360999D02*
X211799Y360999D01*
X211799Y365791D01*
X217134Y365791D01*
X217781Y365618D01*
X218360Y365283D01*
X218833Y364810D01*
X219168Y364231D01*
X219341Y363584D01*
X219341Y360999D01*
X211799Y360999D01*
G37*
%LPD*%
%LPC*%
G36*
X176899Y300699D02*
X176899Y300699D01*
X176899Y308241D01*
X179484Y308241D01*
X180131Y308068D01*
X180710Y307733D01*
X181183Y307260D01*
X181518Y306681D01*
X181691Y306034D01*
X181691Y300699D01*
X176899Y300699D01*
G37*
%LPD*%
%LPC*%
G36*
X389599Y297499D02*
X389599Y297499D01*
X389599Y302291D01*
X394934Y302291D01*
X395581Y302118D01*
X396160Y301783D01*
X396633Y301310D01*
X396968Y300731D01*
X397141Y300084D01*
X397141Y297499D01*
X389599Y297499D01*
G37*
%LPD*%
%LPC*%
G36*
X313399Y272099D02*
X313399Y272099D01*
X313399Y276891D01*
X318734Y276891D01*
X319381Y276718D01*
X319960Y276383D01*
X320433Y275910D01*
X320768Y275331D01*
X320941Y274684D01*
X320941Y272099D01*
X313399Y272099D01*
G37*
%LPD*%
%LPC*%
G36*
X399099Y414999D02*
X399099Y414999D01*
X399099Y422541D01*
X401684Y422541D01*
X402331Y422368D01*
X402910Y422033D01*
X403383Y421560D01*
X403718Y420981D01*
X403891Y420334D01*
X403891Y414999D01*
X399099Y414999D01*
G37*
%LPD*%
%LPC*%
G36*
X399099Y402959D02*
X399099Y402959D01*
X399099Y410501D01*
X403891Y410501D01*
X403891Y405166D01*
X403718Y404519D01*
X403383Y403940D01*
X402910Y403467D01*
X402331Y403132D01*
X401684Y402959D01*
X399099Y402959D01*
G37*
%LPD*%
%LPC*%
G36*
X199759Y360999D02*
X199759Y360999D01*
X199759Y363584D01*
X199932Y364231D01*
X200267Y364810D01*
X200740Y365283D01*
X201319Y365618D01*
X201966Y365791D01*
X207301Y365791D01*
X207301Y360999D01*
X199759Y360999D01*
G37*
%LPD*%
%LPC*%
G36*
X377559Y297499D02*
X377559Y297499D01*
X377559Y300084D01*
X377732Y300731D01*
X378067Y301310D01*
X378540Y301783D01*
X379119Y302118D01*
X379766Y302291D01*
X385101Y302291D01*
X385101Y297499D01*
X377559Y297499D01*
G37*
%LPD*%
%LPC*%
G36*
X176899Y288659D02*
X176899Y288659D01*
X176899Y296201D01*
X181691Y296201D01*
X181691Y290866D01*
X181518Y290219D01*
X181183Y289640D01*
X180710Y289167D01*
X180131Y288832D01*
X179484Y288659D01*
X176899Y288659D01*
G37*
%LPD*%
%LPC*%
G36*
X301359Y272099D02*
X301359Y272099D01*
X301359Y274684D01*
X301532Y275331D01*
X301867Y275910D01*
X302340Y276383D01*
X302919Y276718D01*
X303566Y276891D01*
X308901Y276891D01*
X308901Y272099D01*
X301359Y272099D01*
G37*
%LPD*%
%LPC*%
G36*
X389809Y414999D02*
X389809Y414999D01*
X389809Y420334D01*
X389982Y420981D01*
X390317Y421560D01*
X390790Y422033D01*
X391369Y422368D01*
X392016Y422541D01*
X394601Y422541D01*
X394601Y414999D01*
X389809Y414999D01*
G37*
%LPD*%
%LPC*%
G36*
X313399Y320009D02*
X313399Y320009D01*
X313399Y324801D01*
X320941Y324801D01*
X320941Y322216D01*
X320768Y321569D01*
X320433Y320990D01*
X319960Y320517D01*
X319381Y320182D01*
X318734Y320009D01*
X313399Y320009D01*
G37*
%LPD*%
%LPC*%
G36*
X313399Y262809D02*
X313399Y262809D01*
X313399Y267601D01*
X320941Y267601D01*
X320941Y265016D01*
X320768Y264369D01*
X320433Y263790D01*
X319960Y263317D01*
X319381Y262982D01*
X318734Y262809D01*
X313399Y262809D01*
G37*
%LPD*%
%LPC*%
G36*
X211799Y351709D02*
X211799Y351709D01*
X211799Y356501D01*
X219341Y356501D01*
X219341Y353916D01*
X219168Y353269D01*
X218833Y352690D01*
X218360Y352217D01*
X217781Y351882D01*
X217134Y351709D01*
X211799Y351709D01*
G37*
%LPD*%
%LPC*%
G36*
X167609Y300699D02*
X167609Y300699D01*
X167609Y306034D01*
X167782Y306681D01*
X168117Y307260D01*
X168590Y307733D01*
X169169Y308068D01*
X169816Y308241D01*
X172401Y308241D01*
X172401Y300699D01*
X167609Y300699D01*
G37*
%LPD*%
%LPC*%
G36*
X389599Y288209D02*
X389599Y288209D01*
X389599Y293001D01*
X397141Y293001D01*
X397141Y290416D01*
X396968Y289769D01*
X396633Y289190D01*
X396160Y288717D01*
X395581Y288382D01*
X394934Y288209D01*
X389599Y288209D01*
G37*
%LPD*%
%LPC*%
G36*
X262599Y281909D02*
X262599Y281909D01*
X262599Y286701D01*
X270141Y286701D01*
X270141Y284116D01*
X269968Y283469D01*
X269633Y282890D01*
X269160Y282417D01*
X268581Y282082D01*
X267934Y281909D01*
X262599Y281909D01*
G37*
%LPD*%
%LPC*%
G36*
X392016Y402959D02*
X392016Y402959D01*
X391369Y403132D01*
X390790Y403467D01*
X390317Y403940D01*
X389982Y404519D01*
X389809Y405166D01*
X389809Y410501D01*
X394601Y410501D01*
X394601Y402959D01*
X392016Y402959D01*
G37*
%LPD*%
%LPC*%
G36*
X303566Y262809D02*
X303566Y262809D01*
X302919Y262982D01*
X302340Y263317D01*
X301867Y263790D01*
X301532Y264369D01*
X301359Y265016D01*
X301359Y267601D01*
X308901Y267601D01*
X308901Y262809D01*
X303566Y262809D01*
G37*
%LPD*%
%LPC*%
G36*
X303566Y320009D02*
X303566Y320009D01*
X302919Y320182D01*
X302340Y320517D01*
X301867Y320990D01*
X301532Y321569D01*
X301359Y322216D01*
X301359Y324801D01*
X308901Y324801D01*
X308901Y320009D01*
X303566Y320009D01*
G37*
%LPD*%
%LPC*%
G36*
X252766Y281909D02*
X252766Y281909D01*
X252119Y282082D01*
X251540Y282417D01*
X251067Y282890D01*
X250732Y283469D01*
X250559Y284116D01*
X250559Y286701D01*
X258101Y286701D01*
X258101Y281909D01*
X252766Y281909D01*
G37*
%LPD*%
%LPC*%
G36*
X201966Y351709D02*
X201966Y351709D01*
X201319Y351882D01*
X200740Y352217D01*
X200267Y352690D01*
X199932Y353269D01*
X199759Y353916D01*
X199759Y356501D01*
X207301Y356501D01*
X207301Y351709D01*
X201966Y351709D01*
G37*
%LPD*%
%LPC*%
G36*
X169816Y288659D02*
X169816Y288659D01*
X169169Y288832D01*
X168590Y289167D01*
X168117Y289640D01*
X167782Y290219D01*
X167609Y290866D01*
X167609Y296201D01*
X172401Y296201D01*
X172401Y288659D01*
X169816Y288659D01*
G37*
%LPD*%
%LPC*%
G36*
X171674Y109774D02*
X171674Y109774D01*
X171674Y116489D01*
X172397Y116345D01*
X173986Y115687D01*
X175415Y114732D01*
X176632Y113515D01*
X177587Y112086D01*
X178245Y110497D01*
X178389Y109774D01*
X171674Y109774D01*
G37*
%LPD*%
%LPC*%
G36*
X171674Y106126D02*
X171674Y106126D01*
X178389Y106126D01*
X178245Y105403D01*
X177587Y103814D01*
X176632Y102385D01*
X175415Y101168D01*
X173986Y100213D01*
X172397Y99555D01*
X171674Y99411D01*
X171674Y106126D01*
G37*
%LPD*%
D10*
X249250Y107950D03*
D11*
X249250Y133350D03*
X249250Y158750D03*
X249250Y184150D03*
X169850Y184150D03*
X169850Y158750D03*
X169850Y133350D03*
X169850Y107950D03*
D12*
X323850Y100330D02*
X323850Y115570D01*
X349250Y115570D02*
X349250Y100330D01*
X323850Y189230D02*
X323850Y204470D01*
X349250Y204470D02*
X349250Y189230D01*
X196850Y443230D02*
X196850Y458470D01*
X222250Y458470D02*
X222250Y443230D01*
X311150Y443230D02*
X311150Y458470D01*
X336550Y458470D02*
X336550Y443230D01*
X128270Y298450D02*
X113030Y298450D01*
X113030Y323850D02*
X128270Y323850D01*
X128270Y349250D02*
X113030Y349250D01*
X113030Y374650D02*
X128270Y374650D01*
X128270Y400050D02*
X113030Y400050D01*
X113030Y425450D02*
X128270Y425450D01*
D13*
X405250Y133350D03*
X420250Y133350D03*
X468750Y133350D03*
X483750Y133350D03*
X379850Y336550D03*
X394850Y336550D03*
D12*
X102870Y196850D02*
X87630Y196850D01*
X87630Y222250D02*
X102870Y222250D01*
X102870Y107950D02*
X87630Y107950D01*
X87630Y133350D02*
X102870Y133350D01*
D14*
X403250Y209550D03*
X422250Y209550D03*
X485750Y209550D03*
X466750Y209550D03*
D15*
X387350Y276250D03*
X387350Y295250D03*
X260350Y288950D03*
X260350Y307950D03*
D14*
X193650Y298450D03*
X174650Y298450D03*
X377850Y412750D03*
X396850Y412750D03*
D15*
X311150Y327050D03*
X311150Y346050D03*
X311150Y250850D03*
X311150Y269850D03*
X209550Y339750D03*
X209550Y358750D03*
D16*
X125000Y520000D03*
X150000Y570000D03*
X175000Y520000D03*
X265000Y520000D03*
X290000Y570000D03*
X315000Y520000D03*
D17*
X396850Y412750D02*
X399800Y409800D01*
X412750Y396850D01*
X412750Y311150D01*
X406400Y304800D01*
X396850Y295250D01*
X387350Y295250D01*
X352450Y269850D02*
X311150Y269850D01*
X352450Y269850D02*
X361950Y260350D01*
X400050Y260350D01*
X412750Y273050D01*
X412750Y298450D01*
X406400Y304800D01*
X174650Y298450D02*
X174650Y339750D01*
X196850Y361950D01*
X209550Y361950D01*
X209550Y358750D01*
X212750Y358750D01*
X222250Y349250D01*
X222250Y260350D01*
X234950Y247650D01*
X307950Y269850D02*
X311150Y269850D01*
X285750Y247650D02*
X234950Y247650D01*
X285750Y247650D02*
X307950Y269850D01*
D18*
X171450Y247650D03*
D17*
X260350Y288950D02*
X285750Y263550D01*
X285750Y247650D01*
X311150Y269850D02*
X311150Y327050D01*
X177800Y266700D02*
X171450Y247650D01*
X177800Y266700D02*
X177800Y285750D01*
X174650Y298450D01*
D19*
X265000Y520000D02*
X265000Y575000D01*
X399800Y520200D02*
X399800Y409800D01*
X265000Y575000D02*
X280000Y590000D01*
X330000Y590000D01*
X399800Y520200D01*
D17*
X273050Y184150D02*
X249250Y184150D01*
X273050Y184150D02*
X285750Y171450D01*
X304407Y171450D01*
X306968Y174010D01*
X339110Y174010D02*
X349250Y184150D01*
X349250Y196850D01*
X339110Y174010D02*
X306968Y174010D01*
D18*
X285750Y361950D03*
D17*
X405250Y133350D02*
X392550Y120650D01*
X361950Y120650D01*
X349250Y107950D01*
D18*
X463550Y158750D03*
D17*
X463550Y138550D02*
X468750Y133350D01*
X463550Y138550D02*
X463550Y158750D01*
D18*
X374650Y450850D03*
D17*
X361950Y354450D02*
X379850Y336550D01*
X361950Y438150D02*
X374650Y450850D01*
X361950Y438150D02*
X361950Y354450D01*
D20*
X158750Y400050D02*
X120650Y400050D01*
X209550Y147650D02*
X249250Y107950D01*
X209550Y147650D02*
X209550Y158750D01*
X196850Y171450D01*
X158750Y171450D01*
X158750Y69850D01*
X146050Y57150D01*
X120650Y57150D02*
X69850Y107950D01*
X69850Y247650D01*
X82550Y260350D01*
X95250Y260350D01*
X102616Y391664D02*
X107950Y396998D01*
X102616Y267716D02*
X95250Y260350D01*
X102616Y267716D02*
X102616Y391664D01*
X120650Y57150D02*
X146050Y57150D01*
X117598Y396998D02*
X120650Y400050D01*
X117598Y396998D02*
X107950Y396998D01*
D21*
X406400Y222250D02*
X419100Y209550D01*
X422250Y209550D01*
D18*
X406400Y222250D03*
D20*
X240000Y380000D02*
X178800Y380000D01*
X240000Y380000D02*
X250000Y370000D01*
X250000Y318300D02*
X260350Y307950D01*
X178800Y380000D02*
X158750Y400050D01*
X250000Y370000D02*
X250000Y318300D01*
X146050Y425450D02*
X120650Y425450D01*
X146050Y425450D02*
X171450Y400050D01*
X285750Y400050D01*
X306350Y366750D02*
X311150Y361950D01*
X311150Y346050D01*
X169850Y133350D02*
X195250Y107950D01*
X196850Y107950D01*
X196850Y82550D01*
X158750Y44450D01*
X95250Y44450D01*
X44450Y95250D01*
X44450Y425450D01*
X57150Y438150D01*
X107950Y438150D02*
X120650Y425450D01*
X107950Y438150D02*
X57150Y438150D01*
X450850Y193650D02*
X466750Y209550D01*
X450850Y193650D02*
X450850Y107950D01*
X400050Y57150D01*
X233350Y82550D02*
X182550Y133350D01*
X169850Y133350D01*
X273050Y82550D02*
X298450Y57150D01*
X273050Y82550D02*
X233350Y82550D01*
X298450Y57150D02*
X400050Y57150D01*
X290000Y395800D02*
X285750Y400050D01*
X290000Y395800D02*
X290000Y380000D01*
X303250Y366750D01*
X306350Y366750D01*
X209550Y339750D02*
X209550Y260350D01*
X234950Y234950D01*
X361950Y234950D01*
X387350Y209550D01*
X387350Y146050D01*
X374650Y133350D01*
X336550Y133350D01*
X323850Y120650D01*
X323850Y107950D01*
X273050Y158750D02*
X249250Y158750D01*
X273050Y158750D02*
X285750Y146050D01*
X285750Y107950D01*
X303784Y89916D01*
X387350Y107950D02*
X412750Y107950D01*
X438150Y133350D01*
X438150Y234950D01*
X425450Y247650D01*
X349250Y247650D01*
X346050Y250850D02*
X311150Y250850D01*
X303784Y89916D02*
X369316Y89916D01*
X387350Y107950D01*
X349250Y247650D02*
X346050Y250850D01*
X118852Y239480D02*
X118852Y207752D01*
X107950Y196850D01*
X138684Y338164D02*
X127598Y349250D01*
X120650Y349250D01*
X138684Y259312D02*
X118852Y239480D01*
X138684Y259312D02*
X138684Y338164D01*
X107950Y196850D02*
X95250Y196850D01*
X193650Y250850D02*
X193650Y298450D01*
X193650Y250850D02*
X222250Y222250D01*
X311150Y222250D01*
X323850Y209550D01*
X323850Y196850D01*
X377850Y384150D02*
X377850Y412750D01*
X377850Y384150D02*
X387350Y374650D01*
X387350Y361950D01*
X400050Y349250D01*
X400050Y341750D01*
X394850Y336550D01*
X310000Y570000D02*
X290000Y570000D01*
X310000Y570000D02*
X340000Y540000D01*
X340000Y454300D01*
X336550Y450850D01*
X190000Y570000D02*
X150000Y570000D01*
X190000Y570000D02*
X222250Y537750D01*
X222250Y450850D01*
X95250Y107950D02*
X107950Y95250D01*
X107950Y82550D01*
X120650Y69850D01*
X133350Y69850D01*
X146050Y82550D01*
X146050Y171450D01*
X148750Y174150D02*
X158750Y184150D01*
X148750Y174150D02*
X146050Y171450D01*
X158750Y184150D02*
X169850Y184150D01*
X133350Y374650D02*
X120650Y374650D01*
X148750Y359250D02*
X148750Y174150D01*
X148750Y359250D02*
X133350Y374650D01*
X154874Y345374D02*
X154874Y199126D01*
X169850Y184150D01*
X154874Y345374D02*
X184150Y374650D01*
X222250Y374650D01*
X234950Y361950D01*
X234950Y311150D01*
X247650Y298450D01*
X273050Y298450D01*
X285750Y311150D01*
X285750Y323850D01*
X298450Y336550D01*
X327050Y336550D02*
X387350Y276250D01*
X327050Y336550D02*
X298450Y336550D01*
X403250Y209550D02*
X403250Y180950D01*
X425450Y158750D01*
X425450Y138550D01*
X420250Y133350D01*
X485750Y135350D02*
X485750Y209550D01*
X485750Y135350D02*
X483750Y133350D01*
M02*
